<svg width="633" height="616" viewBox="0 0 633 616" fill="none" xmlns="http://www.w3.org/2000/svg">
<path fill-rule="evenodd" clip-rule="evenodd" d="M632.997 319.395C630.403 372.462 609.841 431.101 557.68 452.755C530.1 464.205 511.61 424.52 495.546 449.719C467.155 494.258 482.601 559.208 448.697 599.699C416.557 638.083 360.523 592.513 310.511 592.946C261.664 593.368 147.183 618.816 113.599 583.322C80.1546 547.975 94.1368 536.643 62.8378 499.379C31.3225 461.857 27.0566 433.966 5.98485 389.709C-14.1857 347.345 22.8824 298.311 25.4615 251.439C28.018 204.978 -13.0505 144.572 21.2048 113.106C68.9305 69.2659 183.781 169.87 210.745 66.1031C212.383 59.801 230.145 0.000158762 287.626 0.000209037C320.34 0.000240232 327.676 46.7184 383.475 74.8346C439.275 102.951 441.659 38.4036 520.748 95.0865C590.969 145.414 580.695 152.442 569.13 202.515C554.093 267.625 631.217 252.601 632.997 319.395Z" fill="#2B3990"/>
</svg>
