<svg width="773" height="721" viewBox="0 0 773 721" fill="none" xmlns="http://www.w3.org/2000/svg">
<path fill-rule="evenodd" clip-rule="evenodd" d="M769.913 444.304C749.258 535.789 664.716 489.007 612.613 558.433C572.791 611.495 585.477 656.32 539.136 703.786C495.207 748.781 449.55 687.89 386.863 683.643C325.636 679.495 223.784 716.44 185.11 668.771C146.597 621.3 172.716 607.438 137.074 557.771C101.185 507.76 27.2796 493.845 5.11675 436.4C-16.0982 381.411 35.0224 323.551 42.7352 265.094C50.3802 207.151 4.71341 127.565 50.6312 91.436C109.388 45.2056 190.611 108.077 252.515 66.1637C304.799 30.7627 336.195 -11.2181 397.729 2.75269C487.097 23.0433 444.915 82.1171 507.128 72.9527C553.211 66.1643 589.332 62.5036 635.908 81.7876C674.557 97.7896 647.559 139.294 720.531 147.456C788.17 155.022 745.464 236.94 736.4 299.227C727.336 361.514 786.276 371.831 769.913 444.304Z" fill="#260981"/>
</svg>
