<svg width="622" height="607" viewBox="0 0 622 607" fill="none" xmlns="http://www.w3.org/2000/svg">
<path fill-rule="evenodd" clip-rule="evenodd" d="M620.508 407.21C612.628 455.152 550.862 418.201 503.319 428.033C478.18 433.231 490.662 498.672 473.019 517.343C441.837 550.344 376.6 542.056 341.418 570.748C308.068 597.945 260.287 612.178 217.995 604.442C176.687 596.887 140.417 565.251 117.813 529.846C95.3019 494.589 112.934 444.486 92.5455 407.957C72.0157 371.175 12.2904 362.535 1.66825 321.759C-8.49957 282.727 30.7362 247.337 40.5048 208.185C50.1878 169.376 25.299 111.728 59.3151 90.7123C102.842 63.821 124.354 114.224 169.687 90.5116C207.975 70.4835 223.063 -12.6236 263.818 1.63513C323.009 22.3439 303.102 42.5714 349.95 61.4293C396.798 80.2872 454.953 27.6269 482.595 47.6422C513.991 70.3759 473.128 133.351 502.209 155.655C531.291 177.958 554.912 185.417 555.406 219.038C555.9 252.659 545.067 261.037 528.333 298.86C511.6 336.684 629.824 350.533 620.508 407.21Z" fill="#F7D5D5"/>
</svg>
