<svg width="1444" height="895" viewBox="0 0 1444 895" fill="none" xmlns="http://www.w3.org/2000/svg">
<path d="M1030.75 2.06637e-09C1153 -0.000366772 1168.21 48.7988 1260.43 48.1592C1352.66 47.5196 1384.94 25.0529 1443.64 48.1591L1443.64 823.483C1378.05 800.395 1362.72 878.746 1275.89 882.122C1189.06 885.498 1159.47 852.861 1091.6 853.332C1023.73 853.803 1007.42 894.004 912.845 894.659C818.275 895.313 812.537 840.027 725.105 840.633C637.671 841.24 641.553 886.521 548.767 887.165C455.981 887.808 445.028 842.576 353.691 843.209C248.414 843.939 229.277 876.27 161.471 876.74C93.6664 877.211 19.763 853.78 0 845.662C0 845.662 0.485064 118.025 0.00018466 48.1587C144.369 69.3437 143.047 17.4688 222.888 14.8386C337.62 11.059 338.354 48.7221 419.507 48.1594C500.661 47.5965 495.851 8.18952 608.438 7.40863C721.026 6.62776 741.525 48.7072 820.523 48.1594C899.521 47.6114 908.505 0.000398614 1030.75 2.06637e-09Z" fill="white"/>
</svg>
