<svg width="426" height="518" viewBox="0 0 426 518" fill="none" xmlns="http://www.w3.org/2000/svg">
<path d="M44.0862 222.473L63.4494 125.948L51.9035 91.2937L71.5926 83.1271L210.484 25.5269L225.285 58.7646L315.327 144.491L234.194 180.046L151.772 214.546" fill="#F8F8FF"/>
<path d="M63.4494 125.948L65.7534 126.412L65.8761 125.8L65.6789 125.209L63.4494 125.948ZM51.9035 91.2937L51.0006 89.125L48.9838 89.9615L49.674 92.0332L51.9035 91.2937ZM71.5926 83.1271L70.6898 80.9583L70.6897 80.9584L71.5926 83.1271ZM210.484 25.5269L212.631 24.5744L211.699 22.4802L209.582 23.3582L210.484 25.5269ZM225.285 58.7646L223.138 59.7171L223.328 60.1424L223.665 60.4636L225.285 58.7646ZM315.327 144.491L316.273 146.642C316.993 146.326 317.506 145.672 317.642 144.898C317.778 144.125 317.517 143.334 316.947 142.792L315.327 144.491ZM234.194 180.046L235.104 182.212L235.122 182.205L235.14 182.197L234.194 180.046ZM44.0862 222.473L46.3903 222.936L65.7534 126.412L63.4494 125.948L61.1453 125.484L41.7821 222.009L44.0862 222.473ZM63.4494 125.948L65.6789 125.209L54.133 90.5542L51.9035 91.2937L49.674 92.0332L61.2199 126.687L63.4494 125.948ZM51.9035 91.2937L52.8064 93.4624L72.4955 85.2958L71.5926 83.1271L70.6897 80.9584L51.0006 89.125L51.9035 91.2937ZM71.5926 83.1271L72.4954 85.2958L211.387 27.6957L210.484 25.5269L209.582 23.3582L70.6898 80.9583L71.5926 83.1271ZM210.484 25.5269L208.338 26.4795L223.138 59.7171L225.285 58.7646L227.432 57.812L212.631 24.5744L210.484 25.5269ZM225.285 58.7646L223.665 60.4636L313.707 146.19L315.327 144.491L316.947 142.792L226.905 57.0655L225.285 58.7646ZM315.327 144.491L314.382 142.341L233.249 177.896L234.194 180.046L235.14 182.197L316.273 146.642L315.327 144.491ZM234.194 180.046L233.284 177.881L150.862 212.381L151.772 214.546L152.682 216.712L235.104 182.212L234.194 180.046Z" fill="#260981"/>
<path d="M120.371 104.32L206.349 189.164L185.844 197.757L98.8939 111.444L87.8925 78.4235L108.351 69.942L120.371 104.32Z" fill="#2B3990"/>
<path d="M157.941 89.0965L242.92 173.642L221.868 182.63L136.463 96.2202L125.462 63.2L145.918 54.7096L157.941 89.0965Z" fill="#2B3990"/>
<path d="M194.76 73.9371L277.336 158.643L258.356 166.914L173.282 81.0609L162.281 48.0406L182.74 39.5592L194.76 73.9371Z" fill="#2B3990"/>
<path d="M223.436 60.1071L311.378 143.866L290.482 152.831L207.912 66.5561L195.413 34.2492L209.274 28.3484L223.436 60.1071Z" fill="#2B3990"/>
<path d="M86.5677 118.296L173.99 202.703L150.814 212.446L65.8232 126.593L54.7258 92.5888L74.5407 84.3934L86.5677 118.296Z" fill="#2B3990"/>
<path d="M152.468 214.909L237.245 484.966L396.577 400.781C364.959 299.347 347.36 246.399 315.742 144.965L152.468 214.909Z" fill="#F8F8FF"/>
<path d="M152.468 214.909L151.54 212.751L149.59 213.586L150.226 215.61L152.468 214.909ZM237.245 484.966L235.003 485.667L238.345 487.042L237.245 484.966ZM396.577 400.781L397.677 402.857L399.401 401.946L398.821 400.085L396.577 400.781ZM315.742 144.965L317.986 144.269C317.788 143.634 317.33 143.112 316.725 142.834C316.12 142.555 315.426 142.545 314.814 142.807L315.742 144.965ZM152.468 214.909L150.226 215.61L235.003 485.667L237.245 484.966L239.487 484.266L154.71 214.209L152.468 214.909ZM237.245 484.966L238.345 487.042L397.677 402.857L396.577 400.781L395.477 398.705L236.145 482.89L237.245 484.966ZM396.577 400.781L398.821 400.085C383.009 349.36 370.703 310.758 358.399 272.163C346.094 233.567 333.792 194.978 317.986 144.269L315.742 144.965L313.499 145.661C329.31 196.386 341.616 234.988 353.921 273.584C366.225 312.179 378.527 350.768 394.334 401.477L396.577 400.781ZM315.742 144.965L314.814 142.807L151.54 212.751L152.468 214.909L153.396 217.068L316.67 147.123L315.742 144.965Z" fill="#260981"/>
<path d="M172.782 100.506C182.306 98.6206 193.949 100.053 205.216 105.225C212.199 108.43 218.182 112.68 222.857 117.457L243.541 124.459L232.574 148.697C232.436 149.046 232.292 149.395 232.133 149.739C225.375 164.398 202.367 168.236 180.743 158.311C160.652 149.09 148.826 131.233 152.671 116.99L152.643 116.975L158.905 95.8087L172.782 100.506Z" fill="#1F0E83"/>
<path d="M242.589 127.152C248.548 112.152 234.718 92.6111 211.7 83.5074C188.681 74.4037 165.191 79.1841 159.232 94.1847C153.273 109.185 167.102 128.726 190.121 137.829C213.139 146.933 236.63 142.153 242.589 127.152Z" fill="#4054A5"/>
<path d="M69.6171 221.13L70.8849 190.997L88.4968 167.535L89.1683 219.6L69.6171 221.13Z" fill="#2B3990"/>
<path d="M95.9652 219.002L96.1927 157.349L114.44 177.664L115.841 217.393L95.9652 219.002Z" fill="#2B3990"/>
<path d="M122.794 216.75L121.424 184.544L140.609 203.899L141.691 215.196L122.794 216.75Z" fill="#2B3990"/>
<path d="M64.0187 221.48L64.519 199.517L45.2853 223.518L64.0187 221.48Z" fill="#2B3990"/>
<path d="M94.3847 158.49L43.9868 222.237L63.1599 126.224L94.3847 158.49Z" fill="#2B3990" stroke="#260981" stroke-width="4.69785"/>
<path d="M212.244 316.236C216.053 306.881 223.217 300.326 229.206 298.037L231.898 297.007L232.015 299.918C232.015 299.919 232.015 299.922 232.015 299.924C232.016 299.929 232.016 299.937 232.016 299.948C232.017 299.97 232.019 300.004 232.021 300.049C232.025 300.139 232.032 300.273 232.042 300.441C232.062 300.776 232.095 301.244 232.143 301.774C232.243 302.866 232.402 304.097 232.627 304.968C232.796 305.619 233.154 306.559 233.507 307.407C233.677 307.815 233.836 308.177 233.952 308.435C234.009 308.565 234.055 308.668 234.087 308.738C234.103 308.772 234.116 308.799 234.124 308.816C234.128 308.825 234.13 308.831 234.132 308.835C234.133 308.837 234.134 308.838 234.134 308.838L234.493 309.611L234.224 310.426C234.224 310.426 234.224 310.427 234.224 310.428C234.223 310.431 234.221 310.437 234.218 310.444C234.213 310.46 234.206 310.485 234.195 310.518C234.174 310.584 234.142 310.684 234.104 310.81C234.027 311.065 233.924 311.423 233.817 311.837C233.596 312.696 233.392 313.671 233.347 314.421C233.308 315.061 233.378 315.937 233.478 316.732C233.526 317.113 233.578 317.447 233.617 317.683C233.636 317.801 233.653 317.894 233.664 317.956C233.67 317.986 233.674 318.009 233.677 318.024C233.678 318.031 233.678 318.036 233.679 318.039L233.679 318.04L233.825 318.807L233.448 319.493C232.002 322.117 230.834 325.334 228.759 330.499C226.714 335.588 223.877 342.324 219.177 351.689L217.383 355.264L215.483 351.788C207.973 338.045 208.385 325.717 212.244 316.236Z" fill="#F8F8FF" stroke="#1F0E83" stroke-width="4.22211"/>
<path d="M243.295 346.142C253.114 353.892 266.521 369.576 270.976 383.61L352.394 355.574L358.298 347.493L319.89 278.9C319.89 278.9 315.317 275.95 308.49 277.11C299.425 265.712 281.839 272.96 274.18 278.009C272.749 278.222 265.075 280.057 245.819 285.695C231.763 289.279 225.256 300.106 227.943 312.751C227.065 323.879 228.022 333.33 243.295 346.142Z" fill="#F8F8FF" stroke="#1F0E83" stroke-width="2.11106"/>
<path d="M284.583 404.342C274.084 398.102 266.735 386.45 263.226 381.583L266.645 381.391L287.349 388.481L339.41 375.491L342.687 379.726L333.209 391.179C333.209 391.179 329.132 400.3 324.63 404.483C318.986 409.727 314.431 412.1 306.805 412.664C297.616 413.344 292.171 408.852 284.583 404.342Z" fill="#F8F8FF" stroke="#1F0E83" stroke-width="2.11106"/>
<path d="M237.425 288.901C240.523 286.741 248.899 288.433 253.616 295.97C260.865 294.843 273.27 300.086 272.988 303.104C265.875 312.764 257.69 334.567 269.068 360.21C273.344 369.845 282.761 378.313 285.963 377.5C285.963 377.5 285.957 381.421 287.221 383.396C288.332 385.133 289.624 385.776 291.096 387.205C293.339 389.382 294.058 390.788 296.261 393.006C298.277 395.037 300.39 396.902 303.179 397.338C309.641 398.35 310.876 399.108 316.439 397.619C317.491 397.337 318.737 397.005 319.877 396.702C324.615 393.498 327.625 390.096 327.625 390.096L323.302 395.793C323.302 395.793 321.73 396.209 319.877 396.702C316.295 399.124 311.727 401.434 306.725 402.077C297.845 403.219 294.553 397.45 286.238 393.975C278.697 390.823 274.441 393.263 267.842 388.361C252.891 377.252 248.356 350.744 248.356 350.744L231.889 333.588C228.785 330.731 226.283 321.444 228.424 311.296C224.168 297.023 234.392 291.821 237.425 288.901Z" fill="#1F0E83"/>
<path d="M308.404 365.615C290.74 367.222 280.055 376.445 291.235 386.917C302.414 397.388 298.164 394.803 304.135 396.828C311.851 399.444 317.104 397.233 324.769 394.579C332.991 391.732 337.867 389.152 343.541 382.445C349.942 374.879 353.13 363.303 352.866 358.629C352.602 353.956 351.015 349.259 346.445 346.813C339.152 342.91 329.152 358.89 329.152 358.89C329.152 358.89 326.068 364.008 308.404 365.615Z" fill="#F8F8FF" stroke="#1F0E83" stroke-width="2.11106"/>
<path d="M310.558 364.207C298.096 366.015 291.929 363.512 290.721 361.635L293.409 356.345C294.862 354.638 299.23 350.531 302.802 344.088C306.839 336.805 319.705 325.825 325.834 327.059C330.737 328.046 338.997 340.25 340.544 345.217C337.497 349.201 327.233 358.577 310.558 364.207Z" fill="#F7D5D5" stroke="#1F0E83" stroke-width="2.11106"/>
<path d="M239.68 312.992C242.799 316.019 240.391 322.376 238.798 325.176C231.854 320.865 232.356 315.383 233.475 313.18C234.244 311.856 236.561 309.965 239.68 312.992Z" fill="#F8F8FF" stroke="#F8F8FF" stroke-width="1.68885"/>
<path d="M240.568 314.181C241.591 316.485 240.734 320.824 239.128 321.561C237.522 322.298 234.591 319.699 233.568 317.394C232.545 315.089 233.27 312.715 234.876 311.978C236.482 311.241 239.546 311.876 240.568 314.181Z" fill="#1F0E83"/>
<path d="M299.619 281.781C285.284 284.868 280.804 291.003 273.803 301.609C253.061 333.034 268.051 370.05 285.212 376.83C292.163 361.499 293.099 353.381 306.222 345.558C323.718 335.13 349.09 342.586 358.199 347.9C362.507 342.114 360.199 323.915 344.769 298.266C329.338 272.616 317.538 277.921 299.619 281.781Z" fill="#F8F8FF" stroke="#1F0E83" stroke-width="2.11106"/>
<path d="M284.828 273.721C296.523 268.08 305.888 274.427 307.652 276.287C308.121 276.781 308.918 278.034 308.151 278.228C307.384 278.423 306.132 278.484 304.196 278.534C299.868 278.645 297.75 275.776 293.114 277.533C289.875 278.761 283.909 273.974 284.828 273.721Z" fill="#1F0E83"/>
<path d="M328.529 304.142C330.398 299.382 331.136 293.342 334.655 294.813C338.175 296.284 342.711 304.527 340.841 309.288C338.972 314.049 334.603 316.716 331.084 315.245C327.564 313.774 326.66 308.903 328.529 304.142Z" fill="#1F0E83"/>
<path d="M295.247 326.007C294.974 329.853 287.799 335.078 281.425 334.557C275.052 334.035 272.044 321.438 275.544 318.968C279.894 315.897 278.12 321.711 284.493 322.233C290.867 322.755 295.519 322.16 295.247 326.007Z" fill="#1F0E83"/>
<path d="M44.7944 223.782L152.468 214.911L238.859 484.615L129.416 468.642L44.7944 223.782Z" fill="#F8F8FF"/>
<path d="M44.7944 223.782L44.5988 221.442L41.5862 221.69L42.5733 224.547L44.7944 223.782ZM152.468 214.911L154.706 214.198L154.136 212.418L152.272 212.571L152.468 214.911ZM238.859 484.615L238.522 486.939L241.097 483.902L238.859 484.615ZM129.416 468.642L127.195 469.406L127.662 470.758L129.079 470.965L129.416 468.642ZM44.7944 223.782L44.99 226.122L152.664 217.252L152.468 214.911L152.272 212.571L44.5988 221.442L44.7944 223.782ZM152.468 214.911L150.23 215.625L236.621 485.329L238.859 484.615L241.097 483.902L154.706 214.198L152.468 214.911ZM238.859 484.615L239.197 482.292L129.753 466.318L129.416 468.642L129.079 470.965L238.522 486.939L238.859 484.615ZM129.416 468.642L131.637 467.878L47.0155 223.018L44.7944 223.782L42.5733 224.547L127.195 469.406L129.416 468.642Z" fill="#260981"/>
<path d="M47.9645 225.874L66.6386 224.333L148.717 469.101L131.15 466.526L47.9645 225.874Z" fill="#2B3990"/>
<path d="M70.1227 224.045L89.5305 222.439L171.659 472.444L153.805 469.856L70.1227 224.045Z" fill="#2B3990"/>
<path d="M96.9606 221.772L116.041 220.21L157.094 346.026L200.569 476.656L181.292 473.846L96.9606 221.772Z" fill="#2B3990"/>
<path d="M124.16 219.406L141.966 218.072L184.533 342.037L227.824 480.631L210.466 478.103L124.16 219.406Z" fill="#2B3990"/>
<path d="M294.766 241.168L282.725 202.079L295.243 196.65L298.902 211.879L300.408 194.411L314.038 188.5L311.546 212.058L326.376 227.461L312.721 233.382L301.933 221.056L306.25 236.188L294.766 241.168Z" fill="#260981"/>
<path d="M198.135 283.162L186.03 244.003L203.851 236.275L215.745 254.261L214.583 231.612L231.09 224.454L242.421 263.959L230.591 269.089L224.093 247.704L225.122 271.46L215.608 275.585L203.763 256.901L209.975 278.028L198.135 283.162Z" fill="#260981"/>
<path d="M248.669 261.227L237.459 221.63L249.105 216.58L260.383 256.147L248.669 261.227Z" fill="#260981"/>
<path d="M266.959 253.311L255.386 213.945L268.476 208.187L275.564 234.97L287.161 229.932L291.249 242.707L266.959 253.311Z" fill="#260981"/>
<path d="M92.8285 160.249L96.1159 156.922L153.435 213.007L150.722 217.416L92.8285 160.249Z" fill="#260981"/>
</svg>
