<svg width="1440" height="467" viewBox="0 0 1440 467" fill="none" xmlns="http://www.w3.org/2000/svg">
<path d="M443.393 8.45476C335.923 8.45476 353.118 64.7156 255.15 26.0459C157.181 -12.6238 87.1269 36.7741 58.8014 36.7741C25.8269 36.7741 25.8202 35.9015 5.14984e-05 23.2954L0 411.473C81.8539 411.473 63.4258 466.053 146.486 466.053C229.546 466.053 257.633 395.521 352.559 446.02C447.485 496.518 486.326 407.451 573.135 422.354C622.633 430.852 631.794 466.053 699.429 466.053C767.064 466.053 789.477 411.473 863.378 411.473C937.279 411.473 974.466 466.178 1038.28 466.053C1115.85 465.902 1176.07 411.473 1246.43 411.473C1293.29 411.473 1321.56 445.96 1367.14 445.96C1412.71 445.96 1441.7 422.354 1441.7 422.354V34.5039C1411.46 30.5574 1385.29 23.8908 1349.88 32.4554C1283.3 48.5609 1267.06 0 1160.27 0C1053.49 0 1039.93 46.1519 930.821 32.4554C881.307 26.2397 869.905 8.45476 783.618 8.45476C697.331 8.45476 675.781 41.4508 607.281 41.0948C542.257 40.757 513.18 8.45476 443.393 8.45476Z" fill="white"/>
</svg>
