<svg width="200" height="474" viewBox="0 0 200 474" fill="none" xmlns="http://www.w3.org/2000/svg">
<rect x="200" width="36.4616" height="200" transform="rotate(90 200 0)" fill="#F7D5D5"/>
<rect x="200" y="36.4609" width="36.4616" height="200" transform="rotate(90 200 36.4609)" fill="#260981"/>
<rect x="200" y="72.9238" width="36.4616" height="200" transform="rotate(90 200 72.9238)" fill="#F7D5D5"/>
<rect x="200" y="109.385" width="36.4616" height="200" transform="rotate(90 200 109.385)" fill="#260981"/>
<rect x="200" y="145.846" width="36.4616" height="200" transform="rotate(90 200 145.846)" fill="#F7D5D5"/>
<rect x="200" y="182.308" width="36.4616" height="200" transform="rotate(90 200 182.308)" fill="#260981"/>
<rect x="200" y="218.77" width="36.4616" height="200" transform="rotate(90 200 218.77)" fill="#F7D5D5"/>
<rect x="200" y="255.231" width="36.4616" height="200" transform="rotate(90 200 255.231)" fill="#260981"/>
<rect x="200" y="291.692" width="36.4616" height="200" transform="rotate(90 200 291.692)" fill="#F7D5D5"/>
<rect x="200" y="328.153" width="36.4616" height="200" transform="rotate(90 200 328.153)" fill="#260981"/>
<rect x="200" y="364.616" width="36.4616" height="200" transform="rotate(90 200 364.616)" fill="#F7D5D5"/>
<rect x="200" y="401.077" width="36.4616" height="200" transform="rotate(90 200 401.077)" fill="#260981"/>
<rect x="200" y="437.538" width="36.4616" height="200" transform="rotate(90 200 437.538)" fill="#F7D5D5"/>
</svg>
