<svg width="298" height="308" viewBox="0 0 298 308" fill="none" xmlns="http://www.w3.org/2000/svg">
<path d="M294.009 300.865V304.287H3.69751V240.748H3.64771L3.60962 237.365C3.18555 199.716 3.60961 118.621 3.60962 98.7676V95.9297L6.39868 95.4053C33.6143 90.2818 53.796 74.4405 67.094 56.6045C80.474 38.6583 86.6021 19.0839 86.1467 6.97168L86.0129 3.4209H211.604L211.47 6.97168C211.015 19.0838 217.143 38.6583 230.523 56.6045C243.821 74.4406 264.003 90.2818 291.219 95.4053L294.007 95.9297V98.7676L294.009 300.865Z" fill="white" stroke="#260981" stroke-width="6.84309"/>
<rect x="31.1672" y="119.919" width="20.5037" height="66.1953" fill="white"/>
<rect x="59.7258" y="119.919" width="20.5037" height="66.1953" fill="white"/>
<rect x="88.2942" y="119.919" width="20.5037" height="66.1953" fill="white"/>
<rect x="114.868" y="119.919" width="20.5037" height="66.1953" fill="white"/>
<rect x="47.759" y="119.919" width="13.3278" height="66.1953" fill="#260981"/>
<rect x="75.0461" y="119.919" width="13.3278" height="66.1953" fill="#260981"/>
<rect x="102.323" y="119.919" width="13.3278" height="66.1953" fill="#260981"/>
<rect x="129.613" y="119.919" width="13.3278" height="66.1953" fill="#260981"/>
<rect x="20.4778" y="119.919" width="13.3278" height="66.1953" fill="#260981"/>
<rect x="138.605" y="119.919" width="20.5037" height="66.1953" fill="white"/>
<rect x="167.165" y="119.919" width="20.5037" height="66.1953" fill="white"/>
<rect x="195.734" y="119.919" width="20.5037" height="66.1953" fill="white"/>
<rect x="222.308" y="119.919" width="20.5037" height="66.1953" fill="white"/>
<rect x="248.886" y="119.919" width="20.5037" height="66.1953" fill="white"/>
<rect x="155.198" y="119.919" width="13.3278" height="66.1953" fill="#260981"/>
<rect x="182.486" y="119.919" width="13.3278" height="66.1953" fill="#260981"/>
<rect x="209.771" y="119.919" width="13.3278" height="66.1953" fill="#260981"/>
<rect x="237.06" y="119.919" width="13.3278" height="66.1953" fill="#260981"/>
<rect x="263.634" y="119.919" width="13.3278" height="66.1953" fill="#260981"/>
<rect x="127.909" y="119.919" width="13.3278" height="66.1953" fill="#260981"/>
<circle cx="148.721" cy="57.2461" r="20.2295" fill="#260981"/>
</svg>
