<svg width="725" height="818" viewBox="0 0 725 818" fill="none" xmlns="http://www.w3.org/2000/svg">
<path d="M472.586 754.279L490.758 776.993L491.07 777.383L491.238 777.852L501.459 806.244L503.656 812.347L497.583 810.069L479.923 803.446H452.738L452.29 803.302L420.49 793.081L418.408 792.411V762.745L420.86 762.289L469.696 753.204L471.463 752.875L472.586 754.279Z" fill="#260981" stroke="#F7D5D5" stroke-width="6"/>
<path d="M222.79 607.227C223.783 584.64 214.611 558.114 209.9 547.674L208.256 527.751L278.192 584.944L282.338 625.698L280.863 677.778L302.747 700.482L310.682 716.608L310.07 738.235L287.411 742.893L262.846 736.897L250.455 706.51L236.545 698.607L215.827 650.317C217.734 645.365 221.797 629.814 222.79 607.227Z" fill="#F7D5D5" stroke="#F7D5D5" stroke-width="6"/>
<path d="M405.977 690.416C405.978 683.683 405.332 648.034 402.705 628.095L462.153 600.502L468.059 612.314L474.556 631.214C474.556 632.789 473.257 638.419 468.059 648.342C462.862 658.264 465.894 667.834 468.059 676.496C466.051 691.537 462.153 697.742 462.153 727.929L479.723 763.311L418.409 761.302C407.792 739.424 405.977 711.213 405.977 690.416Z" fill="#F7D5D5" stroke="#F7D5D5" stroke-width="6"/>
<path d="M258.597 714.065L306.99 717.29L308.895 717.417L309.587 719.196L315.134 733.468L315.148 733.504L315.161 733.541L325.712 762.921L326.778 765.887L323.762 766.805L286.799 778.055L286.372 778.185H247.138L247.595 774.784L255.424 716.658L255.798 713.879L258.597 714.065Z" fill="#260981" stroke="#F7D5D5" stroke-width="6"/>
<path d="M95.7884 51.832C130.723 32.1474 168.019 31.0793 195.403 37.2214L200.698 38.4091L198.551 43.3922L198.551 43.3932L198.55 43.3941C198.55 43.3952 198.549 43.3968 198.548 43.3989C198.546 43.4031 198.544 43.4097 198.54 43.4181C198.533 43.4349 198.522 43.4598 198.507 43.4928C198.479 43.5592 198.437 43.6583 198.381 43.787C198.27 44.0446 198.106 44.4228 197.899 44.9053C197.483 45.8704 196.888 47.2532 196.168 48.9225C194.73 52.2615 192.797 56.7486 190.82 61.339C187.921 68.0719 186.249 73.4314 181.506 80.7308C177.139 87.4508 175.42 89.0408 169.535 95.6407C166.962 98.5258 164.89 100.964 163.464 102.676C162.752 103.531 162.202 104.206 161.832 104.662C161.648 104.89 161.508 105.064 161.416 105.179C161.37 105.237 161.336 105.28 161.314 105.307C161.303 105.321 161.295 105.331 161.29 105.338C161.288 105.341 161.286 105.343 161.285 105.344L160.559 106.263L159.477 106.712C132.487 117.901 100.962 135.119 17.7544 181.791L8.53535 186.963L11.1979 176.733C28.6359 109.744 60.7425 71.5796 95.7884 51.832Z" fill="#F7D5D5" stroke="#260981" stroke-width="9"/>
<path d="M3.67871 192.49C21.1291 58.9926 124.139 12.2615 205.229 35.8834L186.813 82.918L167.722 109.671C138.419 112.962 103.575 146.492 3.67871 192.49Z" stroke="#F7D5D5" stroke-width="6"/>
<path d="M186.216 250.299C213.056 302.19 239.643 394.349 231.069 461.821L640.242 506.612L683.246 481.775L640.242 113.759C638.708 113.48 628.942 108.653 602.156 91.5773C585.75 25.9521 495.99 21.2646 453.16 27.124C446.604 25.1709 410.052 17.5815 316.302 2.84935C248.919 -10.125 199.636 22.1608 186.216 80.3137C160.495 125.047 145.957 166.425 186.216 250.299Z" fill="#F7D5D5"/>
<path d="M255.786 580.199C189.706 525.235 192.336 467.749 197.225 445.876H212.624L292.228 516.673L541.894 562.505L547.925 586.627L485.062 616.482L422.532 655.852H329.896C326.551 655.852 307.045 640.722 255.786 580.199Z" fill="#F7D5D5" stroke="#260981" stroke-width="6"/>
<path d="M556.49 94.8076C488.887 79.207 457.561 95.924 406.596 126.307C255.589 216.331 246.877 400.733 307.135 463.169C367.208 412.95 387.243 380.902 458.986 374.318C554.637 365.54 648.794 447.121 677.395 487.422C707.296 471.822 733.297 391.219 717.696 253.414C702.096 115.608 640.993 114.308 556.49 94.8076Z" fill="#F7D5D5" stroke="#260981" stroke-width="4.76581"/>
<path d="M269.924 5.49902C278.237 4.06733 290.967 4.33618 302.238 9.67188C313.409 14.9607 323.366 25.3115 326.18 44.6816L326.364 45.9443L327.401 46.6885C360.406 70.3566 379 89.6407 387.101 104.186C391.143 111.443 392.415 117.24 391.868 121.672C391.338 125.97 389.053 129.361 385.064 131.885C347.625 155.57 266.202 232.283 266.201 363.355C266.201 388.182 272.411 414.192 280.559 434.361C284.634 444.447 289.236 453.18 293.87 459.621C296.187 462.84 298.561 465.558 300.94 467.591C302.247 468.708 303.615 469.669 305.028 470.384C304.332 472.141 303.436 474.564 302.589 477.323C300.896 482.841 299.24 490.207 300.188 496.297C300.984 501.416 302.567 505.37 304.361 509.102C306.197 512.922 308.041 516.129 309.811 520.456C312.497 527.027 313.941 532.082 315.383 537.263C316.831 542.462 318.283 547.812 320.974 554.754C325.789 567.178 331.62 579.956 343.714 587.745C356.456 595.952 364.231 601.73 371.943 605.844C378.893 609.552 385.903 611.997 396.674 614.069C382.304 614.719 367.066 613.563 352.442 609.113C332.986 603.194 322.556 592.972 313.296 580.294C304.103 567.707 295.593 551.826 280.812 536.333C267.223 522.089 254.415 515.422 243.108 508.39C231.87 501.401 221.783 493.9 212.574 477.825C191.382 440.833 188.325 392.631 190.709 353.318C191.897 333.722 194.429 316.461 196.663 304.101C197.78 297.923 198.822 292.974 199.583 289.576C199.964 287.878 200.273 286.567 200.488 285.685C200.594 285.244 200.678 284.91 200.734 284.688C200.762 284.578 200.782 284.494 200.796 284.439C200.803 284.413 200.809 284.393 200.812 284.38C200.813 284.374 200.815 284.369 200.816 284.366V284.364L201.052 283.455L200.728 282.573L162.497 178.696L162.465 178.608L162.427 178.523L162.073 177.694C154.668 159.841 149.485 114.033 190.743 83.0566L191.752 82.2988L191.916 81.0488C196.284 47.8389 211.164 30.7233 226.996 21.0078C234.99 16.1024 243.324 13.0274 250.894 10.7734C254.683 9.64532 258.251 8.7308 261.509 7.88477C264.62 7.07702 267.508 6.3141 269.924 5.49902Z" fill="#260981" stroke="#F7D5D5" stroke-width="6"/>
<path d="M426.938 461.165C347.594 433.844 283.789 451.998 311.996 517.579C340.203 583.159 326.805 564.096 348.707 584.126C377.009 610.008 403.925 610.85 442.105 614.48C483.058 618.374 509.052 616.936 546.4 599.692C588.531 580.24 632.29 517.579 632.29 517.579C640.105 497.426 642.254 474.623 627.206 455.524C603.197 425.052 529.404 472.924 529.404 472.924C529.404 472.924 506.282 488.487 426.938 461.165Z" fill="#F7D5D5" stroke="#260981" stroke-width="4.76581"/>
<path d="M444.72 464.628C387.451 448.185 365.621 425.765 364.002 415.549L387.092 395.355C396.636 390.981 422.018 385.291 449.784 365.1C481.168 342.278 557.753 320.945 581.851 337.956C601.13 351.564 613.409 418.794 610.574 442.656C589.783 453.524 527.505 473.134 444.72 464.628Z" fill="#F7D5D5" stroke="#260981" stroke-width="4.76581"/>
<path d="M705.727 232.035C705.727 255.66 712.836 282.719 695.011 282.719C677.185 282.719 643.369 255.66 643.369 232.035C643.369 208.41 657.82 189.258 675.645 189.258C693.471 189.258 705.727 208.41 705.727 232.035Z" fill="#260981"/>
<path d="M459.572 197.503C459.572 215.589 427.025 242.761 396.366 242.761C365.707 242.761 347.053 185.03 362.953 172.141C382.716 156.121 376.203 183.979 406.863 183.979C437.522 183.979 459.572 179.418 459.572 197.503Z" fill="#260981"/>
<path d="M231.045 107.405C238.711 126.145 216.138 148.221 203.894 156.916C182.173 125.4 194.843 103.324 203.894 96.2255C209.75 92.144 223.379 88.6658 231.045 107.405Z" fill="white" stroke="white" stroke-width="5.82488"/>
<path d="M232.602 114.112C232.602 125.772 220.59 142.356 212.244 142.356C203.898 142.356 196.221 125.772 196.221 114.112C196.221 102.452 203.898 93.8691 212.244 93.8691C220.59 93.8691 232.602 102.452 232.602 114.112Z" fill="#260981"/>
<path d="M467.022 31.2553C549.866 23.6303 592.103 68.2201 598.268 97.9234C578.432 90.9609 554.777 87.0624 534.261 83.3721C528.095 65.8212 461.913 30.9056 467.022 31.2553Z" fill="#260981"/>
</svg>
