<svg width="550" height="346" viewBox="0 0 550 346" fill="none" xmlns="http://www.w3.org/2000/svg">
<path d="M494.576 177.39C521.498 178.034 535.903 192.604 546.62 205.4V1.40532L5.35828 1.06348C5.35828 1.06348 10.7921 9.38167 22.4906 19.3939C34.1892 29.4062 50.8032 49.7817 70.2554 54.0269C83.5921 56.9374 97.6783 48.5977 109.577 36.6987C121.387 24.8888 139.998 23.4675 139.998 23.4675C139.998 23.4675 154.79 20.9732 163.707 23.4675C190.078 30.8443 189.467 60.3186 189.467 88.6822C189.467 117.046 198.959 128.258 207.25 134.673C215.488 141.047 223.963 144.704 231.395 144.704C238.9 144.704 243.927 141.568 247.371 136.931C250.672 132.486 252.468 126.721 253.942 121.529C255.486 116.092 256.66 111.397 258.589 108.1C259.513 106.52 260.506 105.466 261.609 104.846C262.675 104.248 264.072 103.924 266.074 104.195L266.252 104.219L266.423 104.22C266.466 104.228 266.68 104.285 267.09 104.632C267.619 105.079 268.272 105.84 269.036 106.999C270.561 109.314 272.22 112.738 274.051 117.046C275.871 121.327 277.802 126.335 279.893 131.762L279.898 131.774C281.981 137.18 284.218 142.983 286.633 148.791C291.451 160.379 297.054 172.185 303.736 181.124C310.373 190.003 318.51 196.624 328.482 196.624C338.031 196.624 345.177 192.624 351.004 187.09C356.722 181.661 361.343 174.569 365.75 168.332C370.275 161.928 374.577 156.417 379.833 153.217C384.867 150.153 391.008 149.08 399.647 152.193C409.791 155.848 416.58 163.899 421.471 174.291C426.378 184.719 429.231 197.204 431.641 209.274C434.015 221.157 435.992 232.865 439.198 241.076C440.807 245.197 442.857 248.809 445.728 251.145C448.753 253.605 452.453 254.457 456.751 253.452C467.401 250.962 473.076 244.268 476.035 235.954C478.913 227.867 479.272 218.122 479.516 209.197C479.767 200.001 479.906 191.806 481.96 185.893C482.957 183.022 484.337 180.922 486.213 179.538C488.072 178.168 490.696 177.297 494.576 177.39Z" fill="white" stroke="#F7D5D5" stroke-width="5.79752"/>
<path d="M433.669 210.172C437.388 217.026 441.303 221.572 445.383 224.16C448.67 226.245 452.051 227.049 455.379 226.733C458.659 226.422 461.659 225.046 464.295 223.145C469.052 219.716 472.998 214.312 475.868 208.934C475.709 211.978 475.414 215.235 474.911 218.548C472.666 233.316 466.629 247.565 452.419 251.039C452.279 250.953 452.077 250.813 451.813 250.592C450.971 249.884 449.877 248.676 448.612 246.951C446.101 243.529 443.228 238.51 440.624 232.663C437.499 225.643 434.886 217.716 433.669 210.172Z" fill="#F7D5D5" stroke="#F7D5D5" stroke-width="6.12034"/>
<path d="M295.518 163.077C298.421 166.228 301.544 168.654 304.861 170.439C313.661 175.175 323.265 175.097 332.515 172.942C341.729 170.794 350.914 166.509 359.1 162.453C363.318 160.363 367.213 158.367 370.759 156.692C370.373 157.309 369.984 157.935 369.592 158.565C366.89 162.911 363.851 167.792 360.086 172.613C352.632 182.157 342.458 191.289 326.963 194.862C326.926 194.852 326.879 194.842 326.824 194.824C326.469 194.71 325.935 194.48 325.216 194.085C323.787 193.299 321.925 192.031 319.765 190.325C315.458 186.925 310.224 181.989 305.274 176.279C301.684 172.138 298.29 167.639 295.518 163.077Z" fill="#F7D5D5" stroke="#F7D5D5" stroke-width="6.12034"/>
<path d="M4.71814 -1.82227H545.868V4.63184L12.0887 4.91878L4.71814 -1.82227Z" fill="white"/>
<path d="M455.883 269.872C455.989 269.877 456.528 270.001 457.521 270.933C458.454 271.807 459.518 273.14 460.668 274.905C462.958 278.423 465.365 283.316 467.564 288.731C471.995 299.646 475.327 312.053 475.327 318.864C475.327 325.801 473.619 331.841 470.411 336.084C467.265 340.244 462.549 342.861 455.993 342.861C449.471 342.861 445.284 340.281 442.612 336.215C439.838 331.994 438.549 325.933 438.548 318.864C438.548 311.988 441.446 299.36 445.401 288.376C447.368 282.913 449.542 278.012 451.652 274.545C452.712 272.803 453.693 271.529 454.546 270.729C455.438 269.892 455.867 269.872 455.883 269.872Z" fill="white" stroke="#F7D5D5" stroke-width="4.83802"/>
<path d="M542.578 -1.82227H549.539L549.465 204.449L542.578 196.041L542.578 -1.82227Z" fill="white"/>
<path d="M327.148 209.434C327.59 209.454 328.207 209.663 329.012 210.297C329.815 210.929 330.686 211.893 331.591 213.183C333.402 215.763 335.149 219.353 336.679 223.322C339.76 231.313 341.733 240.226 341.733 244.441C341.733 252.442 335.246 258.929 327.246 258.929C319.245 258.928 312.759 252.442 312.759 244.441C312.76 240.22 314.736 231.114 317.816 223.031C319.347 219.013 321.093 215.409 322.894 212.875C323.795 211.608 324.65 210.693 325.424 210.122C326.193 209.555 326.756 209.416 327.148 209.434Z" fill="white" stroke="#F7D5D5" stroke-width="4.36173"/>
<path d="M472.866 241.872C460.201 261.217 446.379 254.416 444.259 248.093C442.138 241.77 451.98 235.892 461.359 235.9C470.738 235.907 476.145 220.506 479.37 212.558C479.37 218.788 482.036 227.864 472.866 241.872Z" fill="#F7D5D5" stroke="#F7D5D5" stroke-width="1.13691"/>
<path d="M336.78 235.87C337.15 236.996 337.447 237.987 337.579 238.613C337.734 239.351 337.961 240.069 338.14 240.672C338.329 241.305 338.497 241.904 338.619 242.579C338.854 243.887 338.941 245.631 338.407 248.324C337.932 250.718 336.279 252.748 333.918 254.162C331.549 255.581 328.65 256.261 326.067 256.047C324.352 255.905 322.67 254.393 322.369 252.444C322.111 250.777 322.848 248.063 327.589 245.734C332.403 243.37 335.147 239.527 336.673 236.121C336.71 236.038 336.744 235.953 336.78 235.87Z" fill="#F7D5D5" stroke="#F7D5D5" stroke-width="4.36173"/>
<path d="M470.239 310.677C470.65 313.291 471.068 315.921 471.326 317.144C471.397 317.479 471.43 318.232 471.339 319.48C471.251 320.666 471.067 322.106 470.82 323.703C470.449 326.1 469.946 328.763 469.445 331.322L468.949 333.833L468.932 333.916C468.504 336.074 466.251 338.121 462.338 339.281C458.545 340.406 453.981 340.416 450.381 339.198C448.593 338.593 447.426 336.877 447.689 334.677C447.954 332.461 449.796 329.271 455.213 326.61C460.504 324.012 465.087 318.574 468.26 313.835C468.983 312.755 469.644 311.691 470.239 310.677Z" fill="#F7D5D5" stroke="#F7D5D5" stroke-width="4.83802"/>
<path d="M201.478 129.283C213.303 144.945 240.417 151.881 250.973 132.019C253.733 126.825 252.498 124.735 250.16 123.957C240.393 135.763 222.488 131.811 213.845 125.777C198.96 115.384 194.23 94.4673 192.225 84.6219C191.1 91.0032 189.653 113.62 201.478 129.283Z" fill="#F7D5D5"/>
<path d="M316.144 189.883C329.468 199.531 355.417 179.274 360.289 159.166C346.74 165.866 342.639 167.482 329.651 170.776C317.938 173.746 303.029 167.463 295.524 158.522C300.253 167.55 302.82 180.235 316.144 189.883Z" fill="#F7D5D5"/>
<path d="M61.814 50.2408C86.224 58.1084 101.402 40.5063 121.777 25.7794C103.967 30.4982 90.9758 36.3042 70.4912 34.6767C44.425 32.6057 18.7691 13.1921 9.08667 5.67679C13.981 15.0199 37.4041 42.3731 61.814 50.2408Z" fill="#F7D5D5"/>
</svg>
