<svg width="556" height="348" viewBox="0 0 556 348" fill="none" xmlns="http://www.w3.org/2000/svg">
<path d="M500.081 178.987C527.003 179.631 541.408 194.201 552.126 206.996V3.00195L6.97696 3.37786L27.5514 25.0641C37.2051 34.8105 56.3086 51.3783 75.7608 55.6235C89.0976 58.534 103.184 50.1943 115.083 38.2953C126.892 26.4855 145.503 25.0641 145.503 25.0641C145.503 25.0641 160.296 22.5698 169.213 25.0641C195.583 32.441 194.973 61.9152 194.973 90.2788C194.973 118.642 204.465 129.855 212.755 136.269C220.993 142.644 229.469 146.3 236.9 146.3C244.406 146.3 249.433 143.164 252.876 138.528C256.177 134.083 257.973 128.318 259.448 123.125C260.991 117.689 262.165 112.994 264.094 109.697C265.019 108.116 266.011 107.063 267.114 106.443C268.18 105.844 269.578 105.52 271.58 105.792L271.757 105.815L271.929 105.817C271.971 105.825 272.185 105.882 272.595 106.229C273.124 106.676 273.778 107.437 274.541 108.596C276.067 110.911 277.725 114.335 279.556 118.642C281.376 122.924 283.307 127.932 285.398 133.359L285.403 133.37C287.487 138.777 289.723 144.58 292.138 150.388C296.956 161.976 302.559 173.781 309.241 182.721C315.878 191.6 324.015 198.221 333.987 198.221C343.537 198.221 350.682 194.221 356.509 188.687C362.227 183.258 366.848 176.166 371.255 169.929C375.781 163.524 380.082 158.014 385.338 154.814C390.372 151.749 396.514 150.677 405.152 153.79C415.296 157.445 422.086 165.496 426.976 175.887C431.884 186.315 434.736 198.8 437.147 210.871C439.52 222.754 441.497 234.462 444.703 242.673C446.312 246.794 448.362 250.406 451.233 252.741C454.259 255.202 457.958 256.054 462.256 255.049C472.906 252.559 478.581 245.865 481.54 237.55C484.418 229.463 484.777 219.719 485.021 210.793C485.272 201.598 485.411 193.403 487.465 187.49C488.462 184.619 489.842 182.519 491.719 181.135C493.577 179.765 496.201 178.894 500.081 178.987Z" fill="white" stroke="#F7D5D5" stroke-width="6"/>
<path d="M446.827 241.996C448.068 242.854 449.389 243.455 450.809 243.832C453.19 244.465 455.57 244.38 457.7 244.21C459.967 244.03 461.889 243.767 464.093 243.767C467.688 243.767 471.865 242.952 476.136 240.037C476.704 239.65 477.268 239.227 477.831 238.769C476.487 241.86 474.987 244.557 473.392 246.844C469.445 252.505 465.129 255.398 461.406 256.031C457.912 256.624 454.295 255.336 451.136 251.067C449.498 248.854 448.012 245.858 446.827 241.996Z" fill="#F7D5D5" stroke="#F7D5D5" stroke-width="6.12034"/>
<path d="M304.576 174.688C309.581 177.671 314.619 179.365 319.664 180.022C328.461 181.168 336.935 179.119 344.828 175.867C352.693 172.626 360.231 168.077 367.084 164.046C370.262 162.176 373.27 160.433 376.125 158.937C375.802 159.455 375.478 159.978 375.151 160.504C372.448 164.85 369.41 169.732 365.645 174.554C358.146 184.156 347.893 193.342 332.238 196.869C332.318 196.851 331.922 196.921 330.796 196.57C329.775 196.252 328.463 195.688 326.919 194.858C323.839 193.203 320.092 190.636 316.293 187.383C312.068 183.765 307.919 179.416 304.576 174.688Z" fill="#F7D5D5" stroke="#F7D5D5" stroke-width="6.12034"/>
<path d="M10.3069 4.21484H551.457V10.6689L17.2605 9.61071L10.3069 4.21484Z" fill="white"/>
<path d="M461.442 271.812C461.548 271.816 462.086 271.941 463.079 272.872C464.012 273.746 465.077 275.08 466.226 276.845C468.516 280.363 470.924 285.255 473.122 290.671C477.554 301.585 480.885 313.993 480.885 320.804C480.885 327.74 479.177 333.78 475.969 338.023C472.823 342.184 468.107 344.801 461.551 344.801C455.03 344.801 450.843 342.22 448.17 338.154C445.396 333.934 444.107 327.873 444.107 320.804C444.107 313.927 447.004 301.299 450.959 290.315C452.927 284.852 455.1 279.952 457.21 276.484C458.27 274.742 459.251 273.469 460.104 272.669C460.997 271.832 461.425 271.812 461.442 271.812Z" fill="white" stroke="#F7D5D5" stroke-width="4.83802"/>
<path d="M546.963 4.21484H551.455L551.455 201.919L545.477 194.993L546.963 4.21484Z" fill="white"/>
<path d="M479.943 248.038C467.278 267.382 450.403 258.367 448.283 252.044C446.162 245.721 459.528 240.584 468.907 240.592C478.286 240.599 483.693 225.198 486.918 217.25C486.918 223.48 486.179 238.514 479.943 248.038Z" fill="#F7D5D5" stroke="#F7D5D5" stroke-width="1.13691"/>
<path d="M477.975 316.551C478.323 318.746 478.655 320.798 478.874 321.836C479.299 323.85 478.96 328.256 475.524 334.443C474.137 336.94 470.793 339.761 466.634 341.621C462.481 343.479 458.109 344.116 454.794 342.994C453.033 342.398 451.35 339.945 451.714 337.488C452.01 335.493 453.999 332.369 461.946 331.537C465.253 331.191 468.096 329.455 470.417 327.294C472.745 325.127 474.702 322.393 476.266 319.729C476.893 318.661 477.462 317.589 477.975 316.551Z" fill="#F7D5D5" stroke="#F7D5D5" stroke-width="4.83802"/>
<path d="M209.026 133.974C220.852 149.637 246.542 153.836 257.098 133.974C259.859 128.78 260.411 120.81 266.593 109.056C249.812 138.539 230.037 136.503 221.394 130.469C206.508 120.076 198.864 106.684 194.456 75.0566C190.301 87.3409 197.201 118.312 209.026 133.974Z" fill="#F7D5D5"/>
<path d="M321.854 197.103C335.178 206.751 364.381 191.846 369.253 171.739C355.704 178.439 348.349 174.702 335.361 177.996C323.648 180.966 308.273 179.531 300.769 170.59C305.498 179.618 308.53 187.455 321.854 197.103Z" fill="#F7D5D5"/>
<path d="M64.0692 53.2001C85.836 66.7629 110.339 40.4862 132.558 25.8947C110.339 33.1905 86.364 52.3712 66.8887 45.8152C42.1068 37.473 21.4606 11.3489 9.72475 2.72509C12.2023 12.9774 42.3024 39.6373 64.0692 53.2001Z" fill="#F7D5D5"/>
<path d="M334.696 214.126C335.138 214.146 335.755 214.355 336.56 214.989C337.363 215.622 338.234 216.585 339.139 217.875C340.95 220.455 342.697 224.046 344.227 228.015C347.308 236.005 349.281 244.918 349.281 249.134C349.281 257.134 342.794 263.621 334.794 263.621C326.793 263.621 320.307 257.134 320.307 249.134C320.308 244.912 322.284 235.806 325.364 227.724C326.895 223.706 328.641 220.102 330.442 217.567C331.343 216.3 332.198 215.386 332.972 214.814C333.741 214.247 334.304 214.108 334.696 214.126Z" fill="white" stroke="#F7D5D5" stroke-width="4.36173"/>
<path d="M344.328 240.562C344.698 241.688 344.995 242.68 345.127 243.306C345.282 244.043 345.509 244.761 345.688 245.364C345.877 245.997 346.045 246.596 346.167 247.271C346.402 248.579 346.49 250.323 345.955 253.017C345.48 255.41 343.827 257.44 341.466 258.854C339.097 260.273 336.198 260.953 333.615 260.739C331.9 260.597 330.218 259.085 329.917 257.137C329.659 255.47 330.396 252.755 335.137 250.427C339.951 248.062 342.695 244.219 344.221 240.813C344.258 240.73 344.292 240.646 344.328 240.562Z" fill="#F7D5D5" stroke="#F7D5D5" stroke-width="4.36173"/>
<path d="M6.60927 0.483594L548.655 0.401367V6.85547L15.1633 7.20772L6.60927 0.483594Z" fill="white"/>
<path d="M547.975 0.124023H554.935L554.861 206.396L547.975 197.987L547.975 0.124023Z" fill="white"/>
</svg>
