<svg width="1440" height="386" viewBox="0 0 1440 386" fill="none" xmlns="http://www.w3.org/2000/svg">
<path d="M360.216 99.0109C360.216 99.0109 221.843 89.7662 134.694 78.981C84.8076 72.8073 7.64209 58.3389 7.64209 58.3389L8.58418 93.7835C100.36 103.945 225.488 122.046 365.262 123.958C507.07 125.898 718.692 99.8105 730.777 93.3538L729.902 60.414C729.902 60.414 615.371 89.9062 543.078 94.1506C471.382 98.3598 360.216 99.0109 360.216 99.0109Z" fill="#260981" stroke="white" stroke-width="6.43546"/>
<path d="M136.765 156.972C136.765 156.972 51.7252 150.299 8.1145 143.224L8.86435 171.435C267.591 204.67 512.394 192.434 732.602 189.839L730.244 160.075L545.149 172.142L361.261 169.743L136.765 156.972Z" fill="#260981" stroke="white" stroke-width="6.43546"/>
<path d="M149.443 247.389C149.443 247.389 58.449 234.55 14.8383 227.475L15.7947 263.459C274.521 296.694 518.074 299.618 738.282 297.022L737.24 257.79L557.827 262.558L373.939 260.159L149.443 247.389Z" fill="#260981" stroke="white" stroke-width="6.43546"/>
<path d="M454.752 354.586L434.148 60.6833L463.666 59.1817C464.862 91.7992 470.075 196.403 481.361 353.879C472.21 365.77 459.809 359.305 454.752 354.586Z" fill="#260981" stroke="white" stroke-width="6.43546"/>
<path d="M448.457 49.053C452.996 48.9324 456.979 49.9298 459.732 51.4721C462.554 53.0529 463.576 54.8583 463.613 56.2612C463.651 57.6642 462.726 59.5214 459.992 61.2499C457.324 62.9362 453.4 64.1438 448.861 64.2644C444.322 64.385 440.34 63.3875 437.587 61.8454C434.765 60.2646 433.742 58.4591 433.705 57.0562C433.668 55.6532 434.593 53.7961 437.327 52.0676C439.994 50.3813 443.918 49.1737 448.457 49.053Z" fill="#260981" stroke="white" stroke-width="6.43546"/>
<path d="M204.753 244.643C196.629 173.204 187.207 61.165 187.207 61.165L214.254 60.4462C214.254 60.4462 220.605 169.762 227.648 239.397C231.721 279.657 239.622 342.217 239.622 342.217C239.622 342.217 236.399 349.099 227.255 348.292C219.4 347.6 215.951 335.837 215.951 335.837C215.951 335.837 208.81 280.317 204.753 244.643Z" fill="#260981" stroke="white" stroke-width="6.43546"/>
<path d="M200.003 50.8664C204.912 50.7359 208.61 51.4284 210.972 52.6253C213.173 53.7406 214.043 55.1578 214.091 56.9375C214.201 61.0947 209.492 67.2977 200.446 67.5382C191.67 67.7714 186.873 61.9301 186.601 57.2618C186.567 55.463 187.32 54.139 189.283 53.0387C191.478 51.8082 195.042 50.9982 200.003 50.8664Z" fill="#260981" stroke="white" stroke-width="6.43546"/>
<path d="M2.25463 319.002L2.72632 31.9014L32.2743 31.9499C32.5493 64.5881 24.9634 161.32 31.8026 319.051C22.319 330.679 7.176 323.862 2.25463 319.002Z" fill="#260981" stroke="white" stroke-width="6.43546"/>
<path d="M17.0713 22.6963C21.746 22.7039 25.8176 23.7041 28.6015 25.1595C31.5422 26.6971 32.2576 28.2507 32.2562 29.0913C32.2547 29.932 31.5342 31.4834 28.5886 33.0111C25.7999 34.4574 21.725 35.4442 17.0504 35.4365C12.376 35.4288 8.30508 34.4286 5.52125 32.9732C2.58051 31.4358 1.86531 29.8821 1.86657 29.0414C1.86795 28.2008 2.58816 26.6495 5.53415 25.1216C8.32275 23.6754 12.3968 22.6886 17.0713 22.6963Z" fill="#260981" stroke="white" stroke-width="6.43546"/>
<path d="M1059.34 111.57C1059.34 111.57 920.969 102.326 833.82 91.5405C783.934 85.3669 706.768 70.8984 706.768 70.8984L707.71 106.343C799.486 116.505 924.614 134.606 1064.39 136.518C1206.2 138.458 1417.82 112.37 1429.9 105.913L1429.03 72.9736C1429.03 72.9736 1314.5 102.466 1242.2 106.71C1170.51 110.919 1059.34 111.57 1059.34 111.57Z" fill="#260981" stroke="white" stroke-width="6.43546"/>
<path d="M835.893 169.53C835.893 169.53 750.853 162.857 707.243 155.781L707.993 183.993C966.719 217.228 1215.11 210.496 1435.32 207.9L1434.38 172.36L1244.28 184.7L1060.39 182.3L835.893 169.53Z" fill="#260981" stroke="white" stroke-width="6.43546"/>
<path d="M848.577 259.946C848.577 259.946 757.583 247.107 713.972 240.032L714.929 276.016C973.655 309.251 1217.21 312.176 1437.42 309.58L1436.37 270.347L1256.96 275.116L1073.07 272.717L848.577 259.946Z" fill="#260981" stroke="white" stroke-width="6.43546"/>
<path d="M1410.73 322.322L1407.81 35.9491L1437.35 34.9318C1438.01 67.5646 1437.86 162.24 1440.27 322.022C1430.93 333.761 1415.71 327.123 1410.73 322.322Z" fill="#260981" stroke="white" stroke-width="6.43546"/>
<path d="M1153.88 367.145L1133.27 73.2429L1162.79 71.7413C1163.99 104.359 1169.2 208.963 1180.49 366.438C1171.34 378.329 1158.93 371.864 1153.88 367.145Z" fill="#260981" stroke="white" stroke-width="6.43546"/>
<path d="M1147.58 61.6116C1152.12 61.491 1156.11 62.4884 1158.86 64.0307C1161.68 65.6114 1162.7 67.4169 1162.74 68.8198C1162.78 70.2228 1161.85 72.08 1159.12 73.8085C1156.45 75.4948 1152.53 76.7024 1147.99 76.823C1143.45 76.9436 1139.47 75.9461 1136.71 74.404C1133.89 72.8232 1132.87 71.0177 1132.83 69.6148C1132.79 68.2118 1133.72 66.3547 1136.45 64.6262C1139.12 62.9399 1143.04 61.7323 1147.58 61.6116Z" fill="#260981" stroke="white" stroke-width="6.43546"/>
<path d="M903.887 257.202C895.763 185.762 886.341 73.7236 886.341 73.7236L913.388 73.0048C913.388 73.0048 919.739 182.32 926.782 251.956C930.855 292.215 938.756 354.776 938.756 354.776C938.756 354.776 935.533 361.657 926.389 360.851C918.535 360.158 915.085 348.396 915.085 348.396C915.085 348.396 907.944 292.876 903.887 257.202Z" fill="#260981" stroke="white" stroke-width="6.43546"/>
<path d="M899.136 63.425C904.045 63.2945 907.744 63.987 910.106 65.1839C912.307 66.2992 913.177 67.7164 913.225 69.4961C913.335 73.6533 908.626 79.8563 899.58 80.0968C890.804 80.33 886.007 74.4887 885.735 69.8204C885.701 68.0216 886.454 66.6976 888.417 65.5973C890.612 64.3668 894.176 63.5568 899.136 63.425Z" fill="#260981" stroke="white" stroke-width="6.43546"/>
<path d="M1421.73 24.191C1426.1 24.0747 1430.08 25.0969 1432.86 26.6862C1435.72 28.3212 1436.7 30.1384 1436.74 31.4852C1436.78 32.8518 1435.87 34.7683 1433.09 36.5966C1430.4 38.3704 1426.49 39.6363 1422.14 39.7519C1417.54 39.8742 1413.83 39.1488 1411.4 37.9304C1409.06 36.7573 1408.3 35.3934 1408.27 33.9995C1408.18 30.7155 1409.41 28.5389 1411.48 27.018C1413.72 25.371 1417.22 24.3111 1421.73 24.191Z" fill="#260981" stroke="white" stroke-width="7.55199"/>
<path d="M711.377 331.914L703.749 44.9141L733.286 44.1289C734.482 76.7464 729.628 173.653 740.915 331.129C731.763 343.02 716.434 336.633 711.377 331.914Z" fill="#260981" stroke="white" stroke-width="6.43546"/>
<path d="M718.246 34.4415C722.838 34.3195 726.862 35.2038 729.633 36.5753C732.552 38.0197 733.314 39.548 733.337 40.4128C733.36 41.2776 732.68 42.8443 729.843 44.4416C727.148 45.9583 723.176 47.0552 718.584 47.1773C713.992 47.2993 709.968 46.4149 707.196 45.0436C704.277 43.5992 703.515 42.0709 703.492 41.206C703.469 40.3412 704.149 38.7747 706.987 37.1772C709.682 35.6605 713.653 34.5636 718.246 34.4415Z" fill="#260981" stroke="white" stroke-width="6.43546"/>
</svg>
