<svg width="1440" height="380" viewBox="0 0 1440 380" fill="none" xmlns="http://www.w3.org/2000/svg">
<path d="M356.113 100.067C356.113 100.067 215.393 90.6654 126.765 79.6973C76.0331 73.419 -2.44128 58.7051 -2.44128 58.7051L-1.48321 94.751C91.8489 105.085 219.099 123.493 361.244 125.437C505.458 127.41 720.67 100.88 732.96 94.3139L732.07 60.8154C732.07 60.8154 615.596 90.8079 542.076 95.1243C469.165 99.4049 356.113 100.067 356.113 100.067Z" fill="#260981" stroke="white" stroke-width="6"/>
<path d="M128.872 159.011C128.872 159.011 42.3895 152.225 -1.96094 145.029L-1.19837 173.72C261.917 207.518 510.873 195.075 734.816 192.435L732.417 162.167L544.183 174.438L357.176 171.998L128.872 159.011Z" fill="#260981" stroke="white" stroke-width="6"/>
<path d="M141.765 250.961C141.765 250.961 49.2274 237.904 4.87695 230.709L5.84961 267.304C268.965 301.102 516.649 304.076 740.592 301.436L739.532 261.538L557.076 266.388L370.069 263.948L141.765 250.961Z" fill="#260981" stroke="white" stroke-width="6"/>
<path d="M452.253 359.977L431.299 61.089L461.318 59.5619C462.534 92.7327 467.835 199.111 479.313 359.257C470.006 371.35 457.395 364.776 452.253 359.977Z" fill="#260981" stroke="white" stroke-width="6"/>
<path d="M445.844 48.9892C450.5 48.8655 454.6 49.8873 457.45 51.4835C460.364 53.1157 461.495 55.0238 461.536 56.5847C461.578 58.1456 460.55 60.1112 457.727 61.8958C454.966 63.6411 450.926 64.8793 446.269 65.0031C441.613 65.1269 437.512 64.105 434.663 62.5089C431.749 60.8767 430.618 58.9685 430.577 57.4076C430.535 55.8467 431.563 53.8812 434.386 52.0965C437.147 50.3512 441.187 49.113 445.844 48.9892Z" fill="#260981" stroke="white" stroke-width="6"/>
<path d="M198.013 248.17C189.752 175.518 180.17 61.5791 180.17 61.5791L207.675 60.848C207.675 60.848 214.134 172.018 221.297 242.835C225.438 283.777 233.474 347.399 233.474 347.399C233.474 347.399 230.196 354.397 220.897 353.577C212.909 352.872 209.401 340.91 209.401 340.91C209.401 340.91 202.139 284.449 198.013 248.17Z" fill="#260981" stroke="white" stroke-width="6"/>
<path d="M193.175 50.8335C198.189 50.7003 202.001 51.4056 204.46 52.6515C206.769 53.8214 207.73 55.3435 207.781 57.2729C207.898 61.6886 202.949 68.0845 193.64 68.3322C184.585 68.5729 179.566 62.5341 179.281 57.623C179.242 55.6748 180.074 54.2398 182.148 53.0775C184.437 51.7946 188.113 50.968 193.175 50.8335Z" fill="#260981" stroke="white" stroke-width="6"/>
<path d="M2.24398 324.148L-5.51367 32.2803L24.525 31.4818C25.7409 64.6526 20.8047 163.203 32.2826 323.35C22.9756 335.443 7.38626 328.947 2.24398 324.148Z" fill="#260981" stroke="white" stroke-width="6"/>
<path d="M8.79771 22.2387C13.5844 22.1115 17.7963 23.0171 20.7149 24.4395C23.7817 25.9342 24.6692 27.5611 24.6961 28.5685C24.7229 29.576 23.9233 31.2485 20.9399 32.9043C18.101 34.4796 13.943 35.6077 9.15643 35.7349C4.36975 35.8622 0.157776 34.9566 -2.76074 33.5342C-5.82787 32.0393 -6.71522 30.4116 -6.742 29.4042C-6.76861 28.3967 -5.96882 26.725 -2.98573 25.0694C-0.146887 23.494 4.01095 22.366 8.79771 22.2387Z" fill="#260981" stroke="white" stroke-width="6"/>
<path d="M1066.11 113.03C1066.11 113.03 925.387 103.628 836.759 92.6602C786.027 86.3818 707.553 71.668 707.553 71.668L708.511 107.714C801.843 118.048 929.094 136.456 1071.24 138.4C1215.45 140.373 1430.66 113.843 1442.95 107.277L1442.06 73.7783C1442.06 73.7783 1325.59 103.771 1252.07 108.087C1179.16 112.368 1066.11 113.03 1066.11 113.03Z" fill="#260981" stroke="white" stroke-width="6"/>
<path d="M838.868 171.973C838.868 171.973 752.386 165.186 708.035 157.991L708.798 186.682C971.913 220.48 1224.52 213.634 1448.46 210.994L1447.5 174.851L1254.18 187.4L1067.17 184.96L838.868 171.973Z" fill="#260981" stroke="white" stroke-width="6"/>
<path d="M851.766 263.923C851.766 263.923 759.229 250.866 714.879 243.671L715.852 280.265C978.967 314.064 1226.65 317.038 1450.59 314.398L1449.53 274.5L1267.08 279.35L1080.07 276.91L851.766 263.923Z" fill="#260981" stroke="white" stroke-width="6"/>
<path d="M1421.27 347.866L1413.53 56.7228L1443.55 55.1957C1444.77 88.3665 1439.83 186.921 1451.31 347.067C1442 359.16 1426.41 352.665 1421.27 347.866Z" fill="#260981" stroke="white" stroke-width="6"/>
<path d="M1162.25 372.941L1141.29 74.0529L1171.31 72.5258C1172.53 105.697 1177.83 212.075 1189.31 372.221C1180 384.314 1167.39 377.74 1162.25 372.941Z" fill="#260981" stroke="white" stroke-width="6"/>
<path d="M1155.84 61.9521C1160.49 61.8284 1164.59 62.8502 1167.44 64.4464C1170.36 66.0786 1171.49 67.9867 1171.53 69.5476C1171.57 71.1085 1170.54 73.0741 1167.72 74.8587C1164.96 76.604 1160.92 77.8422 1156.26 77.966C1151.61 78.0897 1147.51 77.0679 1144.66 75.4717C1141.74 73.8396 1140.61 71.9314 1140.57 70.3705C1140.53 68.8096 1141.56 66.8441 1144.38 65.0594C1147.14 63.3141 1151.18 62.0759 1155.84 61.9521Z" fill="#260981" stroke="white" stroke-width="6"/>
<path d="M908.015 261.131C899.754 188.48 890.172 74.541 890.172 74.541L917.677 73.8099C917.677 73.8099 924.136 184.98 931.299 255.797C935.44 296.739 943.476 360.361 943.476 360.361C943.476 360.361 940.198 367.359 930.899 366.539C922.911 365.834 919.403 353.872 919.403 353.872C919.403 353.872 912.141 297.411 908.015 261.131Z" fill="#260981" stroke="white" stroke-width="6"/>
<path d="M903.177 63.7954C908.191 63.6622 912.003 64.3675 914.462 65.6134C916.771 66.7833 917.732 68.3054 917.783 70.2348C917.9 74.6505 912.951 81.0465 903.642 81.2941C894.587 81.5348 889.568 75.496 889.283 70.5849C889.244 68.6367 890.076 67.2017 892.15 66.0394C894.439 64.7565 898.115 63.9299 903.177 63.7954Z" fill="#260981" stroke="white" stroke-width="6"/>
<path d="M1425.53 46.4033C1429.33 46.3021 1432.66 47.19 1434.96 48.549C1437.29 49.932 1438.18 51.5256 1438.21 52.8185C1438.25 54.1114 1437.45 55.7506 1435.19 57.2558C1432.97 58.7347 1429.69 59.7983 1425.89 59.8995C1422.08 60.0006 1418.75 59.1126 1416.46 57.7538C1414.12 56.3706 1413.24 54.7762 1413.2 53.4833C1413.17 52.1904 1413.97 50.552 1416.22 49.0469C1418.44 47.568 1421.72 46.5044 1425.53 46.4033Z" fill="#260981" stroke="white" stroke-width="6"/>
<path d="M712.24 337.111L704.482 45.2432L734.521 44.4447C735.737 77.6155 730.8 176.166 742.278 336.313C732.971 348.406 717.382 341.91 712.24 337.111Z" fill="#260981" stroke="white" stroke-width="6"/>
<path d="M718.946 34.3315C723.732 34.2043 727.944 35.1099 730.863 36.5322C733.93 38.027 734.817 39.6538 734.844 40.6613C734.871 41.6688 734.071 43.3413 731.088 44.997C728.249 46.5724 724.091 47.7005 719.304 47.8277C714.518 47.9549 710.306 47.0494 707.387 45.627C704.32 44.1321 703.433 42.5044 703.406 41.4969C703.379 40.4894 704.179 38.8177 707.162 37.1622C710.001 35.5867 714.159 34.4588 718.946 34.3315Z" fill="#260981" stroke="white" stroke-width="6"/>
</svg>
