<svg width="434" height="203" viewBox="0 0 434 203" fill="none" xmlns="http://www.w3.org/2000/svg">
<path fill-rule="evenodd" clip-rule="evenodd" d="M371.905 0C421.646 0.000139784 453.829 59.228 418.326 104.177C418.074 104.43 417.776 104.723 417.432 105.049C416.743 105.7 415.862 106.489 414.793 107.366C412.664 109.113 409.721 111.261 405.983 113.359C398.469 117.578 387.568 121.68 373.825 121.68C371.609 121.68 369.421 121.57 367.265 121.36L364.891 125.16H400.101V200.76H327.353C321.932 202.069 316.258 202.68 310.505 202.68C304.248 202.68 298.534 201.947 293.385 200.76H153.142C149.284 201.945 144.967 202.68 140.2 202.68C130.671 202.68 121.259 200.3 113.182 195.224C103.909 200.409 93.1059 202.68 82.0048 202.68C66.4477 202.68 54.2392 198.159 45.7519 193.346C41.5486 190.962 38.2678 188.516 35.9052 186.521C34.7203 185.52 33.753 184.621 33.0019 183.884C32.6259 183.515 32.3019 183.185 32.0312 182.9C31.8959 182.758 31.7734 182.627 31.664 182.509C30.8377 181.613 34.0148 185.141 18.8525 168.194L29.123 151.76H-5.68395e-05V1.91992H60.1103C64.1556 0.724965 68.6683 4.37341e-05 73.6396 0C86.9504 0 98.0776 4.89381 106.571 12.8662C116.892 4.80162 129.891 0 144.03 0C157.799 3.86934e-05 170.486 4.5545 180.672 12.2402C182.393 10.9894 184.437 9.64518 186.797 8.32031C194.311 4.10192 205.212 4.55435e-06 218.955 0C235.238 0 250.057 5.80146 261.202 15.5225C272.347 5.80137 287.167 0 303.45 0C317.78 1.87714e-05 329.137 4.23035 336.981 8.60254C337.64 8.96946 338.274 9.33844 338.885 9.70605C348.39 3.56266 359.725 0 371.905 0ZM121.456 169.558C121.462 169.565 121.469 169.572 121.475 169.58C121.46 169.562 121.445 169.544 121.431 169.525C121.439 169.536 121.448 169.547 121.456 169.558ZM156.483 168.668C156.519 168.612 156.555 168.561 156.586 168.512L156.598 168.492C156.564 168.547 156.524 168.604 156.483 168.668ZM280.849 167.68C280.856 167.686 280.863 167.691 280.87 167.697C280.854 167.684 280.838 167.67 280.821 167.656C280.83 167.664 280.839 167.672 280.849 167.68ZM76.6132 156.433C76.4174 156.484 76.211 156.52 75.9951 156.54C76.3252 156.509 76.6332 156.441 76.915 156.34L76.6132 156.433ZM305.113 156.433C304.917 156.484 304.711 156.52 304.495 156.54C304.825 156.509 305.133 156.441 305.415 156.34L305.113 156.433ZM78.123 155.572C77.9984 155.702 77.8586 155.822 77.704 155.932C77.6266 155.986 77.5454 156.038 77.4609 156.087C77.7142 155.941 77.9359 155.766 78.123 155.572ZM306.623 155.572C306.498 155.702 306.359 155.822 306.204 155.932C306.127 155.986 306.045 156.038 305.961 156.087C306.214 155.941 306.436 155.766 306.623 155.572ZM288.104 150.16C288.104 150.16 292.524 154.575 299.525 156.069C298.48 155.846 297.492 155.558 296.568 155.229C296.551 155.222 296.533 155.216 296.516 155.21C293.487 154.124 291.149 152.604 289.715 151.515C289.605 151.431 289.5 151.35 289.401 151.272C289.32 151.208 289.242 151.147 289.168 151.087C289.057 150.997 288.954 150.913 288.859 150.834C288.827 150.807 288.796 150.781 288.767 150.756C288.739 150.733 288.713 150.71 288.687 150.688C288.539 150.56 288.418 150.451 288.326 150.366C288.187 150.239 288.11 150.166 288.104 150.16ZM157.432 151.765C157.335 152.093 157.229 152.406 157.115 152.703C157.001 153 156.879 153.281 156.75 153.547C156.62 153.813 156.484 154.064 156.341 154.299C156.771 153.593 157.142 152.751 157.432 151.765ZM59.6044 150.16C59.6044 150.16 61.7687 152.321 65.4658 154.132C63.6816 153.257 62.2547 152.301 61.2558 151.546C61.1364 151.456 61.023 151.368 60.916 151.284C60.8483 151.231 60.7823 151.18 60.7197 151.13C60.5819 151.019 60.4567 150.915 60.3437 150.82C60.2887 150.774 60.2365 150.73 60.1874 150.688C60.1369 150.644 60.09 150.602 60.0458 150.563C59.9509 150.48 59.8712 150.407 59.8066 150.348C59.68 150.231 59.6101 150.166 59.6044 150.16ZM111.78 151.515C111.768 151.44 111.755 151.365 111.742 151.291C111.74 151.281 111.738 151.27 111.736 151.26C111.752 151.344 111.766 151.429 111.78 151.515ZM158.12 146.32C158.12 147.76 158.008 149.042 157.804 150.176L157.898 149.597C158.014 148.808 158.087 147.952 158.111 147.027L158.12 146.32ZM119.191 147.534C119.186 147.544 119.181 147.554 119.176 147.564C119.186 147.544 119.197 147.523 119.208 147.502C119.202 147.513 119.197 147.523 119.191 147.534ZM119.825 146.401C119.822 146.406 119.819 146.41 119.816 146.415C119.821 146.407 119.827 146.399 119.832 146.391C119.83 146.394 119.827 146.398 119.825 146.401ZM120.066 146.018C120.061 146.026 120.055 146.035 120.05 146.044C120.065 146.02 120.08 145.997 120.096 145.974C120.086 145.988 120.076 146.003 120.066 146.018ZM121.362 144.271C121.352 144.282 121.343 144.294 121.333 144.306C121.349 144.287 121.365 144.267 121.381 144.248C121.375 144.255 121.369 144.263 121.362 144.271ZM121.983 143.571C121.961 143.595 121.939 143.619 121.917 143.643C121.973 143.582 122.03 143.523 122.087 143.464C122.052 143.5 122.017 143.535 121.983 143.571ZM122.847 142.714C122.84 142.72 122.833 142.726 122.826 142.732C122.839 142.72 122.853 142.708 122.866 142.695C122.86 142.701 122.853 142.708 122.847 142.714ZM123.22 142.374C123.201 142.391 123.183 142.407 123.164 142.424C123.209 142.384 123.254 142.345 123.299 142.306C123.273 142.329 123.246 142.351 123.22 142.374ZM287.27 141.731C287.349 141.819 287.429 141.906 287.509 141.992C287.518 142.002 287.527 142.012 287.536 142.021C287.441 141.92 287.348 141.817 287.255 141.714C287.26 141.72 287.265 141.726 287.27 141.731ZM335.685 141.977C335.678 141.97 335.672 141.962 335.666 141.955C335.631 141.916 335.595 141.878 335.56 141.84C335.601 141.885 335.643 141.931 335.685 141.977ZM125.169 140.858C125.153 140.869 125.137 140.881 125.121 140.892C125.146 140.874 125.17 140.857 125.195 140.84C125.186 140.846 125.178 140.852 125.169 140.858ZM272.055 139.92V139.916C272.055 139.875 272.054 139.833 272.054 139.792C272.054 139.835 272.055 139.877 272.055 139.92ZM126.755 139.867C126.741 139.875 126.727 139.884 126.713 139.892C126.734 139.88 126.754 139.866 126.775 139.854C126.768 139.858 126.762 139.863 126.755 139.867ZM127.206 139.616C127.164 139.639 127.123 139.662 127.081 139.685C127.156 139.643 127.232 139.602 127.308 139.562C127.274 139.58 127.24 139.598 127.206 139.616ZM129.545 138.498C129.506 138.514 129.468 138.531 129.43 138.548C129.486 138.524 129.543 138.498 129.6 138.475C129.581 138.482 129.563 138.49 129.545 138.498ZM130.782 138.01C130.732 138.028 130.683 138.048 130.633 138.066C130.739 138.026 130.846 137.986 130.954 137.947C130.897 137.968 130.839 137.989 130.782 138.01ZM132.01 137.585C131.983 137.594 131.956 137.603 131.93 137.611C132.001 137.588 132.073 137.566 132.144 137.543C132.1 137.557 132.054 137.57 132.01 137.585ZM132.816 137.335C132.784 137.344 132.753 137.355 132.721 137.364C132.781 137.346 132.842 137.328 132.903 137.31C132.874 137.318 132.845 137.326 132.816 137.335ZM284.166 137.082C284.171 137.092 284.176 137.102 284.181 137.112C284.172 137.094 284.163 137.075 284.154 137.057C284.158 137.065 284.162 137.074 284.166 137.082ZM55.5497 136.827C55.5543 136.837 55.5589 136.847 55.5634 136.857C55.5556 136.84 55.5477 136.823 55.54 136.806C55.5432 136.813 55.5465 136.82 55.5497 136.827ZM158.119 135.439H147.88L158.12 135.44L158.119 135.439ZM283.393 135.149C283.394 135.155 283.396 135.161 283.398 135.167C283.388 135.136 283.379 135.104 283.368 135.072C283.377 135.098 283.384 135.124 283.393 135.149ZM283.214 134.587C283.217 134.596 283.22 134.605 283.223 134.614C283.216 134.592 283.21 134.57 283.203 134.548C283.207 134.561 283.21 134.574 283.214 134.587ZM54.5458 133.996C54.5484 134.006 54.551 134.016 54.5537 134.025C54.5461 133.997 54.5396 133.969 54.5322 133.94C54.537 133.959 54.5409 133.978 54.5458 133.996ZM282.975 133.722C282.99 133.783 283.006 133.845 283.022 133.906C283.024 133.913 283.026 133.921 283.028 133.928C283.009 133.855 282.99 133.783 282.972 133.71C282.973 133.714 282.974 133.718 282.975 133.722ZM124.586 115.858C124.434 116.005 124.327 116.113 124.265 116.177C124.223 116.219 124.2 116.24 124.2 116.24L124.586 115.858ZM135.431 133.194C135.207 133.395 135.085 133.514 135.08 133.52C135.084 133.515 135.206 133.396 135.431 133.194ZM234.792 132.51C234.588 132.589 234.388 132.687 234.192 132.801C234.314 132.73 234.437 132.665 234.561 132.607C234.638 132.572 234.715 132.54 234.792 132.51ZM136.463 132.332C136.386 132.392 136.313 132.453 136.242 132.51C136.318 132.449 136.396 132.385 136.478 132.32L136.463 132.332ZM236.455 132.247C236.615 132.257 236.774 132.278 236.933 132.308L236.694 132.27C236.615 132.26 236.535 132.252 236.455 132.247ZM102.293 132.06C102.419 132.176 102.485 132.24 102.485 132.24L102.251 132.02C102.172 131.948 102.073 131.861 101.956 131.76C102.095 131.88 102.208 131.981 102.293 132.06ZM330.793 132.06C330.919 132.176 330.985 132.24 330.985 132.24L330.751 132.02C330.663 131.94 330.551 131.841 330.416 131.726C330.574 131.861 330.7 131.974 330.793 132.06ZM282.55 131.514C282.551 131.524 282.553 131.534 282.555 131.544C282.549 131.502 282.544 131.461 282.538 131.419C282.542 131.451 282.545 131.482 282.55 131.514ZM100.984 130.98C101.051 131.031 101.117 131.08 101.18 131.129C101.277 131.204 101.368 131.276 101.455 131.346C101.509 131.389 101.562 131.431 101.612 131.472C101.629 131.486 101.646 131.5 101.663 131.514C101.398 131.295 101.071 131.041 100.69 130.765C100.792 130.838 100.891 130.91 100.984 130.98ZM329.494 130.987C329.55 131.029 329.604 131.071 329.657 131.111C329.773 131.2 329.881 131.286 329.982 131.367C330.027 131.403 330.07 131.438 330.112 131.472C330.129 131.486 330.146 131.5 330.163 131.514C329.971 131.356 329.747 131.178 329.494 130.987ZM326.352 129.026C326.357 129.029 326.362 129.032 326.367 129.034C326.394 129.048 326.42 129.062 326.446 129.075C326.882 129.299 327.292 129.528 327.673 129.758C327.713 129.782 327.753 129.807 327.793 129.831C328.284 130.131 328.724 130.429 329.111 130.707C328.376 130.179 327.446 129.58 326.352 129.026ZM87.1298 129.77C87.1425 129.894 87.1815 130.016 87.2451 130.136C87.1662 129.987 87.1249 129.835 87.1249 129.68L87.1298 129.77ZM315.63 129.77C315.631 129.778 315.632 129.787 315.633 129.796C315.628 129.757 315.625 129.719 315.625 129.68L315.63 129.77ZM325.074 128.437C325.226 128.5 325.375 128.564 325.522 128.63C325.352 128.553 325.177 128.479 325 128.405C325.025 128.416 325.049 128.426 325.074 128.437ZM323.406 127.831C323.565 127.88 323.722 127.93 323.877 127.982C323.697 127.922 323.515 127.863 323.33 127.808C323.355 127.816 323.381 127.823 323.406 127.831ZM89.6357 127.178C89.0891 127.271 88.6131 127.475 88.2265 127.748C88.3812 127.639 88.5502 127.54 88.7324 127.456C89.0057 127.33 89.3075 127.234 89.6357 127.178ZM318.136 127.178C317.589 127.271 317.113 127.475 316.727 127.748C316.881 127.639 317.05 127.54 317.232 127.456C317.506 127.33 317.808 127.234 318.136 127.178ZM284.004 120.319C284.08 120.145 284.159 119.971 284.241 119.799C284.238 119.806 284.235 119.812 284.231 119.819C284.153 119.985 284.077 120.152 284.004 120.319ZM125.168 115.323C125 115.472 124.853 115.607 124.728 115.724C124.858 115.602 125.011 115.461 125.188 115.305C125.181 115.311 125.175 115.317 125.168 115.323ZM287.999 114.416C287.944 114.472 287.891 114.529 287.837 114.585C287.9 114.519 287.963 114.453 288.026 114.388C288.017 114.397 288.008 114.407 287.999 114.416ZM336.846 113.862C336.661 113.732 336.47 113.6 336.272 113.466L336.269 113.464C336.468 113.599 336.66 113.732 336.846 113.862ZM108.279 113.816C108.276 113.814 108.272 113.811 108.269 113.809C108.202 113.762 108.133 113.715 108.064 113.668C108.137 113.718 108.209 113.767 108.279 113.816ZM107.231 113.106C107.178 113.071 107.125 113.035 107.071 113C107.062 112.994 107.053 112.988 107.044 112.982C107.107 113.024 107.169 113.066 107.231 113.106ZM335.405 112.894C335.397 112.888 335.39 112.883 335.382 112.878C335.301 112.826 335.219 112.776 335.137 112.724C335.227 112.781 335.317 112.837 335.405 112.894ZM333.83 111.924C333.823 111.92 333.816 111.915 333.809 111.911C333.593 111.785 333.372 111.66 333.147 111.533C333.38 111.664 333.608 111.793 333.83 111.924ZM103.948 111.148C103.939 111.143 103.929 111.139 103.92 111.134C103.916 111.132 103.911 111.129 103.907 111.127C103.921 111.134 103.935 111.141 103.948 111.148ZM292.118 111.076C292.08 111.101 292.042 111.125 292.004 111.149C292.106 111.083 292.21 111.018 292.314 110.953C292.249 110.994 292.183 111.035 292.118 111.076ZM102.102 110.208C102.081 110.198 102.061 110.188 102.041 110.179C102.021 110.169 102.001 110.16 101.981 110.15C101.967 110.143 101.952 110.137 101.937 110.13C101.992 110.156 102.047 110.182 102.102 110.208ZM261.218 109.928C261.174 109.894 261.13 109.861 261.086 109.828C261.083 109.826 261.08 109.823 261.077 109.821C261.124 109.856 261.171 109.892 261.218 109.928ZM327.442 108.836C327.417 108.826 327.392 108.815 327.366 108.806C327.351 108.8 327.335 108.794 327.319 108.788C327.36 108.804 327.401 108.82 327.442 108.836ZM165.764 108.658C165.751 108.653 165.738 108.648 165.725 108.643C165.705 108.635 165.685 108.628 165.665 108.62C165.698 108.633 165.731 108.646 165.764 108.658ZM326.006 108.308C325.988 108.301 325.969 108.294 325.951 108.288C325.89 108.267 325.828 108.247 325.767 108.227C325.846 108.254 325.926 108.28 326.006 108.308ZM138.447 107.948C138.439 107.951 138.432 107.954 138.424 107.956C138.489 107.935 138.554 107.914 138.619 107.894C138.562 107.912 138.504 107.93 138.447 107.948ZM257.135 107.575C257.106 107.563 257.077 107.55 257.048 107.538C257.044 107.536 257.04 107.535 257.036 107.533C257.069 107.547 257.102 107.561 257.135 107.575ZM94.6455 107.427C94.6403 107.425 94.635 107.424 94.6298 107.423C94.6201 107.42 94.6103 107.418 94.6005 107.415C94.6155 107.419 94.6305 107.423 94.6455 107.427ZM322.754 107.322C322.747 107.321 322.741 107.319 322.734 107.317C322.703 107.309 322.671 107.302 322.64 107.294C322.678 107.304 322.716 107.312 322.754 107.322ZM255.811 107.074C255.808 107.073 255.804 107.072 255.8 107.07C255.698 107.036 255.596 107.003 255.493 106.971C255.599 107.004 255.706 107.039 255.811 107.074ZM160.464 107.045C160.444 107.04 160.424 107.036 160.404 107.031C160.363 107.022 160.322 107.013 160.281 107.004C160.342 107.018 160.403 107.031 160.464 107.045ZM320.951 106.897C320.931 106.893 320.911 106.889 320.892 106.885C320.882 106.883 320.873 106.881 320.864 106.879C320.893 106.885 320.922 106.891 320.951 106.897ZM159.779 106.893C159.771 106.891 159.764 106.889 159.756 106.888C159.714 106.879 159.672 106.871 159.63 106.862C159.68 106.873 159.73 106.882 159.779 106.893ZM319.277 106.577C319.255 106.573 319.232 106.569 319.209 106.565C319.096 106.546 318.983 106.53 318.869 106.512C319.006 106.533 319.142 106.554 319.277 106.577ZM198.998 95.2529C199.001 95.2539 199.004 95.2549 199.007 95.2559C198.991 95.2505 198.976 95.2446 198.96 95.2393C198.973 95.2438 198.985 95.2485 198.998 95.2529ZM63.4306 94.2578C63.1832 94.1275 62.9425 93.9935 62.708 93.8574C62.8278 93.9269 62.949 93.9964 63.0722 94.0645L63.4306 94.2578ZM388.286 94.0957C388.138 94.1514 387.988 94.2062 387.837 94.2607C388.179 94.137 388.515 94.0111 388.845 93.8818L388.286 94.0957ZM392.864 92.0391C392.581 92.1886 392.29 92.3374 391.992 92.4854C392.608 92.1796 393.192 91.8698 393.745 91.5596L392.864 92.0391ZM56.4833 88.2607C56.2607 87.9516 56.089 87.6898 55.9648 87.4922L55.9706 87.502C56.0944 87.6984 56.2642 87.9566 56.4833 88.2607ZM121.105 88.1475H121.107C121.088 88.1316 121.068 88.1165 121.049 88.1006C121.068 88.1161 121.086 88.132 121.105 88.1475ZM348.497 87.7451C348.514 87.7599 348.532 87.7743 348.55 87.7891C348.494 87.7421 348.439 87.6947 348.384 87.6475C348.422 87.6798 348.459 87.7129 348.497 87.7451ZM224.358 87.668C224.394 87.6117 224.43 87.5607 224.461 87.5117L224.473 87.4922C224.439 87.5466 224.399 87.6042 224.358 87.668ZM319.259 65.499C319.168 65.5827 319.047 65.6932 318.896 65.8242C318.826 65.8856 318.748 65.9515 318.665 66.0215C318.6 66.0764 318.53 66.1328 318.457 66.1924C318.363 66.2688 318.265 66.3496 318.159 66.4326C318.068 66.5041 317.972 66.5767 317.873 66.6523C317.818 66.6943 317.762 66.7373 317.704 66.7803C317.595 66.8619 317.481 66.9454 317.362 67.0303C317.289 67.0829 317.213 67.1349 317.136 67.1885C315.958 68.0098 314.391 68.9334 312.574 69.5859C316.628 68.133 319.439 65.3316 319.45 65.3203L332.25 85.7998C332.25 85.7998 332.13 85.9215 331.898 86.1436C332.127 85.9246 332.247 85.8032 332.25 85.7998L319.45 65.3203C319.45 65.3203 319.384 65.3833 319.259 65.499ZM275.503 85.29C275.526 85.3142 275.55 85.3383 275.573 85.3623C275.527 85.3144 275.481 85.266 275.435 85.2178C275.457 85.2417 275.48 85.2662 275.503 85.29ZM345.208 84.5771C345.266 84.6408 345.325 84.7034 345.384 84.7666C345.301 84.6773 345.218 84.5881 345.137 84.498C345.161 84.5243 345.184 84.5509 345.208 84.5771ZM344.75 84.0654C344.768 84.0862 344.787 84.1062 344.806 84.127C344.72 84.0297 344.634 83.9322 344.55 83.834C344.616 83.9112 344.683 83.9887 344.75 84.0654ZM272.152 81.2559C272.187 81.3043 272.222 81.3524 272.257 81.4004C272.186 81.3025 272.117 81.204 272.048 81.1055C272.083 81.1554 272.117 81.2061 272.152 81.2559ZM341.56 79.8232C341.587 79.8649 341.615 79.9059 341.642 79.9473C341.577 79.8476 341.513 79.7478 341.45 79.6475C341.487 79.706 341.523 79.7649 341.56 79.8232ZM110.591 73.7314C110.596 73.7442 110.601 73.7568 110.606 73.7695C110.584 73.713 110.563 73.6563 110.541 73.5996C110.558 73.6435 110.574 73.6877 110.591 73.7314ZM225.307 70.7646C225.21 71.0935 225.104 71.4062 224.99 71.7031C224.876 72.0001 224.754 72.2812 224.625 72.5469C224.495 72.8127 224.359 73.0636 224.216 73.2988C224.646 72.5935 225.017 71.7513 225.307 70.7646ZM99.4765 71.6338C99.4861 71.5866 99.4963 71.5395 99.5058 71.4922C99.5123 71.4598 99.5169 71.427 99.5234 71.3945C99.5075 71.4744 99.4928 71.5543 99.4765 71.6338ZM266.944 70.2627C266.962 70.3272 266.979 70.3917 266.997 70.4561C267.003 70.4789 267.01 70.5016 267.017 70.5244C266.972 70.3667 266.93 70.2084 266.888 70.0498C266.907 70.1208 266.925 70.1919 266.944 70.2627ZM61.4804 70.4404L61.122 70.4307C61.2406 70.4369 61.3605 70.4404 61.4804 70.4404ZM301.483 68.668C302.896 69.6313 304.672 70.2321 306.76 70.3945C306.001 70.3354 305.283 70.2184 304.608 70.0469C304.44 70.0039 304.274 69.9579 304.11 69.9082C302.969 69.5608 301.964 69.0499 301.107 68.3955L301.483 68.668ZM68.2285 63.9453C68.1905 64.1342 68.1512 64.3194 68.1064 64.5L65.8974 68.6406C65.6936 68.8417 65.4799 69.025 65.2587 69.1924C66.6673 68.1267 67.7405 66.3788 68.2285 63.9453ZM225.995 65.3203C225.995 66.7601 225.883 68.0425 225.679 69.1758L225.773 68.5967C225.889 67.8079 225.962 66.9523 225.986 66.0273L225.995 65.3203ZM187.957 64.9932C187.951 65.0029 187.945 65.0128 187.938 65.0225C187.95 65.005 187.96 64.9871 187.972 64.9697C187.967 64.9774 187.962 64.9854 187.957 64.9932ZM188.226 64.5928C188.218 64.6041 188.21 64.6156 188.202 64.627C188.218 64.6034 188.235 64.5801 188.251 64.5566C188.243 64.5687 188.234 64.5807 188.226 64.5928ZM297.734 61.8975C297.779 62.414 297.857 62.9125 297.967 63.3916C297.894 63.072 297.835 62.7437 297.791 62.4072C297.769 62.239 297.75 62.0688 297.735 61.8965L297.734 61.8975ZM189.274 63.2256C189.228 63.2804 189.182 63.3363 189.137 63.3916C189.193 63.3234 189.25 63.2551 189.308 63.1875C189.297 63.2003 189.285 63.2128 189.274 63.2256ZM189.905 62.5234C189.895 62.534 189.886 62.5451 189.876 62.5557C189.898 62.5322 189.92 62.5087 189.942 62.4854C189.93 62.4982 189.917 62.5106 189.905 62.5234ZM54.4765 62.0029C54.4809 62.0701 54.488 62.1367 54.4931 62.2031C54.4871 62.1252 54.4795 62.0468 54.4746 61.9678L54.4765 62.0029ZM190.795 61.6445C190.772 61.6655 190.75 61.687 190.727 61.708C190.762 61.6762 190.796 61.644 190.83 61.6123C190.818 61.6231 190.807 61.6338 190.795 61.6445ZM100.519 60.8398C100.519 61.007 100.517 61.1738 100.516 61.3398L100.519 60.8398ZM191.482 61.041C191.466 61.055 191.449 61.069 191.433 61.083C191.48 61.0433 191.527 61.0043 191.575 60.9648C191.544 60.9904 191.513 61.0154 191.482 61.041ZM193.049 59.8545C193.021 59.8737 192.994 59.8938 192.966 59.9131C193.013 59.8807 193.059 59.8476 193.106 59.8154C193.087 59.8285 193.068 59.8414 193.049 59.8545ZM193.349 59.6533C193.336 59.6616 193.323 59.6694 193.31 59.6777C193.338 59.6595 193.366 59.6421 193.393 59.624C193.379 59.6338 193.363 59.6435 193.349 59.6533ZM194.547 58.9141C194.517 58.9315 194.487 58.9503 194.457 58.9678C194.514 58.9344 194.572 58.9003 194.63 58.8672C194.602 58.8829 194.574 58.8982 194.547 58.9141ZM195.566 58.3604C195.536 58.3759 195.506 58.3916 195.476 58.4072C195.553 58.3671 195.631 58.3276 195.709 58.2881C195.661 58.3122 195.614 58.3361 195.566 58.3604ZM197.3 57.5488C197.278 57.558 197.257 57.5679 197.235 57.5771C197.279 57.5584 197.322 57.5391 197.366 57.5205C197.344 57.5299 197.322 57.5394 197.3 57.5488ZM198.047 57.2432C198.032 57.2491 198.017 57.2548 198.002 57.2607C198.052 57.2409 198.103 57.2218 198.153 57.2021C198.118 57.216 198.082 57.2293 198.047 57.2432ZM199.913 56.5762C199.887 56.5846 199.861 56.5931 199.835 56.6016C199.889 56.5839 199.944 56.5672 199.998 56.5498C199.97 56.5588 199.941 56.5671 199.913 56.5762ZM200.818 56.2979C200.802 56.3025 200.786 56.3068 200.77 56.3115C200.798 56.3034 200.826 56.2952 200.853 56.2871C200.842 56.2905 200.83 56.2944 200.818 56.2979ZM202.914 55.748C202.836 55.7661 202.759 55.7843 202.682 55.8027C202.806 55.773 202.932 55.7446 203.058 55.7158C203.01 55.7268 202.962 55.737 202.914 55.748ZM204.486 55.4141C204.428 55.4253 204.37 55.4368 204.312 55.4482C204.42 55.427 204.528 55.4063 204.637 55.3857C204.586 55.3953 204.536 55.4044 204.486 55.4141ZM266.235 54.5771C266.195 54.8078 266.156 55.0393 266.12 55.2715C266.158 55.0281 266.198 54.7856 266.241 54.5439C266.239 54.555 266.237 54.5661 266.235 54.5771ZM366.261 53.2803C366.184 53.8402 366.144 54.4402 366.144 55.0801C366.144 54.28 366.207 53.5423 366.325 52.8672L366.261 53.2803ZM138.386 53.2803C138.309 53.8402 138.269 54.4402 138.269 55.0801C138.269 54.28 138.332 53.5423 138.45 52.8672L138.386 53.2803ZM317.434 54.6992C317.477 54.7304 317.519 54.7614 317.561 54.792C317.506 54.7511 317.448 54.7106 317.391 54.6689C317.405 54.6792 317.419 54.689 317.434 54.6992ZM225.994 54.4395H215.755L225.995 54.4404L225.994 54.4395ZM61.4804 51.2402C59.5606 51.2402 57.8004 52.04 56.5205 53.6396C56.6805 53.4397 56.848 53.2521 57.0224 53.0771C57.1096 52.9897 57.1985 52.9054 57.289 52.8242C57.4702 52.6617 57.6578 52.5115 57.8515 52.374C57.9483 52.3053 58.0468 52.2402 58.1464 52.1777C58.5452 51.9278 58.9665 51.7281 59.4052 51.5781C59.5149 51.5406 59.6255 51.5058 59.7372 51.4746C60.2962 51.3184 60.8805 51.2402 61.4804 51.2402ZM179.016 53.0127C179.005 52.9642 178.995 52.9156 178.984 52.8672C178.98 52.8463 178.974 52.8255 178.97 52.8047C178.985 52.8739 179 52.9433 179.016 53.0127ZM266.822 51.8691C266.819 51.8818 266.816 51.8945 266.812 51.9072C266.75 52.1484 266.691 52.3906 266.634 52.6338C266.694 52.3779 266.757 52.1229 266.822 51.8691ZM203.285 52.2129C203.075 52.4022 202.96 52.5142 202.955 52.5195C202.959 52.5156 203.074 52.4034 203.285 52.2129ZM312.53 52.0771C312.54 52.0806 312.55 52.0844 312.56 52.0879C312.68 52.1311 312.8 52.1752 312.919 52.2207C312.959 52.2361 312.999 52.2519 313.039 52.2676C313.236 52.3449 313.43 52.425 313.621 52.5078C313.178 52.3156 312.717 52.1369 312.24 51.9775C312.337 52.0101 312.434 52.0431 312.53 52.0771ZM177.709 48.5254C177.751 48.6399 177.79 48.7551 177.831 48.8701C177.793 48.7617 177.756 48.6529 177.717 48.5449C177.714 48.5383 177.711 48.532 177.709 48.5254ZM177.679 48.4424C177.671 48.4222 177.664 48.402 177.656 48.3818C177.62 48.2838 177.582 48.1865 177.545 48.0889C177.59 48.2066 177.635 48.324 177.679 48.4424ZM268.092 47.9482C268.088 47.9587 268.083 47.969 268.079 47.9795C268.084 47.9659 268.089 47.9521 268.095 47.9385C268.093 47.9416 268.093 47.9451 268.092 47.9482ZM270.889 42.3291C270.866 42.365 270.845 42.4015 270.823 42.4375C270.807 42.4642 270.791 42.4909 270.774 42.5176C270.819 42.4441 270.863 42.37 270.908 42.2969C270.902 42.3076 270.895 42.3184 270.889 42.3291ZM113.826 41.498C113.818 41.5106 113.811 41.5236 113.803 41.5361C113.663 41.7549 113.526 41.9753 113.391 42.1973C113.533 41.9625 113.678 41.7292 113.826 41.498ZM271.754 40.9971C271.732 41.0296 271.71 41.0621 271.687 41.0947C271.717 41.0507 271.747 41.0068 271.777 40.9629C271.769 40.9743 271.762 40.9857 271.754 40.9971ZM95.0605 38.1846C95.0491 38.1652 95.0387 38.1453 95.0273 38.126C95.0169 38.1084 95.0064 38.0909 94.996 38.0732C95.0178 38.1101 95.0388 38.1475 95.0605 38.1846ZM395.378 33.7246C396.461 34.6624 397.488 35.6635 398.451 36.7236C397.68 35.8755 396.87 35.0646 396.021 34.2939C395.81 34.1015 395.594 33.912 395.378 33.7246ZM275.685 36.2002C275.64 36.2463 275.597 36.2935 275.552 36.3398C275.605 36.2851 275.657 36.2292 275.71 36.1748C275.71 36.1748 275.694 36.1918 275.685 36.2002ZM332.25 35.8799C332.25 35.8799 332.094 35.7145 331.785 35.4238C332.091 35.7121 332.247 35.8772 332.25 35.8799ZM192.937 34.4199C192.889 34.4631 192.844 34.5057 192.8 34.5459C192.848 34.5024 192.897 34.4561 192.949 34.4092C192.945 34.4127 192.941 34.4164 192.937 34.4199ZM89.9199 31.6514C90.0839 31.8065 90.2469 31.9637 90.4081 32.124C90.4062 32.1221 90.4042 32.1201 90.4023 32.1182C90.243 31.9598 90.0819 31.8046 89.9199 31.6514ZM197.093 31.2891C197.068 31.3046 197.045 31.3204 197.02 31.3359C197.059 31.311 197.098 31.2857 197.137 31.2607C197.122 31.2702 197.107 31.2797 197.093 31.2891ZM320.499 28.3506C320.482 28.3434 320.464 28.3363 320.447 28.3291C320.434 28.3235 320.42 28.3181 320.406 28.3125C320.437 28.3253 320.468 28.3377 320.499 28.3506ZM65.4404 26.5C65.5826 26.4439 65.7264 26.3887 65.872 26.335C65.5803 26.4426 65.2955 26.5549 65.0175 26.6719L65.4404 26.5ZM362.933 26.125C362.658 26.1954 362.385 26.27 362.113 26.3467C362.669 26.19 363.23 26.0453 363.797 25.915L362.933 26.125ZM303.45 25C304.008 25 304.558 25.0102 305.101 25.0293C304.84 25.0202 304.578 25.0126 304.314 25.0078L303.45 25ZM104.435 111.412C104.431 111.41 104.427 111.408 104.423 111.406C104.267 111.32 104.108 111.235 103.948 111.148C104.112 111.237 104.275 111.323 104.435 111.412Z" fill="white"/>
</svg>
