<svg width="727" height="873" viewBox="0 0 727 873" fill="none" xmlns="http://www.w3.org/2000/svg">
<path d="M474.424 809.14L492.596 831.854L492.907 832.244L493.075 832.712L503.297 861.105L505.494 867.208L499.421 864.93L481.761 858.307H454.575L454.128 858.163L422.328 847.942L420.246 847.272V817.606L422.697 817.15L471.533 808.065L473.301 807.736L474.424 809.14Z" fill="#260981" stroke="#F7D5D5" stroke-width="6"/>
<path d="M224.627 662.088C225.621 639.502 216.448 612.975 211.738 602.535L210.094 582.612L280.03 639.806L284.176 680.56L282.701 732.639L304.584 755.344L312.52 771.47L311.908 793.096L289.249 797.754L264.683 791.758L252.293 761.371L238.382 753.469L217.665 705.178C219.572 700.226 223.634 684.675 224.627 662.088Z" fill="#F7D5D5" stroke="#F7D5D5" stroke-width="6"/>
<path d="M407.815 745.277C407.815 738.544 407.17 702.895 404.543 682.956L463.991 655.363L469.897 667.175L476.394 686.075C476.394 687.65 475.094 693.28 469.897 703.202C464.7 713.125 467.731 722.695 469.897 731.357C467.889 746.398 463.991 752.603 463.991 782.79L481.561 818.172L420.247 816.163C409.63 794.285 407.814 766.073 407.815 745.277Z" fill="#F7D5D5" stroke="#F7D5D5" stroke-width="6"/>
<path d="M260.435 768.927L308.828 772.151L310.732 772.278L311.425 774.058L316.972 788.329L316.985 788.365L316.999 788.402L327.55 817.782L328.615 820.748L325.6 821.666L288.637 832.916L288.21 833.046H248.976L249.433 829.646L257.262 771.52L257.636 768.74L260.435 768.927Z" fill="#260981" stroke="#F7D5D5" stroke-width="6"/>
<path d="M97.488 106.447C132.494 86.7216 169.865 85.651 197.303 91.8055L202.931 93.0684L200.649 98.3648L200.648 98.3658L200.648 98.3667C200.648 98.3678 200.647 98.3694 200.646 98.3715C200.644 98.3758 200.642 98.3823 200.638 98.3907C200.631 98.4075 200.62 98.4324 200.606 98.4654C200.577 98.5318 200.535 98.6309 200.479 98.7596C200.368 99.0172 200.205 99.3954 199.997 99.8779C199.581 100.843 198.986 102.226 198.267 103.895C196.828 107.234 194.896 111.721 192.919 116.312C190.029 123.022 188.342 128.419 183.582 135.745C179.201 142.487 177.466 144.093 171.585 150.689C169.014 153.572 166.944 156.008 165.52 157.718C164.809 158.572 164.259 159.245 163.891 159.7C163.706 159.928 163.567 160.102 163.475 160.216C163.43 160.274 163.395 160.316 163.374 160.344C163.363 160.357 163.355 160.368 163.351 160.374C163.348 160.377 163.346 160.378 163.345 160.38L163.344 160.379L163.345 160.38L162.573 161.357L161.424 161.834C134.453 173.015 102.945 190.223 19.731 236.899L9.9327 242.395L12.7632 231.523C30.2167 164.475 62.3634 126.239 97.488 106.447Z" fill="#F7D5D5" stroke="#260981" stroke-width="9.56532"/>
<path d="M5.51734 247.35C22.9677 113.853 125.977 67.122 207.068 90.7439L188.651 137.779L169.56 164.532C140.258 167.822 105.414 201.353 5.51734 247.35Z" stroke="#F7D5D5" stroke-width="6"/>
<path d="M188.054 305.16C214.894 357.05 241.481 449.21 232.907 516.682L642.08 561.472L685.084 536.635L642.08 168.62C640.545 168.341 630.78 163.514 603.994 146.438C587.588 80.813 497.827 76.1254 454.998 81.9848C448.441 80.0317 411.89 72.4424 318.14 57.7102C250.757 44.7358 201.474 77.0216 188.054 135.175C162.332 179.908 147.794 221.286 188.054 305.16Z" fill="#F7D5D5"/>
<path d="M257.623 635.06C191.542 580.096 194.173 522.61 199.062 500.737H214.461L294.064 571.534L543.731 617.366L549.761 641.489L486.899 671.343L424.369 710.714H331.732C328.387 710.714 308.882 695.583 257.623 635.06Z" fill="#F7D5D5" stroke="#260981" stroke-width="6"/>
<path d="M558.327 149.668C490.724 134.068 459.397 150.785 408.432 181.168C257.426 271.191 248.714 455.594 308.971 518.03C369.045 467.811 389.079 435.763 460.823 429.179C556.473 420.401 650.63 501.982 679.231 542.283C709.133 526.683 735.134 446.08 719.533 308.274C703.932 170.469 642.83 169.169 558.327 149.668Z" fill="#F7D5D5" stroke="#260981" stroke-width="4.76581"/>
<path d="M271.761 60.3601C280.074 58.9284 292.804 59.1973 304.074 64.533C315.245 69.8218 325.202 80.1725 328.017 99.5427L328.2 100.805L329.237 101.55C362.242 125.218 380.837 144.502 388.938 159.047C392.98 166.304 394.252 172.101 393.705 176.533C393.175 180.831 390.89 184.222 386.9 186.746C349.462 210.432 268.038 287.144 268.038 418.217C268.038 443.043 274.247 469.053 282.396 489.222C286.47 499.308 291.072 508.041 295.707 514.482C298.023 517.701 300.398 520.419 302.776 522.452C304.084 523.57 305.452 524.53 306.864 525.245C306.169 527.002 305.272 529.425 304.426 532.184C302.733 537.702 301.077 545.068 302.024 551.158C302.821 556.277 304.404 560.231 306.197 563.963C308.033 567.783 309.878 570.99 311.647 575.317C314.334 581.888 315.777 586.943 317.22 592.124C318.667 597.323 320.12 602.673 322.811 609.615C327.626 622.039 333.457 634.817 345.551 642.606C358.293 650.813 366.068 656.591 373.779 660.705C380.73 664.413 387.74 666.858 398.511 668.93C384.141 669.58 368.903 668.424 354.278 663.974C334.823 658.055 324.392 647.833 315.133 635.155C305.94 622.568 297.43 606.687 282.648 591.194C269.059 576.951 256.252 570.283 244.944 563.251C233.706 556.262 223.62 548.761 214.411 532.686C193.219 495.694 190.162 447.492 192.546 408.179C193.734 388.583 196.266 371.322 198.5 358.962C199.617 352.784 200.659 347.835 201.42 344.437C201.8 342.739 202.11 341.428 202.324 340.546C202.431 340.105 202.515 339.771 202.57 339.55C202.598 339.439 202.619 339.355 202.633 339.301C202.64 339.274 202.645 339.254 202.648 339.241C202.65 339.235 202.652 339.23 202.652 339.227V339.225L202.889 338.316L202.564 337.434L164.334 233.557L164.302 233.469L164.264 233.385L163.91 232.555C156.504 214.702 151.322 168.894 192.58 137.918L193.589 137.16L193.753 135.91C198.121 102.7 213 85.5843 228.833 75.8689C236.827 70.9635 245.161 67.8885 252.73 65.6345C256.519 64.5064 260.087 63.5919 263.346 62.7458C266.457 61.9381 269.345 61.1752 271.761 60.3601Z" fill="#260981" stroke="#F7D5D5" stroke-width="6"/>
<path d="M428.775 516.026C349.431 488.705 285.626 506.859 313.833 572.439C342.04 638.02 328.641 618.956 350.544 638.986C378.846 664.868 405.762 665.71 443.942 669.341C484.894 673.235 510.888 671.796 548.237 654.553C590.367 635.101 634.127 572.439 634.127 572.439C641.942 552.287 644.09 529.484 629.042 510.385C605.034 479.913 531.24 527.785 531.24 527.785C531.24 527.785 508.119 543.347 428.775 516.026Z" fill="#F7D5D5" stroke="#2A1185" stroke-width="4.76581"/>
<path d="M446.557 519.489C389.288 503.045 367.458 480.625 365.839 470.41L388.928 450.216C398.473 445.841 423.854 440.151 451.62 419.96C483.004 397.138 559.59 375.805 583.688 392.816C602.967 406.424 615.246 473.654 612.411 497.517C591.62 508.384 529.342 527.994 446.557 519.489Z" fill="#F7D5D5" stroke="#2A1185" stroke-width="4.76581"/>
<path d="M707.562 286.896C707.562 310.521 714.672 337.58 696.846 337.58C679.021 337.58 645.205 310.521 645.205 286.896C645.205 263.271 659.655 244.119 677.481 244.119C695.306 244.119 707.562 263.271 707.562 286.896Z" fill="#260981"/>
<path d="M461.409 252.364C461.409 270.45 428.862 297.622 398.203 297.622C367.544 297.622 348.889 239.891 364.79 227.001C384.552 210.981 378.04 238.84 408.699 238.84C439.358 238.84 461.409 234.278 461.409 252.364Z" fill="#260981"/>
<path d="M232.882 162.266C240.548 181.006 217.975 203.082 205.731 211.777C184.01 180.261 196.68 158.185 205.731 151.087C211.587 147.005 225.215 143.527 232.882 162.266Z" fill="#F7D5D5" stroke="#F7D5D5" stroke-width="5.82488"/>
<path d="M234.439 168.973C234.439 180.633 222.427 197.217 214.081 197.217C205.735 197.217 198.058 180.633 198.058 168.973C198.058 157.313 205.735 148.73 214.081 148.73C222.427 148.73 234.439 157.313 234.439 168.973Z" fill="#260981"/>
</svg>
