<svg width="1503" height="403" viewBox="0 0 1503 403" fill="none" xmlns="http://www.w3.org/2000/svg">
<path d="M375.857 103.123C375.857 103.123 231.503 93.4788 140.586 82.2274C88.544 75.7869 8.04297 60.6931 8.04297 60.6931L9.02579 97.6698C104.768 108.271 235.305 127.154 381.121 129.149C529.059 131.172 749.829 103.957 762.436 97.2215L761.523 62.8579C761.523 62.8579 642.042 93.6249 566.623 98.0528C491.828 102.444 375.857 103.123 375.857 103.123Z" fill="#2A1185" stroke="#F8F8FF" stroke-width="6.71363"/>
<path d="M142.747 163.59C142.747 163.59 54.031 156.628 8.53516 149.246L9.31742 178.678C279.227 213.349 534.613 200.584 764.34 197.876L761.879 166.826L568.784 179.415L376.947 176.912L142.747 163.59Z" fill="#2A1185" stroke="#F8F8FF" stroke-width="6.71363"/>
<path d="M155.973 257.914C155.973 257.914 61.0466 244.52 15.5508 237.139L16.5486 274.679C286.459 309.35 540.539 312.401 770.266 309.693L769.178 268.765L582.01 273.739L390.174 271.236L155.973 257.914Z" fill="#2A1185" stroke="#F8F8FF" stroke-width="6.71363"/>
<path d="M474.48 369.747L452.985 63.1399L483.779 61.5734C485.027 95.6008 490.465 204.726 502.239 369.009C492.692 381.414 479.755 374.669 474.48 369.747Z" fill="#2A1185" stroke="#F8F8FF" stroke-width="6.71363"/>
<path d="M467.913 51.0056C472.648 50.8797 476.803 51.921 479.675 53.5299C482.619 55.1789 483.685 57.0621 483.724 58.5256C483.763 59.9892 482.799 61.9272 479.946 63.7304C477.164 65.4896 473.07 66.7491 468.334 66.875C463.599 67.0008 459.444 65.9606 456.572 64.3517C453.628 62.7025 452.561 60.8185 452.523 59.355C452.484 57.8914 453.449 55.9542 456.301 54.1512C459.083 52.392 463.177 51.1315 467.913 51.0056Z" fill="#2A1185" stroke="#F8F8FF" stroke-width="6.71363"/>
<path d="M213.675 255.05C205.2 180.522 195.371 63.6408 195.371 63.6408L223.587 62.8909C223.587 62.8909 230.212 176.931 237.56 249.577C241.809 291.577 250.051 356.842 250.051 356.842C250.051 356.842 246.689 364.02 237.15 363.179C228.956 362.457 225.357 350.186 225.357 350.186C225.357 350.186 217.908 292.266 213.675 255.05Z" fill="#2A1185" stroke="#F8F8FF" stroke-width="6.71363"/>
<path d="M208.719 52.8973C213.84 52.7612 217.698 53.4839 220.162 54.7325C222.458 55.8961 223.366 57.3749 223.416 59.2317C223.531 63.5686 218.618 70.0387 209.181 70.2896C200.026 70.5329 195.021 64.4392 194.738 59.5689C194.702 57.6927 195.488 56.3118 197.536 55.1639C199.826 53.8803 203.544 53.0348 208.719 52.8973Z" fill="#2A1185" stroke="#F8F8FF" stroke-width="6.71363"/>
<path d="M12.8486 332.992L4.89062 33.5862L35.705 32.7672C36.9524 66.7946 31.8887 167.89 43.663 332.173C34.1156 344.578 18.1237 337.915 12.8486 332.992Z" fill="#2A1185" stroke="#F8F8FF" stroke-width="6.71363"/>
<path d="M19.5795 23.5644C24.4544 23.4349 28.7293 24.3588 31.6752 25.7946C34.7871 27.3114 35.5786 28.9098 35.602 29.7864C35.6253 30.6631 34.92 32.3022 31.8928 33.9822C29.0274 35.5724 24.8075 36.7212 19.9326 36.8508C15.058 36.9803 10.7837 36.0572 7.83786 34.6215C4.72571 33.1047 3.93338 31.5054 3.91007 30.6288C3.88686 29.7521 4.59323 28.1139 7.62024 26.434C10.4857 24.8438 14.7047 23.6941 19.5795 23.5644Z" fill="#2A1185" stroke="#F8F8FF" stroke-width="6.71363"/>
<path d="M1104.19 116.42C1104.19 116.42 959.831 106.775 868.914 95.5239C816.872 89.0834 736.371 73.9895 736.371 73.9895L737.354 110.966C833.096 121.567 963.633 140.451 1109.45 142.445C1257.39 144.469 1478.16 117.254 1490.76 110.518L1489.85 76.1543C1489.85 76.1543 1370.37 106.921 1294.95 111.349C1220.16 115.74 1104.19 116.42 1104.19 116.42Z" fill="#2A1185" stroke="#F8F8FF" stroke-width="6.71363"/>
<path d="M871.079 176.886C871.079 176.886 782.363 169.924 736.867 162.543L737.649 191.974C1007.56 226.646 1266.69 219.622 1496.42 216.914L1495.43 179.838L1297.12 192.711L1105.28 190.208L871.079 176.886Z" fill="#2A1185" stroke="#F8F8FF" stroke-width="6.71363"/>
<path d="M884.309 271.211C884.309 271.211 789.383 257.817 743.887 250.436L744.884 287.975C1014.79 322.647 1268.88 325.698 1498.6 322.989L1497.51 282.061L1310.35 287.036L1118.51 284.533L884.309 271.211Z" fill="#2A1185" stroke="#F8F8FF" stroke-width="6.71363"/>
<path d="M1468.52 357.321L1460.58 58.6595L1491.38 57.093C1492.62 91.1204 1487.56 192.22 1499.33 356.502C1489.79 368.907 1473.8 362.244 1468.52 357.321Z" fill="#2A1185" stroke="#F8F8FF" stroke-width="6.71363"/>
<path d="M1202.81 383.043L1181.31 76.4364L1212.11 74.8699C1213.35 108.897 1218.79 218.023 1230.57 382.305C1221.02 394.71 1208.08 387.966 1202.81 383.043Z" fill="#2A1185" stroke="#F8F8FF" stroke-width="6.71363"/>
<path d="M1196.24 64.3021C1200.98 64.1762 1205.13 65.2175 1208 66.8264C1210.95 68.4754 1212.01 70.3586 1212.05 71.8221C1212.09 73.2857 1211.13 75.2237 1208.27 77.0269C1205.49 78.7861 1201.4 80.0456 1196.66 80.1715C1191.93 80.2974 1187.77 79.2571 1184.9 77.6482C1181.96 75.9991 1180.89 74.115 1180.85 72.6515C1180.81 71.188 1181.78 69.2508 1184.63 67.4477C1187.41 65.6885 1191.51 64.428 1196.24 64.3021Z" fill="#2A1185" stroke="#F8F8FF" stroke-width="6.71363"/>
<path d="M942.011 268.346C933.536 193.819 923.707 76.9371 923.707 76.9371L951.923 76.1872C951.923 76.1872 958.548 190.228 965.896 262.874C970.144 304.873 978.387 370.138 978.387 370.138C978.387 370.138 975.025 377.317 965.486 376.476C957.292 375.753 953.693 363.482 953.693 363.482C953.693 363.482 946.243 305.563 942.011 268.346Z" fill="#2A1185" stroke="#F8F8FF" stroke-width="6.71363"/>
<path d="M937.055 66.1936C942.176 66.0575 946.034 66.7802 948.498 68.0289C950.794 69.1924 951.702 70.6712 951.752 72.528C951.867 76.8649 946.954 83.335 937.517 83.5859C928.362 83.8292 923.357 77.7355 923.074 72.8653C923.038 70.9891 923.824 69.6081 925.872 68.4603C928.162 67.1766 931.88 66.3311 937.055 66.1936Z" fill="#2A1185" stroke="#F8F8FF" stroke-width="6.71363"/>
<path d="M1472.9 48.3526C1476.76 48.25 1480.12 49.152 1482.42 50.5154C1484.77 51.9056 1485.59 53.4662 1485.62 54.6622C1485.65 55.8583 1484.92 57.4603 1482.65 58.9733C1480.42 60.4571 1477.11 61.5364 1473.25 61.639C1469.39 61.7415 1466.03 60.8396 1463.72 59.4762C1461.38 58.0859 1460.56 56.5253 1460.52 55.3293C1460.49 54.1333 1461.23 52.5313 1463.5 51.0183C1465.73 49.5345 1469.04 48.4552 1472.9 48.3526Z" fill="#2A1185" stroke="#F8F8FF" stroke-width="6.71363"/>
<path d="M741.181 346.288L733.223 46.8828L764.037 46.0637C765.284 80.0911 760.221 181.187 771.995 345.469C762.448 357.875 746.456 351.211 741.181 346.288Z" fill="#2A1185" stroke="#F8F8FF" stroke-width="6.71363"/>
<path d="M748.068 35.9686C752.943 35.839 757.218 36.763 760.164 38.1988C763.275 39.7155 764.067 41.3139 764.09 42.1906C764.114 43.0673 763.408 44.7063 760.381 46.3863C757.516 47.9766 753.296 49.1254 748.421 49.2549C743.546 49.3845 739.272 48.4614 736.326 47.0257C733.214 45.5089 732.422 43.9096 732.398 43.033C732.375 42.1563 733.082 40.5181 736.109 38.8382C738.974 37.248 743.193 36.0982 748.068 35.9686Z" fill="#2A1185" stroke="#F8F8FF" stroke-width="6.71363"/>
</svg>
