<svg width="962" height="727" viewBox="0 0 962 727" fill="none" xmlns="http://www.w3.org/2000/svg">
<path d="M25.7756 392.723C23.8429 349.241 34.7882 265.146 39.2171 233.341L52.348 218.797L60.8027 242.954V269.76L41.9701 435.486L36.6464 513.823C36.6464 596.209 -9.92009 579.06 25.7756 513.823C26.9834 505.771 19.9783 455.53 25.7756 392.723Z" fill="white" stroke="#F7D5D5" stroke-width="4.22551"/>
<path d="M136.116 657.368C134.466 641.108 169.977 567.729 187.939 533.072L139.649 448.832L115.084 469.807L110.921 523.98C109.768 540.987 104.3 580.25 91.6467 601.247C78.9937 622.244 92.8319 681.933 101.333 709.153L110.73 708.924L114.838 684.531L126.394 708.542L150.673 707.95C146.872 702.034 138.638 683.637 136.116 657.368Z" fill="white" stroke="#F7D5D5" stroke-width="4.33551"/>
<path d="M125.626 711.187L118.179 701.355L118.423 711.362L106.004 711.665L98.9944 699.41L97.0008 678.829L105.101 674.655L117.557 675.842L139.476 677.793L143.323 682.67L153.695 710.502L125.626 711.187Z" fill="#260981" stroke="#F7D5D5" stroke-width="4.33551"/>
<path d="M609.917 555.813C611.366 538.261 614.598 501.523 615.94 494.985L680.168 435.239L690.812 461.253L678.385 515.982L667.589 560.661L668.153 583.794C668.214 586.295 667.278 599.205 663.045 630.837C658.507 649.965 666.35 680.803 670.838 693.83L632.883 702.263L631.77 656.623L631.16 631.615L630.885 620.361L621.827 608.071L621.263 584.938L609.917 555.813Z" fill="white" stroke="#F7D5D5" stroke-width="4.33551"/>
<path d="M168.073 546.681C157.89 546.929 141.537 513.534 142.509 497.357C153.021 468.223 178.647 441.167 190.147 431.281C224.291 452.825 292.575 499.048 292.559 511.59C292.543 524.133 261.585 538.402 246.934 544.757C246.543 551.441 248.663 566.801 242.72 567.637C236.777 568.472 235.63 553.898 237.936 546.591C237.373 545.978 222.667 545.349 221.784 548.452C220.481 549.97 221.883 552.529 221.959 555.637C222.432 575.023 220.837 575.113 217.09 575.204C213.344 575.295 213.354 558.831 212.445 552.035C211.533 545.218 208.415 550.545 208.474 552.983C208.528 555.171 208.02 565.951 206.821 566.931C205.55 567.971 202.071 569.372 201.948 564.353C201.572 560.857 201.694 553.932 199.867 550.285C198.545 547.647 195.794 547.1 193.396 548.819C190.963 550.563 194.111 573.01 187.322 567.407C180.205 561.533 193.329 546.064 168.073 546.681Z" fill="#F7D5D5" stroke="#260981" stroke-width="4.22551"/>
<path d="M310.343 536.597C298.724 523.955 219.257 465.559 180.976 437.941C180.976 437.941 210.913 383.686 215.304 345.385C223.468 274.166 148.307 172.852 153.099 172.685C157.89 172.518 166.349 168.677 181.14 167.764C202.672 166.435 235.874 175.235 235.874 175.235L269.667 172.286C269.2 172.309 270.386 172.208 272.455 172.043L269.667 172.286C271.529 172.195 299.688 170.134 402.994 162.351C507.723 138.588 645.059 164.772 703.751 156.298L751.19 169.456L751.189 279.999L782.061 326.805L782.061 342.48L758.324 419.229C739.655 428.354 703.276 457.788 706.11 484.046C709.653 516.869 662.191 519.855 645.945 528.409C632.948 535.252 603.735 521.844 590.752 514.285C564.026 507.078 506.613 495.857 490.766 508.631C470.958 524.599 385.703 534.759 373.115 543.145C360.644 551.453 350.541 548.469 311.443 536.922L310.343 536.597Z" fill="white"/>
<path d="M180.976 437.941C219.257 465.559 298.724 523.955 310.343 536.597C350.353 548.413 360.528 551.531 373.115 543.145C385.703 534.759 470.958 524.599 490.766 508.631C506.613 495.857 564.026 507.078 590.752 514.285C603.735 521.844 632.948 535.252 645.945 528.409C662.191 519.855 709.653 516.869 706.11 484.046C703.275 457.788 739.655 428.354 758.324 419.229L782.061 342.48L782.061 326.805L751.189 279.999L751.189 169.456L703.751 156.298C645.059 164.772 507.723 138.588 402.994 162.351C273.789 172.085 262.133 172.868 272.455 172.043L235.874 175.235C235.874 175.235 202.672 166.435 181.14 167.764C166.349 168.677 157.89 172.518 153.099 172.685C148.307 172.852 223.468 274.166 215.304 345.385C210.913 383.686 180.976 437.941 180.976 437.941Z" stroke="#F7D5D5" stroke-width="4.22551"/>
<path d="M524.495 596.072L506.372 500.012L481.036 419.319L495.795 345.629L617.36 464.931L585.226 498.089L583.421 523.624L572.74 558.479C574.313 573.209 574.853 610.259 564.426 640.617C556.698 662.17 569.146 693.102 576.336 705.875L576.75 722.859L539.75 723.761L534.409 703.863C535.439 679.763 537.483 630.835 537.411 627.924C537.34 625.012 528.771 605.476 524.495 596.072Z" fill="white" stroke="#F7D5D5" stroke-width="4.33551"/>
<path d="M485.131 350.308L491.978 339.19L616.181 326.74L624.528 467.544L620.251 470.635L612.203 464.326L506.753 466.899L499.449 353.655L485.131 350.308Z" fill="white"/>
<path d="M531.595 729.266L536.136 706.643L547.405 712.087C555.248 708.685 565.271 711.635 574.492 708.306C576.631 717.236 578.825 723.431 580.605 729.414C577.621 730.49 563.782 731.461 551.957 731.75C548.859 728.008 549.229 729.444 547.718 724.917L546.575 730.244L531.595 729.266Z" fill="#260981"/>
<path d="M547.718 724.917C549.229 729.444 548.859 728.008 551.957 731.75C563.782 731.461 577.621 730.49 580.605 729.414C578.825 723.431 576.631 717.236 574.492 708.306C565.271 711.635 555.248 708.685 547.405 712.087M547.718 724.917L547.405 712.087M547.718 724.917L546.575 730.244L531.595 729.266L536.136 706.643L547.405 712.087" stroke="#F7D5D5" stroke-width="3.37207"/>
<path d="M655.111 713.506C652.013 709.764 648.626 710.842 647.115 706.314L644.511 715.109L634.655 715.349L631.985 703.954L634.068 691.329L645.341 696.952C653.184 693.55 659.86 689.681 669.081 686.353C671.22 695.282 676.761 708.295 678.541 714.279C675.557 715.355 666.936 713.218 655.111 713.506Z" fill="#260981"/>
<path d="M647.115 706.314C648.626 710.842 652.013 709.764 655.111 713.506C666.936 713.218 675.557 715.355 678.541 714.279C676.761 708.295 671.22 695.282 669.081 686.353C659.86 689.681 653.184 693.55 645.341 696.952M647.115 706.314L645.341 696.952M647.115 706.314L644.511 715.109L634.655 715.349L631.985 703.954L634.068 691.329L645.341 696.952" stroke="#F7D5D5" stroke-width="3.37207"/>
<path d="M52.0815 381.006C50.1108 381.349 50.0063 381.368 50.0008 381.369C50.001 381.37 50.0007 381.372 50.0009 381.373C50.0015 381.377 50.0031 381.382 50.0042 381.389C50.0066 381.402 50.0099 381.423 50.0145 381.45C50.024 381.505 50.038 381.587 50.0567 381.695C50.0941 381.912 50.1498 382.236 50.2218 382.659C50.3659 383.505 50.5757 384.751 50.8402 386.344C51.3694 389.532 52.116 394.115 52.9837 399.688C54.7195 410.836 56.9406 425.943 58.8824 441.785C60.825 457.634 62.4838 474.187 63.1026 488.236C63.412 495.262 63.4598 501.628 63.1587 506.95C62.8548 512.318 62.2033 516.448 61.2045 519.104C52.2979 542.782 44.9252 558.77 42.3845 563.747L42.0489 564.404L42.1945 565.126C47.8796 593.307 60.3817 654.143 64.8248 671.609C69.1362 688.557 69.7406 705.007 69.5088 711.286L66.1235 722.997L65.3227 725.766L115.423 724.544L115.821 722.997L113.774 722.471L115.565 722.928C115.822 722.992 115.822 722.99 115.823 722.988L115.831 722.958C115.834 722.945 115.837 722.933 115.84 722.92C115.845 722.894 115.85 722.867 115.855 722.841C115.865 722.789 115.873 722.735 115.88 722.679C115.893 722.569 115.903 722.444 115.908 722.303C115.917 722.022 115.908 721.642 115.864 721.118C115.776 720.073 115.539 718.363 114.965 715.565C113.815 709.966 111.28 699.858 105.745 681.707C100.311 663.887 100.805 653.864 102.91 645.093C103.995 640.572 105.48 636.461 106.974 631.524C108.448 626.651 109.847 621.211 110.61 614.412C112.178 600.453 111.23 592.977 115.167 580.187C117.224 573.501 121.359 565.423 125.046 558.932C126.878 555.705 128.579 552.905 129.822 550.913C130.443 549.918 130.949 549.124 131.299 548.582C131.474 548.311 131.609 548.102 131.701 547.962C131.746 547.892 131.781 547.839 131.803 547.804C131.815 547.787 131.824 547.774 131.83 547.766C131.833 547.761 131.834 547.758 131.836 547.756L131.836 547.754L131.837 547.754L132.097 547.36L132.166 546.893L132.166 546.889C132.166 546.887 132.167 546.883 132.168 546.878C132.169 546.868 132.172 546.851 132.175 546.83C132.182 546.788 132.191 546.724 132.203 546.641C132.228 546.474 132.266 546.226 132.315 545.905C132.413 545.262 132.559 544.326 132.748 543.16C133.127 540.826 133.679 537.571 134.37 533.883C135.757 526.483 137.69 517.437 139.897 510.614C150.967 476.398 172.052 449.589 189.726 433.081C194.565 428.561 198.609 420.987 202.018 411.616C205.449 402.186 208.325 390.688 210.693 378.076C215.43 352.846 218.176 322.953 219.214 295.793C221.086 246.807 210.875 198.963 206.784 171.401L206.573 169.986L205.183 169.655L204.215 169.435C199.345 168.379 193.516 167.864 186.554 168.031L186.238 168.004L186.234 168.04C177.792 168.267 167.659 169.493 155.509 171.994C148.251 171.349 142.942 169.711 138.112 168.258C133.246 166.795 128.677 165.453 123.3 165.855C110.992 166.777 105.236 165.882 101.041 165.312C98.9065 165.022 96.9771 164.782 94.791 164.947C92.589 165.113 90.2345 165.679 87.1341 166.854C74.1129 171.786 63.8467 184.173 56.2737 196.177C48.712 208.163 43.4368 220.482 40.9509 225.129C40.2545 226.432 39.7699 228.178 39.4129 230.155C39.0495 232.167 38.7918 234.574 38.6199 237.291C38.2761 242.725 38.2687 249.545 38.5013 257.212C38.9667 272.556 40.3996 291.461 42.1001 309.825C43.8013 328.196 45.773 346.058 47.3188 359.325C48.0918 365.959 48.7583 371.445 49.2318 375.274C49.4686 377.188 49.6571 378.688 49.7865 379.71C49.8511 380.221 49.9013 380.612 49.9351 380.876C49.9519 381.007 49.965 381.107 49.9736 381.175C49.9779 381.208 49.9811 381.234 49.9833 381.251C49.9844 381.259 49.9852 381.266 49.9857 381.27C49.986 381.272 49.9857 381.274 49.9858 381.275C49.986 381.276 49.9864 381.277 52.0815 381.006ZM52.0815 381.006L49.9869 381.277L49.9929 381.323L49.9998 381.368L52.0815 381.006Z" fill="white" stroke="#F7D5D5" stroke-width="4.22551"/>
<path d="M67.3941 725.949L71.9353 703.327L83.2044 708.771C91.0471 705.369 101.07 708.319 110.291 704.99C112.43 713.919 114.624 720.114 116.404 726.098C113.42 727.174 99.5812 728.145 87.7561 728.433C84.6583 724.691 85.028 726.128 83.5174 721.6L82.3735 726.928L67.3941 725.949Z" fill="#260981"/>
<path d="M83.5174 721.6C85.028 726.128 84.6583 724.691 87.7561 728.433C99.5812 728.145 113.42 727.174 116.404 726.098C114.624 720.114 112.43 713.919 110.291 704.99C101.07 708.319 91.0471 705.369 83.2044 708.771M83.5174 721.6L83.2044 708.771M83.5174 721.6L82.3735 726.928L67.3941 725.949L71.9353 703.327L83.2044 708.771" stroke="#F7D5D5" stroke-width="3.37207"/>
<path d="M153.516 199.094L188.436 172.364L196.931 170.702L210.248 172.028L226.886 176.933L284.566 175.526L231.924 383.423L227.646 386.514L219.599 380.205L193.253 369.806L167.834 202.441L153.516 199.094Z" fill="white"/>
<path d="M715.345 452.331C710.425 459.164 707.561 464.215 705.74 470.017C703.919 475.818 703.819 477.25 704.297 489.558C703.514 491.521 699.354 495.259 698.021 495.259C692.029 496.399 690.02 495.978 684.846 489.34C679.862 482.973 679.526 490.088 675.205 487.537C665.63 481.908 657.376 482.526 648.876 491.046C643.714 496.218 636.656 498.354 631.782 503.714C629.365 506.373 625.504 506.512 624.765 502.832C622.968 493.921 616.641 487.482 612.969 479.631C609.561 472.345 611.782 467.214 616.583 464.66C625.838 459.732 628.314 450.578 633.283 442.943C637.089 437.079 639.009 441.438 642.865 438.81C643.915 437.999 644.237 436.594 644.412 435.34C645.108 430.468 647.608 427.911 652.668 427.232C657.268 426.606 658.776 428.494 660.801 432.452C670.946 452.266 668.281 422.318 675.396 419.86C691.612 414.257 713.002 448.565 715.345 452.331Z" fill="#260981"/>
<path d="M148.777 376.66C158.5 372.861 164.713 378.103 172.393 382.497C179.012 386.282 178.489 387.892 181.437 394.436C181.804 395.251 182.182 396.328 182.871 396.681C190.578 400.635 193.416 406.409 193.661 415.419C193.772 419.446 190.963 418.315 195.359 421.613C193.916 424.426 192.056 427.504 190.224 429.54C187.154 432.949 185.629 433.81 184.328 435.489C182.889 437.345 182.307 438.05 180.028 440.504C177.764 442.943 177.252 444.033 177.246 444.047L173.494 449.132L165.751 459.762L160.631 467.18C160.631 467.18 156.761 471.337 154.02 475.368C149.523 481.975 151.663 479.273 149.539 483.168C148.73 483.851 148.165 485.766 146.952 488.512C144.862 491.9 145.295 491.352 142.988 496.614C141.911 498.295 140.936 498.709 139.583 498.337C134.108 496.832 134.536 499.564 129.292 499.221C128.047 499.143 126.828 499.287 126.647 500.599C125.917 505.893 122.851 508.832 117.805 510.126C117.166 510.291 116.201 511.681 116.371 512.065C118.651 517.191 114.24 519.411 111.506 521.027C104.987 524.859 104.524 530.062 106.232 536.338C106.638 537.831 107.61 539.377 105.714 540.506C104.164 541.421 102.692 540.696 101.204 540.121C98.0563 538.898 97.7401 535.539 96.1036 533.228C93.3602 529.342 97.011 514.725 98.9284 510.662C101.225 505.802 107.582 503.769 107.709 498.665C107.802 495.228 107.852 492.776 109.886 489.755C118.681 476.688 127.062 463.337 135.522 450.038C140.462 442.283 140.235 439.568 134.08 432.051C130.319 427.455 132.062 421.675 130.476 416.6C128.081 408.953 128.966 401.508 132.747 394.437C133.883 392.31 135.776 391.344 138.125 390.826C143.455 389.642 146.428 386.489 145.576 380.737C145.176 377.996 146.018 377.741 148.777 376.66Z" fill="#260981"/>
<path d="M148.777 376.66C158.5 372.861 164.713 378.103 172.393 382.497C179.012 386.282 178.489 387.892 181.437 394.436C181.804 395.251 182.182 396.328 182.871 396.681C190.578 400.635 193.416 406.409 193.661 415.419C193.772 419.446 190.963 418.315 195.359 421.613C193.916 424.426 192.056 427.504 190.224 429.54C187.154 432.949 185.629 433.81 184.328 435.489C182.889 437.345 182.307 438.05 180.028 440.504C177.764 442.943 177.252 444.033 177.246 444.047L173.494 449.132L165.751 459.762L160.631 467.18C160.631 467.18 156.761 471.337 154.02 475.368C149.523 481.975 151.663 479.273 149.539 483.168C148.73 483.851 148.165 485.766 146.952 488.512C144.862 491.9 145.295 491.352 142.988 496.614C141.911 498.295 140.936 498.709 139.583 498.337C134.108 496.832 134.536 499.564 129.292 499.221C128.047 499.143 126.828 499.287 126.647 500.599C125.917 505.893 122.851 508.832 117.805 510.126C117.166 510.291 116.201 511.681 116.371 512.065C118.651 517.191 114.24 519.411 111.506 521.027C104.987 524.859 104.524 530.062 106.232 536.338C106.638 537.831 107.61 539.377 105.714 540.506C104.164 541.421 102.692 540.696 101.204 540.121C98.0563 538.898 97.7401 535.539 96.1036 533.228C93.3602 529.342 97.011 514.725 98.9284 510.662C101.225 505.802 107.582 503.769 107.709 498.665C107.802 495.228 107.852 492.776 109.886 489.755C118.681 476.688 127.062 463.337 135.522 450.038C140.462 442.283 140.235 439.568 134.08 432.051C130.319 427.455 132.062 421.675 130.476 416.6C128.081 408.953 128.966 401.508 132.747 394.437C133.883 392.31 135.776 391.344 138.125 390.826C143.455 389.642 146.428 386.489 145.576 380.737C145.176 377.996 146.018 377.741 148.777 376.66Z" stroke="#F7D5D5"/>
<path d="M436.492 208.862C449.485 215.982 436.192 175.712 446.233 181.212C449.081 182.772 452.153 184.122 451.758 187.108C451.262 189.421 453.338 189.547 453.338 189.547C453.338 189.547 471.811 186.101 481.661 184.948C498.761 182.945 504.2 153.155 521.356 155.714C555.962 160.925 558.439 181.773 591.117 184.948C603.263 186.128 619.718 172.915 631.892 173.743C642.233 174.447 677.604 168.052 680.536 173.743C686.036 184.395 675.425 198.297 685.085 209.189C687.371 211.767 688.045 208.388 688.008 206.567C687.533 184.672 659.547 248.797 667.802 269.082C671.49 278.119 666.129 292.81 654.871 297.348C642.613 302.288 650.328 264.234 637.341 261.788C592.923 253.384 618.149 283.882 621.295 291.957C624.073 299.06 626.378 319.62 620.039 313.858C597.744 293.593 622.945 318.531 584.205 336.715C583.167 337.206 585.945 339.729 586.609 341.523C587.812 344.755 589.432 348.006 585.234 350.292C579.099 353.63 569.714 329.252 564.363 336.305C559.814 342.294 562.301 348.808 566.758 356.393C572.322 365.864 565.729 379.505 554 383.867C547.859 386.152 535.051 385.857 532.017 391.744C530.378 394.922 532.491 396.634 534.312 398.61C541.214 406.132 541.005 410.439 534.148 415.931C529.165 419.92 520.689 417.496 515.052 414.501C509.488 411.544 506.734 394.393 498.761 388.593C485.925 379.245 471.416 401.819 468.491 412.161C467.581 415.393 466.069 419.309 462.845 419.819C458.293 420.534 452.51 399.219 452.637 396.097C452.974 387.992 444.551 387.792 441.354 382.774C435.97 374.315 394.239 367.433 400.412 377.793C402.926 382.009 405.694 379.751 408.954 378.695C413.407 377.256 415.01 382.21 417.915 384.177C420.565 385.971 402.068 404.553 389.163 401.861C378.855 399.711 368.042 367.867 370.116 382.774C372.189 397.682 379.717 408.719 380.551 412.233C381.007 414.137 382.4 415.111 384.312 414.838C388.374 414.259 401.366 409.203 398.036 417.114C394.703 425.019 390.213 431.939 382.974 437.012C371.017 445.38 368.786 452.165 372.52 466.644C374.365 473.819 372.113 479.371 365.763 483.299C360.782 486.4 355.564 502.659 353.952 508.578C351.092 519.087 342.177 525.143 331.432 527.119C322.936 528.676 321.479 525.225 317.973 518.486C312.336 507.64 311.68 495.301 305.543 484.893C303.266 481.041 305.005 476.979 306.444 473.728C310.742 464.057 307.764 455.98 301.782 448.64C298.403 444.497 298.285 440.29 299.551 435.791C302.458 425.394 280.049 424.529 274.226 427.049C260.776 432.868 253.618 428.015 243.109 418.116C232.473 408.099 237.172 396.543 236.134 385.916C234.955 373.933 250.735 371.638 252.799 361.256C254.146 354.499 260.184 350.01 267.059 349.855C275.109 349.673 282.066 345.274 290.116 344.5C299.368 343.608 299.86 343.153 300.789 352.368C300.926 353.743 301.499 354.854 302.683 355.146C306.994 356.205 322.242 368.023 324.356 361.047C325.904 355.938 329.192 356.102 332.698 358.406C339.992 363.196 348.124 360.391 355.828 361.165C359.315 361.52 362.202 350.211 358.45 346.144C349.082 335.99 333.699 350.478 331.486 331.396C319.33 323.838 303.69 321.679 295.007 326.716C289.952 329.648 282.522 326.151 279.007 332.043C277.95 333.81 276.402 335.339 275.637 337.407C272.414 346.085 263.772 348.753 255.685 343.817C253.8 342.67 253.809 341.131 253.91 339.501C254.165 335.257 256.086 331.196 254.52 326.716C253.882 324.904 256.095 323.984 257.889 323.838C259.574 323.702 261.359 324.093 262.952 323.665C266.23 322.791 271.43 326.506 272.55 320.487C273.543 315.151 258.071 309.65 257.889 304.049C257.627 295.976 264.726 287.493 269.907 282.603C273.969 278.769 287.469 280.943 293.68 278.985C301.23 276.61 312.043 278.466 319.33 278.985C323.509 279.276 327.279 273.751 327.389 270.2C327.758 258.627 321.1 249.482 329.556 241.571C331.687 239.577 333.708 237.492 334.674 234.642C337.305 226.861 326.273 226.921 327.389 232.574C329.229 241.964 305.934 244.589 312.427 254.527C318.92 264.464 314.029 276.478 306.543 272.838C304.566 265.171 304.043 263.345 295.006 267.397C292.047 268.727 290.736 267.597 290.353 265.102C289.115 257.052 286.264 249.694 295.662 242.764C305.442 235.552 309.65 223.168 313.966 211.794C315.113 208.771 317.435 206.603 319.33 205.155C326.105 199.956 334.054 196.614 342.532 195.166C347.913 194.246 356.825 205.861 363.067 208.078C371.072 210.92 374.323 216.107 372.228 223.829C344.053 223.444 373.226 237.547 372.228 232.037C369.818 218.884 427.294 203.826 436.492 208.862ZM363.75 320.487C361.893 318.593 355.804 321.389 353.464 323.665C349.73 327.299 343.306 323.365 342.951 328.482C342.605 333.464 346.621 334.247 350.209 331.815C354.853 328.665 359.17 328.892 363.75 331.396C365.772 332.498 367.948 332.398 370.116 332.353C372.465 332.307 375.388 332.999 376.499 330.222C377.501 327.699 373.813 327.927 372.228 326.716C363.098 319.765 366.029 322.806 363.75 320.487ZM400.303 345.375C403.609 345.529 406.395 344.673 406.095 341.277C405.603 335.676 407.342 329.357 401.35 325.177C398.664 323.301 396.333 320.496 400.84 318.047C402.971 316.89 403.9 315.633 402.898 313.575C401.824 311.362 399.556 311.954 397.762 312.291C390.177 313.703 387.572 321.124 391.916 328.883C395.918 336.025 389.995 343.483 400.303 345.375Z" fill="#260981"/>
<path d="M65.504 311.399C65.5165 322.33 65.51 297.124 65.504 296.346C65.4517 290.176 58.891 279.624 55.2202 274.754C51.6856 270.056 45.7239 267.274 43.8718 261.741C40.2933 251.078 40.4464 250.218 40.4472 244.193C40.9684 234.783 40.9582 227.782 42.972 223.581C49.3176 210.343 51.4254 208.932 54.4516 202.879C58.5862 194.61 62.7228 189.568 68.9202 182.712C74.0305 177.059 78.5094 172.943 85.6534 169.618C91.474 167.487 93.8072 165.925 104.717 167.678C111.54 168.035 120.296 167.37 128.336 168.124C134.831 168.734 135.978 170.129 140.895 171.331C155.559 174.915 152.131 174.729 174.733 170.339C183.057 169.409 190.895 169.478 195.644 170.339C199.348 172.447 198.734 206.099 196.697 211.505C196.127 213.469 192.472 217.729 195.055 220.746C195.671 229.3 188.01 227.585 182.389 227.585C175.327 222.813 177.645 212.366 168.77 213.284C159.741 213.284 161.285 231.268 151.437 227.585C145.572 225.392 134.384 224.754 138.72 244.193C141.64 257.252 153.656 270.311 170.695 260.799C176.848 257.375 159.506 235.209 170.577 232.896C178.471 231.252 186.188 237.344 188.01 245.532C190.475 256.599 196.402 237.745 201.028 247.64C204.235 254.507 207.133 261.643 213.945 266.013C217.05 268.005 214.496 273.942 212.387 276.968C208.919 281.945 193.73 278.138 193.147 282.969C192.105 291.356 207.205 290.946 207.992 294.055C208.629 296.581 205.875 298.207 203.843 298.497C192.28 300.162 174.995 307.848 173.795 324.897C173.144 334.136 172.294 347.154 163.788 350.818C161.944 351.613 160.259 349.377 160.061 347.76C158.951 338.531 150.737 339.412 146.078 340.366C140.752 341.451 134.788 341.945 129.658 345.097C126.863 346.817 125.593 348.417 125.975 351.371C126.67 356.713 124.134 362.653 129.539 367.115C134.584 371.287 139.242 370.816 142.44 364.923C143.764 362.483 145.979 361.587 147.891 362.207C150.194 362.956 149.689 366.079 148.959 367.534C145.604 374.21 148.053 376.441 154.776 376.206C157.244 376.121 157.685 378.073 157.523 379.968C155.762 399.809 159.51 389.468 145.371 380.798C136.015 375.055 124.347 376.419 115.099 370.53C111.916 368.507 109.768 366.448 107.995 362.534C99.3485 343.427 65.1606 333.116 65.504 311.399ZM147.975 308.823C154.452 309.729 162.635 304.87 164.777 298.69C166.636 293.339 144.803 287.487 138.72 293.203C153.699 295.876 144.19 308.302 147.975 308.823Z" fill="#260981"/>
<path d="M550.646 448.778C549.134 448.587 547.195 448.487 545.328 448.086C541.039 447.175 540.246 442.995 538.981 439.963C537.533 436.484 541.731 436.175 543.807 434.955C548.178 432.368 552.221 429.372 555.909 425.903C558.905 423.08 561.282 425.812 561.018 427.67C560.034 434.554 559.779 441.775 555.354 447.767C554.134 449.425 552.813 449.825 550.646 448.778Z" fill="#260981"/>
<path d="M397.603 476.434C394.862 484.639 392.385 492.579 389.498 500.356C388.815 502.205 386.985 504.008 384.28 502.697C380.538 500.884 379.9 496.304 380.674 494.137C383.224 486.997 382.359 477.691 391.538 474.002C392.767 473.511 393.76 471.462 395.135 472.445C396.346 473.31 396.865 475.15 397.621 476.434H397.603Z" fill="#260981"/>
<path d="M531.164 448.443C526.733 453.648 520.096 442.179 519.526 435.366C519.433 434.243 519.03 433.468 519.572 432.479C520.695 430.432 523.316 432.822 525.373 433.927C530.749 436.816 535.12 443.795 531.164 448.443Z" fill="#260981"/>
<path d="M280.079 191.737C286.764 189.981 290.581 184.756 295.34 180.489C298.969 177.236 304.122 178.485 301.106 172.189C290.006 173.006 274.009 173.495 259.726 174.801C226.081 180.039 227.145 172.825 222.573 174.801C221.597 177.024 223.362 180.65 225.432 182.389C232.295 188.148 229.059 188.058 227.145 195.945C225.847 201.289 227.917 206.43 229.673 211.197C232.702 219.434 235.272 228.273 245.087 231.819C248.259 232.973 249.15 232.506 250.338 229.487C256.197 214.657 261.756 196.54 280.079 191.737Z" fill="#260981"/>
<path d="M8.80286 546.383L25.5963 501.391L35.19 560.506L41.2016 620.918L37.4199 637.809L28.8597 598.291L17.4332 611.794C17.4332 603.494 21.0673 580.947 21.0673 576.487C21.0673 572.028 19.8285 574.629 19.2091 576.487L2.11279 605.453V588.008L8.80286 546.383Z" fill="#260981" stroke="#F7D5D5" stroke-width="4.22551"/>
<path d="M668.817 149.215C677.509 142.806 689.64 141.635 705.509 146.651L707.057 147.156L707.953 147.457L708.326 148.326C714.837 163.516 719.742 185.014 725.458 206.935C731.212 228.998 737.81 251.62 747.702 269.564C757.857 287.988 767 301.71 777.814 310.849C788.528 319.903 800.998 324.55 818.06 324.55H842.192L840.531 327.658L830.057 347.257L829.95 347.459L829.801 347.633C825.186 353.044 821.288 358.909 817.061 364.649C812.891 370.312 808.454 375.769 802.955 379.912C797.408 384.092 790.816 386.908 782.404 387.369C774.039 387.828 763.996 385.952 751.511 380.977C737.107 375.237 719.448 360.64 704.099 343.386C688.729 326.109 675.371 305.827 669.786 288.438C657.586 250.449 649.825 209.949 653.432 181.557C655.234 167.372 659.932 155.766 668.817 149.215Z" fill="#F7D5D5" stroke="#260981" stroke-width="4.22551"/>
<path d="M687.714 77.8934C703.115 69.4769 719.444 69.2217 731.394 72.0656L733.845 72.6488L732.817 74.9499C732.817 74.9503 732.817 74.9518 732.816 74.9527C732.816 74.9545 732.814 74.9571 732.813 74.9604C732.81 74.9677 732.805 74.9793 732.798 74.9937C732.785 75.0226 732.767 75.0656 732.742 75.1214C732.692 75.2333 732.618 75.3978 732.525 75.6074C732.338 76.0266 732.07 76.6271 731.746 77.352C731.099 78.8022 730.229 80.7504 729.339 82.7441C728.039 85.6585 727.271 88.0068 725.15 91.1796C723.199 94.0989 722.432 94.7909 719.826 97.6383C718.687 98.8826 717.769 99.9347 717.138 100.673C716.822 101.043 716.578 101.333 716.414 101.53C716.333 101.628 716.271 101.703 716.231 101.753C716.21 101.778 716.195 101.797 716.185 101.809C716.181 101.815 716.177 101.818 716.175 101.821C716.174 101.822 716.173 101.823 716.173 101.824L715.829 102.246L715.325 102.448C703.482 107.178 689.622 114.516 653.012 134.43L648.701 136.774L649.999 132.042C658.003 102.857 672.26 86.3385 687.714 77.8934Z" fill="white" stroke="#260981" stroke-width="4.17819"/>
<path d="M646.747 138.914C655.127 80.7053 700.384 60.8796 735.668 71.6575L727.356 92.0962L718.866 103.673C706.049 104.943 690.64 119.391 646.747 138.914Z" stroke="white" stroke-width="2.62084"/>
<path d="M726.15 165.2C737.578 188.016 748.667 228.42 744.539 257.841L922.999 279.728L941.923 269.124L925.23 108.142C924.561 108.011 920.323 105.847 908.721 98.237C901.928 69.4807 862.75 66.9236 844.01 69.2395C841.158 68.3492 825.236 64.8269 784.373 57.8599C755.015 51.8104 733.307 65.6319 727.115 90.9551C715.627 110.347 709.042 128.337 726.15 165.2Z" fill="white"/>
<path d="M754.657 309.686C726.107 285.304 727.582 260.21 729.842 250.685L708.899 152.255L713.57 129.991L770.934 282.146L879.721 303.582L882.218 314.152L854.592 326.835L827.057 343.676L786.596 343.15C785.135 343.131 776.702 336.411 754.657 309.686Z" fill="white" stroke="#260981" stroke-width="2.62084"/>
<path d="M888.753 99.3892C859.315 92.1914 845.537 99.315 823.105 112.296C756.638 150.758 751.786 231.25 777.75 258.862C804.273 237.269 813.206 223.385 844.579 220.917C886.406 217.626 927.067 253.793 939.331 271.558C952.479 264.914 964.293 229.857 958.262 169.579C952.231 109.301 925.551 108.386 888.753 99.3892Z" fill="white" stroke="#260981" stroke-width="2.08174"/>
<path d="M764.096 58.7548C767.735 58.1763 773.295 58.3645 778.188 60.7595C783.037 63.133 787.327 67.711 788.447 76.1872L788.52 76.7399L788.968 77.07C803.25 87.5949 811.261 96.1234 814.717 102.522C816.441 105.715 816.964 108.254 816.7 110.187C816.444 112.061 815.427 113.529 813.67 114.609C797.183 124.742 761.184 157.785 760.44 215.033C760.299 225.876 762.863 237.272 766.307 246.128C768.03 250.556 769.99 254.397 771.978 257.236C772.971 258.656 773.993 259.856 775.02 260.758C775.585 261.253 776.177 261.68 776.79 262.001C776.477 262.764 776.071 263.817 775.686 265.018C774.915 267.418 774.15 270.626 774.529 273.291C774.848 275.531 775.517 277.268 776.279 278.907C777.059 280.587 777.847 281.998 778.595 283.898C779.731 286.783 780.332 288.999 780.933 291.27C781.535 293.549 782.14 295.894 783.276 298.941C785.308 304.395 787.783 310.01 793.021 313.481C798.54 317.137 801.903 319.705 805.247 321.545C808.262 323.205 811.311 324.312 816.004 325.278C809.724 325.481 803.074 324.889 796.711 322.862C788.247 320.166 783.749 315.643 779.777 310.053C775.834 304.503 772.207 297.519 765.839 290.668C759.984 284.37 754.428 281.385 749.529 278.249C744.66 275.133 740.298 271.798 736.367 264.725C727.321 248.448 726.26 227.378 727.524 210.221C728.154 201.668 729.358 194.143 730.404 188.757C730.927 186.066 731.41 183.91 731.762 182.431C731.937 181.691 732.081 181.12 732.179 180.736C732.228 180.544 732.267 180.398 732.292 180.302C732.305 180.254 732.315 180.217 732.321 180.194C732.324 180.182 732.327 180.173 732.328 180.167C732.329 180.165 732.329 180.163 732.329 180.162L732.33 180.161L732.438 179.766L732.301 179.378L716.194 133.791L716.18 133.752L716.164 133.715L716.015 133.351C712.881 125.511 710.878 105.473 729.075 92.1783L729.519 91.854L729.598 91.3081C731.694 76.8281 738.29 69.4374 745.261 65.2839C748.78 63.1868 752.437 61.8908 755.756 60.9493C757.417 60.4781 758.981 60.099 760.409 59.748C761.771 59.4131 763.037 59.0968 764.096 58.7548Z" fill="#260981" stroke="white" stroke-width="2.62084"/>
<path d="M830.087 258.665C795.587 246.282 767.616 253.849 779.563 282.652C791.511 311.456 785.767 303.054 795.22 311.926C807.434 323.392 819.185 323.912 835.841 325.715C853.705 327.648 865.067 327.168 881.477 319.848C899.989 311.591 919.458 284.471 919.458 284.471C922.986 275.714 924.054 265.766 917.59 257.339C907.276 243.893 874.774 264.383 874.774 264.383C874.774 264.383 864.587 271.049 830.087 258.665Z" fill="white" stroke="#260981" stroke-width="2.08174"/>
<path d="M837.782 261.993C812.862 254.485 803.454 244.569 802.805 240.098L813.005 231.409C817.198 229.553 828.316 227.211 840.558 218.55C854.396 208.761 887.967 199.878 898.396 207.445C906.739 213.498 911.72 242.932 910.346 253.338C901.204 257.966 873.891 266.178 837.782 261.993Z" fill="#F7D5D5" stroke="#260981" stroke-width="2.08174"/>
<path d="M953.158 160.173C953.024 170.491 955.976 182.35 948.19 182.249C940.404 182.148 925.788 170.137 925.923 159.818C926.057 149.5 932.477 141.217 940.263 141.318C948.048 141.419 953.293 149.854 953.158 160.173Z" fill="#260981"/>
<path d="M845.843 143.692C845.741 151.591 831.371 163.274 817.98 163.1C804.589 162.926 796.769 137.605 803.787 132.066C812.51 125.181 809.507 137.312 822.898 137.486C836.289 137.66 845.946 135.793 845.843 143.692Z" fill="#260981"/>
<path d="M746.536 103.044C749.778 111.272 739.794 120.786 734.396 124.514C725.088 110.626 730.748 101.056 734.741 98.0066C737.322 96.2572 743.294 94.8155 746.536 103.044Z" fill="white" stroke="white" stroke-width="2.54435"/>
<path d="M747.177 105.982C747.111 111.074 741.77 118.25 738.125 118.202C734.48 118.155 731.221 110.868 731.287 105.775C731.353 100.682 734.755 96.9772 738.4 97.0246C742.046 97.072 747.243 100.889 747.177 105.982Z" fill="#260981"/>
<mask id="path-40-inside-1_75_1326" fill="white">
<path d="M803.501 348.393C815.963 348.393 825.16 355.108 830.77 367.471L854.592 411.52L854.782 411.871L854.397 411.977L781.324 432.141L780.982 432.234L780.925 431.885L776.021 401.504C774.476 395.508 773.779 388.752 773.779 381.971C773.779 363.557 786.809 348.393 803.501 348.393Z"/>
</mask>
<path d="M803.501 348.393C815.963 348.393 825.16 355.108 830.77 367.471L854.592 411.52L854.782 411.871L854.397 411.977L781.324 432.141L780.982 432.234L780.925 431.885L776.021 401.504C774.476 395.508 773.779 388.752 773.779 381.971C773.779 363.557 786.809 348.393 803.501 348.393Z" fill="#F7D5D5"/>
<path d="M803.501 348.393L803.501 344.167H803.501V348.393ZM830.77 367.471L826.922 369.217L826.983 369.351L827.053 369.481L830.77 367.471ZM854.592 411.52L858.312 409.515L858.309 409.509L854.592 411.52ZM854.782 411.871L855.899 415.946L861.021 414.542L858.501 409.867L854.782 411.871ZM854.397 411.977L853.28 407.901L853.273 407.903L854.397 411.977ZM781.324 432.141L782.441 436.216L782.448 436.214L781.324 432.141ZM780.982 432.234L776.811 432.91L777.563 437.554L782.1 436.309L780.982 432.234ZM780.925 431.885L776.754 432.558L776.754 432.561L780.925 431.885ZM776.021 401.504L780.192 400.831L780.161 400.638L780.113 400.45L776.021 401.504ZM773.779 381.971L769.553 381.971L769.553 381.971L773.779 381.971ZM803.501 348.393L803.501 352.618C808.932 352.618 813.478 354.067 817.265 356.745C821.082 359.446 824.354 363.559 826.922 369.217L830.77 367.471L834.618 365.725C831.575 359.02 827.444 353.594 822.145 349.846C816.815 346.076 810.532 344.167 803.501 344.167L803.501 348.393ZM830.77 367.471L827.053 369.481L850.875 413.53L854.592 411.52L858.309 409.509L834.487 365.461L830.77 367.471ZM854.592 411.52L850.872 413.524L851.062 413.876L854.782 411.871L858.501 409.867L858.312 409.515L854.592 411.52ZM854.782 411.871L853.665 407.796L853.28 407.901L854.397 411.977L855.514 416.052L855.899 415.946L854.782 411.871ZM854.397 411.977L853.273 407.903L780.2 428.067L781.324 432.141L782.448 436.214L855.521 416.05L854.397 411.977ZM781.324 432.141L780.206 428.066L779.864 428.159L780.982 432.234L782.1 436.309L782.441 436.216L781.324 432.141ZM780.982 432.234L785.153 431.559L785.096 431.209L780.925 431.885L776.754 432.561L776.811 432.91L780.982 432.234ZM780.925 431.885L785.097 431.211L780.192 400.831L776.021 401.504L771.849 402.177L776.754 432.558L780.925 431.885ZM776.021 401.504L780.113 400.45C778.676 394.875 778.005 388.485 778.004 381.97L773.779 381.971L769.553 381.971C769.554 389.019 770.276 396.142 771.929 402.558L776.021 401.504ZM773.779 381.971L778.004 381.971C778.004 365.353 789.646 352.618 803.501 352.618V348.393V344.167C783.972 344.167 769.553 361.76 769.553 381.971L773.779 381.971Z" fill="#260981" mask="url(#path-40-inside-1_75_1326)"/>
<path d="M815.53 414.075C825.643 411.118 835.067 409.636 842.096 409.592C845.626 409.57 848.428 409.911 850.377 410.534C852.411 411.185 852.987 411.954 853.114 412.387C853.241 412.821 853.17 413.78 851.807 415.423C850.5 416.999 848.324 418.797 845.338 420.68C839.392 424.429 830.655 428.257 820.542 431.215C810.428 434.172 801.004 435.655 793.974 435.699C790.445 435.721 787.643 435.379 785.694 434.756C783.66 434.105 783.083 433.337 782.956 432.903C782.829 432.469 782.902 431.51 784.265 429.867C785.571 428.292 787.747 426.494 790.732 424.612C796.678 420.862 805.416 417.032 815.53 414.075Z" fill="#F7D5D5" stroke="#260981" stroke-width="4.22551"/>
<path d="M803.317 437.406C798.333 437.015 794.61 432.657 795.001 427.673C795.19 425.26 796.241 423.817 797.746 422.933C799.363 421.983 801.712 421.571 804.542 421.793C807.371 422.015 809.627 422.788 811.076 423.978C812.425 425.086 813.239 426.676 813.05 429.089C812.659 434.073 808.301 437.797 803.317 437.406Z" fill="#F7D5D5" stroke="#260981" stroke-width="4.22551"/>
<path d="M852.016 412.144C834.483 411.732 801.848 422.846 783.788 433.121C783.788 433.121 783.078 432.225 783.361 430.655C783.878 427.778 793.453 422.514 800.18 419.688C813.362 414.151 830.097 411.266 834.984 410.173C839.871 409.081 849.871 411.09 852.016 412.144Z" fill="#260981"/>
<path d="M880.149 24.0591C889.497 44.8644 880.028 60.6092 873.765 70.1022C873.765 70.1022 882.42 71.5522 887.359 74.0324C892.292 76.51 898.618 82.5787 898.618 82.5787C913.899 49.1943 899.895 36.1511 892.123 27.9949C890.036 25.8651 881.642 19.3824 880.149 24.0591Z" fill="#260981" stroke="white" stroke-width="3.58693"/>
<path d="M773.269 6.33877C761.862 24.8054 766.554 47.1031 771.283 56.8381C771.283 56.8381 762.266 56.5393 756.837 58.3139C751.991 59.8979 745.945 63.7103 745.945 63.7103C734.993 40.6801 743.712 19.9678 758.784 9.75943C763.597 6.50021 772.441 1.74085 773.269 6.33877Z" fill="#260981" stroke="white" stroke-width="3.13269"/>
</svg>
