<svg width="1440" height="233" viewBox="0 0 1440 233" fill="none" xmlns="http://www.w3.org/2000/svg">
<path d="M879.093 101.225L878.932 100.885L879.153 101.165C880.275 102.869 881.297 104.632 882.519 106.255C891.477 118.299 899.292 131.003 905.183 144.85C907.388 150.041 907.468 150 906.286 154.209C890.956 135.652 874.023 119.18 851.278 109.882C874.444 139.981 888.01 174.007 896.887 211.22C890.335 206.931 885.746 202.443 882.339 196.271C872.74 178.857 858.893 165.37 841.92 155.11C840.137 154.028 838.413 152.525 835.267 153.367C842.982 163.647 849.415 174.067 854.665 185.189C857.871 191.982 857.791 192.143 850.577 192.102C843.223 192.062 836.049 192.824 828.574 196.892C838.494 198.054 847.491 198.475 856.208 201C860.116 202.142 862.32 204.006 863.562 208.094C868.712 224.986 872.48 242.18 875.005 259.614C875.746 264.704 877.67 265.826 882.419 265.806C932.236 265.666 982.033 265.565 1031.85 265.926C1038.72 265.966 1040.79 263.882 1041.77 257.41C1045.1 235.487 1050.37 214.045 1060.41 194.026C1064.27 186.311 1071.29 180.52 1073.93 171.542C1072.59 172.083 1071.41 172.364 1070.45 172.985C1061.03 179.157 1051.37 184.828 1040.63 188.415C1039.49 188.796 1038.5 189.638 1037.44 190.239C1027.72 195.629 1020.71 203.885 1013.43 213.484C1014.84 206.49 1017.04 201.06 1019.75 195.81C1029.97 176.031 1047.26 163.988 1066.22 153.587C1056.04 153.487 1046.3 155.311 1038.1 160.741C1029.89 166.192 1020.73 168.597 1011.73 171.743C1010.33 172.244 1008.79 172.765 1007.84 171.322C1007.08 170.16 1008.2 169.038 1008.91 168.036C1011.43 164.368 1013.98 160.721 1017.4 155.792C1006.08 161.563 999.988 170.981 991.091 177.213C995.62 160.781 1006.2 147.756 1014.84 133.588C998.024 145.171 986.382 161.222 974.979 179.378C977.043 167.775 980.51 158.156 984.137 148.598C987.744 139.099 992.714 130.222 997.042 121.004C989.468 126.855 983.155 133.769 976.983 140.823C975.881 142.085 975.581 145.131 973.336 143.869C971.412 142.786 973.116 140.542 973.877 138.939C978.887 128.358 985.259 118.579 991.852 108.94C992.634 107.798 994.638 106.796 992.674 104.732C982.073 112.067 974.559 122.467 965.721 131.685C966.062 126.735 966.964 122.126 967.725 117.497C968.026 115.734 968.667 113.469 966.383 112.688C964.359 112.006 963.738 114.151 962.976 115.493C957.305 125.673 953.117 136.494 948.989 147.355C948.027 149.88 947.586 152.726 945.141 155.271C934.881 136.354 922.637 119.782 905.163 107.598C925.142 133.689 938.548 162.064 937.847 196.03C935.923 195.669 936.184 194.708 936.044 194.006C930.232 164.589 917.908 138.478 897.108 116.615C891.637 110.864 886.247 104.973 879.093 101.205V101.225Z" fill="white"/>
<path d="M877.229 101.226C884.403 104.993 889.774 110.884 895.244 116.636C916.045 138.498 923.825 168.056 934.18 194.026C930.053 175.295 921.908 131.894 903.3 107.618C920.774 119.782 933.018 136.374 943.278 155.291C945.703 152.746 946.164 149.9 947.125 147.375C949.34 141.548 959.27 106.467 967.752 106.467C964.31 112.154 964.308 125.172 963.858 131.705C972.695 122.487 980.21 112.087 990.811 104.752C994.065 108.208 974.334 134.078 972.014 138.959C971.252 140.562 969.549 142.787 971.473 143.889C973.717 145.171 974.018 142.125 975.12 140.843C981.292 133.789 987.604 126.876 995.179 121.024C990.851 130.222 985.881 139.099 982.274 148.618C978.647 158.177 975.16 167.775 973.116 179.398C984.518 161.242 996.141 145.191 1012.97 133.609C1004.32 147.756 993.756 160.802 989.227 177.234C998.125 171.001 1004.2 161.583 1015.54 155.812C1012.11 160.761 1009.57 164.409 1007.04 168.056C1006.36 169.058 1005.22 170.16 1005.98 171.342C1006.92 172.765 1008.46 172.244 1009.87 171.763C1018.87 168.617 1028.02 166.212 1036.24 160.762C1044.44 155.311 1054.15 153.507 1064.35 153.608C1045.4 164.028 1028.1 176.051 1017.88 195.83C1015.18 201.08 1012.97 206.511 1011.57 213.504C1018.85 203.906 1025.88 195.649 1035.58 190.259C1036.66 189.658 1037.64 188.816 1038.76 188.435C1049.5 184.828 1059.16 179.157 1068.58 173.005C1069.54 172.384 1070.73 172.104 1072.07 171.563C1069.44 180.54 1062.43 186.331 1058.54 194.046C1048.87 213.329 1044.42 265.99 1038.54 265.947C1014.71 265.775 875.606 268.287 875.606 265.719C873.081 248.285 866.849 225.007 861.699 208.114C860.457 204.026 858.252 202.162 854.345 201.02C845.628 198.475 836.63 198.054 826.711 196.912C834.165 192.844 841.359 192.083 848.714 192.123C855.928 192.163 856.028 192.002 852.802 185.209C847.552 174.088 841.119 163.667 833.404 153.387C836.55 152.546 838.253 154.048 840.057 155.131C857.05 165.411 870.877 178.877 880.476 196.291C883.882 202.463 888.451 206.931 895.024 211.24C886.147 174.047 872.58 140.001 849.415 109.902C872.159 119.201 889.092 135.673 904.422 154.229C905.605 150.021 905.524 150.061 903.32 144.871C897.449 131.024 889.613 118.319 880.656 106.275C879.454 104.652 878.412 102.889 877.289 101.186L877.229 101.246V101.226ZM1017.48 172.464C998.806 185.911 985.841 207.673 989.207 231.92C990.189 228.093 990.931 225.868 991.312 223.584C993.255 212.202 997.724 201.741 1002.79 191.461C1006.42 184.107 1013.11 179.177 1017.4 172.364C1017.76 172.304 1018.12 172.244 1018.46 172.184C1018.38 172.003 1018.28 171.843 1018.2 171.663C1017.96 171.923 1017.72 172.184 1017.46 172.444L1017.48 172.464ZM966.243 154.189C967.625 152.045 971.393 150.261 969.689 145.011C968.247 148.858 967.245 151.524 966.243 154.189Z" fill="#F7D5D5"/>
<path d="M355.108 146.731C350.863 145.586 354.872 145.885 353.64 145.586C363.109 139.66 357.271 127.559 349.646 122.523C367.579 127.083 367.408 160.433 368.778 165.933C368.442 166.269 355.444 146.47 355.108 146.806V146.731Z" fill="#D2A3A3"/>
<path d="M588.795 99.5736C599.025 119.698 609.255 139.859 619.523 159.983C621.159 124.741 615.806 86.6199 611.047 51.522C620.195 58.2051 618.963 70.5261 627.998 75.3425C628.521 80.1962 628.259 85.0125 629.454 89.9782C632.665 103.195 634.831 116.673 637.295 130.077C642.074 156.362 645.061 182.833 644.874 209.603C650.875 156.176 626.894 88.2694 639.236 40.0224C657.913 59.2302 650.519 94.2162 677.207 106.779C681.563 108.595 688.775 46.6003 703.277 36.8574C696.105 56.4806 687.942 79.9539 698.451 96.064C708.42 111.334 718.986 126.269 725.744 143.444C728.395 150.164 732.614 156.25 736.124 162.597C737.625 123.044 724.404 84.6284 726.192 46.6309C730.754 62.5193 736.189 78.4551 744.105 90.6267C750.004 122.437 756.546 152.106 760.093 184.327C767.925 153.744 754.548 116.646 754.548 85.4561C758.916 93.11 765.09 110.703 766.292 123.625C769.092 153.718 780.479 172.379 783.018 202.584C782.57 182.684 785.109 163.194 788.469 143.779C792.806 118.662 798.282 69.7421 816.546 49.1698C801.764 90.6267 802.634 176.785 810.646 212.665C815.127 179.398 821.997 147.7 833.123 116.972C844.846 94.3464 855.562 71.0114 877.478 53.1648C876.773 95.9712 844.265 140.167 841.038 185.932C845.593 182.871 845.556 179.548 846.489 176.785C851.016 162.953 882.451 96.341 912.945 85.4561C881.181 122.152 864.766 177.978 862.693 221.327C872.363 197.73 883.041 174.955 904.024 154.644C897.117 175.851 889.127 193.81 887.858 214.457C901.821 209.23 901.187 197.469 902.979 186.977C910.924 140.048 926.291 84.2319 965.741 53.4261C937.323 93.7865 929.297 135.008 931.653 184.476C940.08 155.68 956.855 108.626 985.94 93.7865C954.856 126.92 951.366 166.907 951.366 204.75C970.829 183.125 992.563 165.947 1021.45 160.618C1041.05 156.997 1056 154.644 1076.88 160.618C1025.54 168.277 986.723 191.279 965.741 244.337C957.863 264.237 942.107 266.989 921.087 266.877C736.236 265.906 551.384 266.317 366.533 266.541C358.767 266.541 354.959 263.666 351.972 256.796C332.733 212.689 311.532 204.899 264.979 197.88C272.11 194.781 280.1 193.175 288.276 193.175C297.424 193.175 306.534 193.81 315.606 195.677C324.343 197.469 332.333 200.829 340.136 204.899C344.169 206.99 349.321 211.731 350.217 202.099C352.457 206.168 348.761 215.652 356.9 213.71C365.035 211.748 346.03 167.411 346.67 160.394C353.474 175.697 364.66 185.404 371.387 195.378C371.387 182.758 368.678 155.977 368.678 145.897C370.952 127.514 369.823 121.868 364.069 106.07C372.223 117.492 375.68 130.562 379.825 143.518C385.238 165.882 388.337 188.62 391.212 211.47C390.129 189.852 398.53 168.87 395.095 147.215C395.58 147.775 396.066 148.335 396.514 148.932C397.634 150.388 398.418 149.977 398.455 148.409C399.289 127.799 400.458 90.3169 416.062 75.1369C411.603 91.1367 413.726 116.827 426.756 132.541C433.85 141.091 437.434 152.554 442.773 162.597C445.387 167.563 448.411 172.304 451.249 177.158C454.549 146.87 439.882 114.498 445.835 86.0579C454.609 93.6745 453.601 105.249 460.433 113.687C460.732 108.497 460.956 104.39 461.217 100.32C464.204 104.427 463.047 109.169 462.972 113.612C462.487 143.705 472.082 172.491 473.426 202.36C475.629 170.4 472.772 127.867 471.733 94.7755C487.102 122.718 487.065 168.587 491.982 199.672C499.263 160.17 503.146 120.407 522.262 84.2285C511.771 131.16 513.264 178.39 516.923 228.458C518.603 224.314 519.723 222.671 519.91 220.954C524.838 175.291 555.434 99.5736 573.258 78.2429C572.515 85.2449 577.183 90.6555 588.795 99.5736ZM579.536 162.821C569.492 186.082 567.14 207.587 566.057 229.578C570.874 218.041 575.503 206.28 582.747 196.536C591.67 184.513 585.621 175.665 579.536 162.821ZM438.89 200.381C432.319 176.225 425.636 154.57 413.614 131.571C410.851 165.696 414.473 175.366 438.89 200.381ZM693 106.929C691.133 126.829 704.388 162.672 718.464 177.532C711.78 152.852 703.492 131.123 693 106.929ZM590.064 140.793C581.888 151.62 584.352 166.629 595.105 172.267C599.399 174.545 601.004 171.408 600.145 168.048C597.793 158.714 596.598 148.82 590.064 140.755V140.793ZM414.473 178.166C411.187 193.175 412.382 206.803 426.831 218.004C423.695 203.181 421.492 190.002 414.473 178.166Z" fill="#D2A3A3"/>
<path d="M553.139 60.959C553.139 82.5241 545.499 97.507 541.565 118.682C548.659 108.527 554.259 99.566 561.689 92.0614C541.565 133.121 529.249 183.608 512.928 233.864C509.232 183.796 507.738 136.566 518.267 89.6345C499.188 125.813 495.268 165.576 487.987 205.078C480.884 160.266 481.146 113.727 469.469 69.9211C479.848 83.1755 481.416 97.8112 487.801 111.924C491.672 90.9264 485.158 68.3868 478.644 47.8008C492.715 69.9211 502.229 111.988 504.229 119.392C511.435 94.9737 514.197 71.6385 526.668 51.5889C523.195 74.7374 519.089 97.7739 519.985 121.52C530.857 101.14 542.489 81.359 553.139 60.959Z" fill="#D2A3A3"/>
<path d="M922.468 104.431C911.229 131.014 903.426 158.569 898.647 187.019C896.892 197.473 897.49 209.234 883.526 214.498C884.795 193.851 892.785 175.893 899.692 154.686C878.71 174.959 868.031 197.772 858.361 221.368C859.593 195.643 863.066 170.404 873.52 146.658C887.026 115.997 904.814 91.4329 923.177 63.6974C930.532 52.5713 938.298 41.7437 950.32 34.4258C939.941 57.3875 928.329 79.7892 922.43 104.431H922.468Z" fill="#D2A3A3"/>
<path d="M552.887 42.7796C569.992 50.963 574.355 57.5275 585.967 64.7707C583.614 51.8524 572.212 28.4594 563.924 19.3867C603.655 40.7137 615.769 145.111 615.089 159.754C594.665 119.578 573.677 82.0494 552.887 42.7796Z" fill="#D2A3A3"/>
<path d="M795.674 81.6926C791.828 102.377 787.721 123.061 784.137 143.82C780.777 163.197 778.238 182.724 778.686 202.624C774.419 151.096 744.456 84.8593 753.329 34.1572C755.794 56.228 757.192 70.9228 774.945 106.428C782.561 81.4505 790.746 43.1989 803.888 20.4238C799.968 40.7347 796.197 61.0455 795.637 81.7298L795.674 81.6926Z" fill="#D2A3A3"/>
<path d="M731.825 162.637C728.316 156.252 724.097 150.204 721.446 143.483C711.965 119.389 676.672 87.9098 687.433 58.9541C690.606 47.4545 691.119 35.9597 679.513 25.6966C687.433 26.368 690.345 29.832 694.975 30.3547C697.924 24.5302 701.135 18.2576 704.533 11.5371C702.454 27.2551 703.197 51.4706 715.2 71.8633C728.027 93.6579 733.303 122.28 731.825 162.637Z" fill="#D2A3A3"/>
<path d="M828.524 117.043C817.398 147.733 810.528 179.469 806.047 212.735C796.83 195.406 799.9 162.459 799.677 143.605C799.37 117.608 818.869 44.5856 859.737 32.4766C839.063 52.5115 834.274 87.2486 828.524 117.043Z" fill="#D2A3A3"/>
<path d="M946.518 205.489C950.535 180.71 958.254 161.588 967.392 141.239C998.889 126.382 1033.21 123.653 1065.19 139.718C1044.88 139.453 1024.61 139.715 1005.32 146.863C990.963 152.204 967.391 165.854 967.391 165.854C967.391 165.854 993.392 155.303 1010.51 153.648C979.105 166.72 966.193 182.07 946.518 205.489Z" fill="#D2A3A3"/>
<path d="M835.848 188.567C838.46 151.557 859.961 70.9984 902.196 56.6387C891.451 66.3682 892.182 82.6938 894.194 95.2939C873.248 112.97 851.005 167.174 835.848 188.567Z" fill="#D2A3A3"/>
<path d="M635.353 65.8992C647.935 123.098 645.919 161.405 640.468 209.606C640.654 182.799 637.667 156.327 632.888 130.08C630.462 116.676 628.259 103.198 625.048 89.981C623.853 85.0153 624.077 80.199 623.592 75.3453C622.36 55.4452 621.277 35.5822 616.535 15.9434C626.84 31.1765 631.544 48.3512 635.315 65.8992H635.353Z" fill="#D2A3A3"/>
<path d="M672.839 106.781C658.166 99.8742 652.715 87.1426 650.774 72.1335C652.64 48.3504 646.368 25.5006 641.738 0C686.737 49.0638 664.808 56.5349 672.839 106.819V106.781Z" fill="#D2A3A3"/>
<path d="M954.168 120.82C946.178 142.4 933.894 162.188 927.36 184.515C926.091 157.895 930.982 132.506 942.033 108.237C951.143 92.855 961.374 78.3684 976.196 67.2422C969.363 85.3502 960.141 102.45 954.168 120.82Z" fill="#D2A3A3"/>
<path d="M755.366 187.597C751.819 155.376 745.957 123.565 740.058 91.7548C740.021 67.337 736.026 43.3672 732.068 19.248C744.352 42.0978 751.334 66.5158 754.321 92.2031C754.321 122.126 762.857 158.347 755.366 187.597Z" fill="#D2A3A3"/>
<path d="M390.801 147.365C394.236 169.02 385.798 190.003 386.918 211.621C384.043 188.771 380.944 166.033 375.531 143.669C378.823 144.14 372.454 82.5331 371.125 75.3438C383.334 97.9321 387.926 122.387 390.838 147.328L390.801 147.365Z" fill="#D2A3A3"/>
<path d="M367.017 162.713C367.017 172.794 367.017 182.838 367.017 195.495C360.52 185.862 347.436 175.129 345.643 164.674C349.342 169.134 359.961 169.472 356.303 164.674C349.584 155.861 326.598 135.322 312.133 133.367C326.562 133.893 367.103 142.741 367.017 162.713Z" fill="#D2A3A3"/>
<path d="M469.096 202.437C467.752 172.605 458.156 143.782 458.642 113.689C458.717 109.246 459.874 104.504 456.887 100.397C456.887 82.2969 452.504 65.9124 449.756 47.8281C459.687 66.4962 465.957 85.0699 467.603 107.192C470.623 147.792 470.311 184.803 469.096 202.437Z" fill="#D2A3A3"/>
<path d="M392.218 47.6791L391.883 47.3438L392.256 47.6418L392.218 47.6791Z" fill="#D2A3A3"/>
<path d="M577.482 101.801C571.72 118.734 582.261 125.975 577.482 132.845C562.847 153.79 552.094 175.405 543.282 199.524C540.781 177.72 548.323 157.484 553.177 136.837C556.079 124.489 568.932 107.775 577.482 101.801Z" fill="#D2A3A3"/>
<path d="M575.168 162.861C581.254 175.705 587.302 184.554 578.379 196.576C571.136 206.321 566.506 218.119 561.689 229.618C562.772 207.627 565.124 186.122 575.168 162.861Z" fill="#D2A3A3"/>
<path d="M434.521 200.422C410.103 175.407 406.481 165.737 409.244 131.611C421.267 154.61 427.987 176.228 434.521 200.422Z" fill="#D2A3A3"/>
<path d="M688.631 106.969C699.123 131.163 707.411 152.892 714.094 177.572C700.019 162.674 686.802 126.832 688.631 106.969Z" fill="#D2A3A3"/>
<path d="M585.696 140.832C592.23 148.897 593.387 158.791 595.777 168.125C596.635 171.485 595.067 174.584 590.736 172.344C580.021 166.706 577.519 151.697 585.696 140.869V140.832Z" fill="#D2A3A3"/>
<path d="M410.105 178.205C417.124 190.041 419.327 203.22 422.463 218.043C408.051 206.842 406.857 193.214 410.105 178.205Z" fill="#D2A3A3"/>
<path d="M418.652 96.3281C423.581 106.521 429.181 116.378 430.563 127.765C423.73 118.356 421.639 107.081 418.652 96.3281Z" fill="#F7D5D5"/>
<path d="M607.539 130.488C608.507 134.09 609.453 137.67 610.421 141.272C612.272 148.939 615.988 162.43 612.425 170.158C608.575 161.647 607.629 152.822 601.37 144.829C605.716 161.129 607.607 176.326 607.066 191.771C602.856 185.332 605.175 176.867 600.447 170.585C600.627 157.55 595.674 146.022 589.686 134.788C591.081 143.974 592.455 153.159 593.851 162.345C593.873 162.795 593.896 163.246 593.918 163.696C593.918 164.619 593.963 165.542 593.986 166.465C593.851 168.942 593.693 171.396 593.513 174.525C589.393 169.437 590.023 162.48 584.71 157.865C583.494 163.674 588.492 168.356 585.453 173.377C584.98 173.512 584.485 173.625 584.012 173.76C582.954 171.734 582.211 169.46 580.792 167.704C572.822 157.82 569.715 147.103 574.376 134.788C574.443 134.585 573.926 134.158 573.385 133.437C572.732 134.788 572.124 135.891 571.629 137.062C568.867 143.321 565.183 144.161 560.575 139.583C558.796 137.827 556.86 136.274 554.991 134.608L554.789 134.428L554.991 134.63C564.064 144.041 567.036 154.87 562.533 167.411C560.957 168.266 556.455 166.578 558.391 170.405C563.006 179.478 556.5 187.111 556.162 195.463C556.117 196.409 555.644 196.657 554.991 195.779C554.721 195.418 554.428 195.081 554.136 194.743C552.402 179.704 549.61 164.957 542.248 151.336C544.635 164.124 545.175 176.934 545.355 189.767C545.265 190.69 545.153 191.614 545.062 192.559H544.905C542.406 184.702 540.965 176.439 535.404 169.955C536.012 175.336 538.939 180.244 537.115 185.827C532.432 186.841 532.522 180.649 528.74 180.289C528.582 180.221 528.425 180.176 528.267 180.109C528.447 180.154 528.627 180.199 528.785 180.244C528.199 182.968 530.451 184.837 530.901 187.223C531.306 189.452 533.535 191.861 530.383 193.82C523.201 189.16 515.344 186.638 506.698 186.323C506.969 188.146 508.297 187.989 509.31 188.439C518.226 192.424 525.633 198.368 531.554 206.135C534.874 210.527 528.322 202.213 517.565 196.459C508.281 191.492 495.093 189.259 491.569 188.934C511.226 196.459 522.076 209.58 527.029 227.816C526.488 233.647 523.381 230.766 520.95 229.505C516.244 227.051 511.404 225.025 506.158 223.944C500.71 222.818 495.216 222.458 489.678 222.435C484.725 222.435 479.929 223.381 475.629 225.272C477.408 226.038 479.141 227.231 481.573 227.366C504.087 228.672 519.239 240.514 528.087 260.8C529.888 264.942 532.207 266.676 536.867 266.676C648.335 266.541 759.802 266.293 871.27 266.878C883.945 266.946 889.979 263.704 894.729 251.726C904.163 227.929 922.309 213.137 947.975 208.522C951.127 207.959 954.392 207.891 957.589 207.486C960.516 207.126 963.443 206.653 967.518 206.045C955.067 200.687 943.608 200.619 931.788 202.803C925.686 203.929 920.441 207.644 914.137 207.801C915.825 202.038 922.467 200.799 925.754 195.373C915.532 197.13 908.125 202.781 900.493 207.914C905.244 199.088 913.912 195.373 922.332 191.524C933.611 186.368 945.791 185.31 958.017 184.567C938.069 176.326 919.112 179.276 900.831 189.587C901.214 179.816 909.161 172.589 910.422 162.48C902.699 166.42 900.403 174.728 893.851 178.758C897.476 167.681 903.015 157.392 907.135 146.45C898.174 153.159 892.005 161.895 886.534 171.171C887.502 159.666 896.035 150.728 898.242 138.142C886.94 146.968 881.446 158.383 874.759 168.874C878.294 154.015 885.319 140.506 891.577 126.66C884.328 131.073 879.645 137.602 875.21 144.311C869.784 152.507 865.619 161.625 857.761 168.019C856.388 167.456 856.675 156.271 856.653 155.167C856.98 148.294 859.402 143.057 862.579 140.101C859.202 141.249 857.288 144.019 855.06 146.428C854.091 147.463 851.93 149.647 851.525 147.801C850.782 144.424 849.409 145.932 848.508 146.878C845.063 150.503 841.866 154.33 838.579 158.068C838.759 151.178 844.928 146.203 845.063 138.007C831.848 148.769 825.386 162.841 818.316 176.484C821.784 158.518 829.056 141.88 837.138 125.49C831.69 127.111 828.921 131.141 826.061 134.9C814.669 149.872 807.6 166.938 802.151 184.769C801.994 168.559 804.808 152.642 808.32 135.598C804.831 137.76 804.605 139.944 803.862 142.037C802.264 146.495 801.679 151.448 798.346 155.186C798.684 142.713 800.958 130.465 803.322 118.217C795.397 131.951 792.178 147.238 787.585 162.323C785.986 160.206 783.424 154.277 783.424 154.277C783.424 154.277 778.148 140.683 775.508 128.573C774.209 141.698 778.552 160.426 779.975 174.098C775.99 170.09 776.305 164.191 773.671 159.576C771.87 144.086 767.66 129.362 760.253 115.583C762.639 130.128 765.026 144.582 765.071 159.306C760.298 151.966 759.735 142.735 753.859 134.067C753.498 141.722 758.204 147.351 755.705 153.52C753.386 149.58 751.697 145.077 748.658 141.812C738.802 131.251 739.687 124.577 743.994 112.015C741.945 116.045 739.382 120.717 737.581 124.251C734.789 123.936 734.316 120.311 730.444 121.55C736.815 127.628 734.969 134.54 733.033 141.497V141.159C729.746 141.34 728.834 133.397 725.671 130.713C727.063 133.994 727.63 141.452 725.671 144.221C712.05 135.598 716.215 117.655 705.498 105.947C708.29 121.324 712.072 135.103 710.947 149.445C707.299 143.478 706.872 135.779 701.356 130.082C699.87 135.891 705.273 140.619 701.671 145.685C699.397 135.126 696.56 124.769 690.346 115.561C693.183 127.381 693.858 139.381 694.601 151.381C689.175 148.476 689.896 141.047 684.38 137.017C685.1 142.33 685.708 146.698 686.294 151.088C683.795 149.805 682.174 147.869 680.823 145.324C677.581 139.223 673.416 133.707 668.868 128.506C667.472 126.908 666.414 124.409 662.316 125.85C667.314 131.321 670.534 137.377 671.93 145.167C664.928 140.777 661.123 132.987 651.982 131.906C653.4 134.585 656.71 136.116 654.639 139.156C654.256 139.538 653.851 139.921 653.468 140.304L653.198 140.551C648.673 140.551 648.785 144.244 647.885 147.148C640.815 155.771 637.1 166.308 631.877 176.034C631.337 161.715 633.813 147.824 635.907 133.865C628.387 145.955 626.721 160.026 622.376 174.75C618.191 159.254 614.492 144.909 607.584 130.555L607.539 130.488Z" fill="#F7D5D5"/>
<path d="M529.977 194.427C527.417 193.737 529.835 193.917 529.092 193.737C534.801 190.164 531.281 182.867 526.684 179.83C537.497 182.579 537.394 202.69 538.22 206.006C538.017 206.209 530.179 194.27 529.977 194.472V194.427Z" fill="#D2A3A3"/>
<path d="M649.394 142.706C649.394 155.71 644.787 164.745 642.414 177.514C646.692 171.39 650.069 165.987 654.549 161.461C642.414 186.221 634.987 216.665 625.146 246.97C622.917 216.778 622.016 188.298 628.365 159.998C616.861 181.814 614.497 205.792 610.106 229.611C605.823 202.589 605.981 174.526 598.939 148.11C605.198 156.103 606.144 164.928 609.994 173.439C612.328 160.777 608.4 147.185 604.472 134.771C612.957 148.11 618.694 173.477 619.9 177.942C624.245 163.217 625.911 149.146 633.431 137.056C631.337 151.015 628.861 164.906 629.401 179.225C635.957 166.936 642.971 155.007 649.394 142.706Z" fill="#D2A3A3"/>
<path d="M649.242 131.745C659.557 136.68 662.188 140.638 669.19 145.006C667.771 137.216 660.896 123.11 655.898 117.639C679.856 130.499 687.161 193.452 686.751 202.282C674.435 178.055 661.779 155.425 649.242 131.745Z" fill="#D2A3A3"/>
<path d="M795.645 155.209C793.326 167.682 790.849 180.155 788.688 192.673C786.662 204.358 785.131 216.133 785.401 228.133C782.827 197.06 764.759 157.119 770.11 126.545C771.597 139.854 772.44 148.715 783.145 170.125C787.738 155.063 792.673 131.997 800.598 118.264C798.234 130.511 795.96 142.759 795.622 155.232L795.645 155.209Z" fill="#D2A3A3"/>
<path d="M757.144 204.019C755.028 200.169 752.484 196.522 750.885 192.469C745.168 177.94 723.886 158.958 730.375 141.497C732.289 134.563 732.598 127.631 725.599 121.443C730.375 121.847 732.131 123.936 734.923 124.252C736.701 120.739 738.638 116.957 740.686 112.904C739.433 122.382 739.881 136.985 747.119 149.282C754.854 162.424 758.035 179.683 757.144 204.019Z" fill="#D2A3A3"/>
<path d="M815.454 176.524C808.744 195.03 804.602 214.167 801.9 234.227C796.342 223.778 798.193 203.91 798.059 192.541C797.874 176.864 809.631 132.831 834.275 125.529C821.809 137.611 818.921 158.557 815.454 176.524Z" fill="#F7D5D5"/>
<path d="M886.605 229.859C889.028 214.918 893.683 203.386 899.193 191.116C918.186 182.157 938.879 180.511 958.165 190.199C945.919 190.039 933.694 190.197 922.065 194.507C913.406 197.728 899.192 205.959 899.192 205.959C899.192 205.959 914.871 199.597 925.194 198.599C906.256 206.481 898.47 215.737 886.605 229.859Z" fill="#F7D5D5"/>
<path d="M582.842 176.08C588.065 187.765 586.759 200.058 585.363 212.868C583.652 209.941 581.851 207.082 580.252 204.088C577.033 198.009 574.872 191.12 570.594 185.964C563.817 177.791 563.187 169.461 566.136 160.005C568.946 150.827 559.019 141.631 552.357 134.722V134.677C554.226 136.32 556.185 137.896 557.941 139.652C562.564 144.215 566.351 143.982 569.098 137.738C569.615 136.589 569.83 135.173 570.751 133.506C570.301 136.01 568.023 142.906 568.489 144.736C569.307 147.944 570.211 157.889 578.159 167.772C579.577 169.528 580.32 171.802 581.356 173.829C581.423 174.301 581.671 174.639 582.099 174.842C582.324 175.247 582.549 175.675 582.774 176.08H582.842ZM568.297 164.035C570.099 170.519 571.359 177.318 575.479 182.992C574.646 176.125 571.269 170.181 568.297 164.035Z" fill="#F7D5D5"/>
<path d="M698.968 145.684C706.555 180.176 705.34 203.276 702.053 232.341C702.165 216.176 700.364 200.214 697.482 184.386C696.019 176.304 694.691 168.176 692.754 160.206C692.034 157.212 692.169 154.307 691.876 151.381C691.133 139.381 690.48 127.403 687.621 115.561C693.835 124.746 696.672 135.103 698.946 145.684H698.968Z" fill="#D2A3A3"/>
<path d="M721.573 170.338C712.725 166.173 709.438 158.495 708.267 149.445C709.392 135.103 705.61 121.324 702.818 105.947C729.953 135.533 716.73 140.038 721.573 170.36V170.338Z" fill="#D2A3A3"/>
<path d="M891.217 178.802C886.399 191.815 878.992 203.748 875.052 217.211C874.286 201.159 877.236 185.849 883.9 171.215C889.393 161.939 895.562 153.203 904.5 146.494C900.38 157.413 894.819 167.725 891.217 178.802Z" fill="#F7D5D5"/>
<path d="M771.338 219.069C769.199 199.639 765.664 180.457 762.107 161.275C762.085 146.551 759.676 132.097 757.289 117.553C764.696 131.331 768.906 146.056 770.708 161.545C770.708 179.589 775.855 201.431 771.338 219.069Z" fill="#D2A3A3"/>
<path d="M551.502 194.811C553.573 207.869 548.485 220.522 549.16 233.557C547.427 219.779 545.558 206.068 542.293 192.582C544.279 192.866 540.438 155.716 539.637 151.381C546.999 165.002 549.768 179.749 551.524 194.788L551.502 194.811Z" fill="#F7D5D5"/>
<path d="M537.16 204.065C537.16 210.144 537.16 216.2 537.16 223.833C533.243 218.024 525.352 211.552 524.272 205.248C526.502 207.937 532.905 208.141 530.7 205.248C526.648 199.933 512.787 187.548 504.064 186.369C512.766 186.686 537.212 192.022 537.16 204.065Z" fill="#F7D5D5"/>
<path d="M598.713 228.018C597.903 210.029 592.116 192.648 592.409 174.502C592.454 171.823 593.152 168.963 591.351 166.487C591.351 155.572 588.708 145.692 587.051 134.787C593.04 146.044 596.82 157.244 597.813 170.584C599.634 195.066 599.446 217.385 598.713 228.018Z" fill="#F7D5D5"/>
<path d="M552.357 134.699L552.154 134.496L552.38 134.677L552.357 134.699Z" fill="#F7D5D5"/>
<path d="M664.072 167.336C660.597 177.547 666.954 181.913 664.072 186.056C655.246 198.686 648.762 211.72 643.449 226.264C641.941 213.116 646.489 200.913 649.415 188.463C651.166 181.017 658.916 170.938 664.072 167.336Z" fill="#D2A3A3"/>
<path d="M662.676 204.154C666.346 211.899 669.994 217.235 664.613 224.484C660.245 230.361 657.453 237.475 654.549 244.41C655.202 231.149 656.62 218.181 662.676 204.154Z" fill="#F7D5D5"/>
<path d="M577.865 226.802C563.141 211.718 560.957 205.887 562.623 185.309C569.873 199.177 573.925 212.213 577.865 226.802Z" fill="#F7D5D5"/>
<path d="M731.097 170.451C737.423 185.04 742.421 198.144 746.451 213.025C737.964 204.042 729.994 182.429 731.097 170.451Z" fill="#D2A3A3"/>
<path d="M669.027 190.871C672.967 195.734 673.664 201.7 675.105 207.329C675.623 209.355 674.678 211.224 672.066 209.873C665.604 206.473 664.096 197.423 669.027 190.894V190.871Z" fill="#D2A3A3"/>
<path d="M563.142 213.408C567.374 220.545 568.703 228.493 570.594 237.431C561.903 230.677 561.183 222.459 563.142 213.408Z" fill="#F7D5D5"/>
<path d="M568.297 164.033C571.269 170.18 574.646 176.123 575.479 182.99C571.359 177.317 570.098 170.517 568.297 164.033Z" fill="#F7D5D5"/>
<path d="M300.752 130.49C301.72 134.092 302.666 137.672 303.634 141.274C305.485 148.941 309.201 162.431 305.638 170.16C301.788 161.649 300.842 152.824 294.583 144.831C298.929 161.131 300.82 176.328 300.279 191.773C296.069 185.334 298.388 176.869 293.66 170.587C293.84 157.552 288.887 146.024 282.899 134.79C284.294 143.976 285.668 153.161 287.064 162.347C287.086 162.797 287.109 163.248 287.131 163.698C287.131 164.621 287.176 165.544 287.199 166.467C287.064 168.944 286.906 171.398 286.726 174.527C282.606 169.439 283.236 162.482 277.923 157.867C276.707 163.675 281.705 168.358 278.666 173.379C278.193 173.514 277.698 173.627 277.225 173.762C276.167 171.736 275.424 169.462 274.005 167.705C266.035 157.822 262.928 147.105 267.589 134.79C267.656 134.587 267.139 134.159 266.598 133.439C265.945 134.79 265.337 135.893 264.842 137.064C262.08 143.323 258.396 144.163 253.788 139.585C252.009 137.829 250.073 136.276 248.204 134.61L248.002 134.43L248.204 134.632C257.277 144.043 260.249 154.872 255.746 167.413C254.17 168.268 249.668 166.58 251.604 170.407C256.219 179.48 249.713 187.113 249.375 195.465C249.33 196.411 248.857 196.659 248.204 195.781C247.934 195.42 247.641 195.083 247.349 194.745C245.615 179.706 242.823 164.959 235.461 151.338C237.848 164.126 238.388 176.936 238.568 189.769C238.478 190.692 238.366 191.616 238.276 192.561H238.118C235.619 184.704 234.178 176.441 228.617 169.957C229.225 175.338 232.152 180.246 230.328 185.829C225.645 186.842 225.735 180.651 221.953 180.291C221.795 180.223 221.638 180.178 221.48 180.111C221.66 180.156 221.84 180.201 221.998 180.246C221.412 182.97 223.664 184.839 224.114 187.225C224.519 189.454 226.748 191.863 223.596 193.822C216.414 189.162 208.557 186.64 199.911 186.325C200.182 188.148 201.51 187.991 202.523 188.441C211.439 192.426 218.846 198.37 224.767 206.137C228.087 210.529 221.535 202.215 210.778 196.461C201.494 191.494 188.306 189.261 184.782 188.936C204.439 196.461 215.289 209.582 220.242 227.818C219.701 233.649 216.594 230.768 214.163 229.507C209.457 227.053 204.617 225.027 199.371 223.946C193.923 222.82 188.429 222.46 182.891 222.437C177.938 222.437 173.142 223.383 168.842 225.274C170.621 226.04 172.354 227.233 174.786 227.368C197.3 228.674 212.452 240.516 221.3 260.802C223.101 264.944 225.42 266.678 230.08 266.678C341.548 266.543 453.015 266.295 564.483 266.88C577.158 266.948 583.192 263.706 587.942 251.728C597.376 227.931 615.522 213.139 641.188 208.524C644.34 207.961 647.605 207.893 650.802 207.488C653.729 207.128 656.656 206.655 660.731 206.047C648.28 200.689 636.821 200.621 625.001 202.805C618.899 203.931 613.654 207.646 607.35 207.803C609.038 202.04 615.68 200.801 618.967 195.375C608.746 197.132 601.338 202.783 593.706 207.916C598.457 199.09 607.125 195.375 615.545 191.525C626.824 186.37 639.004 185.312 651.23 184.569C631.282 176.328 612.325 179.278 594.044 189.589C594.427 179.818 602.374 172.591 603.635 162.482C595.912 166.422 593.616 174.73 587.064 178.76C590.689 167.683 596.228 157.394 600.348 146.452C591.387 153.161 585.218 161.897 579.747 171.173C580.715 159.668 589.248 150.73 591.455 138.144C580.153 146.97 574.659 158.385 567.972 168.876C571.507 154.017 578.532 140.508 584.791 126.662C577.541 131.075 572.858 137.604 568.423 144.313C562.997 152.509 558.832 161.627 550.974 168.021C549.601 167.458 549.888 156.273 549.866 155.169C550.193 148.296 552.615 143.059 555.792 140.103C552.415 141.251 550.501 144.021 548.273 146.43C547.304 147.465 545.143 149.649 544.738 147.803C543.995 144.426 542.622 145.934 541.721 146.88C538.276 150.505 535.079 154.332 531.792 158.069C531.972 151.18 538.141 146.204 538.276 138.009C525.061 148.771 518.599 162.842 511.53 176.486C514.997 158.52 522.269 141.882 530.351 125.491C524.903 127.112 522.134 131.143 519.274 134.902C507.882 149.874 500.813 166.94 495.364 184.771C495.207 168.561 498.021 152.643 501.533 135.6C498.044 137.762 497.818 139.946 497.075 142.039C495.477 146.497 494.892 151.45 491.559 155.188C491.897 142.715 494.171 130.467 496.535 118.219C488.61 131.953 485.391 147.24 480.798 162.325C479.199 160.208 476.637 154.279 476.637 154.279C476.637 154.279 471.361 140.685 468.721 128.575C467.422 141.7 471.765 160.428 473.188 174.1C469.203 170.092 469.518 164.193 466.884 159.578C465.083 144.088 460.873 129.364 453.466 115.585C455.852 130.129 458.239 144.583 458.284 159.308C453.511 151.968 452.948 142.737 447.072 134.069C446.711 141.724 451.417 147.353 448.918 153.522C446.599 149.582 444.91 145.079 441.871 141.814C432.015 131.253 432.9 124.579 437.207 112.017C435.158 116.047 432.595 120.719 430.794 124.253C428.002 123.938 427.529 120.313 423.657 121.551C430.028 127.63 428.182 134.542 426.246 141.499V141.161C422.959 141.341 422.047 133.399 418.884 130.715C420.276 133.996 420.843 141.454 418.884 144.223C405.263 135.6 409.428 117.657 398.711 105.949C401.503 121.326 405.285 135.105 404.16 149.447C400.512 143.48 400.085 135.781 394.569 130.084C393.083 135.893 398.486 140.621 394.884 145.687C392.61 135.128 389.773 124.771 383.559 115.563C386.396 127.383 387.071 139.383 387.814 151.383C382.388 148.478 383.109 141.049 377.593 137.019C378.313 142.332 378.921 146.7 379.507 151.09C377.008 149.807 375.387 147.871 374.036 145.326C370.794 139.225 366.629 133.709 362.081 128.508C360.685 126.91 359.627 124.411 355.529 125.852C360.527 131.323 363.747 137.379 365.143 145.169C358.141 140.779 354.336 132.989 345.195 131.908C346.614 134.587 349.923 136.118 347.852 139.158C347.469 139.54 347.064 139.923 346.681 140.306L346.411 140.553C341.886 140.553 341.998 144.246 341.098 147.15C334.028 155.773 330.313 166.31 325.09 176.036C324.55 161.717 327.026 147.826 329.12 133.867C321.6 145.957 319.934 160.028 315.589 174.752C311.404 159.256 307.705 144.911 300.797 130.557L300.752 130.49Z" fill="#F7D5D5"/>
<path d="M223.19 194.429C220.63 193.739 223.048 193.919 222.305 193.739C228.014 190.166 224.495 182.869 219.897 179.832C230.71 182.581 230.607 202.692 231.433 206.008C231.23 206.211 223.392 194.272 223.19 194.474V194.429Z" fill="#D2A3A3"/>
<path d="M342.607 142.708C342.607 155.712 338 164.747 335.627 177.516C339.905 171.392 343.282 165.988 347.762 161.463C335.627 186.223 328.2 216.667 318.359 246.972C316.13 216.78 315.229 188.3 321.578 160C310.074 181.816 307.71 205.793 303.319 229.613C299.036 202.591 299.194 174.528 292.152 148.112C298.411 156.105 299.357 164.93 303.207 173.441C305.541 160.779 301.613 147.187 297.685 134.773C306.17 148.112 311.907 173.479 313.113 177.943C317.458 163.219 319.124 149.148 326.644 137.058C324.55 151.017 322.074 164.908 322.614 179.227C329.17 166.938 336.184 155.009 342.607 142.708Z" fill="#D2A3A3"/>
<path d="M565.315 168.921C558.538 184.951 553.833 201.567 550.951 218.722C549.893 225.026 550.253 232.118 541.833 235.293C542.598 222.842 547.416 212.013 551.581 199.225C538.929 211.45 532.489 225.206 526.658 239.435C527.401 223.923 529.495 208.704 535.799 194.385C543.944 175.895 554.67 161.083 565.743 144.358C570.178 137.649 574.861 131.12 582.111 126.707C575.852 140.553 568.85 154.062 565.293 168.921H565.315Z" fill="#F7D5D5"/>
<path d="M342.455 131.747C352.77 136.681 355.401 140.64 362.403 145.008C360.984 137.218 354.109 123.112 349.111 117.641C373.069 130.501 380.374 193.454 379.964 202.284C367.648 178.057 354.992 155.427 342.455 131.747Z" fill="#D2A3A3"/>
<path d="M488.858 155.211C486.539 167.684 484.062 180.157 481.901 192.675C479.874 204.36 478.343 216.135 478.614 228.135C476.04 197.062 457.972 157.121 463.323 126.547C464.81 139.856 465.652 148.717 476.358 170.127C480.951 155.065 485.886 131.999 493.811 118.266C491.447 130.513 489.173 142.761 488.835 155.234L488.858 155.211Z" fill="#D2A3A3"/>
<path d="M450.357 204.021C448.241 200.171 445.697 196.524 444.098 192.471C438.381 177.942 417.099 158.96 423.588 141.499C425.502 134.565 425.811 127.633 418.812 121.445C423.588 121.849 425.344 123.938 428.136 124.253C429.914 120.741 431.851 116.959 433.899 112.906C432.646 122.384 433.094 136.987 440.332 149.284C448.067 162.426 451.248 179.685 450.357 204.021Z" fill="#D2A3A3"/>
<path d="M508.667 176.526C501.957 195.032 497.815 214.169 495.113 234.229C489.555 223.78 491.406 203.912 491.272 192.543C491.087 176.866 502.844 132.833 527.488 125.531C515.022 137.613 512.134 158.559 508.667 176.526Z" fill="#F7D5D5"/>
<path d="M579.818 229.861C582.241 214.919 586.896 203.388 592.406 191.118C611.399 182.159 632.092 180.513 651.378 190.201C639.132 190.041 626.907 190.199 615.278 194.509C606.619 197.73 592.405 205.961 592.405 205.961C592.405 205.961 608.084 199.599 618.407 198.601C599.469 206.483 591.683 215.739 579.818 229.861Z" fill="#F7D5D5"/>
<path d="M276.055 176.082C281.278 187.767 279.972 200.06 278.576 212.87C276.865 209.943 275.064 207.084 273.465 204.09C270.246 198.011 268.085 191.121 263.807 185.966C257.03 177.793 256.4 169.463 259.349 160.007C262.159 150.829 252.232 141.633 245.57 134.724V134.678C247.439 136.322 249.398 137.898 251.154 139.654C255.777 144.217 259.564 143.983 262.311 137.74C262.828 136.591 263.043 135.175 263.964 133.508C263.514 136.012 261.236 142.908 261.702 144.738C262.52 147.946 263.424 157.891 271.372 167.774C272.79 169.53 273.533 171.804 274.569 173.831C274.636 174.303 274.884 174.641 275.312 174.844C275.537 175.249 275.762 175.677 275.987 176.082H276.055ZM261.51 164.037C263.312 170.521 264.572 177.32 268.692 182.994C267.859 176.127 264.482 170.183 261.51 164.037Z" fill="#F7D5D5"/>
<path d="M513.082 219.658C514.658 197.34 527.623 148.763 553.091 140.104C546.612 145.971 547.053 155.815 548.266 163.413C535.635 174.072 522.222 206.757 513.082 219.658Z" fill="#F7D5D5"/>
<path d="M392.181 145.686C399.768 180.178 398.553 203.278 395.266 232.343C395.378 216.178 393.577 200.216 390.695 184.388C389.232 176.306 387.904 168.178 385.967 160.208C385.247 157.214 385.382 154.309 385.089 151.383C384.346 139.383 383.693 127.405 380.834 115.562C387.048 124.748 389.885 135.105 392.159 145.686H392.181Z" fill="#D2A3A3"/>
<path d="M414.786 170.34C405.938 166.174 402.651 158.497 401.48 149.447C402.605 135.105 398.823 121.326 396.031 105.949C423.166 135.535 409.943 140.04 414.786 170.362V170.34Z" fill="#D2A3A3"/>
<path d="M584.43 178.804C579.612 191.817 572.205 203.75 568.265 217.213C567.5 201.16 570.449 185.851 577.113 171.217C582.607 161.941 588.775 153.205 597.714 146.496C593.593 157.415 588.032 167.727 584.43 178.804Z" fill="#F7D5D5"/>
<path d="M464.551 219.071C462.412 199.641 458.877 180.459 455.32 161.277C455.298 146.553 452.889 132.099 450.502 117.555C457.909 131.333 462.119 146.058 463.921 161.547C463.921 179.591 469.068 201.433 464.551 219.071Z" fill="#D2A3A3"/>
<path d="M244.715 194.813C246.786 207.871 241.698 220.524 242.373 233.559C240.64 219.781 238.771 206.07 235.506 192.584C237.492 192.868 233.651 155.718 232.85 151.383C240.212 165.004 242.981 179.751 244.737 194.79L244.715 194.813Z" fill="#F7D5D5"/>
<path d="M230.373 204.067C230.373 210.146 230.373 216.202 230.373 223.835C226.456 218.026 218.565 211.554 217.485 205.25C219.715 207.939 226.118 208.143 223.913 205.25C219.861 199.935 206 187.55 197.277 186.371C205.979 186.688 230.425 192.024 230.373 204.067Z" fill="#F7D5D5"/>
<path d="M291.926 228.02C291.116 210.031 285.329 192.65 285.622 174.504C285.667 171.825 286.365 168.965 284.564 166.489C284.564 155.574 281.921 145.694 280.264 134.789C286.253 146.046 290.033 157.246 291.026 170.586C292.847 195.068 292.659 217.387 291.926 228.02Z" fill="#F7D5D5"/>
<path d="M245.57 134.701L245.367 134.498L245.593 134.679L245.57 134.701Z" fill="#F7D5D5"/>
<path d="M357.285 167.338C353.81 177.549 360.167 181.915 357.285 186.058C348.46 198.688 341.976 211.722 336.662 226.266C335.154 213.118 339.702 200.915 342.628 188.465C344.379 181.019 352.129 170.94 357.285 167.338Z" fill="#D2A3A3"/>
<path d="M355.889 204.156C359.559 211.901 363.207 217.237 357.826 224.486C353.458 230.363 350.666 237.477 347.762 244.412C348.415 231.151 349.833 218.183 355.889 204.156Z" fill="#F7D5D5"/>
<path d="M271.078 226.804C256.354 211.72 254.17 205.888 255.836 185.311C263.086 199.179 267.138 212.215 271.078 226.804Z" fill="#F7D5D5"/>
<path d="M424.31 170.453C430.636 185.042 435.635 198.146 439.665 213.027C431.177 204.044 423.207 182.431 424.31 170.453Z" fill="#D2A3A3"/>
<path d="M362.238 190.873C366.178 195.736 366.876 201.702 368.316 207.331C368.834 209.357 367.889 211.226 365.277 209.875C358.815 206.475 357.307 197.425 362.238 190.896V190.873Z" fill="#D2A3A3"/>
<path d="M256.355 213.41C260.587 220.547 261.916 228.495 263.807 237.433C255.116 230.678 254.396 222.461 256.355 213.41Z" fill="#F7D5D5"/>
<path d="M261.51 164.035C264.482 170.182 267.859 176.125 268.692 182.992C264.572 177.318 263.311 170.519 261.51 164.035Z" fill="#F7D5D5"/>
<path d="M53.5588 130.49C54.5269 134.092 55.4725 137.672 56.4406 141.274C58.2913 148.941 62.0078 162.431 58.4443 170.16C54.5944 161.649 53.6488 152.824 47.3899 144.831C51.7351 161.131 53.6263 176.328 53.0859 191.773C48.8758 185.334 51.1948 176.869 46.4668 170.587C46.6469 157.552 41.6938 146.024 35.7051 134.79C37.2941 145.246 39.747 155.878 40.0052 166.467C39.1386 182.356 36.6203 162.984 30.7294 157.867C29.8804 161.923 35.6487 172.157 30.0315 173.762C23.9768 162.168 15.8983 148.829 6.59427 139.585C4.81565 137.829 2.87943 136.276 1.01076 134.61L0.808144 134.43L1.01076 134.632C14.7548 148.888 2.88344 178.104 2.18148 195.465C2.13646 196.411 1.66367 196.659 1.01076 195.781C0.740592 195.42 0.447907 195.083 0.155223 194.745C-1.57836 179.706 -4.37011 164.959 -11.7322 151.338C-9.34573 164.126 -8.8054 176.936 -8.62529 189.769C-8.71534 190.692 -8.82791 191.616 -8.91796 192.561H-9.07558C-11.5747 184.704 -13.0155 176.441 -18.5765 169.957C-17.9686 175.338 -15.0418 180.246 -16.8655 185.829C-21.5484 186.842 -21.4583 180.651 -25.2407 180.291C-25.3983 180.223 -25.5559 180.178 -25.7135 180.111C-25.5334 180.156 -25.3533 180.201 -25.1957 180.246C-25.7811 182.97 -23.5296 184.839 -23.0794 187.225C-22.6741 189.454 -20.4452 191.863 -23.5972 193.822C-30.7792 189.162 -38.6366 186.64 -47.2821 186.325C-47.0119 188.148 -45.6836 187.991 -44.6704 188.441C-35.7548 192.426 -28.3477 198.37 -22.4264 206.137C-19.1067 210.529 -25.6581 202.215 -36.4157 196.461C-45.6998 191.494 -58.8877 189.261 -62.4116 188.936C-42.7549 196.461 -31.9049 209.582 -26.9518 227.818C-27.4921 233.649 -30.5991 230.768 -33.0306 229.507C-37.7361 227.053 -42.5766 225.027 -47.8224 223.946C-53.2708 222.82 -58.7643 222.46 -64.3027 222.437C-69.2558 222.437 -74.0514 223.383 -78.3516 225.274C-76.5729 226.04 -74.8394 227.233 -72.4078 227.368C-49.8937 228.674 -34.7417 240.516 -25.8936 260.801C-24.0925 264.944 -21.7735 266.678 -17.1131 266.678C94.3543 266.543 205.822 266.295 317.289 266.88C329.965 266.948 335.999 263.706 340.749 251.728C350.182 227.931 368.329 213.139 393.995 208.524C397.147 207.961 400.411 207.893 403.608 207.488C406.535 207.128 409.462 206.655 413.537 206.047C401.087 200.689 389.627 200.621 377.807 202.805C371.706 203.931 366.46 207.646 360.156 207.803C361.845 202.04 368.486 200.801 371.773 195.375C361.552 197.132 354.145 202.783 346.513 207.916C351.263 199.09 359.931 195.375 368.351 191.525C379.631 186.37 391.811 185.312 404.036 184.569C384.089 176.328 365.132 179.278 346.85 189.589C347.233 179.818 355.181 172.591 356.441 162.482C348.719 166.422 346.423 174.73 339.871 178.76C343.496 167.683 349.034 157.394 353.154 146.452C344.194 153.161 338.025 161.897 332.554 171.173C333.522 159.668 342.055 150.73 344.261 138.144C332.959 146.97 327.466 158.385 320.779 168.876C324.314 154.017 331.338 140.508 337.597 126.662C330.347 131.075 325.665 137.604 321.229 144.313C315.803 152.509 311.638 161.627 303.781 168.021C302.408 167.458 302.695 156.273 302.672 155.169C302.999 148.296 305.421 143.059 308.599 140.103C305.222 141.251 303.308 144.021 301.079 146.43C300.111 147.465 297.95 149.649 297.544 147.803C296.801 144.426 295.428 145.934 294.528 146.88C291.083 150.505 287.886 154.332 284.599 158.069C284.779 151.18 290.948 146.204 291.083 138.009C277.867 148.771 271.405 162.842 264.336 176.486C267.803 158.52 275.075 141.882 283.158 125.491C277.709 127.112 274.94 131.142 272.081 134.902C260.689 149.874 253.619 166.94 248.171 184.771C248.013 168.561 250.828 152.643 254.34 135.6C250.85 137.762 250.625 139.946 249.882 142.039C248.283 146.497 247.698 151.45 244.366 155.188C244.704 142.715 246.978 130.467 249.342 118.219C241.417 131.953 238.197 147.24 233.604 162.325C232.006 160.208 229.443 154.279 229.443 154.279C229.443 154.279 224.168 140.685 221.527 128.575C220.229 141.7 224.572 160.428 225.994 174.1C222.009 170.092 222.325 164.193 219.691 159.578C217.889 144.088 213.679 129.364 206.272 115.585C208.659 130.129 211.045 144.583 211.09 159.308C206.317 151.968 205.754 142.737 199.878 134.069C199.518 141.724 204.223 147.353 201.724 153.522C199.405 149.582 197.717 145.079 194.677 141.814C184.822 131.253 185.707 124.579 190.014 112.017C187.965 116.047 185.402 120.719 183.6 124.253C180.809 123.938 180.336 120.313 176.463 121.551C182.835 127.63 180.989 134.542 179.053 141.499V141.161C175.765 141.341 174.854 133.399 171.69 130.715C173.082 133.996 173.649 141.454 171.69 144.223C158.069 135.6 162.234 117.657 151.518 105.949C154.309 121.326 158.092 135.105 156.966 149.447C153.319 143.48 152.891 135.781 147.375 130.084C145.889 135.893 151.293 140.621 147.69 145.687C145.416 135.128 142.58 124.771 136.366 115.563C139.203 127.383 139.878 139.383 140.621 151.383C135.195 148.478 135.915 141.049 130.399 137.019C131.12 142.332 131.728 146.7 132.313 151.09C129.814 149.807 128.193 147.871 126.842 145.326C123.6 139.225 119.435 133.709 114.887 128.508C113.491 126.91 112.433 124.411 108.336 125.852C113.334 131.323 116.553 137.379 117.949 145.169C110.947 140.779 107.142 132.989 98.0016 131.908C99.42 134.587 102.73 136.118 100.658 139.158C100.276 139.54 99.8703 139.923 99.4876 140.306L99.2174 140.553C94.6921 140.553 94.8046 144.246 93.9041 147.15C86.8346 155.773 83.1198 166.31 77.8965 176.036C77.3562 161.717 79.8327 147.826 81.9266 133.867C74.4068 145.957 72.7408 160.028 68.3956 174.752C64.2104 159.256 60.5115 144.911 53.6038 130.557L53.5588 130.49Z" fill="#F7D5D5"/>
<path d="M95.4132 142.708C95.4132 155.712 90.8061 164.747 88.4338 177.516C92.7115 171.392 96.0886 165.988 100.569 161.463C88.4338 186.223 81.007 216.667 71.1654 246.972C68.9365 216.78 68.036 188.3 74.385 160C62.8802 181.816 60.5162 205.793 56.126 229.613C51.8426 202.591 52.0007 174.528 44.959 148.112C51.2179 156.105 52.1635 164.93 56.0134 173.441C58.3479 160.779 54.4197 147.187 50.4915 134.773C58.9764 148.112 64.7139 173.479 65.9196 177.943C70.2649 163.219 71.9309 149.148 79.4506 137.058C77.3568 151.017 74.8803 164.908 75.4206 179.227C81.9767 166.938 88.991 155.009 95.4132 142.708Z" fill="#D2A3A3"/>
<path d="M318.122 168.921C311.345 184.951 306.639 201.567 303.758 218.722C302.699 225.026 303.06 232.118 294.639 235.293C295.405 222.842 300.223 212.013 304.388 199.225C291.735 211.45 285.296 225.206 279.465 239.435C280.208 223.923 282.302 208.704 288.606 194.385C296.75 175.895 307.476 161.083 318.549 144.358C322.985 137.649 327.668 131.12 334.917 126.707C328.658 140.553 321.656 154.062 318.099 168.921H318.122Z" fill="#F7D5D5"/>
<path d="M95.2617 131.747C105.577 136.681 108.207 140.64 115.209 145.008C113.791 137.218 106.915 123.112 101.917 117.641C125.876 130.501 133.18 193.454 132.77 202.284C120.455 178.057 107.798 155.427 95.2617 131.747Z" fill="#D2A3A3"/>
<path d="M241.664 155.211C239.345 167.684 236.869 180.157 234.707 192.675C232.681 204.36 231.15 216.135 231.42 228.135C228.847 197.062 210.779 157.121 216.13 126.547C217.616 139.856 218.459 148.717 229.164 170.127C233.757 155.065 238.692 131.999 246.617 118.266C244.253 130.513 241.979 142.761 241.642 155.234L241.664 155.211Z" fill="#D2A3A3"/>
<path d="M203.164 204.021C201.047 200.171 198.503 196.524 196.905 192.471C191.188 177.942 169.905 158.96 176.394 141.499C178.308 134.565 178.617 127.633 171.619 121.445C176.394 121.849 178.15 123.938 180.942 124.253C182.721 120.741 184.657 116.959 186.706 112.906C185.453 122.384 185.9 136.987 193.138 149.284C200.873 162.426 204.054 179.685 203.164 204.021Z" fill="#D2A3A3"/>
<path d="M261.473 176.526C254.764 195.032 250.621 214.169 247.92 234.229C242.361 223.78 244.213 203.912 244.078 192.543C243.893 176.866 255.651 132.833 280.295 125.531C267.829 137.613 264.94 158.559 261.473 176.526Z" fill="#F7D5D5"/>
<path d="M332.625 229.861C335.047 214.919 339.702 203.388 345.212 191.118C364.205 182.159 384.899 180.513 404.185 190.201C391.938 190.041 379.713 190.199 368.084 194.509C359.426 197.73 345.212 205.961 345.212 205.961C345.212 205.961 360.89 199.599 371.213 198.601C352.275 206.483 344.489 215.739 332.625 229.861Z" fill="#F7D5D5"/>
<path d="M265.889 219.658C267.464 197.34 280.429 148.763 305.897 140.104C299.418 145.971 299.859 155.815 301.072 163.413C288.441 174.072 275.029 206.757 265.889 219.658Z" fill="#F7D5D5"/>
<path d="M144.988 145.686C152.575 180.178 151.359 203.278 148.072 232.343C148.185 216.178 146.384 200.216 143.502 184.388C142.038 176.306 140.71 168.178 138.774 160.208C138.053 157.214 138.188 154.309 137.896 151.383C137.153 139.383 136.5 127.405 133.641 115.562C139.855 124.748 142.691 135.105 144.965 145.686H144.988Z" fill="#D2A3A3"/>
<path d="M167.592 170.34C158.744 166.174 155.457 158.497 154.286 149.447C155.412 135.105 151.63 121.326 148.838 105.949C175.973 135.535 162.749 140.04 167.592 170.362V170.34Z" fill="#D2A3A3"/>
<path d="M337.237 178.804C332.419 191.817 325.011 203.75 321.071 217.213C320.306 201.16 323.255 185.851 329.919 171.217C335.413 161.941 341.582 153.205 350.52 146.496C346.4 157.415 340.839 167.727 337.237 178.804Z" fill="#F7D5D5"/>
<path d="M217.358 219.071C215.219 199.641 211.684 180.459 208.127 161.277C208.104 146.553 205.695 132.099 203.309 117.555C210.716 131.333 214.926 146.058 216.727 161.547C216.727 179.591 221.875 201.433 217.358 219.071Z" fill="#D2A3A3"/>
<path d="M44.7326 228.02C43.9221 210.031 38.136 192.65 38.4287 174.504C38.4737 171.825 39.1716 168.965 37.3705 166.489C37.3705 155.574 34.7275 145.694 33.0703 134.789C39.0591 146.046 42.8396 157.246 43.8321 170.586C45.6535 195.068 45.4655 217.387 44.7326 228.02Z" fill="#F7D5D5"/>
<path d="M110.092 167.338C106.617 177.549 112.973 181.915 110.092 186.058C101.266 198.688 94.782 211.722 89.4686 226.266C87.9602 213.118 92.508 200.915 95.4349 188.465C97.1853 181.019 104.936 170.94 110.092 167.338Z" fill="#D2A3A3"/>
<path d="M108.696 204.156C112.366 211.901 116.013 217.237 110.632 224.486C106.264 230.363 103.473 237.477 100.568 244.412C101.221 231.151 102.64 218.183 108.696 204.156Z" fill="#F7D5D5"/>
<path d="M23.8848 226.804C9.16057 211.72 6.97669 205.888 8.64274 185.311C15.8923 199.179 19.9448 212.215 23.8848 226.804Z" fill="#F7D5D5"/>
<path d="M177.116 170.453C183.443 185.042 188.441 198.146 192.471 213.027C183.983 204.044 176.013 182.431 177.116 170.453Z" fill="#D2A3A3"/>
<path d="M115.044 190.873C118.984 195.736 119.682 201.702 121.123 207.331C121.641 209.357 120.695 211.226 118.084 209.875C111.622 206.475 110.114 197.425 115.044 190.896V190.873Z" fill="#D2A3A3"/>
<path d="M9.16111 213.41C13.3938 220.547 14.7221 228.495 16.6133 237.433C7.92282 230.678 7.20238 222.461 9.16111 213.41Z" fill="#F7D5D5"/>
<path d="M14.3163 164.035C17.2882 170.182 20.6653 176.125 21.4983 182.992C17.3782 177.318 16.1174 170.519 14.3163 164.035Z" fill="#F7D5D5"/>
<path d="M1059.07 97.4721C1060.04 101.074 1060.99 104.654 1061.96 108.256C1063.81 115.924 1067.52 129.414 1063.96 137.142C1060.11 128.632 1059.16 119.806 1052.91 111.814C1057.25 128.114 1059.14 143.311 1058.6 158.756C1054.39 152.316 1056.71 143.851 1051.98 137.57C1052.16 124.534 1047.21 113.007 1041.22 101.772C1042.81 112.229 1045.26 122.86 1045.52 133.45C1044.65 149.338 1042.14 129.966 1036.24 124.849C1035.4 128.906 1041.16 139.139 1035.55 140.744C1029.49 129.15 1021.41 115.811 1012.11 106.568C1010.33 104.812 1008.39 103.258 1006.53 101.592L1006.32 101.412L1006.53 101.615C1020.27 115.87 1008.4 145.086 1007.7 162.448C1007.65 163.393 1007.18 163.641 1006.53 162.763C1006.26 162.403 1005.96 162.065 1005.67 161.727C1003.94 146.688 1001.15 131.941 993.783 118.32C996.17 131.108 996.71 143.919 996.89 156.752C996.8 157.675 996.688 158.598 996.598 159.544H996.44C993.941 151.686 992.5 143.423 986.939 136.939C987.547 142.32 990.474 147.228 988.65 152.812C983.967 153.825 984.057 147.634 980.275 147.273C980.117 147.206 979.96 147.161 979.802 147.093C979.982 147.138 980.162 147.183 980.32 147.228C979.735 149.952 981.986 151.821 982.436 154.208C982.841 156.437 985.07 158.846 981.918 160.804C974.736 156.144 966.879 153.622 958.234 153.307C958.504 155.131 959.832 154.973 960.845 155.423C969.761 159.408 977.168 165.352 983.089 173.12C986.409 177.512 979.857 169.197 969.1 163.443C959.816 158.477 946.628 156.244 943.104 155.919C962.761 163.443 973.611 176.564 978.564 194.801C978.023 200.632 974.916 197.75 972.485 196.489C967.779 194.035 962.939 192.009 957.693 190.928C952.245 189.803 946.751 189.442 941.213 189.42C936.26 189.42 931.464 190.365 927.164 192.257C928.943 193.022 930.676 194.215 933.108 194.35C955.622 195.656 970.774 207.499 979.622 227.784C981.423 231.927 983.742 233.66 988.402 233.66C1099.87 233.525 1211.34 233.277 1322.8 233.863C1335.48 233.93 1341.51 230.688 1346.26 218.711C1355.7 194.913 1373.84 180.121 1399.51 175.506C1402.66 174.943 1405.93 174.876 1409.12 174.47C1412.05 174.11 1414.98 173.637 1419.05 173.03C1406.6 167.671 1395.14 167.604 1383.32 169.787C1377.22 170.913 1371.98 174.628 1365.67 174.786C1367.36 169.022 1374 167.784 1377.29 162.358C1367.07 164.114 1359.66 169.765 1352.03 174.898C1356.78 166.073 1365.45 162.358 1373.87 158.508C1385.15 153.352 1397.33 152.294 1409.55 151.551C1389.6 143.311 1370.65 146.26 1352.37 156.572C1352.75 146.801 1360.7 139.573 1361.96 129.465C1354.23 133.405 1351.94 141.712 1345.39 145.742C1349.01 134.665 1354.55 124.376 1358.67 113.435C1349.71 120.144 1343.54 128.879 1338.07 138.155C1339.04 126.65 1347.57 117.712 1349.78 105.127C1338.47 113.952 1332.98 125.367 1326.29 135.859C1329.83 120.999 1336.85 107.491 1343.11 93.6447C1335.86 98.0574 1331.18 104.587 1326.74 111.296C1321.32 119.491 1317.15 128.609 1309.3 135.003C1307.92 134.44 1308.21 123.255 1308.19 122.152C1308.51 115.279 1310.94 110.042 1314.11 107.086C1310.74 108.234 1308.82 111.003 1306.59 113.412C1305.63 114.448 1303.47 116.632 1303.06 114.785C1302.32 111.408 1300.94 112.917 1300.04 113.862C1296.6 117.487 1293.4 121.315 1290.11 125.052C1290.29 118.163 1296.46 113.187 1296.6 104.992C1283.38 115.753 1276.92 129.825 1269.85 143.468C1273.32 125.502 1280.59 108.864 1288.67 92.4739C1283.23 94.0949 1280.46 98.1249 1277.6 101.885C1266.2 116.857 1259.13 133.922 1253.69 151.754C1253.53 135.543 1256.34 119.626 1259.86 102.583C1256.37 104.744 1256.14 106.928 1255.4 109.022C1253.8 113.48 1253.21 118.433 1249.88 122.17C1250.22 109.697 1252.49 97.4496 1254.86 85.2019C1246.93 98.9355 1243.71 114.223 1239.12 129.307C1237.52 127.191 1234.96 121.261 1234.96 121.261C1234.96 121.261 1229.68 107.667 1227.04 95.5575C1225.74 108.683 1230.09 127.41 1231.51 141.082C1227.53 137.074 1227.84 131.176 1225.21 126.56C1223.4 111.071 1219.19 96.3464 1211.79 82.5678C1214.17 97.1119 1216.56 111.566 1216.61 126.29C1211.83 118.951 1211.27 109.72 1205.39 101.052C1205.03 108.707 1209.74 114.335 1207.24 120.504C1204.92 116.564 1203.23 112.061 1200.19 108.797C1190.34 98.2351 1191.22 91.5618 1195.53 78.9996C1193.48 83.0296 1190.92 87.7009 1189.12 91.2356C1186.32 90.9204 1185.85 87.2956 1181.98 88.5339C1188.35 94.6127 1186.5 101.525 1184.57 108.482V108.144C1181.28 108.324 1180.37 100.382 1177.21 97.6972C1178.6 100.978 1179.16 108.436 1177.21 111.206C1163.58 102.583 1167.75 84.639 1157.03 72.9316C1159.83 88.3088 1163.61 102.087 1162.48 116.429C1158.83 110.463 1158.41 102.763 1152.89 97.0669C1151.4 102.876 1156.81 107.603 1153.21 112.669C1150.93 102.11 1148.1 91.7535 1141.88 82.5452C1144.72 94.3651 1145.39 106.365 1146.14 118.365C1140.71 115.461 1141.43 108.031 1135.92 104.001C1136.64 109.314 1137.24 113.682 1137.83 118.072C1135.33 116.789 1133.71 114.853 1132.36 112.309C1129.12 106.208 1124.95 100.692 1120.4 95.4908C1119.01 93.8923 1117.95 91.3933 1113.85 92.8342C1118.85 98.3051 1122.07 104.361 1123.46 112.151C1116.46 107.761 1112.66 99.9712 1103.52 98.8905C1104.94 101.57 1108.25 103.101 1106.17 106.14C1105.79 106.523 1105.39 106.905 1105 107.288L1104.73 107.536C1100.21 107.536 1100.32 111.228 1099.42 114.132C1092.35 122.755 1088.64 133.292 1083.41 143.018C1082.87 128.699 1085.35 114.808 1087.44 100.849C1079.92 112.939 1078.26 127.011 1073.91 141.735C1069.73 126.238 1066.03 111.893 1059.12 97.5396L1059.07 97.4721Z" fill="#F7D5D5"/>
<path d="M981.512 161.412C978.952 160.722 981.37 160.902 980.627 160.722C986.337 157.148 982.817 149.851 978.219 146.814C989.033 149.564 988.929 169.675 989.755 172.991C989.553 173.193 981.715 161.254 981.512 161.457V161.412Z" fill="#D2A3A3"/>
<path d="M1100.93 109.69C1100.93 122.694 1096.32 131.729 1093.95 144.498C1098.23 138.374 1101.6 132.971 1106.08 128.446C1093.95 153.205 1086.52 183.649 1076.68 213.954C1074.45 183.763 1073.55 155.282 1079.9 126.982C1068.39 148.798 1066.03 172.776 1061.64 196.596C1057.36 169.573 1057.51 141.51 1050.47 115.095C1056.73 123.087 1057.68 131.913 1061.53 140.423C1063.86 127.761 1059.93 114.169 1056.01 101.756C1064.49 115.095 1070.23 140.461 1071.43 144.926C1075.78 130.202 1077.44 116.13 1084.96 104.04C1082.87 117.999 1080.39 131.89 1080.93 146.209C1087.49 133.92 1094.5 121.992 1100.93 109.69Z" fill="#D2A3A3"/>
<path d="M1323.64 135.903C1316.86 151.934 1312.16 168.549 1309.27 185.705C1308.22 192.009 1308.58 199.101 1300.15 202.275C1300.92 189.825 1305.74 178.996 1309.9 166.208C1297.25 178.433 1290.81 192.189 1284.98 206.418C1285.72 190.905 1287.82 175.686 1294.12 161.367C1302.27 142.878 1312.99 128.065 1324.07 111.341C1328.5 104.631 1333.18 98.1022 1340.43 93.6895C1334.17 107.536 1327.17 121.044 1323.61 135.903H1323.64Z" fill="#F7D5D5"/>
<path d="M1100.78 98.7292C1111.09 103.664 1113.72 107.622 1120.72 111.99C1119.31 104.2 1112.43 90.094 1107.43 84.623C1131.39 97.4834 1138.7 160.436 1138.29 169.266C1125.97 145.039 1113.31 122.409 1100.78 98.7292Z" fill="#D2A3A3"/>
<path d="M1247.18 122.194C1244.86 134.667 1242.38 147.139 1240.22 159.657C1238.2 171.342 1236.67 183.117 1236.94 195.117C1234.36 164.045 1216.29 124.103 1221.65 93.5294C1223.13 106.838 1223.97 115.7 1234.68 137.11C1239.27 122.048 1244.21 98.9817 1252.13 85.248C1249.77 97.4957 1247.5 109.743 1247.16 122.216L1247.18 122.194Z" fill="#D2A3A3"/>
<path d="M1208.68 171.003C1206.56 167.154 1204.02 163.506 1202.42 159.454C1196.7 144.925 1175.42 125.942 1181.91 108.482C1183.82 101.547 1184.13 94.6158 1177.13 88.427C1181.91 88.8319 1183.67 90.9207 1186.46 91.2359C1188.24 87.7237 1190.17 83.9412 1192.22 79.8887C1190.97 89.3668 1191.42 103.969 1198.65 116.266C1206.39 129.408 1209.57 146.668 1208.68 171.003Z" fill="#D2A3A3"/>
<path d="M1266.99 143.508C1260.28 162.015 1256.14 181.152 1253.44 201.212C1247.88 190.762 1249.73 170.894 1249.59 159.526C1249.41 143.849 1261.17 99.8156 1285.81 92.5137C1273.34 104.595 1270.46 125.542 1266.99 143.508Z" fill="#F7D5D5"/>
<path d="M1338.14 196.844C1340.56 181.902 1345.22 170.371 1350.73 158.1C1369.72 149.141 1390.41 147.496 1409.7 157.183C1397.45 157.023 1385.23 157.181 1373.6 161.492C1364.94 164.712 1350.73 172.944 1350.73 172.944C1350.73 172.944 1366.41 166.581 1376.73 165.583C1357.79 173.465 1350 182.722 1338.14 196.844Z" fill="#F7D5D5"/>
<path d="M1271.4 186.64C1272.98 164.322 1285.94 115.745 1311.41 107.086C1304.93 112.953 1305.37 122.797 1306.59 130.395C1293.96 141.054 1280.54 173.74 1271.4 186.64Z" fill="#F7D5D5"/>
<path d="M1150.5 112.669C1158.09 147.161 1156.87 170.26 1153.59 199.326C1153.7 183.161 1151.9 167.198 1149.02 151.371C1147.55 143.288 1146.23 135.16 1144.29 127.19C1143.57 124.196 1143.7 121.292 1143.41 118.365C1142.67 106.365 1142.02 94.3874 1139.16 82.5449C1145.37 91.7307 1148.21 102.087 1150.48 112.669H1150.5Z" fill="#D2A3A3"/>
<path d="M1173.11 137.322C1164.26 133.157 1160.97 125.48 1159.8 116.429C1160.93 102.087 1157.15 88.3088 1154.35 72.9316C1181.49 102.518 1168.26 107.023 1173.11 137.345V137.322Z" fill="#D2A3A3"/>
<path d="M1342.75 145.786C1337.93 158.8 1330.53 170.732 1326.59 184.195C1325.82 168.143 1328.77 152.833 1335.44 138.199C1340.93 128.923 1347.1 120.188 1356.04 113.479C1351.92 124.398 1346.35 134.709 1342.75 145.786Z" fill="#F7D5D5"/>
<path d="M1222.87 186.053C1220.73 166.624 1217.2 147.442 1213.64 128.26C1213.62 113.535 1211.21 99.0812 1208.82 84.5371C1216.23 98.3158 1220.44 113.04 1222.24 128.53C1222.24 146.574 1227.39 168.415 1222.87 186.053Z" fill="#D2A3A3"/>
<path d="M1003.04 161.795C1005.11 174.853 1000.02 187.506 1000.7 200.542C998.962 186.763 997.093 173.052 993.829 159.566C995.814 159.85 991.973 122.7 991.172 118.365C998.534 131.986 1001.3 146.733 1003.06 161.772L1003.04 161.795Z" fill="#F7D5D5"/>
<path d="M988.695 171.05C988.695 177.128 988.695 183.185 988.695 190.817C984.778 185.008 976.888 178.536 975.807 172.232C978.037 174.921 984.44 175.125 982.235 172.232C978.183 166.917 964.322 154.532 955.6 153.354C964.301 153.671 988.747 159.006 988.695 171.05Z" fill="#F7D5D5"/>
<path d="M1050.25 195.004C1049.44 177.016 1043.65 159.635 1043.94 141.488C1043.99 138.809 1044.69 135.95 1042.89 133.473C1042.89 122.559 1040.24 112.678 1038.59 101.773C1044.57 113.031 1048.36 124.231 1049.35 137.571C1051.17 162.053 1050.98 184.371 1050.25 195.004Z" fill="#F7D5D5"/>
<path d="M1003.89 101.684L1003.69 101.48L1003.92 101.661L1003.89 101.684Z" fill="#F7D5D5"/>
<path d="M1115.61 134.32C1112.13 144.531 1118.49 148.897 1115.61 153.04C1106.78 165.67 1100.3 178.705 1094.98 193.249C1093.48 180.1 1098.02 167.898 1100.95 155.447C1102.7 148.002 1110.45 137.923 1115.61 134.32Z" fill="#D2A3A3"/>
<path d="M1114.21 171.139C1117.88 178.884 1121.53 184.219 1116.15 191.469C1111.78 197.345 1108.99 204.46 1106.08 211.394C1106.74 198.133 1108.16 185.165 1114.21 171.139Z" fill="#F7D5D5"/>
<path d="M1029.4 193.787C1014.68 178.702 1012.49 172.871 1014.16 152.293C1021.41 166.162 1025.46 179.197 1029.4 193.787Z" fill="#F7D5D5"/>
<path d="M1182.63 137.436C1188.96 152.025 1193.96 165.128 1197.99 180.01C1189.5 171.027 1181.53 149.413 1182.63 137.436Z" fill="#D2A3A3"/>
<path d="M1120.56 157.855C1124.5 162.719 1125.2 168.685 1126.64 174.313C1127.16 176.34 1126.21 178.208 1123.6 176.857C1117.14 173.458 1115.63 164.407 1120.56 157.878V157.855Z" fill="#D2A3A3"/>
<path d="M1014.68 180.393C1018.91 187.53 1020.24 195.477 1022.13 204.415C1013.44 197.661 1012.72 189.443 1014.68 180.393Z" fill="#F7D5D5"/>
<path d="M1019.83 131.018C1022.8 137.164 1026.18 143.108 1027.01 149.974C1022.89 144.301 1021.63 137.502 1019.83 131.018Z" fill="#F7D5D5"/>
<path d="M1242 102.796C1242.97 106.399 1243.91 109.978 1244.88 113.581C1246.73 121.248 1250.45 134.738 1246.89 142.466C1243.04 133.956 1242.09 125.13 1235.83 117.138C1240.18 133.438 1242.07 148.635 1241.53 164.08C1237.32 157.641 1239.64 149.175 1234.91 142.894C1235.09 129.858 1230.14 118.331 1224.15 107.096C1225.54 116.282 1226.92 125.468 1228.31 134.654C1228.33 135.104 1228.36 135.554 1228.38 136.005C1228.38 136.928 1228.42 137.851 1228.45 138.774C1228.31 141.25 1228.15 143.704 1227.97 146.834C1223.85 141.746 1224.48 134.789 1219.17 130.173C1217.96 135.982 1222.95 140.665 1219.91 145.686C1219.44 145.821 1218.95 145.933 1218.47 146.068C1217.41 144.042 1216.67 141.768 1215.25 140.012C1207.28 130.128 1204.18 119.412 1208.84 107.096C1208.9 106.894 1208.39 106.466 1207.85 105.746C1207.19 107.097 1206.59 108.2 1206.09 109.37C1203.33 115.629 1199.64 116.47 1195.04 111.892C1193.26 110.136 1191.32 108.582 1189.45 106.916L1189.25 106.736L1189.45 106.939C1198.53 116.35 1201.5 127.179 1196.99 139.719C1195.42 140.575 1190.92 138.886 1192.85 142.714C1197.47 151.787 1190.96 159.419 1190.62 167.772C1190.58 168.718 1190.11 168.965 1189.45 168.087C1189.18 167.727 1188.89 167.389 1188.6 167.052C1186.86 152.012 1184.07 137.265 1176.71 123.644C1179.1 136.432 1179.64 149.243 1179.82 162.076C1179.73 162.999 1179.61 163.922 1179.52 164.868H1179.37C1176.87 157.01 1175.43 148.748 1169.86 142.264C1170.47 147.644 1173.4 152.552 1171.58 158.136C1166.89 159.149 1166.98 152.958 1163.2 152.598C1163.04 152.53 1162.89 152.485 1162.73 152.417C1162.91 152.462 1163.09 152.507 1163.25 152.552C1162.66 155.277 1164.91 157.145 1165.36 159.532C1165.77 161.761 1168 164.17 1164.84 166.129C1157.66 161.468 1149.8 158.947 1141.16 158.631C1141.43 160.455 1142.76 160.297 1143.77 160.748C1152.69 164.733 1160.09 170.676 1166.02 178.444C1169.33 182.836 1162.78 174.522 1152.03 168.767C1142.74 163.801 1129.55 161.568 1126.03 161.243C1145.69 168.767 1156.54 181.888 1161.49 200.125C1160.95 205.956 1157.84 203.074 1155.41 201.813C1150.71 199.359 1145.86 197.333 1140.62 196.253C1135.17 195.127 1129.68 194.766 1124.14 194.744C1119.19 194.744 1114.39 195.69 1110.09 197.581C1111.87 198.346 1113.6 199.539 1116.03 199.675C1138.55 200.98 1153.7 212.823 1162.55 233.108C1164.35 237.251 1166.67 238.984 1171.33 238.984C1282.8 238.849 1394.26 238.601 1505.73 239.187C1518.41 239.254 1524.44 236.012 1529.19 224.035C1538.62 200.237 1556.77 185.446 1582.44 180.83C1585.59 180.267 1588.85 180.2 1592.05 179.795C1594.98 179.434 1597.9 178.962 1601.98 178.354C1589.53 172.995 1578.07 172.928 1566.25 175.112C1560.15 176.237 1554.9 179.952 1548.6 180.11C1550.29 174.346 1556.93 173.108 1560.21 167.682C1549.99 169.438 1542.59 175.089 1534.95 180.222C1539.7 171.397 1548.37 167.682 1556.79 163.832C1568.07 158.676 1580.25 157.618 1592.48 156.875C1572.53 148.635 1553.57 151.584 1535.29 161.896C1535.67 152.125 1543.62 144.898 1544.88 134.789C1537.16 138.729 1534.86 147.037 1528.31 151.067C1531.94 139.99 1537.48 129.701 1541.6 118.759C1532.64 125.468 1526.47 134.204 1521 143.479C1521.96 131.975 1530.5 123.036 1532.7 110.451C1521.4 119.277 1515.91 130.691 1509.22 141.183C1512.76 126.324 1519.78 112.815 1526.04 98.9689C1518.79 103.382 1514.11 109.911 1509.67 116.62C1504.24 124.815 1500.08 133.933 1492.22 140.327C1490.85 139.764 1491.14 128.579 1491.11 127.476C1491.44 120.603 1493.86 115.366 1497.04 112.41C1493.66 113.558 1491.75 116.327 1489.52 118.736C1488.55 119.772 1486.39 121.956 1485.99 120.11C1485.24 116.733 1483.87 118.241 1482.97 119.187C1479.52 122.811 1476.33 126.639 1473.04 130.376C1473.22 123.487 1479.39 118.511 1479.52 110.316C1466.31 121.078 1459.85 135.149 1452.78 148.793C1456.24 130.826 1463.52 114.188 1471.6 97.7981C1466.15 99.4191 1463.38 103.449 1460.52 107.209C1449.13 122.181 1442.06 139.247 1436.61 157.078C1436.45 140.868 1439.27 124.95 1442.78 107.907C1439.29 110.068 1439.07 112.252 1438.32 114.346C1436.72 118.804 1436.14 123.757 1432.81 127.494C1433.15 115.021 1435.42 102.774 1437.78 90.5261C1429.86 104.26 1426.64 119.547 1422.05 134.631C1420.45 132.515 1417.88 126.585 1417.88 126.585C1417.88 126.585 1412.61 112.991 1409.97 100.882C1408.67 114.007 1413.01 132.735 1414.44 146.406C1410.45 142.399 1410.77 136.5 1408.13 131.885C1406.33 116.395 1402.12 101.671 1394.71 87.892C1397.1 102.436 1399.49 116.89 1399.53 131.614C1394.76 124.275 1394.2 115.044 1388.32 106.376C1387.96 114.031 1392.66 119.659 1390.17 125.828C1387.85 121.888 1386.16 117.385 1383.12 114.121C1373.26 103.559 1374.15 96.886 1378.46 84.3238C1376.41 88.3538 1373.84 93.0251 1372.04 96.5599C1369.25 96.2447 1368.78 92.6199 1364.9 93.8581C1371.28 99.937 1369.43 106.849 1367.49 113.806V113.468C1364.21 113.648 1363.3 105.706 1360.13 103.021C1361.52 106.302 1362.09 113.761 1360.13 116.53C1346.51 107.907 1350.68 89.9632 1339.96 78.2559C1342.75 93.633 1346.53 107.412 1345.41 121.753C1341.76 115.787 1341.33 108.087 1335.82 102.391C1334.33 108.2 1339.73 112.928 1336.13 117.993C1333.86 107.434 1331.02 97.0777 1324.81 87.8694C1327.64 99.6894 1328.32 111.689 1329.06 123.689C1323.64 120.785 1324.36 113.355 1318.84 109.325C1319.56 114.639 1320.17 119.006 1320.75 123.397C1318.26 122.113 1316.63 120.177 1315.28 117.633C1312.04 111.532 1307.88 106.016 1303.33 100.815C1301.93 99.2166 1300.87 96.7175 1296.78 98.1584C1301.78 103.629 1304.99 109.686 1306.39 117.475C1299.39 113.085 1295.58 105.295 1286.44 104.215C1287.86 106.894 1291.17 108.425 1289.1 111.464C1288.72 111.847 1288.31 112.23 1287.93 112.612L1287.66 112.86C1283.13 112.86 1283.25 116.552 1282.35 119.457C1275.28 128.08 1271.56 138.616 1266.34 148.342C1265.8 134.023 1268.27 120.132 1270.37 106.173C1262.85 118.264 1261.18 132.335 1256.84 147.059C1252.65 131.563 1248.95 117.218 1242.05 102.864L1242 102.796Z" fill="#F7D5D5"/>
<path d="M1164.44 166.736C1161.88 166.046 1164.3 166.226 1163.55 166.046C1169.26 162.472 1165.74 155.175 1161.14 152.139C1171.96 154.888 1171.85 174.999 1172.68 178.315C1172.48 178.518 1164.64 166.578 1164.44 166.781V166.736Z" fill="#D2A3A3"/>
<path d="M1283.85 115.015C1283.85 128.019 1279.25 137.053 1276.88 149.822C1281.15 143.699 1284.53 138.295 1289.01 133.77C1276.88 158.529 1269.45 188.974 1259.61 219.278C1257.38 189.087 1256.48 160.607 1262.83 132.306C1251.32 154.122 1248.96 178.1 1244.57 201.92C1240.28 174.898 1240.44 146.835 1233.4 120.419C1239.66 128.411 1240.6 137.237 1244.45 145.747C1246.79 133.085 1242.86 119.494 1238.93 107.08C1247.42 120.419 1253.16 145.785 1254.36 150.25C1258.71 135.526 1260.37 121.454 1267.89 109.364C1265.8 123.323 1263.32 137.214 1263.86 151.533C1270.42 139.244 1277.43 127.316 1283.85 115.015Z" fill="#D2A3A3"/>
<path d="M1283.7 104.053C1294.02 108.988 1296.65 112.947 1303.65 117.314C1302.23 109.524 1295.36 95.4182 1290.36 89.9473C1314.32 102.808 1321.62 165.76 1321.21 174.59C1308.9 150.364 1296.24 127.734 1283.7 104.053Z" fill="#D2A3A3"/>
<path d="M1430.11 127.518C1427.79 139.991 1425.31 152.464 1423.15 164.981C1421.12 176.666 1419.59 188.441 1419.86 200.441C1417.29 169.369 1399.22 129.428 1404.57 98.8536C1406.06 112.163 1406.9 121.024 1417.61 142.434C1422.2 127.372 1427.13 104.306 1435.06 90.5723C1432.69 102.82 1430.42 115.068 1430.08 127.54L1430.11 127.518Z" fill="#D2A3A3"/>
<path d="M1391.61 176.328C1389.49 172.478 1386.94 168.83 1385.35 164.778C1379.63 150.249 1358.35 131.267 1364.84 113.806C1366.75 106.872 1367.06 99.94 1360.06 93.7512C1364.84 94.1561 1366.59 96.2449 1369.38 96.5601C1371.16 93.0479 1373.1 89.2654 1375.15 85.2129C1373.89 94.691 1374.34 109.293 1381.58 121.59C1389.31 134.733 1392.5 151.992 1391.61 176.328Z" fill="#D2A3A3"/>
<path d="M1449.91 148.832C1443.21 167.339 1439.06 186.476 1436.36 206.536C1430.8 196.086 1432.65 176.219 1432.52 164.85C1432.33 149.173 1444.09 105.14 1468.74 97.8379C1456.27 109.919 1453.38 130.866 1449.91 148.832Z" fill="#F7D5D5"/>
<path d="M1217.3 148.389C1222.53 160.073 1221.22 172.366 1219.82 185.177C1218.11 182.25 1216.31 179.391 1214.71 176.396C1211.49 170.317 1209.33 163.428 1205.05 158.272C1198.28 150.1 1197.65 141.769 1200.6 132.313C1203.41 123.136 1193.48 113.94 1186.82 107.03V106.985C1188.69 108.629 1190.65 110.205 1192.4 111.961C1197.02 116.524 1200.81 116.29 1203.56 110.046C1204.08 108.898 1204.29 107.481 1205.21 105.814C1204.76 108.319 1202.48 115.215 1202.95 117.045C1203.77 120.253 1204.67 130.197 1212.62 140.081C1214.04 141.837 1214.78 144.111 1215.82 146.137C1215.88 146.61 1216.13 146.948 1216.56 147.15C1216.78 147.556 1217.01 147.983 1217.23 148.389H1217.3ZM1202.76 136.344C1204.56 142.828 1205.82 149.627 1209.94 155.3C1209.11 148.434 1205.73 142.49 1202.76 136.344Z" fill="#F7D5D5"/>
<path d="M1333.43 117.993C1341.02 152.485 1339.8 175.584 1336.51 204.65C1336.63 188.485 1334.83 172.522 1331.94 156.695C1330.48 148.612 1329.15 140.485 1327.22 132.515C1326.49 129.52 1326.63 126.616 1326.34 123.689C1325.59 111.689 1324.94 99.7116 1322.08 87.8691C1328.3 97.0549 1331.13 107.411 1333.41 117.993H1333.43Z" fill="#D2A3A3"/>
<path d="M1356.03 142.646C1347.19 138.481 1343.9 130.804 1342.73 121.753C1343.85 107.412 1340.07 93.633 1337.28 78.2559C1364.41 107.842 1351.19 112.347 1356.03 142.669V142.646Z" fill="#D2A3A3"/>
<path d="M1405.8 191.378C1403.66 171.948 1400.13 152.766 1396.57 133.584C1396.55 118.859 1394.14 104.405 1391.75 89.8613C1399.16 103.64 1403.37 118.364 1405.17 133.854C1405.17 151.898 1410.32 173.74 1405.8 191.378Z" fill="#D2A3A3"/>
<path d="M1185.96 167.119C1188.03 180.177 1182.95 192.83 1183.62 205.866C1181.89 192.087 1180.02 178.376 1176.75 164.89C1178.74 165.174 1174.9 128.025 1174.1 123.689C1181.46 137.311 1184.23 152.057 1185.99 167.097L1185.96 167.119Z" fill="#F7D5D5"/>
<path d="M1171.62 176.374C1171.62 182.453 1171.62 188.509 1171.62 196.141C1167.7 190.333 1159.81 183.86 1158.73 177.556C1160.96 180.246 1167.37 180.449 1165.16 177.556C1161.11 172.242 1147.25 159.857 1138.53 158.678C1147.23 158.995 1171.67 164.33 1171.62 176.374Z" fill="#F7D5D5"/>
<path d="M1233.17 200.327C1232.36 182.338 1226.58 164.957 1226.87 146.811C1226.92 144.131 1227.61 141.272 1225.81 138.796C1225.81 127.881 1223.17 118.001 1221.51 107.096C1227.5 118.353 1231.28 129.553 1232.27 142.893C1234.09 167.375 1233.91 189.693 1233.17 200.327Z" fill="#F7D5D5"/>
<path d="M1186.82 107.008L1186.62 106.805L1186.84 106.985L1186.82 107.008Z" fill="#F7D5D5"/>
<path d="M1298.53 139.645C1295.06 149.855 1301.41 154.222 1298.53 158.364C1289.71 170.995 1283.22 184.029 1277.91 198.573C1276.4 185.425 1280.95 173.222 1283.88 160.772C1285.63 153.326 1293.38 143.247 1298.53 139.645Z" fill="#D2A3A3"/>
<path d="M1297.14 176.463C1300.81 184.208 1304.45 189.544 1299.07 196.793C1294.71 202.669 1291.91 209.784 1289.01 216.718C1289.66 203.457 1291.08 190.489 1297.14 176.463Z" fill="#F7D5D5"/>
<path d="M1212.33 199.111C1197.6 184.026 1195.42 178.195 1197.08 157.617C1204.33 171.486 1208.39 184.522 1212.33 199.111Z" fill="#F7D5D5"/>
<path d="M1365.56 142.76C1371.88 157.349 1376.88 170.452 1380.91 185.334C1372.42 176.351 1364.45 154.737 1365.56 142.76Z" fill="#D2A3A3"/>
<path d="M1303.49 163.18C1307.43 168.043 1308.13 174.009 1309.57 179.638C1310.08 181.664 1309.14 183.532 1306.53 182.182C1300.07 178.782 1298.56 169.731 1303.49 163.202V163.18Z" fill="#D2A3A3"/>
<path d="M1197.6 185.717C1201.84 192.854 1203.16 200.801 1205.05 209.739C1196.36 202.985 1195.64 194.767 1197.6 185.717Z" fill="#F7D5D5"/>
<path d="M1202.76 136.342C1205.73 142.488 1209.11 148.432 1209.94 155.299C1205.82 149.625 1204.56 142.826 1202.76 136.342Z" fill="#F7D5D5"/>
</svg>
