<svg width="314" height="241" viewBox="0 0 314 241" fill="none" xmlns="http://www.w3.org/2000/svg">
<path d="M290.097 93.5884C286.05 93.5508 282.003 93.5132 277.985 93.5047C284.964 104.729 281.133 118.686 287.329 130.134C292.787 118.303 288.712 105.747 290.126 93.5887L290.097 93.5884Z" fill="#D2A3A3"/>
<path d="M287.254 131.988C277.135 138.197 273.454 148.599 270.378 159.094C269.303 162.813 269.784 167.038 267.612 170.603C267.574 174.621 267.537 178.639 267.499 182.657C278.445 183.829 281.324 172.754 280.962 168.125C279.956 155.135 287.428 144.335 287.254 131.988Z" fill="#D2A3A3"/>
<path d="M235.503 4.73035C211.882 8.06663 188.39 12.9942 164.277 10.0235C155.354 8.92863 145.55 12.3934 137.873 11.05C118.851 7.75077 99.5663 11.0696 80.5083 5.51504C65.833 1.2155 49.5416 2.82749 34.1821 6.81881C31.226 7.60081 33.811 9.41727 33.3404 10.2802C29.7524 16.8384 28.0404 23.732 20.7921 29.0708C14.4172 33.7528 10.6795 43.9811 8.77951 52.4342C3.86217 74.4758 -0.910903 96.5478 2.2846 119.763C3.55724 129.027 3.7268 138.771 4.44777 148.289C4.83434 153.352 5.97948 157.67 9.0944 161.573C10.2711 153.171 16.2359 161.495 17.3808 159.626C22.5197 151.059 24.0308 156.45 25.1408 161.433C28.4702 176.469 41.9656 183.301 51.0504 194.979C42.5731 180.156 67.258 183.739 62.3963 171.812C64.6549 171.428 66.1806 172.136 66.9974 174.456C67.6737 176.342 66.688 179.744 71.2624 179.035C73.8427 165.818 70.4453 151.881 74.9923 138.566C79.7167 149.712 82.1817 161.328 86.6202 172.124C91.4262 183.819 102.924 187.858 114.558 192.794C114.439 186.866 110.527 181.655 115.801 177.223C119.806 181.77 123.112 186.947 128.972 187.84C139.509 189.441 131.036 177.307 138.05 175.377C141.086 181.534 145.047 190.823 151.595 189.265C157.158 187.957 153.089 177.917 154.186 171.827C154.248 171.423 154.194 171.017 154.226 170.613C154.344 167.232 155.068 164.029 158.835 163.081C163.674 161.883 163.837 166.135 164.679 168.918C168.522 181.529 175.508 192.002 185.664 200.394C191.746 205.452 195.716 204.419 197.323 196.397C197.838 193.829 196.586 188.613 199.01 189.069C211.333 191.352 207.578 181.69 208.991 172.741C212.956 181.625 216.695 186.834 221.569 191.187C226.147 186.98 221.782 180.753 226.466 177.529C226.551 168.452 220.091 160.471 222.029 151.064C218.525 148.574 214.96 137.093 211.081 147.002C205.988 159.964 204.86 153.824 200.843 147.456C192.751 134.66 186.07 135.003 178.54 148.781C175.746 153.901 173.71 152.176 172.093 148.778C169.712 143.697 169.244 138.113 168.66 132.47C167.809 124.483 165.33 123.708 159.13 128.247C150.864 134.299 141.041 130.392 140.651 119.518C140.24 107.777 136.913 108.064 129.757 115.89C127.155 109.708 129.181 106.344 133.454 103.811C136.041 102.274 136.579 97.306 140.615 98.5577C144.103 99.6599 142.507 103.374 142.714 105.949C143.237 111.968 146.064 112.572 152.04 113.466C163.617 115.164 169.024 108.854 173.641 100.542C177.606 103.152 176.334 106.204 176.455 108.807C176.87 116.993 177.666 121.568 187.529 114.866C194.104 110.388 199.01 105.114 204.007 96.3141C205.124 103.668 204.228 109.817 206.863 112.473C212.849 118.542 212.432 104.343 218.618 107.494C218.934 107.67 219.399 107.501 219.803 107.505C220.538 100.024 223.592 91.8417 221.543 85.2311C215.366 65.5436 232.671 51.2205 231.742 33.0563C231.694 31.9572 233.873 30.85 234.896 29.6164C241.037 22.1279 247.436 14.7864 249.609 4.94826C246.401 4.91842 243.221 4.88886 240.012 4.83011C238.465 6.49251 236.961 6.4785 235.474 4.75897L235.503 4.73035ZM104.657 60.5245C105.323 57.2927 105.443 53.709 109.562 52.215C112.312 61.2606 122.213 53.5758 124.805 57.7051C130.331 66.5452 134.928 60.2856 139.573 58.2183C146.657 55.0752 151.484 48.9333 156.996 43.7229C159.242 41.5755 163.413 37.6536 164.776 40.2971C168.042 46.6299 179.582 46.1012 177.577 56.5191C177.151 58.7991 178.766 62.3122 180.601 63.9483C182.408 65.5551 188.38 63.7315 184.34 69.158C182.408 71.7419 181.381 76.4736 176.451 75.0112C172.732 73.9069 171.75 70.6599 172.157 67.339C173.28 58.5029 166.594 56.1857 160.654 54.5693C154.252 52.8619 152.005 58.1605 149.905 63.3159C148.869 65.8792 148.494 72.0336 142.982 67.8771C137.326 63.6036 135.017 69.4509 131.191 70.4272C125.541 71.8491 123.733 98.3141 113.522 74.0791C99.9401 76.5836 109.189 64.3538 104.628 60.5242L104.657 60.5245Z" fill="#D2A3A3"/>
<path d="M226.496 177.474C221.782 180.697 226.148 186.925 221.599 191.132C216.724 186.779 212.986 181.569 209.021 172.686C207.607 181.664 211.363 191.326 199.039 189.014C196.615 188.558 197.868 193.773 197.352 196.342C195.745 204.364 191.775 205.396 185.693 200.338C175.566 191.947 168.58 181.474 164.708 168.862C163.867 166.079 163.704 161.828 158.865 163.026C155.098 163.974 154.374 167.176 154.256 170.558C154.252 170.962 154.277 171.367 154.215 171.772C153.118 177.832 157.188 187.873 151.625 189.209C145.077 190.767 141.145 181.479 138.08 175.322C131.065 177.252 139.567 189.415 129.001 187.785C123.141 186.892 119.836 181.715 115.83 177.168C110.556 181.629 114.498 186.811 114.587 192.739C102.953 187.803 91.4553 183.793 86.6496 172.068C82.2111 161.272 79.7461 149.657 75.0217 138.511C70.4457 151.825 73.8432 165.762 71.2918 178.98C66.7174 179.689 67.7031 176.287 67.0267 174.401C66.2099 172.081 64.6843 171.373 62.4257 171.756C67.2873 183.684 42.6025 180.101 51.0799 194.924C41.995 183.246 28.4997 176.413 25.1703 161.378C24.0605 156.366 22.5492 151.004 17.4102 159.571C16.2942 161.44 10.3292 153.145 9.12383 161.518C5.91175 177.389 14.6763 192.417 12.359 208.44C11.8337 212.078 17.1127 216.435 19.2996 220.647C21.5146 224.947 30.9969 224.977 26.6716 233.089C32.4132 234.328 37.9731 236.461 44.024 235.535C58.7314 233.272 72.8782 232.218 88.2632 234.819C105.813 237.757 124.222 241.658 142.742 236.626C150.568 234.502 159.079 239.467 167.566 237.666C188.075 233.318 208.186 240.733 228.575 239.882C242.082 239.313 255.591 238.427 269.099 237.686C264.747 230.042 254.233 235.263 249.753 228.89C238.826 213.264 225.693 198.484 226.467 177.503L226.496 177.474Z" fill="#F7D5D5"/>
<path d="M226.495 177.475C225.722 198.457 238.854 213.237 249.781 228.863C254.261 235.265 264.775 230.014 269.127 237.658C278.316 238.206 283.524 234.641 290.359 227.043C304.147 211.762 301.908 194.54 304.005 177.271C305.038 168.81 309.709 160.787 310.771 152.327C314.679 120.677 310.947 89.911 302.069 59.0391C299.381 49.705 291.181 39.1633 297.331 27.6564C298.772 24.9522 295.401 23.7356 294.263 21.8169C290.534 15.4798 281.678 13.4605 280.28 5.15024C280.17 4.5421 279.139 3.52068 278.965 3.57688C269.356 7.82405 259.069 -1.98546 249.638 4.92311C247.464 14.7902 241.065 22.1317 234.924 29.5912C233.901 30.8249 231.722 31.961 231.77 33.0311C232.7 51.1954 215.394 65.5185 221.571 85.2059C223.649 91.8168 220.566 99.9986 219.832 107.48C220.026 111.471 218.707 116.547 220.676 119.254C228.412 129.849 224.441 140.335 222.058 151.01C220.12 160.388 226.55 168.398 226.495 177.475ZM267.528 182.685C267.459 183.87 267.563 185.085 267.321 186.239C266.142 191.865 262.17 193.072 257.413 191.582C254.473 190.658 250.794 188.369 252.069 184.912C253.612 180.705 258.273 183.09 261.573 182.658C263.512 182.416 265.534 182.637 267.528 182.656C267.566 178.638 267.603 174.62 267.64 170.601C258.22 160.8 257.2 149.284 260.698 136.828C257.968 135.039 258.341 132.209 258.251 129.519C249.322 122.845 255.452 113.362 253.763 105.338L244.079 105.248C243.553 105.85 242.681 106.362 242.559 107.055C238.819 126.795 243.88 145.344 251.142 163.336C252.612 166.964 253.74 169.981 251.974 173.347C251.445 174.354 249.213 174.969 247.797 174.898C243.173 174.71 244.311 170.471 242.948 167.828C240.223 162.425 242.86 155.54 238.047 150.841C235.06 151.767 237.645 156.677 230.763 156.844C235.412 145.005 229.249 133.095 234.476 121.348C235.568 118.872 236.927 115.733 236.342 113.386C230.988 92.2898 239.139 73.7474 248.237 56.0811C251.741 49.262 254.224 37.1428 267.32 40.3291C276.665 42.6132 285.548 44.9508 289.814 55.6005C292.725 62.8262 294.155 70.6453 296.609 77.2596C303.802 96.5518 303.132 115.713 301.364 134.893C299.599 153.726 296.097 172.687 290.581 190.734C288.852 196.413 285.551 206.299 276.077 208.408C278.385 190.274 289.68 175.721 290.943 158.04C291.24 154.082 291.138 149.571 293.018 146.351C303.241 128.897 295.144 110.493 296.322 92.6372C296.522 89.7191 294.065 86.6028 290.077 86.3923C290.055 88.7916 290.033 91.191 290.039 93.5906C288.625 105.749 292.7 118.305 287.242 130.136C287.236 130.772 287.23 131.379 287.224 132.015C287.399 144.332 279.926 155.162 280.933 168.152C281.294 172.81 278.416 183.885 267.47 182.713L267.528 182.685ZM251.502 202.339C254.473 203.09 256.607 203.717 258.8 204.113C262.148 204.722 266.119 203.632 268.165 207.496C268.563 208.222 268.256 210.127 267.674 210.469C263.896 212.602 260.176 211.613 256.58 209.73C254.221 208.494 251.366 207.658 251.502 202.339ZM236.579 178.118C245.112 183.864 243.624 188.389 238.305 194.584C235.062 188.917 236.289 184.447 236.579 178.118ZM234.999 164.574C228.452 176.785 244.217 164.659 234.999 164.574Z" fill="#F7D5D5"/>
<path d="M222.057 151.04C224.469 140.366 228.441 129.88 220.676 119.284C218.706 116.606 220.025 111.501 219.831 107.51C219.426 107.506 218.962 107.646 218.646 107.499C212.431 104.348 212.848 118.546 206.891 112.478C204.256 109.822 205.18 103.673 204.035 96.3193C199.038 105.09 194.132 110.393 187.557 114.871C177.694 121.573 176.869 116.998 176.483 108.812C176.362 106.209 177.634 103.128 173.668 100.547C169.052 108.859 163.645 115.169 152.068 113.471C146.092 112.606 143.264 111.973 142.742 105.955C142.535 103.38 144.131 99.665 140.643 98.5629C136.607 97.2823 136.07 102.25 133.482 103.816C129.208 106.378 127.182 109.742 129.785 115.895C136.941 108.069 140.268 107.782 140.679 119.523C141.069 130.397 150.891 134.304 159.158 128.252C165.358 123.713 167.866 124.488 168.688 132.475C169.272 138.089 169.74 143.702 172.121 148.783C173.738 152.181 175.774 153.906 178.568 148.786C186.097 135.008 192.779 134.665 200.87 147.461C204.916 153.83 206.016 159.969 211.109 147.007C214.988 137.098 218.553 148.579 222.057 151.069L222.057 151.04Z" fill="#F7D5D5"/>
<path d="M104.656 60.5246C109.217 64.3542 99.9675 76.5839 113.55 74.0794C123.732 98.314 125.539 71.8492 131.219 70.4276C135.044 69.4802 137.382 63.6332 143.009 67.8775C148.521 72.034 148.896 65.8796 149.932 63.3163C152.032 58.1609 154.279 52.8623 160.681 54.5697C166.622 56.1572 173.307 58.4744 172.184 67.3394C171.748 70.66 172.73 73.9359 176.478 75.0115C181.408 76.474 182.435 71.7423 184.367 69.1583C188.407 63.7319 182.464 65.5558 180.628 63.9487C178.793 62.3127 177.178 58.7995 177.604 56.5196C179.609 46.1017 168.069 46.6304 164.803 40.2976C163.44 37.6541 159.299 41.5763 157.024 43.7234C151.511 48.9338 146.684 55.1045 139.601 58.2188C134.956 60.286 130.359 66.5456 124.832 57.7056C122.24 53.5473 112.339 61.261 109.59 52.2155C105.471 53.7094 105.322 57.3218 104.685 60.5249L104.656 60.5246Z" fill="#F7D5D5"/>
<path d="M290.105 86.3917C294.093 86.6022 296.55 89.7185 296.349 92.6366C295.171 110.521 303.268 128.925 293.046 146.35C291.165 149.57 291.239 154.081 290.971 158.039C289.708 175.692 278.414 190.244 276.105 208.407C285.608 206.298 288.88 196.413 290.609 190.733C296.096 172.687 299.626 153.725 301.392 134.892C303.189 115.713 303.859 96.5225 296.637 77.259C294.183 70.6447 292.753 62.8256 289.842 55.5999C285.575 44.9791 276.693 42.6126 267.347 40.3285C254.252 37.1422 251.768 49.2614 248.265 56.0805C239.167 73.7757 231.015 92.3181 236.37 113.386C236.984 115.762 235.625 118.872 234.504 121.347C229.278 133.065 235.44 145.005 230.791 156.844C237.673 156.676 235.088 151.766 238.074 150.84C242.888 155.539 240.251 162.424 242.976 167.827C244.31 170.47 243.201 174.71 247.825 174.897C249.241 174.939 251.473 174.353 252.002 173.346C253.768 169.98 252.64 166.963 251.17 163.336C243.908 145.344 238.876 126.794 242.587 107.054C242.709 106.39 243.581 105.849 244.107 105.247C242.764 84.8818 246.375 66.5284 261.237 50.766C268.42 43.1427 272.866 46.8846 276.2 52.0905C282.897 62.5316 290.49 72.952 290.163 86.3922L290.105 86.3917Z" fill="#D2A3A3"/>
<path d="M290.106 86.394C290.433 72.9539 282.84 62.5335 276.143 52.0925C272.809 46.8866 268.363 43.1447 261.18 50.768C246.347 66.5306 242.736 84.8839 244.05 105.249C247.288 105.279 250.496 105.309 253.734 105.339C253.756 102.968 253.981 100.571 253.8 98.2276C252.884 87.9849 259.012 81.8262 266.942 77.7369C274.263 73.9888 279.632 77.9705 283.59 84.4543C284.957 86.6931 287.765 86.2566 290.135 86.3365L290.106 86.394Z" fill="#F7D5D5"/>
<path d="M260.698 136.826C257.2 149.282 258.221 160.798 267.641 170.599C269.784 167.035 269.303 162.809 270.408 159.09C273.483 148.595 277.165 138.193 287.283 131.985C287.289 131.349 287.295 130.742 287.301 130.106C281.133 118.687 284.935 104.701 277.956 93.4765C276.363 84.4417 272.656 85.2456 267.169 90.8032C263.696 94.3268 263.831 98.4044 263.242 102.735C262.06 111.658 267.384 120.554 263.225 129.419C287.883 128.502 266.089 137.863 260.67 136.797L260.698 136.826Z" fill="#F7D5D5"/>
<path d="M263.253 129.45C267.412 120.584 262.088 111.717 263.27 102.766C263.86 98.4347 263.725 94.3282 267.197 90.8335C272.655 85.2757 276.392 84.4721 277.985 93.5068C282.032 93.5445 286.079 93.5821 290.097 93.5906C290.12 91.1912 290.142 88.7919 290.135 86.3923C287.794 86.3127 284.957 86.7489 283.59 84.5101C279.632 78.0264 274.263 74.0447 266.943 77.7927C258.983 81.8817 252.884 88.0118 253.801 98.2834C254.01 100.627 253.785 103.024 253.734 105.395C255.423 113.418 249.322 122.902 258.222 129.576C259.899 129.563 261.576 129.521 263.224 129.507L263.253 129.45Z" fill="#D2A3A3"/>
<path d="M263.253 129.448C261.576 129.461 259.899 129.504 258.251 129.517C258.341 132.207 257.968 135.036 260.698 136.825C274.578 139.585 275.943 129.653 277.651 120.07C275.309 120.049 272.939 120.027 270.568 120.005C270.579 125.064 269.442 129.216 263.253 129.448Z" fill="#D2A3A3"/>
<path d="M267.499 182.655C265.504 182.637 263.512 182.387 261.543 182.658C258.243 183.09 253.582 180.705 252.04 184.911C250.764 188.369 254.472 190.658 257.384 191.581C262.111 193.071 266.112 191.865 267.292 186.238C267.534 185.084 267.43 183.869 267.498 182.684L267.499 182.655Z" fill="#D2A3A3"/>
<path d="M251.503 202.337C251.366 207.655 254.221 208.491 256.58 209.728C260.176 211.611 263.896 212.6 267.674 210.467C268.256 210.154 268.533 208.249 268.165 207.494C266.119 203.63 262.148 204.72 258.8 204.111C256.607 203.715 254.474 203.059 251.503 202.337Z" fill="#D2A3A3"/>
<path d="M236.579 178.115C236.26 184.414 235.062 188.913 238.305 194.581C243.624 188.415 245.14 183.89 236.579 178.115Z" fill="#D2A3A3"/>
</svg>
