<svg width="294" height="160" viewBox="0 0 294 160" fill="none" xmlns="http://www.w3.org/2000/svg">
<path d="M4.34375 78.2036C6.18191 86.1352 8.06972 94.0668 9.90787 101.998C16.9624 92.3924 18.6516 83.5795 4.34375 78.2036Z" fill="#F7D5D5"/>
<path d="M56.9037 53.3846C47.1242 40.8988 36.4519 44.1376 30.5273 62.3969C40.3475 62.0214 47.2459 51.554 56.9443 53.3377L56.9037 53.3846Z" fill="#F7D5D5"/>
<path d="M50.674 26.4386C34.7324 26.4678 20.2687 38.6136 17.7847 53.1537C16.1496 62.7595 14.7661 72.2777 15.3321 82.0003C15.5208 84.9783 16.6092 93.7798 20.1308 93.809C24.5643 93.809 25.0034 84.5988 25.0663 82.0003C25.255 75.9273 26.1388 69.9538 26.862 63.9393C28.0254 54.4503 26.117 45.4458 34.9525 37.8838C45.0772 29.2415 48.2865 32.1612 57.9081 37.8838C60.5179 39.4312 71.1797 47.733 74.6384 43.9958C77.6884 40.7258 69.8858 32.9495 67.6534 30.2342C63.1884 24.7744 56.554 26.8182 50.6427 26.4094L50.674 26.4386Z" fill="#F7D5D5"/>
<path d="M125.648 147.851C133.426 152.446 138.543 149.559 146.584 145.347C155.795 140.516 169.86 144.669 180.649 148.911C189.509 152.387 197.316 152.093 206.205 148.911C211.322 141.665 217.813 135.273 220.708 126.553C231.059 95.4761 231.205 64.3694 220.883 33.2333C214.567 40.951 216.263 50.1711 217.199 59.4501C205.591 56.0625 199.158 47.3432 191.029 41.0099C184.977 36.2673 179.099 29.8752 171.321 38.565C169.83 40.2146 168.427 39.2424 167.433 37.7696C165.064 34.2642 162.462 32.3495 158.631 35.9433C155.62 38.7712 153.846 41.9986 155.571 45.9458C157.296 49.9226 157.813 53.8532 157.052 58.7725C151.877 54.0299 149.421 48.168 142.871 47.844C146.117 70.85 147.783 93.856 140.064 116.273C137.315 124.256 137.257 133.976 128.339 138.866C127.461 141.842 126.555 144.846 125.678 147.851H125.648Z" fill="#F7D5D5"/>
<path d="M89.3904 36.3803C84.3904 53.9829 90.7647 71.4976 89.829 89.2171C88.8349 107.638 85.2969 124.627 77.636 141.206C75.326 146.235 71.9341 145.68 68.1329 146.557C64.361 147.405 61.0861 149.335 67.7528 151.469C74.9751 151.206 82.1681 150.943 89.3904 150.68C90.4431 150.241 91.525 149.773 92.5776 149.335C101.934 147.376 111.262 144.598 120.911 147.814C122.198 143.867 122.9 139.452 128.338 138.954C128.923 136.235 129.128 133.37 130.18 130.855C144.274 97.8137 144.216 64.7432 130.853 31.5557C121.233 27.8423 106.378 27.6029 103.951 32.4567C98.5712 43.334 94.1274 36.3803 89.4197 36.3803H89.3904Z" fill="#F7D5D5"/>
<path d="M213.396 149.446C215.034 151.581 216.642 152.107 219.566 151.171C227.578 148.569 235.824 148.247 244.069 150.265C258.397 153.774 284.83 135.879 285.415 120.762C285.736 112.34 287.754 105.147 291.234 97.8374C294.684 90.6151 294.538 82.9834 291.731 75.4687C285.444 63.4218 273.777 56.258 264.976 46.4918C262.14 43.3339 257.023 38.48 252.344 42.6321C247.666 46.7842 250.648 52.6322 253.543 57.0183C257.286 62.6323 259.567 67.954 254.976 76.1705C247.578 65.1177 246.292 50.0298 230.707 48.6556C230.882 51.872 230.765 55.1469 231.291 58.3048C236.759 90.966 230.648 121.288 213.367 149.446H213.396Z" fill="#F7D5D5"/>
<path d="M142.811 48.5989C149.39 48.9205 151.817 54.7393 156.993 59.4469C157.753 54.5346 158.162 50.5287 156.408 46.5813C154.683 42.6632 155.56 39.5929 158.572 36.7859C162.402 33.2186 165.005 35.1192 167.373 38.5987C168.367 40.0607 169.8 41.0257 171.262 39.3883C179.04 30.7625 184.917 37.1368 190.97 41.8152C199.099 48.131 206.611 57.8604 218.219 61.1938C217.283 51.9832 215.003 41.8152 220.824 34.0958C217.227 23.1016 208.368 14.5049 206.525 2.69196C180.853 11.5225 153.864 -0.933745 128.162 7.60435C133.045 21.2595 137.928 34.9145 142.782 48.5696L142.811 48.5989Z" fill="#D2A3A3"/>
<path d="M230.736 48.6887C246.321 50.0629 247.578 65.1216 255.005 76.2036C259.567 67.9871 257.286 62.6654 253.573 57.0513C250.678 52.6653 247.695 46.8173 252.374 42.6652C257.052 38.5131 262.14 43.3377 265.006 46.5249C273.807 56.2911 285.474 63.4257 291.76 75.5018C294.099 57.987 292.754 40.7353 283.222 25.6475C279.538 19.8287 273.544 15.472 271.643 8.16196C271.321 6.93388 268.047 5.29641 266.672 5.67653C248.193 10.7643 229.947 0.296297 211.555 5.06243C221.233 18.162 226.73 33.1037 230.765 48.7179L230.736 48.6887Z" fill="#D2A3A3"/>
<path d="M89.3901 36.3762C94.0685 36.3762 98.4837 44.6511 103.893 33.7738C106.291 28.8907 121.203 27.8381 130.823 31.5516C129.478 21.9609 120.969 15.0602 120.911 5.00157C100.618 4.15361 80.3257 3.33493 60.0623 2.48697C62.7524 10.6449 69.5069 14.797 76.2321 19.066C82.6649 23.1889 88.9021 27.3118 88.9606 36.3762H89.3901Z" fill="#D2A3A3"/>
<path d="M128.31 138.949C122.9 139.447 122.169 143.862 120.883 147.809C122.462 147.809 124.041 147.868 125.649 147.897C126.526 144.914 127.433 141.932 128.31 138.949Z" fill="#D2A3A3"/>
<path d="M52.6348 51.1147C56.2021 59.916 61.8454 67.5477 63.1905 77.694C64.594 88.3959 66.1729 98.396 60.8805 108.396C59.6524 110.706 58.6583 114.156 62.284 115.677C64.5648 116.642 65.7636 114.332 66.9332 112.694C75.2666 100.911 73.1614 67.1091 64.1262 55.9101C60.7636 51.758 57.2839 50.7346 52.6348 51.1147Z" fill="#F7D5D5"/>
<path d="M230.735 48.6884C226.7 33.1035 223.19 17.6973 213.541 4.56853C212.371 2.78488 208.864 2.07977 206.554 2.72305C208.425 14.5068 216.069 23.1571 219.666 34.1806C229.988 65.0874 231.057 95.9112 220.706 126.759C217.811 135.385 211.32 141.73 206.203 148.953C208.601 149.128 210.998 149.304 213.396 149.479C230.677 121.321 237.447 91.3196 231.979 58.6584C231.452 55.5005 230.911 51.9049 230.735 48.6884Z" fill="#D2A3A3"/>
<path d="M120.91 4.99962C120.971 15.0582 129.062 21.8747 130.451 31.4654C144.248 64.6529 141.361 97.3225 129.887 130.832C127.985 133.402 127.564 140.365 126.96 143.084C136.898 134.916 137.817 124.475 140.655 116.521C148.626 94.2404 146.905 71.4038 143.553 48.5966C138.512 34.9415 133.47 21.2863 128.458 7.6312C125.952 6.75399 123.446 5.87682 120.94 4.99962H120.91Z" fill="#D2A3A3"/>
<path d="M49.9448 78.2204C48.0442 84.6824 47.664 87.9865 46.1435 90.6181C44.5938 93.3082 47.4301 99.5364 41.4066 98.4253C37.196 97.6358 35.5294 93.3375 35.5586 88.8637C35.5878 80.0917 35.5586 71.3197 35.5586 60.3547C29.3305 69.6238 29.0966 97.1095 33.6873 103.279C37.9271 108.981 44.2429 108.659 48.8336 105.881C52.8103 103.455 59.0969 99.9458 55.091 92.4896C53.2782 89.0977 52.4009 85.2088 49.9155 78.2204H49.9448Z" fill="#F7D5D5"/>
<path d="M60.033 2.48839C52.1382 0.119942 44.682 -3.27191 38.7463 7.04984C35.2667 13.1318 30.2374 6.66968 25.1497 5.38312C26.9918 17.6055 14.711 20.471 9.68174 28.4535C4.97409 35.9097 -0.669329 49.2724 0.734194 58.8924C2.22544 69.0679 -1.34181 79.4189 0.58803 90.1501C2.57635 101.115 4.59391 112.46 10.2665 121.408C14.8572 128.659 13.1028 138.075 20.9391 144.156C26.1731 148.221 35.4422 147.665 36.6118 158.279C37.1089 162.841 44.1558 156.174 48.1324 156.759C55.6471 157.899 62.1091 156.671 67.7232 151.466C61.0272 149.332 64.3314 147.402 68.1033 146.554C71.9338 145.677 75.2964 146.233 77.6064 141.203C85.2673 124.595 88.8053 107.636 89.7995 89.2143C90.7644 71.4949 84.7673 54.0243 89.7381 36.4218C89.6796 27.3574 83.4516 22.8781 76.9896 18.7845C70.2643 14.4862 63.679 10.6464 60.9889 2.48839H60.033ZM52.6353 51.1145C57.2845 50.7344 60.7641 51.7579 64.1267 55.91C73.1619 67.1089 75.2672 100.881 66.9337 112.694C65.7641 114.332 64.5653 116.642 62.2846 115.677C58.6588 114.156 59.653 110.677 60.881 108.396C66.1735 98.3958 64.5945 88.3957 63.191 77.6938C61.8752 67.5475 56.2026 59.945 52.6353 51.1145C45.6469 50.0034 40.7054 56.524 33.6001 56.7579C37.8691 45.3835 45.5593 43.366 52.6061 51.1438L52.6353 51.1145ZM51.46 27.1857C56.9571 27.6243 60.3543 26.6548 64.5064 32.1227C66.5825 34.8712 70.7934 36.5823 67.9572 39.8279C64.7115 43.5414 62.7232 38.3952 60.2963 36.8455C51.3196 31.1144 43.7464 29.4769 34.3311 38.1612C26.1146 45.7344 24.5941 54.448 23.5122 63.951C22.8397 69.9452 23.5122 76.1148 23.3075 82.1967C23.2198 84.7699 24.3309 88.8343 20.2081 88.805C16.9332 88.805 16.2607 85.3255 16.0852 82.343C15.5589 72.6061 16.8162 63.0738 18.366 53.4538C20.6759 38.8922 34.4715 27.215 49.2962 27.1857H51.46ZM49.9453 78.2201C52.4307 85.2085 53.3079 89.0975 55.1207 92.4893C59.1266 99.9455 52.8401 103.454 48.8634 105.881C44.2435 108.688 37.9568 109.01 33.717 103.279C29.1555 97.1093 29.3895 69.6528 35.5884 60.3544C35.5884 71.3487 35.6176 80.1207 35.5884 88.8635C35.5884 93.3372 37.2258 97.6356 41.4364 98.425C47.4599 99.5362 44.6236 93.308 46.1733 90.6179C47.6938 87.9863 48.0739 84.6822 49.9745 78.2201H49.9453ZM21.1145 99.5069C25.2374 105.501 27.9567 109.01 30.179 112.782C34.6527 120.414 41.1732 123.016 49.7113 121.671C52.3429 121.261 56.5828 117.636 56.9629 123.659C57.1968 127.49 53.688 128.601 50.1792 129.186C35.2375 131.729 23.483 120.881 21.1438 99.5069H21.1145ZM6.55303 82.7523C15.0034 86.3196 13.98 92.1676 9.8279 98.5419C8.74602 93.2787 7.63491 88.0155 6.55303 82.7523ZM45.4423 80.2085C45.1206 81.0564 44.6821 82.0798 44.2727 83.1325C43.8633 82.5769 43.1324 82.0214 43.1031 81.4366C43.0446 80.15 42.2843 78.3664 44.4189 77.957C44.5943 77.9278 45.0037 79.2143 45.4423 80.2085Z" fill="#E3B6B6"/>
<path d="M21.1151 99.5047C23.4543 120.879 35.2089 131.698 50.1506 129.183C53.6594 128.599 57.1681 127.458 56.9342 123.657C56.5541 117.634 52.3436 121.259 49.6827 121.669C41.1446 123.014 34.6241 120.411 30.1504 112.78C27.9281 109.008 25.2088 105.499 21.0859 99.5047H21.1151Z" fill="#F7D5D5"/>
<path d="M46.7391 80.3345C45.3938 78.3124 44.0484 75.6957 43.5999 75.7552C37.0525 76.5878 39.3846 80.1561 39.564 82.8324C39.564 84.0218 41.8959 85.1517 43.1516 86.2817C44.4073 84.1407 45.6629 82.0592 46.7391 80.3345Z" fill="#F7D5D5"/>
</svg>
