<svg width="402" height="309" viewBox="0 0 402 309" fill="none" xmlns="http://www.w3.org/2000/svg">
<path d="M29.9399 119.835C35.1218 119.787 40.3037 119.738 45.449 119.728C36.5134 134.099 41.4179 151.97 33.4845 166.629C26.4954 151.48 31.7134 135.403 29.9028 119.835L29.9399 119.835Z" fill="#D2A3A3"/>
<path d="M33.579 169.001C46.5349 176.951 51.2489 190.27 55.1867 203.708C56.5636 208.47 55.9476 213.88 58.7293 218.444C58.7772 223.589 58.825 228.734 58.8729 233.879C44.8573 235.379 41.1717 221.199 41.6348 215.272C42.9238 198.639 33.3558 184.81 33.579 169.001Z" fill="#D2A3A3"/>
<path d="M99.8421 6.05586C130.088 10.3277 160.168 16.6371 191.042 12.8333C202.467 11.4314 215.02 15.8679 224.851 14.1477C249.206 9.92329 273.899 14.1728 298.302 7.0606C317.093 1.55535 337.952 3.61939 357.619 8.72998C361.404 9.73127 358.094 12.0571 358.697 13.162C363.291 21.5593 365.483 30.3861 374.764 37.222C382.927 43.217 387.713 56.3136 390.145 67.1371C396.442 95.3599 402.553 123.621 398.462 153.347C396.832 165.208 396.615 177.685 395.692 189.872C395.197 196.355 393.731 201.884 389.742 206.882C388.235 196.124 380.598 206.782 379.132 204.389C372.552 193.419 370.617 200.322 369.196 206.703C364.933 225.954 347.653 234.703 336.021 249.655C346.875 230.675 315.268 235.263 321.493 219.991C318.601 219.5 316.648 220.406 315.602 223.378C314.736 225.792 315.998 230.148 310.141 229.24C306.837 212.317 311.187 194.471 305.365 177.423C299.315 191.694 296.159 206.567 290.476 220.391C284.322 235.366 269.601 240.537 254.704 246.858C254.856 239.268 259.865 232.595 253.112 226.92C247.984 232.742 243.752 239.371 236.248 240.514C222.755 242.565 233.605 227.027 224.624 224.557C220.736 232.441 215.664 244.333 207.28 242.338C200.157 240.665 205.368 227.808 203.963 220.011C203.884 219.493 203.953 218.974 203.911 218.456C203.76 214.127 202.834 210.026 198.01 208.813C191.814 207.279 191.605 212.722 190.528 216.286C185.607 232.434 176.662 245.844 163.658 256.589C155.87 263.065 150.787 261.743 148.729 251.471C148.069 248.182 149.673 241.504 146.569 242.089C130.79 245.012 135.598 232.64 133.789 221.181C128.712 232.556 123.925 239.227 117.684 244.8C111.822 239.413 117.411 231.44 111.413 227.312C111.305 215.69 119.576 205.47 117.095 193.426C121.581 190.237 126.146 175.536 131.113 188.224C137.634 204.821 139.079 196.96 144.223 188.805C154.583 172.421 163.138 172.86 172.779 190.502C176.356 197.057 178.964 194.849 181.034 190.499C184.083 183.993 184.682 176.843 185.43 169.617C186.519 159.39 189.693 158.398 197.632 164.21C208.217 171.96 220.794 166.956 221.293 153.033C221.82 137.999 226.08 138.367 235.243 148.387C238.575 140.471 235.981 136.165 230.509 132.921C227.196 130.953 226.507 124.592 221.34 126.195C216.874 127.606 218.917 132.362 218.652 135.659C217.983 143.365 214.362 144.139 206.711 145.284C191.887 147.458 184.963 139.378 179.053 128.735C173.975 132.077 175.603 135.986 175.449 139.319C174.918 149.8 173.899 155.658 161.27 147.076C152.851 141.343 146.569 134.59 140.171 123.322C138.741 132.738 139.888 140.612 136.514 144.012C128.849 151.783 129.384 133.602 121.462 137.637C121.057 137.863 120.463 137.646 119.945 137.651C119.004 128.072 115.094 117.596 117.718 109.131C125.627 83.9228 103.468 65.5831 104.658 42.3251C104.719 40.9179 101.93 39.5002 100.62 37.9206C92.7569 28.3322 84.5626 18.9319 81.7802 6.33487C85.8888 6.29666 89.9604 6.25882 94.0686 6.1836C96.0503 8.31218 97.9751 8.29424 99.8795 6.0925L99.8421 6.05586ZM267.381 77.4961C266.528 73.3581 266.374 68.7694 261.1 66.8565C257.58 78.4387 244.903 68.5989 241.583 73.8862C234.507 85.2053 228.621 77.1903 222.674 74.5433C213.604 70.5187 207.423 62.6545 200.364 55.983C197.489 53.2334 192.148 48.2117 190.403 51.5965C186.221 59.7052 171.445 59.0282 174.012 72.3676C174.558 75.2869 172.49 79.7853 170.14 81.8801C167.827 83.9376 160.18 81.6025 165.353 88.5507C167.827 91.8593 169.142 97.9179 175.454 96.0453C180.216 94.6314 181.473 90.4738 180.952 86.2216C179.515 74.9077 188.075 71.9407 195.681 69.871C203.879 67.6848 206.755 74.4692 209.445 81.0703C210.771 84.3525 211.252 92.2328 218.309 86.9107C225.551 81.4388 228.508 88.9258 233.406 90.1759C240.641 91.9965 242.955 125.883 256.03 94.8518C273.421 98.0587 261.578 82.3994 267.418 77.4958L267.381 77.4961Z" fill="#D2A3A3"/>
<path d="M111.377 227.245C117.413 231.372 111.823 239.345 117.648 244.733C123.889 239.159 128.676 232.488 133.753 221.114C135.563 232.609 130.754 244.981 146.533 242.021C149.637 241.437 148.034 248.115 148.693 251.403C150.751 261.675 155.835 262.997 163.622 256.521C176.589 245.776 185.534 232.367 190.492 216.218C191.569 212.654 191.778 207.211 197.974 208.745C202.798 209.959 203.724 214.059 203.876 218.389C203.88 218.907 203.848 219.425 203.927 219.943C205.332 227.704 200.121 240.56 207.244 242.271C215.629 244.266 220.663 232.373 224.588 224.489C233.569 226.96 222.683 242.534 236.212 240.447C243.716 239.303 247.948 232.675 253.076 226.852C259.83 232.564 254.783 239.2 254.668 246.79C269.565 240.47 284.287 235.335 290.44 220.323C296.123 206.5 299.28 191.626 305.329 177.355C311.188 194.403 306.838 212.249 310.105 229.172C315.962 230.08 314.7 225.724 315.566 223.31C316.612 220.339 318.565 219.432 321.457 219.923C315.232 235.196 346.839 230.608 335.985 249.587C347.617 234.635 364.897 225.887 369.16 206.635C370.581 200.218 372.516 193.351 379.096 204.321C380.525 206.714 388.163 196.093 389.706 206.814C393.819 227.135 382.597 246.378 385.564 266.895C386.236 271.553 379.477 277.131 376.677 282.525C373.841 288.03 361.699 288.068 367.238 298.456C359.886 300.042 352.767 302.773 345.019 301.587C326.187 298.69 308.073 297.34 288.374 300.67C265.902 304.433 242.332 309.427 218.618 302.984C208.598 300.264 197.7 306.622 186.832 304.317C160.572 298.749 134.822 308.243 108.715 307.153C91.421 306.425 74.1233 305.291 56.8273 304.341C62.3999 294.554 75.8624 301.24 81.5983 293.079C95.5899 273.071 112.405 254.147 111.415 227.281L111.377 227.245Z" fill="#F7D5D5"/>
<path d="M111.377 227.244C112.367 254.11 95.5517 273.034 81.5601 293.042C75.8246 301.239 62.3618 294.516 56.7891 304.304C45.0241 305.006 38.3556 300.44 29.603 290.712C11.9488 271.146 14.8162 249.094 12.1304 226.983C10.8081 216.149 4.82677 205.876 3.46743 195.043C-1.53661 154.518 3.24245 115.125 14.6094 75.5953C18.0519 63.6436 28.5504 50.1457 20.6768 35.412C18.8307 31.9495 23.1472 30.3917 24.6051 27.935C29.3789 19.8208 40.7192 17.2351 42.5082 6.59451C42.649 5.81584 43.9694 4.50797 44.1922 4.57993C56.4955 10.0181 69.6681 -2.54223 81.744 6.30368C84.5267 18.9378 92.7209 28.338 100.583 37.8894C101.894 39.469 104.684 40.9237 104.622 42.2939C103.432 65.552 125.591 83.8916 117.681 109.1C115.021 117.565 118.968 128.041 119.908 137.62C119.66 142.73 121.349 149.23 118.827 152.696C108.922 166.262 114.007 179.689 117.058 193.357C119.539 205.365 111.305 215.621 111.377 227.244ZM58.8368 233.915C58.925 235.432 58.7914 236.987 59.1013 238.465C60.6119 245.67 65.6977 247.214 71.7878 245.307C75.5526 244.124 80.2636 241.193 78.6307 236.766C76.6557 231.38 70.6872 234.434 66.4621 233.881C63.9791 233.571 61.3905 233.854 58.8365 233.878C58.7887 228.733 58.7408 223.588 58.693 218.443C70.755 205.893 72.0616 191.148 67.5822 175.198C71.0776 172.907 70.5996 169.284 70.7157 165.84C82.1486 157.294 74.2991 145.151 76.4616 134.877L88.8613 134.762C89.5347 135.533 90.6514 136.189 90.8078 137.076C95.596 162.351 89.1167 186.103 79.8175 209.14C77.9358 213.785 76.491 217.648 78.7521 221.958C79.4304 223.247 82.2881 224.035 84.1011 223.944C90.0216 223.704 88.5644 218.276 90.3098 214.891C93.7991 207.973 90.4226 199.158 96.5855 193.141C100.409 194.327 97.0993 200.613 105.911 200.828C99.9587 185.669 107.85 170.418 101.158 155.377C99.7586 152.207 98.0185 148.188 98.7679 145.183C105.624 118.17 95.1863 94.4282 83.5376 71.8078C79.0513 63.0764 75.8716 47.5587 59.1037 51.6385C47.1372 54.5631 35.7636 57.5562 30.3008 71.1924C26.5741 80.4444 24.7423 90.4561 21.6006 98.9253C12.3909 123.627 13.2482 148.162 15.5126 172.721C17.7728 196.835 22.2557 221.114 29.3188 244.221C31.5334 251.493 35.76 264.15 47.8898 266.851C44.9346 243.631 30.4727 224.998 28.8555 202.359C28.4752 197.291 28.6065 191.515 26.199 187.391C13.1091 165.043 22.3392 140.831 20.831 117.968C20.5741 114.231 24.777 109.96 29.9642 110.619C29.9928 113.691 30.0213 116.763 30.0129 119.836C31.8235 135.403 26.6055 151.48 33.5946 166.63C33.6021 167.444 33.6094 168.221 33.6169 169.036C33.3934 184.807 42.9618 198.674 41.6728 215.306C41.21 221.271 44.8955 235.451 58.9112 233.951L58.8368 233.915ZM79.3565 259.081C75.5526 260.042 72.8207 260.844 70.0121 261.352C65.7253 262.132 60.6409 260.736 58.0217 265.683C57.5121 266.613 57.905 269.053 58.6494 269.49C63.4871 272.221 68.2505 270.956 72.8553 268.544C75.876 266.961 79.5308 265.89 79.3565 259.081ZM98.4651 228.068C87.5394 235.425 89.4442 241.219 96.2551 249.151C100.408 241.894 98.8366 236.171 98.4651 228.068ZM97.6422 219.191C91.074 209.062 99.1717 221.625 97.6422 219.191Z" fill="#F7D5D5"/>
<path d="M117.059 193.395C113.971 179.727 108.886 166.3 118.828 152.733C121.351 149.304 119.661 142.768 119.91 137.657C120.428 137.653 121.022 137.832 121.427 137.643C129.385 133.608 128.851 151.789 136.478 144.018C139.852 140.618 138.669 132.745 140.136 123.329C146.533 134.559 152.815 141.349 161.235 147.083C173.863 155.664 174.919 149.806 175.414 139.325C175.568 135.992 173.94 132.047 179.017 128.742C184.928 139.385 191.851 147.464 206.675 145.29C214.327 144.183 217.948 143.372 218.616 135.666C218.882 132.369 216.839 127.613 221.304 126.202C226.472 124.562 227.16 130.922 230.473 132.928C235.945 136.208 238.54 140.515 235.207 148.394C226.045 138.373 221.784 138.006 221.258 153.039C220.758 166.963 208.182 171.966 197.597 164.217C189.658 158.405 186.447 159.397 185.394 169.624C184.647 176.812 184.047 183.999 180.998 190.505C178.929 194.855 176.321 197.064 172.744 190.508C163.103 172.866 154.548 172.428 144.187 188.812C139.007 196.967 137.599 204.827 131.078 188.23C126.111 175.542 121.546 190.244 117.06 193.432L117.059 193.395Z" fill="#F7D5D5"/>
<path d="M267.381 77.4985C261.541 82.402 273.384 98.0613 255.993 94.8544C242.955 125.885 240.641 91.9988 233.369 90.1785C228.471 88.9655 225.477 81.4788 218.272 86.9133C211.215 92.2354 210.734 84.3552 209.408 81.073C206.718 74.4719 203.842 67.6875 195.644 69.8737C188.038 71.9063 179.477 74.8733 180.916 86.2242C181.473 90.476 180.217 94.6707 175.417 96.0479C169.105 97.9205 167.79 91.8619 165.316 88.5533C160.143 81.6052 167.753 83.9405 170.103 81.8827C172.453 79.7879 174.521 75.2896 173.976 72.3703C171.408 59.031 186.185 59.7079 190.366 51.5993C192.111 48.2145 197.415 53.2365 200.327 55.9857C207.386 62.6572 213.567 70.5584 222.636 74.546C228.584 77.1929 234.47 85.2079 241.546 73.8889C244.865 68.5645 257.543 78.4413 261.063 66.8592C266.337 68.7721 266.528 73.3975 267.344 77.4988L267.381 77.4985Z" fill="#F7D5D5"/>
<path d="M29.9263 110.619C24.8204 110.888 21.6741 114.878 21.9309 118.615C23.4395 141.515 13.0717 165.08 26.1612 187.391C28.5687 191.514 28.4743 197.29 28.8176 202.358C30.4344 224.961 44.8964 243.594 47.8519 266.851C35.6851 264.15 31.4955 251.492 29.2809 244.221C22.2548 221.113 17.735 196.835 15.4748 172.72C13.1734 148.162 12.3156 123.59 21.5627 98.9249C24.7044 90.4557 26.5363 80.444 30.263 71.192C35.7262 57.5928 47.0993 54.5627 59.0658 51.6381C75.8337 47.5583 79.0135 63.076 83.4998 71.8074C95.1489 94.4648 105.586 118.207 98.73 145.182C97.9439 148.225 99.6837 152.207 101.12 155.377C107.811 170.381 99.9209 185.668 105.874 200.827C97.0615 200.613 100.372 194.326 96.5478 193.14C90.3848 199.157 93.7613 207.973 90.272 214.891C88.5636 218.275 89.9837 223.704 84.0632 223.944C82.2498 223.998 79.3925 223.247 78.7142 221.958C76.4531 217.648 77.8979 213.784 79.7796 209.14C89.0788 186.102 95.521 162.351 90.7699 137.076C90.6139 136.226 89.497 135.533 88.8235 134.762C90.5429 108.685 85.9193 85.1852 66.8897 65.0026C57.6927 55.2415 51.9994 60.0327 47.7304 66.6985C39.1556 80.0675 29.4332 93.4101 29.8524 110.619L29.9263 110.619Z" fill="#D2A3A3"/>
<path d="M29.594 110.451C28.0416 92.7283 39.2307 80.0691 47.8054 66.7001C52.0745 60.0344 57.7676 55.2432 66.9646 65.0043C85.957 85.1871 90.5806 108.687 88.8982 134.763C84.7527 134.801 80.6441 134.84 76.4985 134.878C76.4703 131.843 76.1826 128.773 76.4138 125.773C77.5875 112.658 69.7406 104.772 59.5862 99.5359C50.2132 94.7368 44.1206 100.496 39.0524 108.798C37.3023 111.665 33.6264 111.248 30.592 111.35L29.594 110.451Z" fill="#F7D5D5"/>
<path d="M67.5825 175.194C72.0619 191.144 70.7553 205.889 58.6933 218.439C55.9486 213.874 56.5646 208.464 55.1506 203.702C51.2129 190.264 46.4989 176.945 33.543 168.996C33.5354 168.181 33.5282 167.404 33.5206 166.59C41.4174 151.969 36.3448 133.892 45.2804 119.521C47.3198 107.952 52.2724 109.15 59.2978 116.266C63.7448 120.777 63.5713 125.999 64.3262 131.544C65.8391 142.968 59.0228 154.359 64.3479 165.711C56.3864 165.415 54.9673 160.097 54.9811 153.619C54.4918 148.775 59.1951 157.955 50.1499 156.558C42.1054 155.3 46.1817 146.816 45.8614 152.186C45.8663 152.705 45.8711 153.223 45.9126 153.704C48.0997 165.973 49.8463 178.654 67.6191 175.157L67.5825 175.194Z" fill="#F7D5D5"/>
<path d="M64.4111 165.791C59.0861 154.439 65.9028 143.085 64.3895 131.624C63.6346 126.078 63.8078 120.82 59.3612 116.346C52.3727 109.229 47.4225 108.117 45.3831 119.686C44.963 120.466 35.1846 119.865 30.0393 119.876C30.0108 116.804 29.9821 113.731 29.9906 110.659C32.988 110.557 36.621 111.116 38.3711 108.249C43.4393 99.947 50.3141 94.8487 59.6871 99.6478C69.8785 104.883 77.6881 112.733 76.5148 125.885C76.2465 128.886 76.5342 131.955 76.5994 134.99C74.4369 145.264 82.2494 157.407 70.8536 165.953C68.7064 165.936 66.559 165.882 64.4488 165.864L64.4111 165.791Z" fill="#D2A3A3"/>
<path d="M64.3102 165.751C66.4574 165.768 68.605 165.822 70.7151 165.839C70.5991 169.283 71.077 172.906 67.5816 175.197C49.8092 178.731 48.0621 166.013 45.875 153.744C48.8731 153.716 51.9083 153.687 54.9435 153.659C54.9297 160.137 56.3858 165.454 64.3102 165.751Z" fill="#D2A3A3"/>
<path d="M58.8732 233.877C61.4272 233.853 63.9784 233.534 66.4988 233.88C70.7239 234.433 76.6923 231.379 78.6673 236.766C80.3002 241.192 75.5523 244.124 71.8245 245.306C65.7714 247.213 60.6487 245.669 59.138 238.465C58.8281 236.987 58.9617 235.431 58.8736 233.914L58.8732 233.877Z" fill="#D2A3A3"/>
<path d="M79.3557 259.08C79.5301 265.889 75.8752 266.96 72.8545 268.542C68.2498 270.954 63.4863 272.22 58.6487 269.489C57.9046 269.089 57.5488 266.649 58.021 265.682C60.6402 260.734 65.7246 262.131 70.0113 261.35C72.8199 260.843 75.5515 260.003 79.3557 259.08Z" fill="#D2A3A3"/>
<path d="M98.4646 228.065C98.8727 236.131 100.407 241.891 96.2545 249.148C89.444 241.253 87.5022 235.459 98.4646 228.065Z" fill="#D2A3A3"/>
</svg>
