<svg width="1440" height="449" viewBox="0 0 1440 449" fill="none" xmlns="http://www.w3.org/2000/svg">
<path d="M552.582 0.00136797C445.112 0.00136797 422.846 61.436 324.878 23.4962C226.91 -14.4435 188.831 39.2799 129.871 34.2766C80.344 30.0739 84.8101 0 4.95911e-05 0L0 408.202C0 408.202 13.5381 385.973 69.55 385.973C125.562 385.973 123.68 434.136 194.664 434.136C265.649 434.136 251.221 394.177 324.878 394.177C398.536 394.177 378.801 448.961 467.029 448.961C532.82 448.961 545.615 385.973 604.534 385.973C663.453 385.973 690.32 448.961 752.876 448.961C852.185 448.961 846.768 385.973 935.256 385.973C1023.74 385.973 1022.15 434.136 1084.11 434.136C1154.71 434.136 1160.01 385.973 1232.96 385.973C1305.91 385.973 1290.42 434.136 1344.23 434.136C1398.03 434.136 1410.01 365.839 1443.49 365.839V47.3877C1420.76 47.3877 1410.4 11.5518 1357.42 11.5518C1304.44 11.5518 1305.78 47.3877 1272.66 47.3877C1239.53 47.3877 1224.01 11.5518 1155.65 11.5518C1087.29 11.5518 1107.89 47.3877 1011.77 47.3877C961.869 47.3877 956.439 11.5518 870.152 11.5518C783.865 11.5518 769.954 47.7192 704.93 47.3877C639.906 47.0562 622.37 0.00136797 552.582 0.00136797Z" fill="white"/>
</svg>
