<svg width="1440" height="500" viewBox="0 0 1440 500" fill="none" xmlns="http://www.w3.org/2000/svg">
<g clip-path="url(#clip0_75_1549)">
<rect width="1440" height="500" fill="#F7D5D5"/>
<path d="M552.582 32.0014C445.112 32.0014 422.846 93.436 324.878 55.4962C226.91 17.5565 188.831 71.2799 129.871 66.2766C80.344 62.0739 84.8101 32 4.95911e-05 32L0 440.202C0 440.202 13.5381 417.973 69.55 417.973C125.562 417.973 123.68 466.136 194.664 466.136C265.649 466.136 251.221 426.177 324.878 426.177C398.536 426.177 378.801 480.961 467.029 480.961C532.82 480.961 545.615 417.973 604.534 417.973C663.453 417.973 690.32 480.961 752.876 480.961C852.185 480.961 846.768 417.973 935.256 417.973C1023.74 417.973 1022.15 466.136 1084.11 466.136C1154.71 466.136 1160.01 417.973 1232.96 417.973C1305.91 417.973 1290.42 466.136 1344.23 466.136C1398.03 466.136 1410.01 397.839 1443.49 397.839V79.3877C1420.76 79.3877 1410.4 43.5518 1357.42 43.5518C1304.44 43.5518 1305.78 79.3877 1272.66 79.3877C1239.53 79.3877 1224.01 43.5518 1155.65 43.5518C1087.29 43.5518 1107.89 79.3877 1011.77 79.3877C961.869 79.3877 956.439 43.5518 870.152 43.5518C783.865 43.5518 769.954 79.7192 704.93 79.3877C639.906 79.0562 622.37 32.0014 552.582 32.0014Z" fill="white"/>
</g>
<defs>
<clipPath id="clip0_75_1549">
<rect width="1440" height="500" fill="white"/>
</clipPath>
</defs>
</svg>
