<svg width="856" height="790" viewBox="0 0 856 790" fill="none" xmlns="http://www.w3.org/2000/svg">
<path d="M781.321 125.314C782.537 121.36 779.751 120.938 777.196 121.004C773.1 121.105 769.421 122.54 766.532 125.689C764.936 127.433 763.764 129.408 762.788 131.532C757.95 141.975 751.796 151.453 743.097 159.135C736.4 165.05 730.977 172.026 726.85 180.016C725.579 182.46 724.184 184.886 721.893 186.501C715.379 191.091 711.086 197.691 706.246 203.792C695.428 217.433 683.649 229.985 667.901 238.051C664.931 239.583 662.195 241.641 659.487 243.636C654.551 247.275 649.717 250.77 643.146 251.011C638.568 251.177 634.672 253.845 631.938 257.447C623.434 268.627 612.122 276.881 602.469 286.848C600.47 288.902 598.212 290.569 595.323 290.291C591.37 289.906 588.026 294.275 583.278 290.764C582.972 290.357 583.859 289.183 584.007 287.975C584.253 286.051 584.639 283.981 581.994 283.453C579.821 283.008 576.958 285.389 576.644 287.758C576.393 289.738 576.775 291.608 577.991 293.175C579.425 295.051 578.626 296.322 577.004 297.33C575.336 298.355 573.936 300.626 571.528 298.779C570.684 298.144 569.913 297.429 569.041 296.857C565.347 294.477 561.664 293.911 558.078 297.102C554.419 300.374 549.958 301.241 545.283 301.458C543.427 307.29 545.051 309.958 550.145 307.935C557.451 305.06 564.413 305.873 571.623 306.972C574.587 307.418 577.407 306.846 580.206 305.693C588.331 302.337 596.855 300.02 604.223 294.831C609.959 290.798 615.138 286.243 618.536 280.166C622.842 272.449 629.364 266.796 635.149 260.481C636.781 258.698 639.257 257.301 641.592 256.677C646.489 255.382 650.366 251.753 655.453 251.002C657.408 250.718 658.509 248.9 659.899 247.615C664.157 243.684 668.843 240.559 674.945 240.94C676.923 241.067 678.141 239.95 679.241 238.722C689.858 226.741 702.286 216.637 713.581 205.367C721.505 197.482 727.029 188.4 732.391 178.883C735.79 172.844 740.138 167.584 745.125 162.579C752.225 155.477 758.743 147.575 762.724 138.072C765.241 132.067 769.747 128.212 775.061 125.032C777.255 123.716 779.337 123.319 781.359 125.313L781.321 125.314Z" fill="white"/>
<path d="M850.152 245.42C849.355 249.281 847.508 252.585 844.757 255.303C838.212 261.802 832.263 269.109 822.441 270.963C820.116 271.4 818.663 273.495 817.344 275.46C814.999 278.992 813.122 282.74 811.529 286.693C808.478 294.3 803.154 296.542 795.052 295.834C789.56 295.352 783.86 293.955 778.293 296.066C776.747 296.652 775.55 297.303 776.334 299.243C777.58 302.29 775.517 304.066 773.688 305.741C765.607 313.097 756.567 318.737 745.708 320.801C737.564 322.359 730.046 325.498 722.926 329.677C718.73 332.131 714.433 334.35 709.828 335.874C703.842 337.869 701.124 336.165 700.271 329.947C699.773 326.329 699.226 322.65 695.983 320.439C693.575 318.801 694.857 316.666 694.687 314.703C694.543 313.057 694.802 311.061 692.546 310.674C690.6 310.352 689.395 311.647 688.662 313.272C688.15 314.408 687.606 315.701 687.679 316.877C688.198 327.055 682.303 333.491 674.695 338.417C667.853 342.857 659.379 341.635 653.056 336.183C650.996 334.399 649.179 332.328 647.251 330.377C645.307 328.419 643.392 326.188 640.713 325.569C635.441 324.35 633.126 319.955 630.032 316.327C628.774 314.854 628.532 313.258 629.626 311.666C633.077 306.641 633.987 300.356 637.603 295.426C636.713 295.227 635.882 295.398 635.324 296.094C630.387 302.284 626.763 309.114 625.754 317.125C625.414 319.844 626.201 322.11 628.675 323.645C630.52 324.777 631.599 326.605 632.701 328.424C634.546 331.48 636.584 334.357 638.97 337.089C644.737 343.734 647.631 354.83 640.167 363.117C639.34 364.032 638.668 365.19 638.225 366.339C637.504 368.274 637.873 370.215 639.464 371.535C640.802 372.663 642.306 371.791 643.554 371.069C649.172 367.8 654.91 364.682 660.299 361.042C664.047 358.496 668.071 356.839 672.305 355.639C684.851 352.045 697.176 347.645 708.45 341.107C715.692 336.908 723.894 335.681 731.11 331.832C741.852 326.097 754.167 324.187 764.52 317.435C768.091 315.112 771.396 312.459 773.937 309.245C776.045 306.575 778.65 304.514 780.888 302.056C784.692 297.879 789.908 299.263 792.608 304.519C794.722 308.65 795.316 308.961 799.112 306.894C803.434 304.535 807.14 301.494 808.203 296.25C808.509 294.734 809.389 293.576 810.283 292.386C811.799 290.359 813.672 288.419 814.557 286.121C817.096 279.44 822.031 275.554 828.315 273.105C832.865 271.327 836.655 268.267 840.862 265.913C846.771 262.625 850.164 256.851 853.872 251.506C855.792 248.75 855.257 248.181 850.174 245.373L850.152 245.42Z" fill="white"/>
<path d="M313.722 277.523C386.216 390.738 382.673 542.1 311.164 610.218C236.68 681.166 87.7644 614.843 14.0572 502.434C-59.65 390.025 -52.7096 242.786 32.6745 185.72C118.058 128.641 240.655 163.414 313.709 277.523L313.722 277.523Z" fill="#FEFEFE"/>
<path d="M226.117 187.31C227.831 210.038 208.224 187.494 196.909 184.106C154.207 171.294 128.436 161.526 84.2825 168.537C84.2882 167.124 87.2259 164.749 87.1345 163.066C-52.5154 202.474 -25.9386 375.716 -29.2676 396.748C-8.80965 460.944 -216.451 528.269 -270.11 504.102C-279.979 499.658 -320.36 441.658 -322.871 504.382C-329.167 571.798 -303.75 636.603 -267.846 691.599C-330.141 624.122 -344.903 516.407 -309.58 431.903C-293.343 409.233 -327.778 405.765 -339.798 392.221C-469.824 274.137 -204.305 64.8147 -52.7173 262.866C-47.8993 294.173 -131.036 212.635 -139.577 210.505C-164.045 187.248 -191.79 205.446 -216.15 217.123C-216.497 216.398 -216.886 215.741 -217.314 215.147C-224.746 204.827 -243.847 213.467 -257.121 211.217C-278.622 208.366 -322.749 221.492 -313.585 251.367C-309.2 263.16 -325.585 264.063 -329.525 271.762C-332.865 280.186 -321.68 280.26 -317.264 276.282C-295.182 265.228 -248.134 254.586 -230.287 267.955C-294.69 259.722 -413.639 331.922 -325.415 395.499C-311.165 405.764 -301.534 419.145 -285.833 423.337C-276.737 424.42 -271.839 429.371 -269.496 438.076C-267.041 447.168 -261.005 449.812 -252.2 446.223C-185.597 448.78 -128.446 399.258 -68.0714 383.262C-40.8017 376.033 -56.3178 346.493 -52.1432 310.653C-50.3881 295.584 -45.1521 279.401 -31.792 263.295C-4.28177 158.941 126.86 121.431 213.437 178.865L226.117 187.31Z" fill="#D2A3A3"/>
<path d="M11.0169 266.787C4.97695 261.63 12.79 254.185 15.1283 251.668C17.6332 248.976 23.5241 243.936 32.9053 231.311C42.2692 218.71 62.7977 205.837 65.2381 203.08C103.786 192.801 139.614 184.514 167.717 191.784C206.145 201.725 189.374 219.475 209.137 196.763C208.824 195.008 222.36 187.593 224.019 185.961C239.819 196.566 260.836 212.457 274.583 225.637C279.29 230.153 283.305 235.504 287.771 240.259C288.794 241.35 293.707 246.756 289.707 247.519C280.236 256.968 275.019 270.43 264.936 279.18C252.946 289.585 249.33 288.59 241.342 280.994C235.894 275.814 225.371 265.434 220.707 261.864C202.063 247.565 181.485 238.586 164.613 231.677C111.446 209.903 69.3124 220.359 52.4525 228.305C41.5584 233.446 24.3885 247.073 18.1195 255.855C11.8504 264.637 11.0169 266.787 11.0169 266.787Z" fill="#D2A3A3"/>
<path d="M-45.114 775.951C-46.0276 771.749 -32.486 744.66 -29.7368 739.876C-6.31172 699.171 42.9992 660.124 84.44 640.459C90.9513 637.352 91.473 626.561 90.0121 620.035C88.5484 613.516 81.5903 611.563 80.9109 605.502C87.0771 608.726 91.8539 612.929 97.3692 616.026C123.028 630.417 150.397 640.362 178.625 648.252C180.595 648.801 182.973 648.538 184.179 650.791C159.626 657.004 136.072 666.058 112.906 676.152C96.025 683.508 78.79 690.132 62.6999 699.154C48.477 707.12 34.5918 715.675 22.9838 727.39C20.8319 729.566 18.7852 731.804 17.6093 734.708C14.8043 741.629 9.36566 746.215 3.63724 750.599C-11.1422 761.909 -27.3481 770.415 -45.1001 775.989L-45.114 775.951Z" fill="#D2A3A3"/>
<path d="M316.333 308.265C309.442 315.58 300.104 316.369 293.545 309.085C288.714 303.704 282.516 300.208 277.501 295.233C274.316 292.068 272.954 288.692 276.33 284.57C277.678 282.918 278.233 280.612 279.539 277.743C275.123 280.633 270.554 290.226 271.108 293.932C271.276 295.055 271.803 295.95 272.585 296.696C277.146 301.086 279.808 306.842 283.208 312.01C286.863 317.587 287.444 327.422 279.337 333.133C277.27 332.313 276.691 330.279 275.783 328.577C267.365 312.797 256.41 298.812 245.073 285.096C243.379 283.037 240.349 281.462 241.354 277.927C250.52 274.757 259.327 270.689 265.086 262.649C269.841 256.006 275.357 250.304 281.387 244.94C285.969 240.867 287.982 241.066 291.809 245.628C303.061 259.049 313.178 273.234 321.995 288.37C323.926 291.681 324.115 294.774 322.418 298.092C320.13 297.252 319.521 295.037 318.622 293.179C313.133 281.814 305.017 272.285 297.373 262.422C296.892 261.798 296.411 261.187 295.534 261.338C294.475 261.518 294.081 262.369 293.817 263.27C293.373 264.796 293.758 266.278 294.091 267.773C295.346 273.212 297.972 277.997 301.137 282.536C306.031 289.535 310.556 296.777 314.875 304.139C315.617 305.392 316.862 306.542 316.333 308.278L316.333 308.265Z" fill="#D2A3A3"/>
<path d="M338.15 401.211C339.861 401.209 340.489 402.05 340.709 403.69C341.531 410.008 342.569 416.113 339.724 422.439C337.102 428.306 336.793 434.468 339.034 441.063C341.247 447.543 339.859 454.664 339.863 461.493C339.871 483.898 333.706 505.01 325.859 525.695C322.247 535.226 317.773 544.428 311.445 552.546C310.313 553.998 309.519 556.077 306.791 555.234C304.102 554.403 302.577 554.037 304.502 550.468C313.491 533.734 317.731 515.622 319.129 496.773C321.445 465.423 316.413 432.128 307.552 401.929C306.778 399.304 312.319 400.486 315.304 400.416C322.986 400.236 330.499 401.24 338.15 401.211Z" fill="#D2A3A3"/>
<path d="M283.166 338.36C288.692 335.859 293.976 332.936 299.231 329.91C306.135 325.938 314.249 325.449 321.665 322.852C322.937 322.407 324.293 322.181 325.607 321.852C331.281 327.291 332.422 337.826 327.968 343.503C325.549 345.322 325.367 347.516 326.237 350.347C329.182 359.867 331.482 369.545 333.5 380.434C323.579 375.121 312.787 382.359 303.914 384.174C303.773 378.181 286.553 344.475 283.153 338.361L283.166 338.36Z" fill="#D2A3A3"/>
<path d="M511.728 415.308C511.572 415.311 511.405 415.354 511.274 415.318C503.713 412.839 500.135 416.098 498.35 423.41C497.298 427.711 492.92 428.902 488.917 429.489C485.21 430.029 483.462 431.755 483.98 435.591C484.34 438.214 483.906 440.725 482.536 443.077C481.178 445.402 479.937 447.168 476.844 445.167C474.423 443.604 472.075 445.149 470.111 446.504C465.865 449.442 461.78 452.622 457.641 455.7C454.189 458.269 450.435 459.549 446.108 458.484C438.053 456.509 431.53 459.047 426.948 465.906C423.606 470.935 423.543 470.988 419.034 466.61C417.191 464.826 415.072 463.425 413.29 461.497C410.378 458.351 411.391 456.773 414.415 454.758C419.008 451.695 424.374 450.092 428.959 447.237C434.643 443.696 440.73 444.136 446.798 443.151C454.195 441.954 461.53 440.861 467.722 434.716C471.876 430.601 476.352 426.972 479.499 421.909C480.872 419.686 483.449 420.157 485.367 420.721C488.995 421.776 490.468 420.485 490.982 417.026C491.408 414.165 493.431 413.12 496.172 412.887C503.182 412.282 508.554 409.305 511.281 402.359C512.687 398.776 518.239 397.363 521.426 399.504C524.336 401.47 523.871 405.394 520.191 407.075C517.742 408.195 516.146 409.217 516.322 412.297C516.498 415.39 513.93 415.269 511.754 415.32L511.728 415.308Z" fill="#F8F8FF"/>
<path d="M233.454 225.161C233.455 227.134 167.175 197.74 148.248 197.74C91.8568 191.825 53.8699 200.184 25.4949 243.6C7.73306 270.717 -3.40823 296.406 -5.76616 328.941C-6.75648 342.506 -6.3604 356.064 -5.30622 369.503C-3.97383 386.513 -1.08907 403.408 2.94318 420.056C7.95193 440.763 14.144 461.092 23.9068 480.067C30.9272 493.729 40.1072 506.097 49.4001 518.306C60.1102 532.374 72.3929 544.979 85.3098 556.999C160.155 639.175 282.595 612.483 341.471 522.301C342.179 522.129 352.187 510.925 360.405 514.726C359.58 521.876 345.608 565.09 340.741 573.174C337.299 578.892 333.436 584.361 329.875 590.003C326.904 594.706 322.004 600.31 319.352 603.196C303.203 620.758 283.696 633.281 261.543 641.835C257.154 643.546 256.796 643.765 252.612 645.013C243.926 647.614 235.079 649.429 226.106 650.87C211.996 653.132 198.025 651.4 183.988 650.732C168.356 646.732 152.904 642.093 137.888 636.147C118.909 628.623 100.2 620.51 83.3325 608.556C90.8862 613.472 92.0649 620.623 90.6992 628.69C90.5521 629.6 90.406 630.549 90.6336 631.412C91.9259 636.229 89.254 639.44 85.4791 640.928C72.28 646.137 61.8185 655.907 49.1982 662.035C46.4434 663.369 44.387 665.75 41.9143 667.506C22.4379 681.323 6.48644 699.01 -10.477 715.542C-21.7018 726.471 -29.5221 740.002 -36.1353 754.165C-36.925 755.855 -37.5059 757.606 -37.32 759.454C-36.7569 765.221 -38.5248 769.953 -43.2631 773.46C-44.1292 774.102 -44.6112 775.098 -45.2917 775.918C-54.4388 778.75 -63.8054 780.512 -73.3493 781.345C-76.0652 781.577 -78.7466 782.172 -81.4628 782.391C-101.951 784.012 -122.041 782.203 -141.896 776.579C-164.373 770.213 -186.318 762.771 -205.984 749.769C-221.477 739.52 -236.354 728.426 -249.277 715.046C-254.55 709.597 -260.495 704.748 -264.969 698.542C-266.482 696.452 -268.035 694.338 -268.01 691.564C-269.994 687.062 -273.203 683.392 -276.221 679.589C-286.545 666.535 -292.953 651.356 -299.81 636.394C-305.928 623.048 -310.543 609.2 -314.477 595.089C-316.16 589.064 -318.358 583.22 -320.992 577.528C-322.549 574.144 -323.07 570.709 -322.797 566.893C-321.968 555.301 -324 543.815 -324.685 532.285C-325.453 519.462 -325.404 506.644 -322.496 494.162C-320.156 484.102 -303.588 460.688 -291.372 471.427C-278.408 482.839 -263.498 513.643 -244.873 498.08C-206.272 465.769 -112.093 468.177 -37.4239 424.982C-37.6424 423.015 -32.3264 421.303 -30.9739 415.867C-31.3119 401.471 -28.7939 380.661 -28.5168 392.459C-24.669 406.222 -17.994 428.504 -13.5672 442.084C-11.1234 449.582 -8.98745 457.216 -5.54134 464.353C-5.33703 464.776 -5.18422 465.213 -5.05732 465.651C-3.16443 471.762 -1.05378 477.764 3.19476 483.754C5.17302 476.944 2.84917 471.245 2.73975 465.481C2.57143 461.623 1.52664 457.967 0.108403 454.411C-3.06771 438.352 -9.29322 423.22 -14.1547 407.68C-20.5848 387.149 -21.6612 366.142 -20.5147 344.876C-20.2442 339.842 -20.4658 334.819 -20.6612 329.809C-21.4098 310.065 -16.8843 291.427 -9.10351 273.453C-6.36788 267.147 -6.18774 266.663 -3.25944 260.446C-2.97646 259.804 -0.286524 253.25 0.0488742 252.633C12.8708 224.899 39.6324 174.333 86.6338 163.193C115.989 156.235 210.084 156.786 233.454 225.161Z" fill="#F6D4D4"/>
<path d="M276.74 595.51C278.145 602.976 249.835 613.271 244.366 614.114C232.538 615.934 220.793 618.477 208.681 618.127C177.398 617.235 122.709 601.954 102.515 574.707C104.268 574.29 105.334 575.535 106.559 576.387C128.755 591.766 152.893 602.629 179.756 606.495C209.545 610.772 237.919 606.14 264.359 591.394C268.158 589.278 279.881 598.518 276.74 595.51Z" fill="#D2A3A3"/>
<path d="M511.558 600.898C512.149 603.437 511.281 605.634 510.905 607.859C509.495 616.237 512.27 623.481 516.668 630.336C517.152 631.09 517.664 631.894 517.839 632.732C518.101 633.957 517.894 635.089 516.643 635.896C515.341 636.743 514.413 636.376 513.419 635.441C510.955 633.153 508.285 630.948 507.313 627.615C506.327 624.268 504.148 622.531 501.18 620.852C492.276 615.825 483.117 611.505 473.352 608.456C468.679 606.997 465.508 603.845 464.101 599.148C462.667 594.361 461.4 589.532 460.172 584.688C459.615 582.472 460.148 580.36 461.941 578.893C463.06 577.972 464.46 576.89 466.065 577.902C467.446 578.776 467.18 580.169 466.981 581.586C466.246 586.748 469.153 590.231 474.175 589.97C481.397 589.593 487.679 593.308 494.558 594.364C498.421 594.96 502.31 596.126 505.719 592.832C507.214 591.385 508.666 592.517 509.55 593.766C511.078 595.907 512.093 598.307 511.544 600.859L511.558 600.898Z" fill="#F8F8FF"/>
<path d="M556.329 682.444C545.659 682.241 537.019 676.846 528.49 671.241C521.054 666.349 517.763 658.677 514.895 650.749C514.59 649.888 514.318 648.792 515.173 648.228C516.104 647.597 517.043 648.404 517.474 649.12C522.085 656.748 530.661 657.739 537.726 661.163C542.262 663.363 547.152 663.041 551.962 661.45C556.141 660.069 560.333 658.714 564.584 657.603C567.598 656.82 569.48 655.285 569.598 652.056C569.636 650.915 569.841 649.718 571.028 649.482C572.447 649.203 573.875 649.882 574.564 651.084C575.307 652.362 576.044 653.965 575.948 655.367C575.313 664.751 572.011 673.148 565.34 679.874C563.036 682.196 559.693 682.767 556.317 682.458L556.329 682.444Z" fill="#F8F8FF"/>
<path d="M327.973 343.502C330.852 335.893 328.962 328.797 325.611 321.852C327.903 320.671 330.236 319.592 332.908 319.698C336.306 320.344 336.472 323.58 337.42 325.864C342.473 337.952 347.063 350.22 350.728 362.808C353.829 373.477 356.712 384.217 358.989 395.101C359.383 396.958 360.35 398.956 358.524 400.671C353.094 395.136 346.246 391.02 344.191 382.438C340.988 369.088 337.768 355.596 328.941 344.438C328.661 344.095 328.291 343.819 327.96 343.502L327.973 343.502Z" fill="#F6D4D4"/>
<path d="M576.396 144.672C580.747 144.57 582.041 146.146 580.529 150.199C577.115 159.324 570.628 165.619 561.9 169.724C553.62 173.625 548.304 180.125 544.898 188.499C543.061 193.026 539.627 196.333 535.109 198.214C532.094 199.464 528.568 199.431 527.22 196.119C525.982 193.064 527.738 191.105 531.155 189.314C539.361 185.026 544.184 177.371 548.242 169.19C553.08 159.448 560.776 152.231 569.936 146.599C573.078 144.672 574.115 144.699 576.408 144.659L576.396 144.672Z" fill="#F8F8FF"/>
<path d="M605.298 653.654C605.504 652.483 604.812 651.152 606.043 650.592C607.274 650.031 607.938 651.299 608.616 652.008C614.502 658.207 621.345 661.014 629.976 658.829C632.707 658.142 634.971 659.631 636.543 662.005C637.994 664.187 637.758 666.291 636.369 668.397C635.431 669.819 633.15 670.922 634.664 673.038C636.298 675.306 638.755 676.181 641.531 675.74C643.454 675.436 645.202 674.812 647.279 675.528C652.022 677.166 653.394 679.298 651.954 683.647C650.647 687.617 646.794 689.625 642.922 688.096C640.228 687.032 637.894 685.299 635.798 683.248C630.373 677.92 624.791 673.088 617.538 669.928C610.847 667.001 606.153 661.358 605.285 653.642L605.298 653.654Z" fill="#F8F8FF"/>
<path d="M311.899 706.624C315.009 698.892 309.279 690.5 310.382 681.727C310.546 680.428 309.532 678.08 312.04 678.41C313.626 678.619 313.861 680.337 313.449 682.109C312.329 686.852 314.603 690.984 316.283 695.182C316.627 696.03 317.076 696.965 318.221 696.588C319.121 696.295 318.866 695.355 318.94 694.64C319.251 691.329 317.783 688.422 316.831 685.399C316.494 684.318 315.247 683.077 316.481 682.077C317.778 681.022 319.177 682.13 320.192 682.858C323.567 685.292 325.839 688.245 324.703 692.859C324.005 695.701 324.203 698.573 325.755 701.245C330.684 709.721 327.884 719.052 328.587 728.003C328.717 729.684 327.289 731.247 325.413 731.343C323.652 731.436 322.685 729.968 322.441 728.419C321.76 724.262 319.297 721.469 316.14 718.9C312.705 716.104 311.846 712.068 311.9 706.637L311.899 706.624Z" fill="#F8F8FF"/>
<path d="M534.924 61.6792C532.567 73.9027 528.353 84.835 518.143 92.6037C515.278 94.7832 512.508 94.3688 510.357 92.1516C507.927 89.6428 504.984 86.848 506.688 82.6872C507.472 80.7639 508.502 78.8348 510.365 77.6118C516.873 73.2993 521.358 67.2978 524.825 60.4261C525.023 60.0197 525.352 59.6751 525.576 59.281C526.907 56.9302 528.603 54.6356 531.562 55.3825C534.704 56.164 533.953 59.512 534.924 61.6921L534.924 61.6792Z" fill="#F8F8FF"/>
<path d="M518.864 5.19222C518.548 6.05492 518.397 6.82301 518.01 7.45411C514.366 13.397 511.437 20.0099 506.799 25.0301C502.881 29.2688 499.252 33.6563 495.677 38.1462C489.548 45.8579 483.352 53.5194 477.195 61.1929C475.445 63.3722 473.448 64.9482 470.581 63.1754C467.767 61.4402 469.338 59.3299 470.182 57.2238C473.94 47.8312 480.701 41.0507 488.985 35.6857C494.167 32.3243 497.37 27.4285 500.267 22.2289C502.256 18.6574 504.206 15.061 506.248 11.5142C506.684 10.7524 507.334 9.75224 508.069 9.56654C511.457 8.72242 514.068 6.78212 516.435 4.36808C516.789 3.99692 517.572 3.69344 517.99 3.83913C518.395 3.97217 518.581 4.73235 518.865 5.20517L518.864 5.19222Z" fill="#F8F8FF"/>
<path d="M316.332 308.264C309.659 297.782 302.985 287.3 296.324 276.804C294.346 273.689 293.433 270.133 292.573 266.603C292.028 264.361 291.985 261.991 294.085 260.334C295.344 259.333 296.779 258.651 297.888 260.608C303.009 269.533 311.125 276.34 315.673 285.693C317.729 289.921 320.156 293.959 322.417 298.079C322.303 302.617 320.481 306.132 316.332 308.264Z" fill="#F6D4D4"/>
<path d="M358.537 400.671C357.638 391.608 354.843 382.965 352.59 374.206C347.899 355.98 341.691 338.282 333.966 321.112C333.733 320.586 333.283 320.169 332.922 319.698C335.286 316.636 336.702 316.797 338.526 320.525C350.779 345.623 357.652 372.364 363.137 399.552C365.366 410.579 366.303 421.793 367.137 433.034C363.004 422.596 361.408 411.45 358.537 400.658L358.537 400.671Z" fill="#D2A3A3"/>
<path d="M387.162 237.921C390.678 237.541 394.298 238.259 397.603 240.488C398.195 240.889 398.989 241.013 399.681 241.269C401.446 241.901 404.639 238.833 404.939 242.234C405.292 246.204 408.476 250.457 403.918 254.491C399.488 258.417 394.884 259.925 389.36 258.124C385.025 256.697 381.086 254.534 378.225 250.766C376.125 248.003 375.242 245.147 376.889 241.907C378.462 238.812 381.227 237.892 384.494 237.984C385.247 238.005 386.01 237.948 387.162 237.921Z" fill="#F8F8FF"/>
<path d="M210.721 680.115C211.147 683.902 209.104 686.296 206 687.677C203.269 688.895 197.577 686.579 196.145 683.542C194.822 680.722 192.969 678.498 190.971 676.199C189.306 674.294 187.863 671.879 188.562 669.102C189.215 666.521 189.45 663.315 192.832 662.73C196.949 662.011 201.118 662.963 203.543 666.34C205.887 669.616 207.697 673.305 210.159 676.578C210.787 677.418 210.563 678.914 210.734 680.115L210.721 680.115Z" fill="#F8F8FF"/>
<path d="M395.59 601.885C392.509 601.465 389.794 598.444 386.551 596.629C381.64 593.893 377.569 589.945 376.172 583.978C375.452 580.911 376.421 579.152 379.175 577.752C386.833 573.879 392.387 578.622 394.65 585.035C396.108 589.199 397.256 593.371 399.946 597.027C401.74 599.447 399.803 601.967 395.59 601.898L395.59 601.885Z" fill="#F8F8FF"/>
<path d="M605.144 241.991C601.566 241.919 597.534 242.96 596.834 237.43C596.436 234.278 603.21 225.307 605.485 226.705C611.795 230.561 617.191 226.896 622.989 226.022C626.682 225.468 628.27 227.984 626.863 231.542C626.228 233.164 625.212 234.6 623.78 235.424C617.974 238.748 612.075 241.906 605.131 241.991L605.144 241.991Z" fill="#F8F8FF"/>
<path d="M613.294 80.6893C609.762 80.9537 607.194 79.757 605.92 76.8194C604.372 73.2532 606.123 70.0113 607.578 66.8412C607.726 66.5137 608.872 66.2276 609.11 66.4294C612.191 69.0395 613.619 66.3883 615.339 64.5726C615.756 64.1352 616.118 63.5306 616.644 63.3109C619.581 62.0238 622.634 59.0494 625.779 61.6191C629.095 64.3274 626.177 67.5578 624.905 70.2053C623.607 72.8923 621.642 75.2969 619.78 77.6732C618.094 79.8121 615.787 80.9159 613.307 80.689L613.294 80.6893Z" fill="#F8F8FF"/>
<path d="M456.976 648.429C456.921 648.858 456.954 650.257 456.569 651.536C454.994 656.756 450.408 660.674 446.651 660.153C442.607 659.587 437.735 652.963 437.737 648.09C437.743 646.133 438.424 644.795 440.589 644.822C443.427 644.846 445.888 643.687 448.348 642.463C453.817 639.73 456.747 641.45 456.963 648.442L456.976 648.429Z" fill="#F8F8FF"/>
<path d="M270.186 61.5196C270.009 52.8674 273.356 49.1604 281.795 48.1847C284.677 47.8579 286.26 49.0518 286.352 51.8357C286.576 58.6078 283.663 64.2484 279.081 68.8915C276.397 71.5981 274.096 69.0604 272.158 67.1362C270.566 65.5538 270.013 63.5063 270.186 61.5196Z" fill="#F8F8FF"/>
<path d="M366.878 749.431C366.901 750.416 366.899 750.882 366.922 751.335C367.088 753.962 366.034 757.11 369.257 758.615C372.127 759.96 374.634 758.553 376.741 756.69C378.886 754.786 379.556 755.691 380.411 757.899C382.964 764.513 381.876 769.541 377.291 771.255C373.193 772.79 366.701 768.964 364.61 763.804C362.547 758.721 363.281 754.103 366.891 749.431L366.878 749.431Z" fill="#F8F8FF"/>
<path d="M430.643 107.357C432.157 108.384 432.759 108.617 433.093 109.049C434.39 110.755 435.458 112.648 434.836 114.853C433.211 120.683 436.091 128.546 427.395 131.278C425.362 131.921 423.789 131.686 422.496 130.149C420.536 127.797 416.957 126.598 417.164 122.719C417.211 121.966 417.354 121.432 418.495 121.457C422.501 121.544 430.793 114.313 431.208 110.454C431.283 109.792 430.969 109.086 430.617 107.358L430.643 107.357Z" fill="#F8F8FF"/>
<path d="M313.967 135.626C313.8 126.883 316.393 124.139 324.088 123.492C324.954 123.42 325.529 123.601 326.049 124.237C328.796 127.541 326.309 141.362 322.644 143.133C320.197 144.317 315.79 142.075 314.587 138.851C314.075 137.464 314.025 135.91 313.967 135.626Z" fill="#F8F8FF"/>
<path d="M210.227 84.5036C214.369 83.7455 215.356 86.6121 215.789 89.5954C216.42 93.818 213.915 97.5182 210.254 98.3299C206.012 99.2588 198.843 95.7987 197.142 91.8085C196.346 89.9223 196.073 87.6739 198.726 86.9766C202.513 85.9806 206.398 85.3192 210.227 84.5166L210.227 84.5036Z" fill="#F8F8FF"/>
<path d="M631.312 41.8945C628.365 41.7045 625.782 40.9359 624.925 38.118C624.04 35.1972 624.513 32.6981 627.841 30.9612C630.593 29.51 632.883 27.1367 635.204 24.9829C637.157 23.1876 639.09 22.7016 641.315 24.2303C643.608 25.8222 642.485 27.6758 641.58 29.4335C640.007 32.5416 638.356 35.5997 636.757 38.6955C635.568 41.0301 633.443 41.6112 631.311 41.8816L631.312 41.8945Z" fill="#F8F8FF"/>
<path d="M458.777 163.1C452.715 163.204 452.098 159.02 450.697 155.631C449.365 152.423 451.444 151.014 453.822 149.623C456.289 148.191 458.607 146.478 461.047 144.97C462.299 144.202 463.658 143.042 465.165 144.29C466.684 145.537 467.49 147.281 466.34 149.096C464.078 152.635 462.545 156.338 462.075 160.587C461.84 162.73 459.79 163.167 458.777 163.1Z" fill="#F8F8FF"/>
<path d="M621.156 199.421C619.339 199.296 617.325 198.526 616.114 196.611C614.835 194.607 616.036 192.751 617.191 191.156C620.654 186.345 625.29 183.994 631.342 184.552C633.887 184.79 634.925 185.932 634.426 188.419C633.477 193.249 626.325 199.365 621.156 199.421Z" fill="#F8F8FF"/>
<path d="M309.259 124.359C306.228 124.43 301.673 120.286 301.21 117.148C301.072 116.231 301.215 115.684 302.17 115.506C308.208 114.392 313.471 111.146 319.245 109.274C321.74 108.463 322.53 108.419 321.889 111.479C320.642 117.444 314.22 124.268 309.272 124.358L309.259 124.359Z" fill="#F8F8FF"/>
<path d="M525.409 318.612C523.826 315.773 522.933 313.642 524.836 310.786C526.751 307.916 529.171 306.667 532.492 306.809C534.204 306.873 536.035 307.024 536.649 308.914C537.235 310.689 537.058 312.507 535.642 314.031C534.466 315.29 533.143 316.318 531.508 316.784C529.835 317.264 528.881 318.051 528.861 319.931C528.798 323.885 525.999 324.987 522.753 325.296C520.168 325.552 517.98 324.553 518.055 321.649C518.131 318.835 520.207 317.827 522.856 318.089C523.714 318.173 524.562 318.438 525.422 318.612L525.409 318.612Z" fill="#F8F8FF"/>
<path d="M618.971 538.39C624.962 541.891 630.195 542.325 635.507 540.089C636.996 539.47 637.753 540.243 638.415 541.394C639.536 543.337 640.08 545.54 638.946 547.446C635.805 552.755 630.472 554.694 626.017 549.836C623.211 546.792 620.614 543.807 618.971 538.377L618.971 538.39Z" fill="#F8F8FF"/>
<path d="M430.573 654.608C430.392 656.271 431.354 658.594 428.796 659.509C426.458 660.355 425.094 658.585 423.842 657.138C421.166 654.077 418.578 650.937 416.105 647.717C415.009 646.278 414.047 644.5 415.392 642.719C416.573 641.162 418.46 641.493 420.035 641.78C425.644 642.815 430.407 648.651 430.573 654.595L430.573 654.608Z" fill="#F8F8FF"/>
<path d="M173.249 149.122C169.6 152.627 164.499 153.758 160.44 156.639C159.788 157.108 158.955 156.622 158.563 155.866C158.021 154.79 158.118 153.59 159.197 153.066C166.34 149.561 166.529 144.243 163.337 137.943C162.653 136.601 163.481 135.827 164.657 135.697C169.557 135.143 171.196 139.25 173.657 142.177C175.709 144.61 175.328 146.872 173.239 149.114L173.249 149.122Z" fill="#F8F8FF"/>
<path d="M343.289 57.6129C341.39 62.2837 344.086 67.2873 340.971 71.4942C339.577 73.38 338.219 74.5782 335.805 74.4146C333.248 74.2414 332.213 72.6588 331.462 70.4734C329.612 65.1002 332.492 60.2638 338.233 59.7402C340.212 59.5642 341.358 58.1636 343.289 57.6129Z" fill="#F8F8FF"/>
<path d="M120.033 132.598C114.355 132.537 110.283 129.069 106.1 125.889C105.731 125.613 105.45 124.712 105.636 124.358C105.822 123.978 106.695 123.633 107.138 123.752C111.443 124.947 115.388 122.988 119.498 122.516C124.628 121.916 127.27 124.614 126.062 128.88C125.2 131.907 122.858 132.636 120.032 132.585L120.033 132.598Z" fill="#F8F8FF"/>
<path d="M734.366 457.651C728.099 457.85 723.616 452.383 724.968 446.494C725.309 445.022 725.976 443.594 727.688 444.784C730.257 446.577 733.324 446.933 736.086 448.112C738.442 449.119 741.731 450.105 741.062 453.101C740.394 456.084 737.707 458.091 734.366 457.651Z" fill="#F8F8FF"/>
<path d="M308.659 139.21C308.774 144.132 306.226 147.095 301.571 147.515C297.096 147.905 292.901 144.738 292.35 140.565C292.114 138.808 293.032 138.191 294.486 138.818C297.653 140.156 299.753 138.512 301.687 136.458C303.179 134.868 304.895 134.012 306.962 134.857C308.899 135.641 308.543 137.593 308.659 139.223L308.659 139.21Z" fill="#F8F8FF"/>
<path d="M584.92 112.47C581.217 112.609 579.491 110.291 580.865 106.993C583.16 101.496 587.775 98.2778 593.047 95.9899C594.407 95.4008 595.8 95.6661 595.887 97.7115C595.998 100.262 588.754 111.291 586.262 112.231C585.71 112.438 585.075 112.44 584.92 112.47Z" fill="#F8F8FF"/>
<path d="M231.06 108.001C230.774 109.057 230.522 109.918 230.296 110.805C229.538 113.816 229.496 117.549 225.224 117.74C222.544 117.855 219.662 112.091 220.086 108.09C220.436 104.803 224.185 100.517 226.734 100.936C230.806 101.618 229.785 105.595 231.047 108.001L231.06 108.001Z" fill="#F8F8FF"/>
<path d="M246.371 148.792C242.563 148.869 235.594 143.499 234.751 140.15C234.48 139.08 234.799 138.308 235.909 138.14C238.892 137.694 241.853 136.328 244.863 137.022C248.68 137.892 248.34 141.606 249.379 144.445C250.721 148.081 249.556 149.249 246.371 148.792Z" fill="#F8F8FF"/>
<path d="M418.562 748.944C423.184 748.213 425.76 748.632 425.607 753.184C425.463 757.516 423.69 760.37 420.402 760.525C417.541 760.657 411.423 755.073 412 752.066C412.797 747.913 416.995 749.564 418.562 748.944Z" fill="#F8F8FF"/>
<path d="M414.7 604.467C414.486 606.39 413.199 608.442 410.419 608.702C406.98 609.029 402.801 604.915 402.738 601.651C402.656 597.623 405.84 597.47 408.387 597.229C411.568 596.934 414.816 600.577 414.7 604.467Z" fill="#F8F8FF"/>
<path d="M416.155 100.648C418.426 100.802 420.372 99.7846 422.258 98.4315C423.086 97.8289 424.179 96.8961 425.115 97.5869C426.196 98.3779 425.92 99.8487 425.493 100.973C424.358 103.98 423.038 106.823 419.887 108.388C417.812 109.421 415.963 109.037 414.365 107.766C412.754 106.482 412.124 104.475 412.427 102.485C412.719 100.573 413.885 99.4704 416.155 100.648Z" fill="#F8F8FF"/>
<path d="M398.747 636.487C399.42 639.219 397.862 639.657 395.704 639.358C392.233 638.882 389.048 635.147 388.778 631.37C388.639 629.313 388.651 627.083 390.902 626.357C393.024 625.672 394.566 627.333 395.77 628.938C397.455 631.166 398.05 633.847 398.747 636.487Z" fill="#F8F8FF"/>
<path d="M312.062 177.573C311.56 179.36 311.266 181.194 310.54 182.818C309.308 185.568 307.019 186.866 304.273 185.246C301.618 183.675 301.644 180.928 302.999 178.447C303.694 177.16 304.913 176.082 306.056 175.109C307.276 174.07 308.632 172.224 310.148 172.784C312.018 173.466 311.145 176.039 312.062 177.586L312.062 177.573Z" fill="#F8F8FF"/>
<path d="M434.913 572.945C432.49 572.976 430.33 570.94 428.584 568.337C428.168 567.725 427.748 566.958 427.758 566.258C427.788 563.678 429.82 563.008 431.787 562.884C435.112 562.664 440.535 567.357 440.092 570.024C439.729 572.197 438.32 573.474 434.913 572.945Z" fill="#F8F8FF"/>
<path d="M624.925 105.077C620.977 105.247 619.449 103.08 620.532 100.1C621.445 97.6036 622.952 95.5467 625.052 93.9424C626.364 92.9397 627.928 92.7993 629.346 93.5694C630.973 94.4513 631.042 96.2768 630.478 97.6119C629.177 100.74 628.106 104.251 624.925 105.09L624.925 105.077Z" fill="#F8F8FF"/>
<path d="M451.013 83.437C450.769 81.3304 451.855 79.5944 452.827 77.9258C454.048 75.8497 455.544 73.3136 458.452 74.6578C461.046 75.8539 460.244 78.6588 459.774 80.7562C459.4 82.4496 458.244 84.0188 457.256 85.5322C456.33 86.9535 455.027 88.267 453.17 87.572C451.431 86.913 450.913 85.2535 451.013 83.437Z" fill="#F8F8FF"/>
<path d="M575.303 12.9644C573.541 13.0057 572.589 11.6415 572.973 9.20923C573.638 4.99501 576.617 2.70914 580.156 1.10989C581.284 0.603925 582.887 0.423752 583.552 2.26122C584.716 5.46059 579.652 12.7845 575.303 12.9644Z" fill="#F8F8FF"/>
<path d="M714.418 523.929C718.912 523.824 721.394 525.774 722.122 529.178C722.617 531.512 721.138 533.089 718.353 533.115C714.557 533.152 710.295 530.453 710.45 527.69C710.616 524.822 712.577 523.895 714.418 523.916L714.418 523.929Z" fill="#F8F8FF"/>
<path d="M66.5812 112.754C69.3434 113.389 70.1057 112.745 72.1343 115.25C73.8691 117.387 74.4458 119.874 72.4436 121.8C70.6946 123.474 65.0001 125.429 63.2507 123.772C60.3884 121.079 60.9097 120.17 60.8393 117.142C60.7689 114.114 63.8191 112.119 66.5812 112.754Z" fill="#F8F8FF"/>
<path d="M397.751 117.227C397.949 117.39 398.369 117.601 398.558 117.933C399.138 118.892 397.252 127.437 396.258 128.147C394.779 129.192 393.241 130.46 391.287 129.482C389.229 128.455 389.698 126.383 389.748 124.633C389.818 122.674 395.729 117.196 397.738 117.227L397.751 117.227Z" fill="#F8F8FF"/>
<path d="M360.035 73.8328C358.585 73.9057 357.18 73.6407 356.69 72.123C356.075 70.2066 355.865 67.8531 357.481 66.5971C360.026 64.6065 363.471 65.6271 366.474 64.9475C367.067 64.8169 367.278 66.0431 367.244 66.8214C367.13 69.7138 362.874 73.8568 360.022 73.8331L360.035 73.8328Z" fill="#F8F8FF"/>
<path d="M365.483 494.73C362.286 490.477 363.22 485.544 363.577 480.883C363.844 477.378 365.229 473.976 366.785 470.739C368.414 478.852 367.798 486.836 365.496 494.73L365.483 494.73Z" fill="#D2A3A3"/>
<path d="M602.332 631.928C606.063 631.866 609.482 635.103 609.539 638.627C609.561 640.686 608.64 641.745 606.607 641.78C603.679 641.809 599.326 637.441 599.428 634.627C599.501 632.759 600.557 631.956 602.332 631.928Z" fill="#F8F8FF"/>
<path d="M533.221 358.989C530.772 358.995 528.764 357.915 528.925 355.397C529.169 351.413 532.725 351.109 535.646 350.755C537.649 350.514 539.647 351.193 539.698 353.9C539.761 356.581 536.669 358.999 533.221 358.989Z" fill="#F8F8FF"/>
<path d="M527.43 350.832C525.178 350.962 524.014 349.953 523.999 347.66C523.99 345.625 528.997 340.869 531.177 341.012C532.839 341.128 533.935 341.997 534.005 343.9C534.133 347.137 530.796 350.714 527.43 350.832Z" fill="#F8F8FF"/>
<path d="M505.156 204.011C508.885 203.897 510.549 205.206 510.62 208.223C510.716 212.873 506.718 211.477 504.375 212.141C502.392 212.706 499.869 211.728 500.176 209.376C500.561 206.464 502.529 204.189 505.156 204.011Z" fill="#F8F8FF"/>
<path d="M544.035 383.433C541.801 383.175 539.532 383.138 539.423 380.16C539.322 377.531 542.515 374.968 545.891 375.265C548.008 375.448 550.486 376.129 550.213 378.844C549.855 382.364 546.864 383.03 544.023 383.434L544.035 383.433Z" fill="#F8F8FF"/>
<path d="M416.863 658.597C416.969 660.888 415.693 661.191 413.935 660.817C410.952 660.162 406.778 655.154 406.798 652.147C406.817 650.177 407.815 648.521 409.837 649.652C413.343 651.617 415.723 654.736 416.863 658.597Z" fill="#F8F8FF"/>
<path d="M572.362 343.842C571.733 346.85 570.016 348.769 567.128 348.824C564.615 348.883 561.894 347.807 561.751 345.011C561.586 341.866 564.178 340.743 567.056 340.792C569.376 340.841 571.576 341.256 572.362 343.829L572.362 343.842Z" fill="#F8F8FF"/>
<path d="M439.588 617.011C439.314 618.573 438.844 620.074 436.644 620.216C433.824 620.399 429.893 617.446 429.61 614.796C429.391 612.65 430.123 611.233 432.544 611.151C434.732 611.073 439.381 614.787 439.589 617.024L439.588 617.011Z" fill="#F8F8FF"/>
<path d="M406.826 779.076C406.778 779.79 407.577 782.376 404.838 782.725C402.474 783.027 401.837 780.761 401.119 778.86C400.082 776.098 400.126 773.544 401.896 771.131C402.398 770.446 403.171 770.233 403.883 770.735C406.386 772.49 406.978 775.068 406.8 779.077L406.826 779.076Z" fill="#F8F8FF"/>
<path d="M547.31 718.475C547.157 720.215 546.356 721.413 544.114 720.299C540.809 718.653 538.764 715.993 537.722 712.428C537.045 710.111 538.485 710.168 539.899 710.238C542.468 710.373 547.228 715.535 547.31 718.475Z" fill="#F8F8FF"/>
<path d="M25.1449 160.997C24.9854 155.97 38.0242 160.928 38.0242 160.928C38.0242 160.928 39.3591 161.696 39.9263 162.464C42.1574 165.485 36.0675 168.658 31.5763 167.235C28.9392 166.403 25.2559 164.494 25.1449 160.997Z" fill="#F8F8FF"/>
<path d="M510.167 700.971C512.873 700.881 517.875 705.831 517.703 708.465C517.619 709.854 516.848 710.663 515.384 710.684C512.857 710.704 508.506 705.869 508.545 703.108C508.557 701.968 508.781 701.016 510.167 700.971Z" fill="#F8F8FF"/>
<path d="M732.965 424.625C735.277 424.843 737.554 424.66 737.929 426.867C738.305 429.061 735.949 429.194 734.472 429.722C731.516 430.789 728.069 429.69 725.292 431.738C724.783 432.113 724.066 431.923 723.893 431.175C723.806 430.801 723.932 430.112 724.175 429.976C727.337 428.321 729.715 425.285 732.965 424.625Z" fill="#F8F8FF"/>
<path d="M509.136 744.847C511.752 744.786 516.212 752.067 515.091 754.53C514.512 755.813 513.474 755.76 512.418 755.487C510.514 754.987 506.665 748.339 507.165 746.435C507.414 745.484 508.088 744.911 509.136 744.86L509.136 744.847Z" fill="#F8F8FF"/>
<path d="M583.599 384.268C581.786 384.311 580.521 383.433 580.738 381.614C581.114 378.314 583.592 376.804 586.505 376.127C588.206 375.724 589.432 376.602 589.644 378.476C589.891 380.712 586.241 384.18 583.612 384.268L583.599 384.268Z" fill="#F8F8FF"/>
<path d="M295.851 162.118C293.917 161.957 292.933 160.347 293.013 158.777C293.135 156.26 293.746 153.589 297 153.098C298.808 152.822 299.861 153.498 299.869 155.506C299.871 157.812 297.481 161.989 295.864 162.105L295.851 162.118Z" fill="#F8F8FF"/>
<path d="M545.173 462.96C547.976 463.089 549.86 464.418 550.369 466.804C550.82 468.88 548.694 469.953 547.214 469.82C544.941 469.614 542.014 469.125 541.711 466.178C541.509 464.174 543.417 463.209 545.173 462.96Z" fill="#F8F8FF"/>
<path d="M431.788 723.687C429.265 723.837 425.694 720.215 425.784 717.971C425.852 716.479 426.694 715.332 428.125 715.014C429.813 714.624 433.602 719.252 433.616 721.493C433.626 723.048 432.679 723.563 431.788 723.687Z" fill="#F8F8FF"/>
<path d="M295.743 173.784C295.008 175.563 295.887 178.808 292.775 179.27C290.877 179.548 289.339 177.536 289.58 175.652C289.898 173.195 290.607 170.289 293.777 170.059C295.795 169.908 295.636 171.985 295.744 173.797L295.743 173.784Z" fill="#F8F8FF"/>
<path d="M769.905 528.561C770.559 526.589 771.171 523.97 773.824 523.804C775.804 523.68 776.4 525.908 776.128 527.56C775.766 529.81 774.931 532.318 772.188 532.486C769.923 532.617 769.874 530.545 769.905 528.561Z" fill="#F8F8FF"/>
<path d="M446.425 171.866C445.251 173.759 445.374 176.802 442.231 177.044C440.11 177.21 439.363 175.738 439.409 173.832C439.477 171.225 441.045 169.556 443.392 169.086C444.953 168.777 446.072 170.099 446.425 171.866Z" fill="#F8F8FF"/>
<path d="M488.792 396.615C488.041 396.632 487.278 396.728 486.525 396.655C485.434 396.551 483.69 397.317 483.521 395.637C483.382 394.163 484.984 393.957 486.214 393.902C487.807 393.839 489.166 393.224 490.375 392.301C491.509 391.445 492.589 390.564 493.99 391.711C494.928 392.466 495.043 393.513 494.731 394.596C494.264 396.214 492.962 396.491 491.511 396.499C490.604 396.507 489.697 396.541 488.791 396.563L488.792 396.627L488.792 396.615Z" fill="#F8F8FF"/>
<path d="M431.435 34.4583C430.575 37.6015 428.631 39.2152 425.549 39.3264C423.814 39.393 422.159 38.4341 422.586 36.7653C423.441 33.4279 427.14 34.2222 429.468 32.9494C430.492 32.3941 431.458 33.2267 431.422 34.4586L431.435 34.4583Z" fill="#F8F8FF"/>
<path d="M554.242 289.802C556.081 289.785 558.218 289.722 558.094 291.617C557.912 294.342 555.212 295.261 552.988 296C551.329 296.544 549.626 295.211 549.759 293.717C549.986 291.211 552.017 289.997 554.242 289.815L554.242 289.802Z" fill="#F8F8FF"/>
<path d="M338.338 89.0635C337.497 91.2992 336.63 93.6003 333.548 93.6597C331.696 93.7032 331.229 92.6126 331.309 91.0169C331.482 87.3455 334.837 88.3941 336.784 87.4284C337.809 86.9248 338.401 87.8569 338.338 89.0635Z" fill="#F8F8FF"/>
<path d="M515.727 361.072C514.126 360.747 512.515 360.033 512.772 358.29C513.063 356.34 514.958 355.336 516.754 355.139C518.344 354.959 519.753 355.898 519.578 357.833C519.371 360.079 517.41 360.449 515.728 361.085L515.727 361.072Z" fill="#F8F8FF"/>
<path d="M283.558 204.198C283.53 201.892 283.855 200.265 286.027 200.084C287.993 199.922 288.858 201.417 288.66 202.938C288.452 204.563 288.482 206.921 286.076 207.12C283.761 207.317 283.689 205.362 283.558 204.198Z" fill="#F8F8FF"/>
<path d="M753.746 371.397C755.986 369.685 758.255 369.166 760.691 369.186C761.728 369.201 763.046 369.027 763.196 370.449C763.33 371.755 762.072 372.251 761.106 372.481C758.67 373.044 756.167 373.517 753.746 371.397Z" fill="#F8F8FF"/>
<path d="M371.392 735.252C373.487 735.63 374.605 736.874 374.821 738.878C374.967 740.131 374.88 741.429 373.184 741.482C371.048 741.558 369.851 740.264 369.468 738.304C369.174 736.807 369.874 735.702 371.379 735.239L371.392 735.252Z" fill="#F8F8FF"/>
<path d="M462.504 627.487C462.508 628.187 462.153 628.545 461.457 628.717C460.13 629.033 454.894 625.139 454.848 623.74C454.832 623.041 455.187 622.696 455.896 622.536C457.275 622.219 462.432 626.063 462.504 627.5L462.504 627.487Z" fill="#F8F8FF"/>
<path d="M553.172 342.906C551.81 342.86 550.052 343.031 549.919 341.246C549.788 339.512 551.283 338.609 552.91 338.402C554.513 338.196 555.582 339.039 555.788 340.641C556.041 342.605 554.674 342.857 553.171 342.893L553.172 342.906Z" fill="#F8F8FF"/>
<path d="M406.512 45.3334C407.801 45.5882 408.145 46.4484 407.739 47.378C406.977 49.1323 406.817 51.7019 404.701 52.0885C403.062 52.3861 403.571 50.3267 403.559 49.2515C403.537 47.2175 404.607 45.8706 406.525 45.3201L406.512 45.3334Z" fill="#F8F8FF"/>
<path d="M532.151 296.8C533.497 296.716 534.577 296.898 534.551 298.013C534.492 299.92 533.208 300.986 531.374 301.237C530.147 301.408 529.291 300.832 529.363 299.457C529.459 297.472 531.218 297.366 532.151 296.8Z" fill="#F8F8FF"/>
<path d="M470.13 676.499C469.581 676.317 469.218 676.3 469.032 676.123C467.586 674.68 465.411 673.668 465.842 671.053C465.955 670.338 466.516 669.949 467.146 670.297C469.418 671.578 470.885 673.332 470.13 676.512L470.13 676.499Z" fill="#F8F8FF"/>
<path d="M272.794 179.221C272.328 180.321 272.236 181.955 270.472 181.88C269.084 181.822 268.296 180.817 268.562 179.437C268.815 178.07 269.655 176.871 271.184 176.887C272.403 176.898 272.817 177.964 272.807 179.208L272.794 179.221Z" fill="#F8F8FF"/>
<path d="M366.931 749.962C369.627 745.039 372.138 744.902 376.332 750.221C372.367 747.476 369.553 747.957 366.931 749.962Z" fill="#F8F8FF"/>
<path d="M342.635 120.439C341.526 120.698 341.225 120.018 341.116 119.23C340.862 117.228 341.522 115.553 343.475 114.86C344.337 114.554 344.606 115.546 344.689 116.334C344.862 118.17 344.221 119.572 342.635 120.439Z" fill="#F8F8FF"/>
<path d="M366.795 469.365C364.191 467.21 365.084 464.921 366.519 462.607C370.094 464.713 368.529 467.043 366.795 469.365Z" fill="#D2A3A3"/>
<path d="M327.369 548.62L327.197 549.013C327.259 548.894 327.334 548.776 327.396 548.658L327.369 548.633L327.369 548.62Z" fill="#F6D4D4"/>
<path d="M94.4352 565.103C94.1038 564.787 93.7724 564.471 93.4277 564.142C93.7591 564.458 94.0905 564.774 94.4352 565.103Z" fill="#D2A3A3"/>
<path d="M601.333 394.962C599.564 394.665 598.111 395.674 596.522 396.106C590.508 397.746 584.485 398.068 578.683 395.558C573.287 393.235 568.663 394.465 565.018 398.582C561.514 402.553 557.04 404.538 552.392 406.366C546.548 408.674 540.521 410.593 534.827 413.237C526.211 417.224 517.163 417.986 507.902 418.346C496.348 418.776 488.905 413.134 484.376 402.906C481.834 397.132 480.278 391.01 478.427 385C476.065 384.431 477.678 382.942 477.698 381.809L477.749 381.947C475.818 380.756 476.083 378.745 475.794 376.88C475.344 373.988 474.606 371.194 473.583 368.363C470.334 359.351 463.099 354.127 456.603 347.929C450.211 341.835 442.884 338.531 434.599 336.805C429.378 335.724 424.226 336.16 419.142 338.036C406.716 342.617 394.862 348.395 383.064 354.427C371.507 360.34 360.72 367.597 349.014 373.214C344.161 375.539 340.396 379.505 335.551 382.062C331.226 384.343 326.442 386.433 322.83 389.974C317.728 394.984 310.426 396.89 305.872 402.607C305.225 403.415 304.384 404.362 303.479 404.614C295.611 406.773 290.963 413.534 284.705 417.975C282.788 419.343 280.718 420.259 278.586 421.185C272.817 423.661 270.594 427.592 271.969 433.612C274.047 442.715 277.355 451.43 280.647 460.139C281.682 462.899 283.891 464.312 286.391 464.45C293.775 464.829 300.134 468.108 306.506 471.279C311.328 473.663 316.059 474.119 321.103 472.415C322.279 472.022 323.554 471.616 324.761 471.656C326.53 471.744 328.095 472.576 328.344 474.576C328.591 476.536 326.992 477.116 325.574 477.418C316.816 479.17 308.176 482.08 299.054 480.332C298.428 480.217 297.81 480.124 297.18 480.101C294.646 480.081 291.603 479.809 291.25 483.227C290.937 486.263 294.097 487.237 296.039 487.233C303.54 487.227 310.005 491.317 317.335 492.109C322.723 492.696 328.182 493.582 333.545 493.681C340.813 493.816 347.575 495.909 354.558 497.094C354.975 497.172 355.495 497.105 355.78 497.351C357.459 498.768 361.274 498.747 361.018 500.82C360.615 503.93 357.168 501.796 355.227 502.467C349.38 504.488 343.14 502.615 337.348 504.642C336.119 505.069 334.868 505.085 333.639 504.635C327.292 502.333 320.442 503.36 314.002 501.681C312.615 501.331 311.078 501.521 309.614 501.592C308.273 501.643 306.144 500.723 305.973 502.816C305.751 505.399 308.316 504.557 309.724 504.86C312.588 505.488 315.488 505.867 318.402 506.214C328.681 507.445 338.165 511.567 347.895 514.641C354.193 516.636 359.841 520.617 365.113 524.806C370.273 528.907 372.456 534.516 372.532 540.912C372.582 544.648 369.9 546.711 366.661 548.005C360.258 556.988 352.77 563.531 340.719 559.754C340.166 560.814 340.226 561.851 341.174 562.591C347.602 567.558 353.351 573.281 361.073 576.671C367.298 579.413 372.645 584.189 378.432 587.986C382.505 590.655 386.603 593.182 391.877 592.098C394.788 591.491 397.168 590.641 397.223 587.048C397.265 584.154 398.615 583.04 401.588 583.09C405.099 583.159 408.493 581.898 412.177 582.503C415.899 583.106 418.534 580.811 418.157 576.924C417.235 567.514 422.982 563.581 430.208 560.631C441.513 556.03 452.993 552.042 464.883 549.195C471.132 547.701 477.426 546.152 482.959 542.235C485.497 540.448 487.813 538.863 488.603 535.855C490.687 527.843 496.526 523.247 503.086 519.307C506.927 517.013 510.383 514.276 513.207 510.811C515.375 508.13 514.876 507.273 511.356 506.305C509.224 505.727 507.279 505.863 505.207 506.531C501.222 507.807 497.152 508.853 493.152 510.122C491.193 510.747 489.477 510.416 487.676 509.647C485.118 508.55 482.405 508.257 479.656 508.672C478.648 508.819 477.58 509.224 477.207 510.385C476.813 511.595 477.73 512.32 478.306 513.174C479.942 515.563 483.065 514.444 485.468 516.346C481.911 521.855 477.836 526.174 470.64 525.463C467.735 525.177 464.83 525.52 461.909 524.561C457.854 523.234 454.187 525.684 450.448 526.748C448.754 527.247 449.145 529.14 449.956 530.559C450.8 532.032 450.79 533.475 449.314 534.492C442.334 539.364 436.835 546.133 428.434 549.306C422.754 551.46 418.195 549.16 413.229 548.138C411.025 547.679 408.95 546.556 406.612 546.226C404.521 545.933 401.89 545.164 401.964 542.742C402.05 539.791 401.424 536.248 404.657 534.132C405.804 533.383 407.619 533.453 407.867 531.397C406.359 530.019 404.363 530.436 402.578 530.132C398.715 529.464 395.184 528.396 393.568 524.246C392.901 522.55 391.568 521.577 389.977 520.885C388.027 520.028 386.186 519.012 384.917 517.23C382.918 514.39 380.057 513.382 376.776 513.096C375.744 513.003 374.681 512.477 374.484 511.282C374.326 510.296 375.234 509.912 375.914 509.406C380.972 505.747 381.002 505.723 378.343 499.876C377.327 497.657 377.109 495.673 378.128 493.245C380.129 488.47 377.889 484.7 372.864 484.565C367.376 484.409 362.181 482.349 356.662 482.598C355.413 482.653 354.067 482.169 353.633 480.751C353.12 479.087 354.027 477.828 355.397 477.085C356.866 476.293 358.472 475.697 360.033 475.118C369.078 471.727 378.155 468.389 386.456 463.304C389.761 461.279 393.697 461.199 397.237 459.948C398.337 459.558 399.981 459.17 399.507 457.505C399.043 455.94 397.462 456.148 396.296 456.603C388.596 459.602 380.306 459.017 372.378 460.806C366.864 462.047 361.561 459.767 357.229 456.085C354.173 453.502 354.363 451.742 356.183 447.912C358.609 442.779 359.469 437.023 362.236 431.97C364.26 428.271 365.731 424.338 368.333 420.905C372.356 415.571 372.392 408.885 372.682 402.639C373.187 391.693 379.648 383.917 385.377 375.634C385.603 375.3 386.008 375.029 386.372 374.891C394.217 371.863 401.822 368.155 410.082 366.422C412.52 365.903 415.031 365.684 417.48 365.056C422.31 363.787 427.127 362.588 432.197 364.381C434.98 365.353 438.056 364.841 440.964 364.576C444.851 364.226 448.051 365.028 449.998 368.777C452.085 372.801 453.027 377.232 449.983 380.767C445.657 385.771 444.934 391.723 443.73 397.74C443.035 401.249 443.257 404.435 444.571 407.666C445.53 410.01 446.905 412.393 447.085 414.837C447.493 420.832 451.575 422.895 456.251 423.555C462.841 424.484 468.33 426.602 471.744 432.739C472.533 434.167 473.905 434.34 475.554 434.277C483.935 433.99 492.289 433.805 500.343 437.004C502.594 437.904 505.427 437.261 507.743 438.058C520.165 442.309 532.026 447.427 541.925 456.691C547.94 462.326 554.136 468.101 563.509 468.497C569.699 468.767 574.896 467.685 578.876 463.075C583.43 457.776 588.752 457.171 594.772 459.323C597.999 460.48 601.372 459.267 604.651 460.352C606.407 460.929 607.578 459.124 608.366 457.543C596.684 454.869 585.043 451.813 572.872 453.446C565.78 454.382 559.508 450.952 555.888 444.226C555.007 442.584 554.314 440.819 553.539 439.111C552.501 439.492 551.521 439.576 550.596 438.828C546.674 435.657 542.656 432.615 538.882 429.283C535.925 426.689 536.064 425.21 539.355 422.798C542.221 420.704 545.36 418.964 548.337 416.997C552.896 413.986 558.409 412.706 562.684 409.24C564.444 407.801 566.121 407.257 568.358 407.35C578.454 407.773 587.672 404.291 596.828 400.57C599.386 399.534 601.047 397.897 601.235 395.012L601.333 394.962Z" fill="white"/>
<path d="M39.6331 549.959C42.8311 549.288 44.4771 551.504 46.0639 553.41C54.29 563.234 63.2633 572.315 72.8945 580.719C89.9077 595.559 107.686 609.305 128.109 619.27C128.922 619.666 129.774 620.074 130.474 620.64C131.689 621.623 131.98 622.951 131.221 624.316C130.388 625.813 129.232 625.697 127.728 625.098C114.085 619.677 101.288 612.786 89.7099 603.689C71.6628 589.521 55.0985 573.932 41.9921 554.944C40.986 553.491 39.7101 552.134 39.6335 549.972L39.6331 549.959Z" fill="#D2A3A3"/>
<path d="M73.6515 190.324C73.808 192.575 73.6897 194.159 71.5096 194.029C68.2394 193.833 66.1697 191.783 65.5814 188.803C65.1538 186.597 66.8639 184.924 69.1233 185.117C72.473 185.389 73.1742 188.21 73.6515 190.324Z" fill="#FEFEFE"/>
<path d="M81.6882 199.349C83.0117 200.498 82.307 203.313 80.5982 203.703C79.1184 204.04 77.5692 202.843 77.523 201.326C77.4683 199.526 80.3286 198.169 81.6882 199.349Z" fill="#FEFEFE"/>
<path d="M257.974 232.181C253.507 230.76 256.491 224.22 257.006 220.217C257.137 219.19 257.828 218.254 259.107 218.107C260.412 217.947 260.965 218.854 261.608 219.733C264.593 223.784 262.799 233.717 257.974 232.181Z" fill="#FEFEFE"/>
<path d="M259.741 246.167C259.759 244.158 259.749 242.097 262.222 241.987C265.393 241.835 266.617 242.446 267.514 244.562C268.657 247.26 265.525 250.748 263.323 250.786C260.46 250.828 259.847 248.445 259.741 246.167Z" fill="#FEFEFE"/>
<path d="M241.188 248.236C243.955 252.046 238.753 252.187 236.914 252.126C233.359 252.002 232.694 249.763 232.26 247.7C232.024 246.604 232.921 244.203 234.659 244.46C237.381 244.863 238.421 244.426 241.188 248.236Z" fill="#FEFEFE"/>
<path d="M280.013 275.689L280.321 275.539L280.303 275.876L280.013 275.689Z" fill="#FEFEFE"/>
<path d="M323.338 391.744C323.191 388.823 323.07 385.893 322.907 382.963C322.811 381.08 322.48 379.369 320.295 378.713C318.448 378.171 317.241 376.908 316.749 374.944C316.422 373.593 315.905 372.123 314.161 372.435C312.268 372.795 311.326 374.832 311.97 376.053C313.783 379.423 311.399 379.359 309.48 379.727C308.392 379.938 307.211 379.68 306.124 379.85C299.051 380.921 295.764 388.583 299.662 394.832C299.718 394.925 300.394 394.624 300.793 394.496C308.311 393.573 315.446 389.458 323.33 391.719L323.338 391.744Z" fill="#F8F8FF"/>
<path d="M323.334 391.746C315.45 389.485 308.315 393.6 300.797 394.522C298.852 398.312 301.407 400.804 303.611 402.966C305.48 404.806 307.995 406.077 310.422 407.196C318.482 410.94 325.106 406.116 324.414 397.03C324.284 395.255 323.713 393.524 323.342 391.771L323.334 391.746Z" fill="#D7D3CD"/>
<path d="M359.823 361.835C356.734 360.139 353.824 360.937 352.396 363.88C350.653 367.437 352.436 372.773 355.922 374.508C359.112 376.089 362.449 375.07 364.035 372.021C365.827 368.53 364.004 364.123 359.823 361.835Z" fill="#F8F8FF"/>
<path d="M261.909 703.097C261.413 697.712 251.084 692.356 245.369 697.712C225.442 733.806 254.856 712.931 261.909 710.775C261.909 710.775 262.406 708.482 261.909 703.097Z" fill="#F8F8FF"/>
<path d="M257.797 707.819C249.913 705.558 239.221 705.105 238.615 714.002C238.379 717.467 239.225 720.284 241.429 722.446C243.298 724.286 245.813 725.557 248.24 726.676C256.3 730.42 262.924 725.596 262.232 716.51C262.102 714.735 261.831 710.324 261.831 710.324C261.459 708.571 257.797 707.819 257.797 707.819Z" fill="#D7D3CD"/>
<path d="M299.313 682.063C296.225 680.367 293.314 681.165 291.886 684.108C290.143 687.666 291.927 693.001 295.412 694.736C298.602 696.317 301.939 695.298 303.525 692.249C305.317 688.759 303.495 684.351 299.313 682.063Z" fill="#F8F8FF"/>
</svg>
