<svg width="1045" height="816" viewBox="0 0 1045 816" fill="none" xmlns="http://www.w3.org/2000/svg">
<path fill-rule="evenodd" clip-rule="evenodd" d="M1044.24 426.382C1050.3 506.56 894.42 479.38 821.797 513.768C783.397 531.951 736.523 545.15 715.446 582.071C678.193 647.326 704.659 738.542 659.289 798.43C616.282 855.199 550.496 750.589 479.451 754.674C410.061 758.664 300.825 814.572 250.629 766.469C200.642 718.565 242.455 684.661 195.384 633.884C147.988 582.755 48.551 592.197 15.5285 530.774C-16.0815 471.978 33.1898 399.734 33.5973 332.954C34.0011 266.76 -28.5622 183.777 17.9332 136.69C77.4289 76.4364 202.864 152.927 266.505 97.0795C320.258 49.91 337.965 -5.44551 409.087 1.55973C512.382 11.7338 455.418 89.5627 526.545 93.2525C584.98 96.2839 562.844 52.3773 645.603 69.8195C684.12 77.9371 684.46 77.6804 702.997 93.2526C742.426 126.375 724.42 187.357 724.42 223.361C724.42 259.365 783.016 162.508 755.631 314.61C738.786 408.169 1037.07 331.597 1044.24 426.382Z" fill="#260981"/>
</svg>
