<svg width="867" height="738" viewBox="0 0 867 738" fill="none" xmlns="http://www.w3.org/2000/svg">
<path fill-rule="evenodd" clip-rule="evenodd" d="M739.81 480.198C733.263 537.346 658.088 497.22 602.435 511.594C573.008 519.194 591.551 595.858 571.767 618.957C536.8 659.784 459.177 653.753 419.232 689.714C381.367 723.804 325.687 743.396 275.228 736.692C225.945 730.144 181.227 694.831 152.45 654.271C123.793 613.879 141.748 553.612 115.527 511.594C89.124 469.285 17.9981 462.519 3.08069 414.915C-11.1986 369.347 33.1532 325.23 42.4421 278.366C51.6496 231.915 18.8863 165.183 57.8966 138.366C107.814 104.051 136.165 162.41 188.402 131.75C232.521 105.853 242.164 -13.0694 291.182 1.43646C362.374 22.5042 400.049 53.4761 399.886 86.9415C399.723 120.407 469.45 68.2304 503.294 90.3015C541.734 115.37 473.394 131.758 545.002 200.165C623.025 274.701 830.37 56.5948 863.389 159.387C897.185 264.6 630.775 240.294 591.032 343.466C566.586 406.928 747.551 412.638 739.81 480.198Z" fill="#F7D5D5"/>
</svg>
