<svg width="943" height="745" viewBox="0 0 943 745" fill="none" xmlns="http://www.w3.org/2000/svg">
<path fill-rule="evenodd" clip-rule="evenodd" d="M863.931 416.562C868.946 482.888 740.014 460.408 679.946 488.858C648.185 503.901 609.415 514.821 591.981 545.365C561.167 599.349 583.054 674.806 545.528 724.35C509.955 771.314 441.471 720.968 382.71 724.35C325.317 727.652 192.212 764.142 150.697 724.35C109.354 684.722 125.138 670.6 86.2073 628.595C47.0072 586.3 40.3907 553.761 13.0795 502.949C-13.0636 454.311 27.691 394.546 28.0299 339.302C28.3659 284.542 -23.3781 215.897 15.0796 176.942C64.2903 127.096 168.035 190.369 220.675 144.168C265.136 105.145 254.411 86.3156 280.055 86.3156C365.489 94.7292 326.206 203.548 417.614 163.562C452.887 148.133 471.782 155.643 480.93 144.168C490.078 132.692 485.478 78.9049 581.699 140.989C686.54 208.636 874.485 -84.2357 934.375 25.3063C995.675 137.427 687.845 167.872 665.19 293.699C651.255 371.097 858.002 338.15 863.931 416.562Z" fill="#403292"/>
</svg>
