<svg width="842" height="813" viewBox="0 0 842 813" fill="none" xmlns="http://www.w3.org/2000/svg">
<path d="M759.755 303.327C761.179 300.598 759.211 299.907 757.346 299.604C754.355 299.115 751.485 299.659 748.956 301.568C747.559 302.626 746.437 303.911 745.438 305.331C740.497 312.313 734.731 318.407 727.361 322.836C721.687 326.246 716.794 330.609 712.705 335.891C711.447 337.507 710.103 339.091 708.217 339.959C702.857 342.424 698.837 346.666 694.487 350.468C684.763 358.969 674.49 366.541 661.944 370.281C659.577 370.995 657.308 372.126 655.068 373.214C650.984 375.199 646.994 377.094 642.186 376.367C638.837 375.86 635.641 377.278 633.162 379.539C625.457 386.556 616.11 391.044 607.734 397.015C606.001 398.244 604.132 399.155 602.071 398.554C599.251 397.728 596.225 400.468 593.253 397.244C593.086 396.904 593.891 396.166 594.163 395.302C594.604 393.927 595.168 392.464 593.318 391.714C591.799 391.09 589.394 392.439 588.842 394.131C588.389 395.546 588.412 396.968 589.081 398.282C589.868 399.853 589.114 400.674 587.797 401.189C586.445 401.71 585.118 403.181 583.62 401.497C583.093 400.916 582.631 400.286 582.075 399.748C579.715 397.497 577.116 396.576 574.074 398.42C570.968 400.313 567.609 400.335 564.181 399.85C562.037 403.866 562.853 406.043 566.831 405.261C572.533 404.161 577.481 405.714 582.571 407.51C584.664 408.244 586.792 408.212 588.984 407.753C595.346 406.413 601.856 405.888 607.919 403.102C612.638 400.937 617.024 398.314 620.322 394.332C624.505 389.273 630.016 386.031 635.082 382.202C636.511 381.12 638.501 380.438 640.283 380.302C644.019 380.028 647.332 377.903 651.131 378.052C652.59 378.114 653.639 376.934 654.824 376.184C658.455 373.891 662.287 372.247 666.669 373.365C668.089 373.73 669.128 373.08 670.094 372.332C679.445 365.018 689.856 359.329 699.602 352.63C706.437 347.945 711.69 342.055 716.886 335.823C720.18 331.869 724.058 328.616 728.365 325.636C734.494 321.412 740.309 316.523 744.499 310.111C747.148 306.06 750.949 303.857 755.244 302.26C757.019 301.598 758.586 301.593 759.783 303.331L759.755 303.327Z" fill="white"/>
<path d="M793.593 400.682C792.486 403.4 790.693 405.565 788.323 407.177C782.679 411.036 777.36 415.568 769.969 415.575C768.219 415.575 766.877 416.909 765.65 418.167C763.464 420.431 761.589 422.917 759.892 425.593C756.636 430.743 752.461 431.653 746.67 430.02C742.745 428.912 738.792 427.106 734.458 427.886C733.256 428.103 732.297 428.414 732.601 429.943C733.091 432.345 731.349 433.362 729.792 434.337C722.916 438.612 715.576 441.499 707.403 441.517C701.272 441.538 695.38 442.803 689.635 444.884C686.251 446.105 682.825 447.138 679.271 447.621C674.648 448.259 672.906 446.638 673.134 441.967C673.266 439.249 673.37 436.481 671.315 434.416C669.789 432.885 671.012 431.498 671.156 430.037C671.276 428.812 671.736 427.387 670.15 426.793C668.779 426.29 667.727 427.072 666.973 428.161C666.446 428.923 665.874 429.794 665.766 430.665C664.755 438.19 659.592 442.091 653.391 444.653C647.813 446.963 641.821 444.903 637.971 440.041C636.717 438.453 635.679 436.686 634.544 434.992C633.398 433.291 632.311 431.395 630.449 430.573C626.784 428.955 625.701 425.419 623.947 422.337C623.234 421.086 623.276 419.884 624.289 418.868C627.482 415.664 629.001 411.187 632.301 408.074C631.682 407.806 631.055 407.817 630.554 408.25C626.122 412.104 622.556 416.607 620.729 422.333C620.111 424.278 620.374 426.045 621.963 427.509C623.149 428.591 623.684 430.078 624.236 431.562C625.16 434.053 626.249 436.44 627.61 438.769C630.894 444.427 631.483 452.95 624.928 457.991C624.202 458.548 623.555 459.303 623.077 460.084C622.289 461.401 622.292 462.873 623.268 464.058C624.087 465.068 625.299 464.637 626.305 464.28C630.833 462.659 635.429 461.164 639.842 459.24C642.913 457.891 646.064 457.231 649.304 456.934C658.912 456.028 668.47 454.501 677.555 451.263C683.391 449.184 689.519 449.414 695.289 447.588C703.878 444.865 713.088 445.16 721.533 441.639C724.445 440.429 727.21 438.941 729.495 436.937C731.391 435.271 733.565 434.121 735.527 432.628C738.861 430.093 742.464 431.824 743.708 436.044C744.681 439.359 745.071 439.668 748.111 438.676C751.574 437.544 754.682 435.826 756.17 432.133C756.6 431.065 757.397 430.338 758.209 429.59C759.588 428.314 761.213 427.151 762.17 425.59C764.927 421.047 769.044 418.88 773.945 417.951C777.494 417.275 780.666 415.555 784.045 414.41C788.787 412.815 792.041 409.053 795.465 405.65C797.237 403.896 796.926 403.405 793.615 400.65L793.593 400.682Z" fill="white"/>
<path d="M614.116 279.01C614.316 276.079 615.34 273.455 617.084 271.172C621.232 265.717 624.862 259.726 631.874 257.371C633.534 256.815 634.39 255.122 635.16 253.539C636.526 250.696 637.528 247.741 638.301 244.662C639.778 238.74 643.456 236.551 649.463 236.26C653.534 236.064 657.851 236.523 661.719 234.405C662.793 233.817 663.605 233.217 662.838 231.864C661.621 229.739 662.955 228.221 664.128 226.801C669.316 220.559 675.378 215.487 683.128 212.873C688.939 210.906 694.135 207.833 698.936 204.033C701.765 201.8 704.692 199.731 707.914 198.143C712.101 196.069 714.262 197.054 715.507 201.558C716.233 204.179 717 206.84 719.597 208.147C721.524 209.114 720.798 210.819 721.118 212.251C721.388 213.452 721.397 214.951 723.088 215.01C724.547 215.052 725.3 213.976 725.675 212.703C725.937 211.812 726.207 210.804 726.036 209.943C724.641 202.481 728.319 197.138 733.402 192.737C737.973 188.773 744.303 188.824 749.479 192.214C751.167 193.323 752.705 194.67 754.312 195.916C755.931 197.167 757.557 198.621 759.581 198.809C763.565 199.18 765.7 202.192 768.328 204.559C769.397 205.52 769.733 206.674 769.09 207.96C767.063 212.015 767.022 216.746 764.864 220.749C765.536 220.806 766.128 220.597 766.468 220.027C769.468 214.962 771.442 209.555 771.383 203.54C771.361 201.499 770.558 199.905 768.593 199.021C767.128 198.37 766.156 197.129 765.167 195.897C763.511 193.827 761.731 191.907 759.71 190.13C754.822 185.804 751.596 177.903 756.239 171.036C756.753 170.277 757.131 169.355 757.34 168.462C757.676 166.961 757.212 165.566 755.915 164.751C754.822 164.053 753.807 164.847 752.964 165.506C749.174 168.483 745.281 171.361 741.695 174.589C739.203 176.845 736.419 178.473 733.437 179.784C724.603 183.697 716.011 188.182 708.403 194.142C703.515 197.969 697.628 199.698 692.724 203.264C685.425 208.577 676.592 211.223 669.68 217.247C667.295 219.32 665.138 221.611 663.597 224.239C662.319 226.422 660.615 228.205 659.22 230.244C656.85 233.71 652.89 233.212 650.388 229.603C648.427 226.766 647.961 226.596 645.386 228.503C642.454 230.678 640.042 233.296 639.786 237.274C639.712 238.424 639.183 239.367 638.647 240.335C637.738 241.983 636.559 243.604 636.14 245.389C634.946 250.576 631.717 253.94 627.357 256.379C624.2 258.149 621.728 260.788 618.88 262.949C614.879 265.969 612.968 270.572 610.784 274.89C609.652 277.118 610.101 277.484 614.105 279.047L614.116 279.01Z" fill="white"/>
<path d="M399.169 350.485C436.404 443.35 413.175 553.694 351.911 593.739C288.1 635.448 188.927 566.411 150.701 473.969C112.475 381.527 137.611 274.67 207.449 244.624C277.29 214.569 361.64 256.886 399.16 350.483L399.169 350.485Z" fill="white"/>
<path d="M347.823 272.387C345.967 289.265 334.794 270.062 327.033 266.025C297.749 250.773 280.353 240.078 247.308 239.141C247.505 238.107 249.964 236.771 250.127 235.527C143.261 245.182 138.935 375.687 133.646 390.63C139.753 440.448 -20.3341 461.196 -56.0324 436.123C-62.598 431.513 -84.0298 383.491 -94.4138 429.074C-108.189 477.572 -98.5605 528.518 -79.9726 573.724C-116.037 515.751 -112.066 434.85 -74.8641 377.831C-59.9712 363.464 -84.5229 356.19 -91.4097 344.62C-169.791 240.279 51.7351 123.515 134.874 289.374C134.103 312.961 84.8108 241.826 78.8945 239.092C64.2865 218.699 41.6402 228.209 22.3432 233.41C22.1899 232.831 21.9967 232.297 21.7668 231.803C17.7738 223.225 2.71358 226.925 -6.62613 223.453C-21.8622 218.409 -55.7221 221.953 -53.1394 245.088C-51.562 254.326 -63.5924 252.735 -67.5064 257.83C-71.0832 263.539 -62.9648 265.132 -59.2125 262.826C-41.6569 257.768 -6.01264 256.444 5.13304 268.687C-40.5477 253.804 -136.845 290.315 -81.4042 348.998C-72.4495 358.474 -67.2759 369.595 -56.4379 374.824C-49.9748 376.867 -47.091 381.166 -46.5765 387.862C-46.0327 394.857 -42.0069 397.623 -35.118 396.206C12.9355 407.235 61.227 378.832 107.286 375.42C128.09 373.876 120.845 350.113 128.77 324.444C132.102 313.651 138.115 302.522 150.022 292.565C184.255 219.937 284.679 210.502 339.76 264.46L347.823 272.387Z" fill="#D2A3A3"/>
<path d="M180.649 301.006C176.963 296.399 183.657 292.022 185.7 290.5C187.887 288.874 192.856 285.994 201.397 278.039C209.921 270.099 226.597 263.496 228.746 261.813C258.164 259.586 285.332 258.444 304.763 267.632C331.333 280.194 316.724 290.885 334.185 276.972C334.197 275.644 345.046 272.076 346.475 271.108C356.509 281.046 369.615 295.571 377.807 307.112C380.611 311.066 382.799 315.537 385.396 319.632C385.991 320.571 388.823 325.205 385.812 325.214C377.639 330.831 372.011 339.971 363.489 344.992C353.356 350.962 350.864 349.736 346.095 343.076C342.843 338.533 336.612 329.486 333.71 326.231C322.111 313.197 308.382 303.794 297.064 296.415C261.396 273.162 229.35 275.025 216.013 278.525C207.394 280.792 193.056 288.409 187.302 293.977C181.548 299.546 180.649 301.006 180.649 301.006Z" fill="#D2A3A3"/>
<path d="M70.3735 666.111C70.2829 662.909 83.8205 644.935 86.4714 641.81C109.05 615.226 150.214 593.415 183.014 584.713C188.17 583.333 190.022 575.504 189.851 570.524C189.676 565.55 184.886 563.163 185.22 558.631C189.261 561.84 192.159 565.575 195.744 568.601C212.428 582.666 230.961 593.71 250.398 603.368C251.755 604.042 253.519 604.176 254.088 605.991C235.396 607.165 217.044 610.556 198.831 614.762C185.559 617.827 172.13 620.308 159.205 624.701C147.782 628.579 136.524 632.934 126.489 639.916C124.628 641.213 122.836 642.571 121.585 644.536C118.602 649.218 114.024 651.828 109.262 654.251C96.9781 660.5 84.04 664.5 70.3783 666.141L70.3735 666.111Z" fill="#D2A3A3"/>
<path d="M396.869 373.353C390.863 377.762 383.969 377.056 380.196 370.821C377.42 366.216 373.392 362.804 370.426 358.472C368.544 355.717 368.015 353.058 371.031 350.503C372.236 349.479 372.954 347.867 374.295 345.946C370.691 347.455 366.061 353.851 365.958 356.64C365.927 357.486 366.188 358.214 366.654 358.868C369.37 362.709 370.519 367.289 372.284 371.541C374.18 376.128 373.26 383.409 366.589 386.476C365.199 385.591 365.055 384.022 364.628 382.651C360.664 369.939 354.611 358.193 348.244 346.591C347.293 344.85 345.306 343.281 346.519 340.83C353.612 339.769 360.568 338.001 365.851 332.906C370.213 328.696 375 325.279 380.113 322.181C383.999 319.829 385.435 320.251 387.593 324.118C393.94 335.491 399.356 347.269 403.698 359.564C404.65 362.254 404.365 364.545 402.679 366.741C401.131 365.811 400.991 364.106 400.591 362.622C398.153 353.545 393.555 345.452 389.346 337.179C389.081 336.656 388.815 336.143 388.157 336.132C387.363 336.119 386.96 336.688 386.645 337.311C386.115 338.368 386.192 339.505 386.23 340.646C386.4 344.801 387.656 348.666 389.336 352.425C391.938 358.223 394.238 364.147 396.372 370.132C396.741 371.151 397.489 372.164 396.867 373.363L396.869 373.353Z" fill="#D2A3A3"/>
<path d="M400.04 444.411C401.284 444.645 401.626 445.347 401.562 446.578C401.297 451.317 401.218 455.93 398.287 460.171C395.581 464.106 394.516 468.576 395.244 473.713C395.968 478.762 393.988 483.785 393.059 488.786C390.008 505.193 382.646 519.804 374.121 533.871C370.196 540.353 365.688 546.476 359.982 551.55C358.961 552.458 358.1 553.871 356.233 552.879C354.392 551.901 353.334 551.423 355.22 549.074C364.036 538.057 369.589 525.378 373.176 511.769C379.138 489.132 380.024 464.061 377.705 440.73C377.501 438.701 381.367 440.329 383.546 440.688C389.153 441.612 394.476 443.38 400.04 444.411Z" fill="#D2A3A3"/>
<path d="M368.658 390.833C373.016 389.761 377.254 388.347 381.486 386.854C387.046 384.895 393.009 385.653 398.753 384.771C399.738 384.62 400.754 384.641 401.754 384.581C405.135 389.343 404.527 397.214 400.516 400.758C398.509 401.757 398.078 403.339 398.323 405.531C399.164 412.907 399.516 420.31 399.496 428.561C393.011 423.306 384.18 427.122 377.484 427.232C378.2 422.824 370.285 395.776 368.649 390.831L368.658 390.833Z" fill="#D2A3A3"/>
<path d="M524.261 478.597C524.148 478.579 524.02 478.587 523.93 478.543C518.773 475.688 515.729 477.582 513.434 482.691C512.082 485.695 508.738 485.966 505.748 485.845C502.981 485.731 501.475 486.754 501.328 489.634C501.232 491.604 500.574 493.383 499.257 494.917C497.953 496.433 496.81 497.555 494.836 495.665C493.289 494.187 491.372 494.996 489.76 495.718C486.273 497.285 482.87 499.052 479.442 500.737C476.583 502.143 473.681 502.565 470.681 501.19C465.097 498.637 460.01 499.598 455.744 503.99C452.629 507.213 452.576 507.243 449.897 503.418C448.801 501.858 447.452 500.54 446.42 498.884C444.733 496.18 445.684 495.163 448.157 494.104C451.913 492.493 456.031 492.057 459.753 490.597C464.367 488.785 468.731 489.944 473.275 490.058C478.814 490.198 484.294 490.407 489.632 486.758C493.213 484.317 496.961 482.274 499.939 479C501.24 477.561 503.048 478.26 504.365 478.937C506.857 480.208 508.104 479.465 508.95 477.003C509.65 474.967 511.263 474.479 513.287 474.686C518.463 475.206 522.774 473.765 525.703 469.055C527.214 466.624 531.442 466.353 533.465 468.359C535.312 470.198 534.438 473.008 531.535 473.732C529.603 474.216 528.303 474.745 528.011 477.024C527.717 479.313 525.867 478.872 524.278 478.61L524.261 478.597Z" fill="white"/>
<path d="M347.989 301.111C347.72 302.555 303.564 271.919 289.808 269.317C249.634 257.233 220.887 258.131 194.341 286.02C177.733 303.433 166.13 320.711 159.977 344.21C157.406 354.006 155.844 363.989 154.776 373.974C153.424 386.612 153.214 399.379 153.873 412.124C154.688 427.974 156.413 443.711 160.919 458.948C164.157 469.916 169.14 480.234 174.228 490.452C180.092 502.225 187.298 513.144 195.045 523.721C238.223 594.182 330.847 591.472 385.941 533.534C386.479 533.505 395.281 526.677 400.735 530.591C399.16 535.712 383.109 565.434 378.469 570.684C375.187 574.397 371.633 577.87 368.276 581.512C365.474 584.547 361.148 587.977 358.827 589.726C344.695 600.365 328.81 606.852 311.543 610.07C308.12 610.719 307.83 610.83 304.619 611.168C297.951 611.879 291.274 611.991 284.557 611.813C273.994 611.53 264.077 608.34 253.967 605.921C243.153 600.843 232.556 595.322 222.455 588.904C209.688 580.785 197.2 572.272 186.572 561.2C191.391 565.838 191.272 571.236 189.179 576.955C188.947 577.602 188.712 578.277 188.759 578.94C189.041 582.644 186.661 584.628 183.715 585.199C173.412 587.198 164.476 592.913 154.468 595.665C152.284 596.264 150.465 597.724 148.428 598.67C132.388 606.109 118.382 616.867 103.798 626.64C94.1497 633.099 86.6199 641.931 79.8811 651.393C79.0766 652.522 78.4156 653.723 78.2984 655.102C77.9207 659.402 75.9902 662.624 72.0682 664.54C71.3511 664.892 70.8649 665.555 70.2585 666.061C63.2245 666.877 56.177 666.88 49.1274 666.178C47.122 665.974 45.0922 666.041 43.0884 665.828C27.9775 664.198 13.6246 660.112 -0.0373086 653.263C-15.5036 645.512 -30.4365 637.046 -42.9538 624.821C-52.8145 615.186 -62.113 605.018 -69.6786 593.444C-72.7668 588.729 -76.4256 584.361 -78.8301 579.202C-79.6448 577.464 -80.4848 575.702 -80.0877 573.674C-80.9157 570.105 -82.7472 566.977 -84.4214 563.777C-90.1426 552.8 -92.7282 540.804 -95.6694 528.906C-98.295 518.292 -99.7588 507.518 -100.692 496.645C-101.093 492.002 -101.893 487.42 -103.031 482.89C-103.701 480.198 -103.611 477.612 -102.891 474.855C-100.707 466.481 -100.616 457.792 -99.541 449.255C-98.3489 439.76 -96.5643 430.381 -92.7478 421.641C-89.6742 414.597 -74.4388 399.73 -67.0265 409.274C-59.1623 419.412 -52.5301 444.017 -36.8707 435.182C-4.40935 416.831 63.7055 431.542 123.865 410.181C123.974 408.71 128.071 408.188 129.796 404.393C131.515 393.806 136.184 378.915 134.776 387.591C135.694 398.198 137.504 415.431 138.868 425.983C139.621 431.809 140.132 437.693 141.662 443.393C141.753 443.73 141.805 444.071 141.837 444.409C142.379 449.144 143.094 453.829 145.364 458.8C147.731 454.085 146.82 449.592 147.527 445.357C147.931 442.509 147.67 439.688 147.125 436.889C147.008 424.694 144.549 412.758 143.136 400.711C141.265 384.794 143.349 369.264 147.084 353.851C147.968 350.201 148.492 346.493 149.034 342.798C151.184 328.238 157.016 315.213 165.124 303.121C167.972 298.881 168.169 298.551 171.146 294.401C171.439 293.97 174.288 289.541 174.616 289.136C187.719 270.591 214.068 237.245 249.745 235.55C272.029 234.491 340.335 247.832 347.989 301.111Z" fill="#F6D4D4"/>
<path d="M328.901 578.239C328.903 583.899 306.924 587.545 302.835 587.41C293.991 587.117 285.108 587.364 276.354 585.442C253.741 580.489 216.081 561.78 205.124 539.053C206.455 538.988 207.06 540.047 207.834 540.839C221.866 555.152 237.925 566.424 256.92 572.948C277.985 580.176 299.238 580.685 320.464 573.523C323.514 572.496 330.773 580.873 328.901 578.239Z" fill="#D2A3A3"/>
<path d="M498.813 614.469C498.896 616.409 497.965 617.899 497.389 619.476C495.22 625.417 496.249 631.102 498.51 636.727C498.759 637.345 499.02 638.004 499.033 638.642C499.057 639.575 498.752 640.376 497.733 640.795C496.671 641.236 496.046 640.839 495.452 640.018C493.973 638.004 492.334 636.022 492.082 633.448C491.822 630.862 490.476 629.29 488.548 627.652C482.763 622.748 476.696 618.325 470.016 614.75C466.819 613.039 464.944 610.295 464.563 606.663C464.174 602.961 463.913 599.25 463.681 595.535C463.578 593.835 464.254 592.362 465.757 591.534C466.696 591.014 467.861 590.414 468.889 591.376C469.774 592.206 469.391 593.189 469.052 594.2C467.814 597.878 469.452 600.828 473.137 601.328C478.437 602.045 482.495 605.628 487.35 607.347C490.076 608.315 492.743 609.703 495.67 607.76C496.954 606.906 497.855 607.934 498.327 608.971C499.145 610.748 499.556 612.645 498.808 614.439L498.813 614.469Z" fill="white"/>
<path d="M520.222 680.335C512.496 678.719 506.953 673.581 501.52 668.304C496.783 663.699 495.439 657.629 494.436 651.43C494.331 650.757 494.283 649.918 494.982 649.622C495.744 649.288 496.317 650.008 496.533 650.592C498.843 656.811 504.94 658.716 509.607 662.194C512.603 664.428 516.201 664.865 519.913 664.362C523.139 663.925 526.371 663.509 529.611 663.28C531.908 663.121 533.485 662.256 534.012 659.908C534.195 659.077 534.508 658.229 535.402 658.22C536.472 658.211 537.417 658.904 537.754 659.879C538.119 660.917 538.436 662.192 538.175 663.205C536.433 669.989 532.888 675.684 527.121 679.692C525.13 681.075 522.623 681.033 520.211 680.343L520.222 680.335Z" fill="white"/>
<path d="M400.518 400.758C403.65 395.582 403.244 390.126 401.757 384.58C403.583 384.03 405.426 383.561 407.354 384.006C409.734 384.946 409.414 387.338 409.791 389.141C411.813 398.687 413.475 408.301 414.421 418.022C415.219 426.261 415.848 434.521 416.018 442.804C416.051 444.217 416.481 445.814 414.92 446.818C411.729 442.018 407.314 438.063 406.992 431.497C406.486 421.281 405.987 410.96 401.094 401.576C400.937 401.286 400.707 401.033 400.509 400.756L400.518 400.758Z" fill="#F6D4D4"/>
<path d="M608.188 289.324C611.365 289.847 612.09 291.18 610.438 293.939C606.712 300.152 601.139 303.869 594.235 305.675C587.686 307.393 582.935 311.421 579.317 317.084C577.364 320.146 574.417 322.096 570.878 322.853C568.515 323.353 565.958 322.844 565.43 320.233C564.948 317.826 566.491 316.633 569.219 315.792C575.767 313.781 580.316 308.838 584.382 303.406C589.228 296.938 595.806 292.711 603.231 289.847C605.777 288.868 606.527 289.031 608.199 289.316L608.188 289.324Z" fill="white"/>
<path d="M150.062 292.541C150.044 292.656 150.05 292.852 150.01 292.865C144.691 294.532 145.608 300.306 142.963 303.743C141.87 305.157 141.035 306.77 139.883 308.605C137.399 305.848 134.342 305.726 131.052 305.78C126.945 305.847 123.155 304.381 119.754 302.011C119.486 299.238 120.931 297.335 122.878 295.68C123.473 292.736 125.232 290.034 124.635 286.835C124.452 285.866 125.178 285.34 126.038 285.306C127.388 285.245 128.733 285.329 129.636 286.642C130.185 287.446 130.128 288.337 130.236 289.225C130.426 290.743 131.331 291.626 132.881 291.822C134.832 292.066 134.566 290.476 134.909 289.379C139.8 291.241 144.974 291.713 150.079 292.554L150.062 292.541Z" fill="#F6D4D4"/>
<path d="M559.738 665.986C560.047 665.156 559.726 664.086 560.697 663.845C561.668 663.604 561.978 664.624 562.374 665.236C565.805 670.584 570.396 673.581 576.966 673.167C579.045 673.04 580.487 674.442 581.305 676.396C582.062 678.193 581.603 679.702 580.306 681.053C579.43 681.964 577.622 682.459 578.434 684.216C579.312 686.101 580.978 687.08 583.055 687.139C584.495 687.181 585.85 686.964 587.262 687.774C590.485 689.625 591.191 691.375 589.551 694.361C588.06 697.088 584.986 698.029 582.381 696.377C580.568 695.228 579.108 693.638 577.865 691.848C574.649 687.201 571.252 682.895 566.412 679.584C561.949 676.521 559.308 671.744 559.73 665.974L559.738 665.986Z" fill="white"/>
<path d="M339.286 664.435C342.601 659.201 339.582 652.268 341.58 645.996C341.877 645.067 341.46 643.208 343.238 643.795C345.414 644.513 346.974 646.506 348.556 648.172C350.676 650.419 351.924 652.894 350.469 656.116C349.574 658.101 349.326 660.231 350.09 662.401C352.515 669.285 349.207 675.732 348.496 682.383C348.361 683.632 347.11 684.58 345.733 684.392C344.441 684.218 343.938 683.011 343.973 681.843C344.045 678.706 342.637 676.322 340.693 674.006C338.578 671.487 338.504 668.413 339.284 664.444L339.286 664.435Z" fill="white"/>
<path d="M589.375 222.853C585.994 231.48 581.44 238.905 572.959 243.19C570.58 244.392 568.624 243.707 567.363 241.788C565.939 239.617 564.182 237.166 565.988 234.354C566.82 233.053 567.832 231.782 569.353 231.143C574.671 228.88 578.749 225.102 582.207 220.547C582.406 220.277 582.692 220.07 582.908 219.812C584.197 218.274 585.742 216.827 587.791 217.781C589.967 218.785 588.965 221.133 589.373 222.863L589.375 222.853Z" fill="white"/>
<path d="M585.412 179.284C585.064 179.873 584.85 180.414 584.483 180.823C581.023 184.674 577.992 189.113 573.937 192.151C570.511 194.716 567.275 197.43 564.065 200.226C558.558 205.03 553.009 209.788 547.488 214.56C545.919 215.915 544.252 216.795 542.411 215.103C540.603 213.445 542.032 212.116 542.933 210.69C546.946 204.329 552.784 200.294 559.537 197.504C563.761 195.756 566.757 192.611 569.572 189.202C571.505 186.861 573.413 184.495 575.381 182.179C575.802 181.681 576.411 181.038 576.97 181.003C579.547 180.851 581.71 179.789 583.759 178.347C584.067 178.124 584.678 178.009 584.962 178.174C585.238 178.327 585.269 178.909 585.411 179.294L585.412 179.284Z" fill="white"/>
<path d="M396.869 373.354C393.449 364.761 390.03 356.169 386.621 347.568C385.609 345.014 385.43 342.286 385.287 339.582C385.197 337.866 385.489 336.124 387.241 335.2C388.293 334.64 389.429 334.338 389.968 335.923C392.471 343.163 397.441 349.263 399.47 356.736C400.387 360.115 401.6 363.405 402.681 366.733C401.979 370.04 400.175 372.364 396.869 373.354Z" fill="#F6D4D4"/>
<path d="M414.931 446.82C415.514 440.06 414.662 433.348 414.22 426.624C413.298 412.634 411.201 398.821 407.93 385.187C407.833 384.77 407.562 384.402 407.364 384.008C409.5 382.091 410.508 382.404 411.325 385.384C416.804 405.446 418.15 425.971 418.426 446.633C418.541 455.014 417.692 463.353 416.764 471.699C415.185 463.488 415.546 455.107 414.932 446.81L414.931 446.82Z" fill="#D2A3A3"/>
<path d="M457.942 331.584C460.549 331.788 463.081 332.812 465.179 334.898C465.555 335.273 466.115 335.473 466.583 335.756C467.779 336.461 470.519 334.654 470.273 337.185C469.987 340.141 471.721 343.693 467.858 346.02C464.103 348.286 460.551 348.757 456.783 346.679C453.826 345.037 451.259 342.913 449.694 339.76C448.545 337.448 448.293 335.235 449.932 333.09C451.498 331.04 453.632 330.746 455.995 331.263C456.538 331.381 457.101 331.445 457.942 331.584Z" fill="white"/>
<path d="M269.378 631.111C269.171 633.943 267.359 635.414 264.915 635.999C262.764 636.515 258.944 634.037 258.318 631.616C257.741 629.369 256.697 627.486 255.559 625.528C254.609 623.905 253.89 621.938 254.777 620.001C255.603 618.201 256.212 615.885 258.749 615.922C261.839 615.962 264.739 617.232 266.041 620.038C267.298 622.759 268.11 625.709 269.452 628.444C269.794 629.146 269.427 630.21 269.387 631.113L269.378 631.111Z" fill="white"/>
<path d="M414.399 599.247C412.217 598.516 410.657 595.931 408.547 594.156C405.352 591.478 402.932 588.027 402.731 583.466C402.626 581.121 403.571 579.966 405.763 579.32C411.857 577.537 415.246 581.773 416.015 586.78C416.507 590.03 416.772 593.242 418.228 596.289C419.201 598.308 417.45 599.887 414.398 599.257L414.399 599.247Z" fill="white"/>
<path d="M615.801 364.534C613.211 363.99 610.139 364.198 610.385 360.052C610.526 357.689 616.673 352.052 618.135 353.388C622.195 357.079 626.616 355.138 630.949 355.295C633.708 355.397 634.519 357.458 633.012 359.869C632.328 360.97 631.394 361.882 630.241 362.288C625.568 363.924 620.85 365.425 615.792 364.533L615.801 364.534Z" fill="white"/>
<path d="M643.735 247.548C641.132 247.256 639.43 246.027 638.904 243.701C638.266 240.877 639.981 238.744 641.471 236.622C646.683 229.103 662.036 234.576 648.86 246.231C647.343 247.566 645.516 248.057 643.744 247.55L643.735 247.548Z" fill="white"/>
<path d="M452.66 641.768C452.562 642.074 452.395 643.103 451.941 643.987C450.084 647.592 446.217 649.83 443.557 648.932C440.696 647.962 438.059 642.442 438.725 638.875C438.997 637.442 439.674 636.557 441.244 636.874C443.303 637.282 445.25 636.771 447.204 636.213C451.552 634.964 453.447 636.626 452.649 641.776L452.66 641.768Z" fill="white"/>
<path d="M397.004 186.338C398.056 179.978 400.994 177.724 407.26 178.17C409.399 178.327 410.387 179.419 410.073 181.47C409.312 186.459 406.425 190.189 402.462 192.959C400.142 194.572 398.816 192.397 397.67 190.722C396.729 189.344 396.607 187.769 397.004 186.338Z" fill="white"/>
<path d="M382.078 711.396C383.03 716.59 381.554 720.122 377.988 720.747C374.8 721.307 370.605 717.613 369.789 713.547C367.143 700.389 381.168 706.468 382.078 711.396Z" fill="white"/>
<path d="M501.733 259.031C500.168 259.223 499.057 258.834 498.327 257.531C497.223 255.54 494.786 254.17 495.465 251.357C500.454 231.52 522.938 256.483 501.733 259.031Z" fill="white"/>
<path d="M418.708 246.619C419.78 240.194 422.038 238.542 427.719 239.126C428.358 239.192 428.751 239.404 429.043 239.941C430.588 242.738 426.894 252.516 423.99 253.309C422.049 253.84 419.153 251.592 418.718 249.066C418.536 247.979 418.712 246.835 418.708 246.619Z" fill="white"/>
<path d="M349.611 191.433C353.734 191.442 354.158 194.446 354.028 197.464C353.86 201.74 350.773 204.929 347.103 205.061C342.853 205.202 336.591 200.486 335.687 196.244C335.267 194.241 335.416 191.976 338.096 191.773C341.92 191.482 345.778 191.539 349.609 191.446L349.611 191.433Z" fill="white"/>
<path d="M287.437 730.098C288.039 726.931 289.728 724.539 292.053 722.712C294.324 720.925 296.862 722.028 297.747 724.951C298.682 728.039 297.391 730.731 296.017 733.272C294.666 735.798 292.326 736.576 289.707 735.43C287.359 734.408 287.212 732.203 287.437 730.098Z" fill="white"/>
<path d="M662.122 221.618C660.007 221.074 658.234 220.156 657.996 217.974C657.752 215.714 658.436 213.949 661.092 213.135C663.29 212.451 665.278 211.028 667.259 209.77C668.923 208.724 670.394 208.634 671.803 210.059C673.252 211.54 672.183 212.743 671.285 213.905C669.718 215.965 668.101 217.977 666.516 220.024C665.333 221.57 663.71 221.703 662.124 221.608L662.122 221.618Z" fill="white"/>
<path d="M520.196 286.646C515.777 285.888 515.9 282.74 515.344 280.066C514.813 277.534 516.516 276.788 518.434 276.097C520.423 275.388 522.341 274.452 524.32 273.683C525.335 273.292 526.481 272.63 527.405 273.751C528.339 274.873 528.687 276.261 527.604 277.432C525.477 279.712 523.857 282.213 522.936 285.259C522.473 286.796 520.923 286.834 520.196 286.646Z" fill="white"/>
<path d="M633.247 335.566C631.944 335.224 630.586 334.384 629.967 332.815C629.311 331.172 630.437 329.978 631.494 328.969C634.667 325.922 638.357 324.839 642.679 326.079C644.497 326.603 645.095 327.582 644.393 329.335C643.044 332.741 637.012 336.235 633.247 335.566Z" fill="white"/>
<path d="M416.929 235.788C414.716 235.423 411.971 231.763 412.064 229.402C415.139 218.094 432.679 230.641 416.938 235.789L416.929 235.788Z" fill="white"/>
<path d="M547.399 409.679C546.636 407.382 546.278 405.7 548.051 403.869C549.834 402.031 551.763 401.449 554.157 402.01C555.393 402.292 556.703 402.655 556.891 404.123C557.075 405.503 556.698 406.81 555.461 407.731C554.435 408.491 553.333 409.063 552.081 409.179C550.799 409.3 549.999 409.746 549.728 411.119C549.143 414.005 546.958 414.428 544.557 414.208C542.643 414.039 541.19 413.008 541.64 410.891C542.08 408.841 543.726 408.389 545.616 408.945C546.227 409.124 546.808 409.435 547.408 409.68L547.399 409.679Z" fill="white"/>
<path d="M585.404 583.468C589.281 586.855 593.024 587.892 597.19 586.984C598.356 586.737 598.801 587.406 599.125 588.34C599.674 589.917 599.769 591.605 598.685 592.845C595.678 596.3 591.538 596.987 588.963 592.817C587.339 590.202 585.859 587.66 585.406 583.458L585.404 583.468Z" fill="white"/>
<path d="M432.63 642.662C432.271 643.855 432.653 645.688 430.67 646.006C428.855 646.304 428.106 644.821 427.393 643.589C425.866 640.98 424.414 638.325 423.056 635.627C422.455 634.423 421.999 632.988 423.219 631.869C424.291 630.891 425.617 631.394 426.722 631.82C430.657 633.349 433.322 638.277 432.632 642.652L432.63 642.662Z" fill="white"/>
<path d="M313.082 240.679C308.825 242.655 303.193 240.68 303.012 240.073C301.572 235.045 305.013 225.751 310.192 226.142C324.673 227.21 317.339 238.702 313.082 240.679Z" fill="white"/>
<path d="M442.93 204.803C441.095 204.324 440.559 203.023 440.312 201.32C439.701 197.131 442.454 193.986 446.697 194.392C454.282 195.134 448.172 206.17 442.93 204.803Z" fill="white"/>
<path d="M278.185 217.738C274.067 216.912 271.725 217.427 269.904 214.443C268.922 212.834 268.771 212.056 269.342 210.69C269.989 209.144 270.716 208.341 272.996 208.478C275.277 208.616 276.121 210.063 279.172 210.282C282.982 210.548 284.534 212.887 283.074 215.844C282.034 217.942 280.233 218.154 278.186 217.728L278.185 217.738Z" fill="white"/>
<path d="M680.286 540.214C675.704 539.498 673.193 534.879 674.979 530.753C675.428 529.721 676.107 528.767 677.189 529.875C678.811 531.541 680.991 532.223 682.838 533.466C684.413 534.527 686.668 535.701 685.774 537.803C684.881 539.896 682.654 540.996 680.286 540.214Z" fill="white"/>
<path d="M414.361 248.514C413.774 252.133 411.518 253.952 408.077 253.62C404.772 253.29 402.155 250.395 402.324 247.264C402.393 245.945 403.144 245.619 404.115 246.277C406.234 247.693 407.984 246.778 409.67 245.54C410.971 244.581 412.336 244.19 413.723 245.093C415.023 245.933 414.498 247.314 414.36 248.523L414.361 248.514Z" fill="white"/>
<path d="M618.778 266.916C616.068 266.509 615.13 264.574 616.579 262.348C618.996 258.639 622.789 256.917 626.933 255.967C628.002 255.722 628.978 256.108 628.762 257.618C628.495 259.5 621.725 266.58 619.786 266.926C619.356 267.002 618.895 266.916 618.778 266.916Z" fill="white"/>
<path d="M366.019 219.108C364.589 221.547 363.905 224.768 358.7 223.991C355.436 223.5 352.925 217.876 354.118 214.507C355.1 211.739 360.366 208.856 363.382 209.781C368.884 211.482 367.484 216.624 366.019 219.108Z" fill="white"/>
<path d="M367.785 246.967C365.007 246.499 360.676 241.609 360.52 239.041C360.469 238.221 360.806 237.699 361.636 237.729C363.864 237.812 366.203 237.22 368.295 238.142C370.951 239.303 370.197 241.976 370.564 244.198C371.043 247.044 370.038 247.739 367.785 246.967Z" fill="white"/>
<path d="M411.027 710.084C414.486 710.184 416.3 710.845 415.568 714.157C414.872 717.309 413.194 719.155 410.784 718.816C408.687 718.52 405.002 713.59 405.832 711.467C406.978 708.536 409.804 710.322 411.027 710.084Z" fill="white"/>
<path d="M427.934 603.765C427.516 605.143 426.301 606.469 424.246 606.277C421.702 606.043 419.226 602.457 419.625 600.058C420.116 597.097 422.451 597.423 424.335 597.597C426.687 597.818 428.549 600.932 427.934 603.765Z" fill="white"/>
<path d="M497.743 235.058C499.373 235.483 500.926 235.005 502.481 234.274C503.166 233.946 504.087 233.414 504.673 234.048C505.351 234.776 504.949 235.815 504.485 236.579C503.25 238.625 501.903 240.526 499.4 241.238C497.751 241.709 496.459 241.174 495.472 240.023C494.476 238.862 494.292 237.305 494.784 235.89C495.257 234.53 496.255 233.883 497.743 235.058Z" fill="white"/>
<path d="M411.972 625.017C412.088 627.109 410.896 627.216 409.369 626.7C406.911 625.875 405.106 622.702 405.426 619.899C405.605 618.373 405.918 616.743 407.653 616.52C409.289 616.31 410.183 617.739 410.839 619.079C411.76 620.943 411.826 622.988 411.972 625.017Z" fill="white"/>
<path d="M411.6 277.072C410.991 278.311 410.527 279.614 409.777 280.703C408.507 282.548 406.666 283.183 404.892 281.619C403.177 280.104 403.571 278.096 404.894 276.465C405.574 275.619 406.607 274.997 407.571 274.442C408.599 273.849 409.837 272.683 410.862 273.302C412.128 274.059 411.142 275.823 411.598 277.081L411.6 277.072Z" fill="white"/>
<path d="M446.927 583.461C445.162 583.151 443.87 581.363 442.957 579.218C442.738 578.712 442.538 578.092 442.64 577.581C443.014 575.697 444.582 575.486 446.028 575.665C448.475 575.961 451.776 580.143 451.09 582.035C450.529 583.576 449.331 584.317 446.927 583.461Z" fill="white"/>
<path d="M648.861 267.004C645.968 266.586 645.153 264.789 646.347 262.756C647.352 261.053 648.727 259.754 650.473 258.869C651.562 258.315 652.719 258.427 653.644 259.186C654.706 260.055 654.507 261.401 653.915 262.301C652.543 264.413 651.286 266.836 648.859 267.013L648.861 267.004Z" fill="white"/>
<path d="M525.425 227.248C525.535 225.672 526.562 224.551 527.496 223.462C528.667 222.11 530.099 220.459 532.03 221.843C533.751 223.075 532.786 225.019 532.158 226.49C531.655 227.678 530.601 228.669 529.677 229.641C528.81 230.554 527.683 231.337 526.429 230.573C525.255 229.851 525.105 228.565 525.425 227.248Z" fill="white"/>
<path d="M625.368 192.734C624.083 192.522 623.577 191.392 624.188 189.664C625.246 186.67 627.723 185.406 630.513 184.721C631.402 184.506 632.592 184.594 632.824 186.031C633.233 188.534 628.554 193.2 625.368 192.734Z" fill="white"/>
<path d="M656.748 586C660.028 586.54 661.566 588.31 661.63 590.902C661.672 592.679 660.382 593.63 658.354 593.267C655.59 592.772 652.861 590.21 653.351 588.208C653.863 586.131 655.415 585.721 656.749 585.99L656.748 586Z" fill="white"/>
<path d="M242.047 195.86C243.968 196.705 244.61 196.338 245.742 198.452C246.711 200.255 246.791 202.155 245.073 203.29C243.574 204.276 239.169 204.924 238.123 203.471C236.411 201.105 236.914 200.511 237.276 198.284C237.637 196.058 240.127 195.016 242.047 195.86Z" fill="white"/>
<path d="M482.107 244.666C482.229 244.813 482.505 245.025 482.597 245.294C482.888 246.076 480.351 252.073 479.532 252.457C478.314 253.019 477.024 253.735 475.737 252.751C474.381 251.715 475.005 250.263 475.28 248.988C475.599 247.564 480.641 244.366 482.097 244.664L482.107 244.666Z" fill="white"/>
<path d="M460.618 207.706C459.554 207.561 458.569 207.173 458.42 205.994C458.235 204.506 458.403 202.754 459.749 202.056C468.381 197.549 467.737 209.115 460.609 207.705L460.618 207.706Z" fill="white"/>
<path d="M407.143 516.648C405.4 513.094 406.752 509.61 407.647 506.247C408.32 503.717 409.79 501.417 411.363 499.26C411.44 505.425 409.903 511.186 407.152 516.649L407.143 516.648Z" fill="#D2A3A3"/>
<path d="M560.547 649.67C563.267 650.138 565.311 652.979 564.871 655.567C564.606 657.078 563.792 657.727 562.309 657.472C560.177 657.092 557.609 653.294 558.068 651.247C558.376 649.889 559.253 649.447 560.547 649.67Z" fill="white"/>
<path d="M547.568 440.317C545.787 439.984 544.475 438.917 544.936 437.096C545.656 434.212 548.283 434.479 550.453 434.621C551.942 434.72 553.301 435.492 552.969 437.481C552.649 439.453 550.072 440.798 547.568 440.317Z" fill="white"/>
<path d="M544.471 433.55C542.816 433.336 542.108 432.436 542.41 430.755C542.681 429.264 546.969 426.469 548.535 426.874C549.726 427.188 550.404 427.974 550.196 429.378C549.847 431.765 546.933 433.926 544.471 433.55Z" fill="white"/>
<path d="M548.32 322.978C551.046 323.407 552.076 324.594 551.716 326.814C551.151 330.232 548.436 328.66 546.643 328.824C545.125 328.965 543.425 327.902 543.969 326.222C544.646 324.142 546.387 322.747 548.32 322.978Z" fill="white"/>
<path d="M552.09 459.703C550.501 459.206 548.858 458.867 549.185 456.671C549.471 454.733 552.141 453.295 554.554 453.977C556.067 454.402 557.775 455.241 557.206 457.191C556.465 459.719 554.201 459.796 552.081 459.701L552.09 459.703Z" fill="white"/>
<path d="M422.122 643.697C421.886 645.389 420.917 645.435 419.69 644.92C417.612 644.03 415.262 639.789 415.687 637.59C415.97 636.15 416.921 635.075 418.236 636.181C420.516 638.102 421.82 640.713 422.122 643.697Z" fill="white"/>
<path d="M578.08 434.606C577.212 436.722 575.702 437.891 573.596 437.534C571.762 437.232 569.931 436.07 570.209 434.003C570.518 431.677 572.555 431.211 574.64 431.643C576.319 431.998 577.861 432.604 578.082 434.596L578.08 434.606Z" fill="white"/>
<path d="M444.313 616.371C443.9 617.477 443.354 618.512 441.735 618.314C439.66 618.06 437.206 615.357 437.362 613.377C437.496 611.776 438.221 610.839 439.992 611.111C441.593 611.355 444.465 614.714 444.311 616.381L444.313 616.371Z" fill="white"/>
<path d="M398.385 730.523C398.252 731.039 398.48 733.042 396.442 732.921C394.683 732.817 394.529 731.071 394.267 729.58C393.89 727.415 394.27 725.551 395.886 724.028C396.345 723.595 396.935 723.545 397.384 724.011C398.964 725.64 399.042 727.609 398.366 730.52L398.385 730.523Z" fill="white"/>
<path d="M508.751 705.476C508.402 706.729 507.656 707.496 506.179 706.373C504.002 704.713 502.879 702.484 502.608 699.73C502.432 697.941 503.471 698.181 504.489 698.427C506.338 698.878 509.093 703.313 508.751 705.476Z" fill="white"/>
<path d="M205.351 225.487C205.921 221.784 214.72 227.207 214.72 227.207C214.72 227.207 215.586 227.953 215.893 228.594C217.102 231.112 212.244 232.598 209.174 230.939C207.371 229.967 204.955 228.063 205.351 225.487Z" fill="white"/>
<path d="M484.146 687.553C486.125 687.859 489.085 692.172 488.601 694.078C488.351 695.083 487.679 695.569 486.613 695.383C484.773 695.051 482.271 690.912 482.676 688.895C482.84 688.061 483.133 687.396 484.146 687.553Z" fill="white"/>
<path d="M666.827 515.631C668.984 516.255 671.179 516.489 671.143 518.669C671.108 520.837 668.847 520.541 667.349 520.78C664.35 521.27 661.272 519.6 658.268 521.061C657.717 521.328 657.07 521.017 657.039 520.27C657.023 519.897 657.267 519.259 657.522 519.173C660.821 518.157 663.621 515.678 666.827 515.631Z" fill="white"/>
<path d="M477.409 719.539C479.318 719.854 481.566 725.799 480.415 727.448C479.819 728.308 479.072 728.126 478.342 727.781C477.027 727.153 475.136 721.756 475.759 720.431C476.071 719.768 476.638 719.441 477.407 719.549L477.409 719.539Z" fill="white"/>
<path d="M580.728 465.754C579.405 465.536 578.605 464.72 579.011 463.417C579.735 461.052 581.742 460.287 583.952 460.192C585.243 460.131 586.014 460.943 585.913 462.344C585.787 464.016 582.66 466.053 580.738 465.756L580.728 465.754Z" fill="white"/>
<path d="M401.926 263.529C400.542 263.144 400.047 261.83 400.319 260.691C400.752 258.865 401.56 256.993 403.992 257.081C405.344 257.128 406.017 257.767 405.749 259.239C405.436 260.928 403.128 263.658 401.937 263.521L401.926 263.529Z" fill="white"/>
<path d="M542.066 518.089C544.085 518.568 545.273 519.801 545.318 521.618C545.362 523.2 543.67 523.694 542.612 523.392C540.989 522.929 538.928 522.169 539.11 519.969C539.236 518.473 540.755 518.029 542.066 518.089Z" fill="white"/>
<path d="M424.086 693.412C422.231 693.175 420.13 690.031 420.502 688.4C420.755 687.317 421.523 686.592 422.607 686.556C423.887 686.503 426.009 690.413 425.713 692.056C425.509 693.196 424.751 693.443 424.086 693.412Z" fill="white"/>
<path d="M400.258 272.055C399.48 273.257 399.677 275.754 397.352 275.664C395.934 275.607 395.091 273.922 395.523 272.575C396.09 270.82 397.002 268.789 399.337 269.057C400.824 269.224 400.426 270.723 400.256 272.064L400.258 272.055Z" fill="white"/>
<path d="M696.437 597.023C697.181 595.669 697.984 593.835 699.935 594.079C701.39 594.26 701.52 595.973 701.097 597.146C700.527 598.744 699.577 600.466 697.56 600.211C695.896 599.996 696.144 598.472 696.437 597.023Z" fill="white"/>
<path d="M510.024 291.365C508.913 292.591 508.587 294.836 506.27 294.581C504.705 294.411 504.363 293.23 504.656 291.84C505.062 289.941 506.429 288.934 508.199 288.913C509.376 288.901 510.009 290.023 510.024 291.365Z" fill="white"/>
<path d="M510.145 461.759C509.597 461.669 509.03 461.634 508.492 461.477C507.714 461.251 506.341 461.573 506.448 460.319C506.549 459.22 507.741 459.29 508.642 459.419C509.808 459.591 510.88 459.328 511.885 458.819C512.825 458.348 513.731 457.851 514.592 458.883C515.17 459.566 515.111 460.348 514.737 461.098C514.177 462.218 513.192 462.242 512.137 462.048C511.477 461.93 510.813 461.83 510.151 461.721L510.144 461.769L510.145 461.759Z" fill="white"/>
<path d="M517.882 188.693C516.829 190.877 515.195 191.791 512.94 191.449C511.67 191.259 510.598 190.329 511.136 189.166C512.213 186.839 514.793 187.93 516.659 187.318C517.479 187.052 518.067 187.794 517.873 188.691L517.882 188.693Z" fill="white"/>
<path d="M572.285 392.549C573.625 392.789 575.186 393.036 574.838 394.407C574.333 396.378 572.246 396.679 570.528 396.915C569.248 397.085 568.192 395.875 568.493 394.799C568.999 392.995 570.642 392.385 572.284 392.558L572.285 392.549Z" fill="white"/>
<path d="M442.773 215.876C441.856 217.398 440.912 218.964 438.663 218.584C437.311 218.361 437.121 217.498 437.397 216.34C438.023 213.676 440.319 214.905 441.866 214.465C442.679 214.237 442.983 215.001 442.773 215.876Z" fill="white"/>
<path d="M534.57 439.435C533.45 438.977 532.377 438.233 532.802 436.992C533.28 435.604 534.793 435.129 536.126 435.232C537.306 435.319 538.202 436.2 537.811 437.593C537.354 439.21 535.878 439.211 534.568 439.445L534.57 439.435Z" fill="white"/>
<path d="M387.251 292.65C387.545 290.958 388.003 289.811 389.607 289.977C391.058 290.128 391.482 291.343 391.131 292.429C390.758 293.59 390.458 295.321 388.682 295.136C386.973 294.962 387.187 293.52 387.251 292.65Z" fill="white"/>
<path d="M696.065 468.413C698.499 467.177 700.747 467.087 703.058 467.545C704.041 467.745 705.324 467.816 705.213 469.204C705.107 470.478 703.823 470.727 702.864 470.773C700.45 470.874 697.987 470.877 696.065 468.413Z" fill="white"/>
<path d="M378.615 693.574C380.086 694.139 380.729 695.204 380.612 696.701C380.547 697.639 380.307 698.577 379.067 698.383C377.504 698.145 376.81 697.033 376.8 695.544C376.79 694.408 377.449 693.695 378.607 693.563L378.615 693.574Z" fill="white"/>
<path d="M459.535 627.194C459.442 627.707 459.136 627.92 458.606 627.95C457.599 627.999 454.324 624.428 454.482 623.397C454.565 622.883 454.87 622.679 455.407 622.66C456.453 622.617 459.677 626.141 459.534 627.203L459.535 627.194Z" fill="white"/>
<path d="M564.261 431.283C563.278 431.062 561.977 430.945 562.124 429.62C562.265 428.332 563.475 427.876 564.686 427.949C565.879 428.018 566.541 428.783 566.472 429.984C566.388 431.457 565.36 431.454 564.263 431.273L564.261 431.283Z" fill="white"/>
<path d="M498.284 193.231C499.186 193.594 499.319 194.272 498.897 194.897C498.103 196.077 497.636 197.936 496.045 197.928C494.814 197.921 495.465 196.483 495.602 195.694C495.864 194.201 496.826 193.362 498.295 193.223L498.284 193.231Z" fill="white"/>
<path d="M555.276 394.632C556.266 394.756 557.026 395.038 556.855 395.851C556.552 397.239 555.474 397.844 554.106 397.775C553.191 397.732 552.647 397.192 552.887 396.195C553.228 394.754 554.521 394.919 555.276 394.632Z" fill="white"/>
<path d="M458.39 664.132C458.016 663.924 457.754 663.861 457.644 663.706C456.789 662.45 455.347 661.41 456.017 659.554C456.196 659.046 456.657 658.838 457.068 659.18C458.544 660.431 459.371 661.917 458.388 664.142L458.39 664.132Z" fill="white"/>
<path d="M382.837 272.879C382.348 273.62 382.059 274.805 380.787 274.507C379.786 274.274 379.35 273.429 379.731 272.455C380.102 271.489 380.876 270.727 381.986 270.949C382.87 271.124 383.025 271.961 382.848 272.871L382.837 272.879Z" fill="white"/>
<path d="M440.777 242.011C438.696 241.123 439.009 239.67 439.756 238.268C441.692 234.732 444.71 232.806 448.655 233.989C450.393 234.511 449.665 236.43 448.875 237.803C447.003 240.973 444.335 242.482 440.777 242.011Z" fill="white"/>
<path d="M411.557 498.255C409.959 496.319 410.92 494.765 412.28 493.268C414.59 495.302 413.134 496.793 411.557 498.255Z" fill="#D2A3A3"/>
<path d="M372.089 550.865L371.91 551.129C371.971 551.051 372.042 550.974 372.103 550.896L372.087 550.874L372.089 550.865Z" fill="#F6D4D4"/>
<path d="M200.561 530.909C200.364 530.631 200.166 530.354 199.96 530.065C200.158 530.343 200.356 530.62 200.561 530.909Z" fill="#D2A3A3"/>
<path d="M592.157 476.021C590.912 475.56 589.718 476.099 588.504 476.198C583.91 476.571 579.489 475.979 575.615 473.343C572.01 470.9 568.482 471.165 565.272 473.679C562.183 476.105 558.661 476.943 555.034 477.643C550.472 478.529 545.83 479.106 541.331 480.258C534.525 481.993 527.846 481.308 521.066 480.297C512.61 479.024 507.971 473.869 506.076 465.757C502.545 450.497 503.49 435.835 493.395 421.684C489.581 416.343 484.706 412.916 478.921 410.513C475.274 409.004 471.471 408.615 467.52 409.289C457.865 410.936 448.462 413.536 439.064 416.331C429.858 419.072 421.029 422.903 411.755 425.406C407.911 426.441 404.634 428.827 400.764 430.033C397.31 431.109 393.547 431.981 390.439 434.078C386.048 437.045 380.481 437.436 376.391 440.996C375.811 441.499 375.07 442.077 374.379 442.137C368.366 442.636 364.066 446.947 358.911 449.339C357.332 450.077 355.702 450.463 354.026 450.848C349.496 451.867 347.344 454.44 347.522 459.037C347.79 465.989 349.004 472.825 350.208 479.654C350.585 481.817 351.997 483.156 353.795 483.6C359.109 484.893 363.284 488.169 367.481 491.366C370.661 493.775 374.036 494.759 377.934 494.205C378.843 494.079 379.825 493.958 380.696 494.152C381.97 494.46 382.994 495.285 382.902 496.783C382.814 498.252 381.572 498.457 380.501 498.483C373.897 498.562 367.221 499.505 360.83 496.971C360.391 496.8 359.955 496.647 359.5 496.544C357.661 496.181 355.487 495.563 354.764 498.017C354.122 500.197 356.285 501.345 357.697 501.609C363.149 502.636 367.29 506.52 372.509 508.107C376.344 509.278 380.191 510.677 384.074 511.487C389.338 512.585 393.966 515.048 398.88 516.876C399.172 516.99 399.559 517.013 399.733 517.231C400.759 518.5 403.535 519.009 403.066 520.492C402.349 522.713 400.135 520.677 398.633 520.901C394.108 521.577 389.829 519.348 385.342 520.036C384.391 520.179 383.48 520.019 382.648 519.521C378.349 516.962 373.231 516.773 368.78 514.658C367.82 514.211 366.677 514.139 365.604 513.99C364.622 513.842 363.2 512.876 362.791 514.385C362.277 516.246 364.256 515.982 365.238 516.398C367.233 517.251 369.289 517.927 371.36 518.582C378.661 520.897 384.991 525.219 391.643 528.808C395.948 531.134 399.509 534.826 402.769 538.618C405.96 542.33 406.78 546.738 405.963 551.431C405.489 554.173 403.259 555.316 400.728 555.818C394.849 561.515 388.514 565.276 380.272 560.854C379.725 561.554 379.627 562.321 380.215 562.993C384.209 567.514 387.606 572.495 392.755 576.039C396.905 578.903 400.139 583.135 403.827 586.711C406.422 589.225 409.056 591.639 413.037 591.57C415.235 591.526 417.081 591.231 417.611 588.608C418.036 586.494 419.169 585.864 421.323 586.31C423.865 586.843 426.504 586.386 429.099 587.335C431.721 588.289 433.95 586.971 434.206 584.073C434.82 577.055 439.533 574.966 445.187 573.8C454.03 571.985 462.918 570.643 471.947 570.193C476.693 569.959 481.478 569.689 486.033 567.582C488.122 566.623 490.021 565.781 491.005 563.687C493.614 558.106 498.484 555.544 503.789 553.561C506.894 552.409 509.779 550.881 512.304 548.732C514.245 547.067 514 546.371 511.573 545.178C510.103 544.462 508.671 544.294 507.074 544.498C504.004 544.884 500.903 545.091 497.823 545.47C496.314 545.658 495.112 545.18 493.908 544.369C492.199 543.214 490.268 542.627 488.213 542.552C487.461 542.521 486.629 542.671 486.2 543.471C485.748 544.302 486.315 544.959 486.617 545.664C487.481 547.638 489.903 547.248 491.389 548.971C488.053 552.516 484.502 555.118 479.369 553.607C477.298 552.999 475.139 552.851 473.147 551.747C470.381 550.217 467.383 551.507 464.52 551.773C463.221 551.905 463.246 553.345 463.642 554.496C464.054 555.69 463.85 556.745 462.639 557.287C456.901 559.894 451.981 564.095 445.443 565.263C441.021 566.06 438.022 563.748 434.553 562.318C433.013 561.678 431.659 560.571 430.004 560.007C428.525 559.505 426.718 558.581 427.103 556.817C427.568 554.669 427.596 551.988 430.234 550.883C431.17 550.493 432.479 550.794 432.941 549.322C432.033 548.106 430.525 548.137 429.269 547.668C426.553 546.648 424.133 545.381 423.525 542.12C423.271 540.786 422.435 539.891 421.374 539.165C420.073 538.27 418.874 537.273 418.195 535.794C417.13 533.439 415.188 532.308 412.843 531.647C408.005 530.271 415.225 519.299 416.534 517.298C418.64 514.076 417.527 511.008 413.893 510.218C409.926 509.35 406.432 507.127 402.387 506.55C401.472 506.419 400.56 505.879 400.437 504.781C400.292 503.493 401.123 502.695 402.22 502.34C403.395 501.962 404.644 501.746 405.857 501.537C412.893 500.297 419.946 499.101 426.672 496.52C429.351 495.491 432.222 495.974 434.965 495.545C435.817 495.41 437.065 495.351 436.948 494.067C436.825 492.858 435.647 492.792 434.737 492.965C428.732 494.102 422.788 492.534 416.782 492.755C412.605 492.905 409.063 490.506 406.417 487.215C404.549 484.903 404.927 483.641 406.772 481.086C409.236 477.662 410.646 473.565 413.346 470.246C415.322 467.816 416.928 465.138 419.287 462.982C422.939 459.63 423.877 454.739 424.94 450.205C426.801 442.26 432.558 437.455 437.851 432.177C438.061 431.964 438.393 431.821 438.676 431.77C444.79 430.632 450.823 428.962 457.063 428.829C458.905 428.784 460.76 428.968 462.625 428.845C466.308 428.58 469.973 428.365 473.413 430.375C475.303 431.469 477.608 431.517 479.757 431.722C482.63 432.001 484.846 433.028 485.749 436.041C486.717 439.274 486.797 442.648 484.103 444.818C480.275 447.887 478.938 452.146 477.242 456.387C476.258 458.86 475.984 461.224 476.498 463.77C476.876 465.619 477.55 467.553 477.347 469.367C476.825 473.812 479.51 475.884 482.819 477.01C487.481 478.596 491.181 480.902 492.825 485.865C493.203 487.019 494.177 487.334 495.384 487.515C501.514 488.457 507.61 489.47 513.026 492.92C514.54 493.888 516.686 493.807 518.261 494.709C526.708 499.53 534.63 504.908 540.559 513.052C544.161 518.005 547.876 523.086 554.634 524.665C559.096 525.713 563.02 525.636 566.542 522.807C570.575 519.553 574.525 519.842 578.606 522.246C580.794 523.537 583.41 523.112 585.645 524.357C586.842 525.021 587.94 523.861 588.728 522.811C580.604 519.247 572.56 515.409 563.492 514.931C554.453 514.436 547.259 499.25 542.088 492.566C540.293 490.259 540.596 489.196 543.317 487.882C559.076 480.299 571.732 482.861 588.118 479.508C590.118 479.101 591.548 478.131 592.079 476.045L592.157 476.021Z" fill="white"/>
<path d="M162.802 512.285C165.218 512.233 166.112 514.082 167.005 515.696C171.642 524.02 176.925 531.903 182.777 539.381C193.116 552.586 204.16 565.096 217.643 575.2C218.18 575.602 218.743 576.017 219.174 576.529C219.924 577.415 219.953 578.427 219.216 579.323C218.406 580.304 217.582 580.061 216.57 579.415C207.395 573.57 199.036 566.765 191.863 558.512C180.681 545.657 170.77 531.965 163.836 516.259C163.304 515.057 162.561 513.888 162.801 512.294L162.802 512.285Z" fill="#D2A3A3"/>
<path d="M236.602 253.631C236.408 255.301 236.106 256.444 234.539 256.049C232.189 255.456 230.965 253.67 230.944 251.407C230.934 249.733 232.405 248.743 234.021 249.195C236.419 249.854 236.543 252.017 236.602 253.631Z" fill="white"/>
<path d="M241.209 261.342C242.014 262.366 241.118 264.33 239.823 264.381C238.701 264.424 237.739 263.334 237.912 262.217C238.118 260.892 240.382 260.291 241.209 261.342Z" fill="white"/>
<path d="M117.209 375.418C71.5484 376.617 15.8277 409.452 -33.7849 396.846C-52.1289 400.003 -38.7493 386.707 -66.1805 366.617C-109.042 330.839 -118.506 285.396 -54.3682 272.69C-55.4095 279.941 -78.8552 280.743 -62.4291 286.648C-60.8288 310.931 -72.5514 294.828 -66.1681 309.679C-64.8308 345.417 -7.52093 345.387 61.7892 346.791C104.991 342.27 97.9446 283.816 30.1569 272.644C-37.6308 261.473 -29.0473 262.606 -41.6269 260.814C-51.2944 259.436 -63.121 270.641 -69.443 261.511C-70.119 259.278 -67.8342 255.488 -65.2342 254.42C-47.7246 254.01 -58.4838 230.417 -43.7407 224.387C-36.3958 225.363 -31.665 220.617 -24.1563 221.062C-16.9809 222.245 -11.758 216.68 -6.45818 222.6C2.4471 223.471 11.0194 226.214 19.7007 226.432C25.2434 225.116 19.9968 231.185 22.7634 233.157C21.8258 236.122 20.4585 237.07 16.8326 236.864C33.4801 240.987 40.7486 260.131 55.2937 263.692C80.4714 262.804 89.0489 269.401 79.3239 238.781C139.544 290.672 141.067 313.579 117.209 375.418Z" fill="#F6D4D4"/>
<path d="M85.2437 244.041C88.0656 250.276 83.9723 251.469 84.119 258.398C84.2492 264.532 82.5301 266.331 76.4887 265.218C69.2609 263.881 62.0643 263.008 54.7603 264.65C51.6977 265.338 49.0023 264.004 47.2412 261.758C39.1187 251.461 29.2755 243.452 17.3754 238.009C16.9874 237.828 16.6777 237.464 16.1709 237.058C18.9188 236.454 9.47387 227.269 10.9313 224.869C15.82 223.934 19.8163 223.473 24.5143 221.978C41.4889 220.372 48.7461 223.165 58.9381 225.737C64.8593 227.231 71.9693 231.262 77.4927 236.026C79.7865 238.004 84.2185 243.002 85.2437 244.041Z" fill="white"/>
<path d="M134.08 387.966C134.126 388.16 134.192 388.347 134.199 388.544C134.198 388.612 134.05 388.686 133.97 388.761C134.013 388.494 134.046 388.234 134.08 387.966Z" fill="#F6D4D4"/>
<path d="M364.84 309.621C361.788 307.966 364.848 303.588 365.769 300.727C366.005 299.993 366.634 299.403 367.584 299.471C368.555 299.533 368.832 300.274 369.18 301.006C370.796 304.382 368.137 311.409 364.84 309.621Z" fill="white"/>
<path d="M364.216 320.104C364.503 318.635 364.777 317.125 366.589 317.385C368.915 317.71 369.721 318.325 370.084 319.998C370.547 322.131 367.794 324.254 366.188 323.98C364.102 323.617 363.982 321.787 364.216 320.104Z" fill="white"/>
<path d="M350.45 319.069C351.941 322.24 348.14 321.628 346.812 321.331C344.245 320.751 344.067 319.02 344.034 317.449C344.012 316.614 344.991 314.979 346.22 315.407C348.143 316.076 348.959 315.899 350.45 319.069Z" fill="white"/>
<path d="M374.918 344.508L375.162 344.441L375.103 344.686L374.918 344.508Z" fill="white"/>
<path d="M58.7753 346.739C57.6233 349.443 -33.6249 350.847 -35.8464 350.926C-38.0679 351.005 -72.4092 347.226 -71.1809 330.049C-69.4889 318.497 -41.6593 341.736 -6.1708 344.182C29.3177 346.628 54.586 346.568 58.7753 346.739Z" fill="#D2A3A3"/>
<path d="M58.448 274.794C60.0334 275.671 61.7965 276.47 63.3604 277.54C71.7353 283.292 79.5817 289.729 87.0215 296.637C91.1638 300.479 94.0597 305.123 94.029 311.171C94.0226 313.244 88.9291 315.683 88.3454 315.287C87.5041 311.245 85.6116 306.518 83.209 303.021C76.496 293.25 67.563 286.272 57.2269 280.881C54.6629 279.636 54.3076 279.49 54.5959 277.416C54.8194 275.8 55.8552 275.1 57.3143 274.842C57.6433 274.788 57.9803 274.805 58.4511 274.775L58.448 274.794Z" fill="#D2A3A3"/>
<path d="M104.604 289.92L104.285 290.151C104.304 290.096 104.308 290.008 104.362 289.978C104.428 289.93 104.525 289.927 104.606 289.91L104.604 289.92Z" fill="#D2A3A3"/>
<path d="M130.355 312.789C130.029 299.073 124.733 289.33 123.429 286.338L122.228 282.042L130.174 282.613L133.673 286.799C133.673 286.799 139.218 288.399 142.448 288.878C145.848 289.382 151.009 289.635 151.009 289.635L151.234 309.03C143.511 314.932 130.682 326.506 130.355 312.789Z" fill="#D2A3A3"/>
<path d="M390.568 435.445C390.86 433.286 391.172 431.124 391.453 428.956C391.64 427.564 391.634 426.266 390.135 425.485C388.867 424.834 388.162 423.743 388.072 422.238C388.019 421.203 387.844 420.056 386.534 420.044C385.109 420.048 384.147 421.41 384.448 422.393C385.306 425.109 383.582 424.734 382.137 424.74C381.317 424.745 380.495 424.394 379.681 424.369C374.395 424.18 370.96 429.339 372.941 434.451C372.969 434.526 373.501 434.399 373.809 434.36C379.398 434.718 385.145 432.686 390.566 435.425L390.568 435.445Z" fill="white"/>
<path d="M390.564 435.444C385.143 432.704 379.396 434.736 373.807 434.378C371.876 436.885 373.393 439.062 374.699 440.948C375.806 442.552 377.461 443.828 379.072 444.981C384.419 448.831 389.891 446.209 390.628 439.461C390.775 438.144 390.597 436.798 390.566 435.463L390.564 435.444Z" fill="#D7D3CD"/>
<path d="M421.165 418.56C419.152 416.893 416.927 417.078 415.488 419.036C413.736 421.402 414.304 425.554 416.6 427.303C418.703 428.899 421.267 428.612 422.836 426.597C424.614 424.288 423.891 420.811 421.165 418.56Z" fill="white"/>
<path d="M303.438 654.978C303.812 650.966 297.036 645.624 292.152 648.761C272.745 672.449 296.97 661.209 302.39 660.599C302.39 660.599 303.064 658.989 303.438 654.978Z" fill="white"/>
<path d="M299.805 657.87C294.384 655.13 286.676 653.329 285.022 659.76C284.378 662.264 284.608 664.444 285.914 666.33C287.021 667.934 288.676 669.21 290.287 670.363C295.634 674.213 301.106 671.591 301.843 664.843C301.99 663.526 302.395 660.258 302.395 660.258C302.365 658.924 299.805 657.87 299.805 657.87Z" fill="#D7D3CD"/>
<path d="M333.491 644.718C331.478 643.051 329.254 643.235 327.815 645.194C326.062 647.559 326.63 651.711 328.927 653.461C331.029 655.057 333.593 654.769 335.162 652.755C336.94 650.445 336.218 646.968 333.491 644.718Z" fill="white"/>
</svg>
