<svg width="842" height="712" viewBox="0 0 842 712" fill="none" xmlns="http://www.w3.org/2000/svg">
<path d="M760.105 303.328C761.529 300.599 759.561 299.908 757.696 299.605C754.705 299.116 751.835 299.66 749.306 301.569C747.909 302.626 746.787 303.912 745.788 305.332C740.847 312.314 735.081 318.408 727.711 322.837C722.037 326.247 717.144 330.61 713.055 335.892C711.797 337.508 710.453 339.092 708.567 339.96C703.207 342.425 699.187 346.667 694.837 350.469C685.113 358.97 674.84 366.542 662.294 370.282C659.927 370.996 657.658 372.127 655.418 373.215C651.334 375.2 647.344 377.095 642.536 376.368C639.187 375.86 635.991 377.279 633.512 379.54C625.807 386.557 616.46 391.045 608.084 397.016C606.351 398.245 604.482 399.156 602.421 398.555C599.601 397.729 596.575 400.469 593.603 397.245C593.436 396.905 594.241 396.167 594.513 395.303C594.955 393.928 595.518 392.465 593.668 391.715C592.149 391.091 589.744 392.44 589.192 394.132C588.739 395.547 588.762 396.969 589.432 398.283C590.218 399.854 589.464 400.675 588.147 401.19C586.796 401.711 585.468 403.182 583.97 401.498C583.443 400.917 582.981 400.287 582.425 399.749C580.065 397.498 577.466 396.577 574.425 398.421C571.318 400.314 567.959 400.336 564.531 399.851C562.387 403.867 563.203 406.044 567.181 405.262C572.883 404.162 577.831 405.715 582.921 407.511C585.014 408.245 587.142 408.213 589.334 407.754C595.696 406.413 602.207 405.889 608.269 403.103C612.988 400.938 617.374 398.315 620.672 394.333C624.855 389.274 630.366 386.032 635.432 382.203C636.862 381.121 638.851 380.439 640.633 380.303C644.369 380.029 647.682 377.904 651.481 378.053C652.94 378.115 653.989 376.935 655.174 376.185C658.805 373.892 662.637 372.248 667.02 373.366C668.44 373.731 669.478 373.081 670.445 372.333C679.795 365.019 690.206 359.33 699.952 352.631C706.787 347.946 712.04 342.056 717.236 335.824C720.53 331.87 724.408 328.617 728.715 325.637C734.844 321.413 740.659 316.524 744.849 310.112C747.498 306.061 751.299 303.858 755.594 302.261C757.369 301.599 758.936 301.594 760.133 303.332L760.105 303.328Z" fill="white"/>
<path d="M793.739 400.738C792.633 403.455 790.84 405.621 788.47 407.232C782.826 411.091 777.506 415.623 770.115 415.63C768.365 415.631 767.024 416.965 765.797 418.223C763.611 420.487 761.735 422.972 760.038 425.648C756.783 430.799 752.608 431.708 746.816 430.076C742.891 428.968 738.939 427.161 734.605 427.942C733.402 428.158 732.443 428.47 732.748 429.998C733.238 432.401 731.496 433.418 729.939 434.393C723.062 438.668 715.722 441.555 707.549 441.573C701.419 441.594 695.526 442.859 689.781 444.94C686.397 446.16 682.972 447.194 679.417 447.677C674.795 448.315 673.052 446.693 673.281 442.023C673.412 439.305 673.517 436.536 671.462 434.471C669.935 432.941 671.159 431.554 671.303 430.093C671.423 428.868 671.883 427.442 670.296 426.849C668.926 426.345 667.874 427.127 667.12 428.217C666.593 428.978 666.02 429.85 665.913 430.721C664.902 438.245 659.739 442.147 653.538 444.708C647.96 447.018 641.968 444.959 638.117 440.097C636.863 438.508 635.825 436.742 634.69 435.048C633.545 433.347 632.458 431.45 630.595 430.628C626.93 429.011 625.847 425.475 624.094 422.393C623.38 421.142 623.423 419.94 624.435 418.924C627.629 415.719 629.148 411.242 632.448 408.13C631.828 407.862 631.201 407.873 630.701 408.306C626.268 412.159 622.703 416.662 620.876 422.389C620.258 424.333 620.521 426.101 622.109 427.565C623.296 428.647 623.83 430.134 624.383 431.618C625.307 434.109 626.395 436.496 627.756 438.824C631.041 444.482 631.63 453.005 625.074 458.047C624.349 458.603 623.702 459.359 623.224 460.139C622.435 461.457 622.439 462.929 623.415 464.114C624.233 465.124 625.445 464.692 626.451 464.335C630.98 462.714 635.575 461.22 639.989 459.296C643.059 457.946 646.21 457.286 649.451 456.99C659.059 456.083 668.617 454.557 677.702 451.319C683.538 449.24 689.666 449.469 695.435 447.643C704.025 444.921 713.235 445.215 721.68 441.695C724.592 440.485 727.356 438.997 729.641 436.993C731.537 435.327 733.712 434.176 735.674 432.684C739.008 430.149 742.61 431.879 743.855 436.099C744.828 439.415 745.217 439.724 748.257 438.732C751.72 437.599 754.829 435.882 756.317 432.188C756.746 431.12 757.544 430.393 758.356 429.645C759.734 428.369 761.36 427.206 762.316 425.645C765.073 421.103 769.19 418.936 774.091 418.007C777.641 417.33 780.813 415.611 784.191 414.465C788.934 412.871 792.188 409.109 795.612 405.705C797.384 403.951 797.073 403.461 793.761 400.706L793.739 400.738Z" fill="white"/>
<path d="M614.466 279.011C614.666 276.08 615.69 273.455 617.434 271.173C621.582 265.718 625.212 259.727 632.224 257.372C633.884 256.815 634.74 255.123 635.51 253.54C636.877 250.697 637.878 247.742 638.651 244.663C640.128 238.741 643.806 236.552 649.813 236.261C653.884 236.065 658.201 236.524 662.069 234.406C663.143 233.818 663.955 233.218 663.188 231.865C661.971 229.74 663.305 228.222 664.478 226.802C669.666 220.56 675.728 215.488 683.478 212.874C689.289 210.907 694.485 207.834 699.286 204.034C702.115 201.801 705.042 199.732 708.265 198.144C712.451 196.07 714.612 197.055 715.857 201.559C716.583 204.18 717.35 206.841 719.947 208.148C721.874 209.115 721.148 210.82 721.468 212.252C721.738 213.453 721.747 214.952 723.439 215.011C724.897 215.053 725.65 213.977 726.025 212.704C726.287 211.813 726.557 210.805 726.386 209.944C724.991 202.482 728.669 197.139 733.752 192.738C738.323 188.774 744.654 188.825 749.83 192.215C751.517 193.324 753.055 194.671 754.662 195.917C756.281 197.168 757.907 198.622 759.931 198.81C763.915 199.181 766.05 202.193 768.678 204.56C769.747 205.521 770.083 206.675 769.44 207.961C767.413 212.016 767.372 216.747 765.214 220.75C765.886 220.807 766.478 220.598 766.818 220.028C769.818 214.963 771.792 209.556 771.734 203.541C771.712 201.5 770.908 199.906 768.943 199.022C767.479 198.371 766.506 197.13 765.517 195.898C763.861 193.828 762.081 191.908 760.06 190.131C755.173 185.805 751.946 177.904 756.589 171.037C757.104 170.278 757.481 169.356 757.69 168.463C758.026 166.962 757.562 165.567 756.265 164.752C755.172 164.054 754.157 164.848 753.314 165.507C749.524 168.484 745.631 171.362 742.045 174.59C739.553 176.846 736.769 178.474 733.787 179.785C724.953 183.698 716.361 188.183 708.753 194.143C703.865 197.97 697.978 199.699 693.074 203.265C685.775 208.578 676.942 211.224 670.03 217.248C667.646 219.321 665.488 221.612 663.947 224.24C662.669 226.423 660.965 228.206 659.571 230.245C657.2 233.711 653.24 233.213 650.738 229.604C648.777 226.767 648.311 226.597 645.736 228.504C642.804 230.679 640.392 233.297 640.136 237.275C640.063 238.425 639.533 239.368 638.997 240.336C638.088 241.984 636.909 243.605 636.49 245.39C635.296 250.577 632.067 253.941 627.707 256.38C624.55 258.15 622.078 260.789 619.23 262.95C615.229 265.97 613.318 270.573 611.134 274.891C610.002 277.119 610.451 277.485 614.455 279.048L614.466 279.011Z" fill="white"/>
<path d="M399.519 350.486C436.754 443.351 413.525 553.695 352.261 593.74C288.45 635.449 189.278 566.412 151.051 473.97C112.825 381.528 137.961 274.671 207.799 244.625C277.64 214.57 361.99 256.887 399.51 350.484L399.519 350.486Z" fill="white"/>
<path d="M348.173 272.388C346.317 289.266 335.144 270.063 327.383 266.026C298.099 250.774 280.703 240.079 247.658 239.142C247.855 238.108 250.314 236.772 250.477 235.528C143.611 245.183 139.285 375.688 133.996 390.631C140.103 440.449 -19.9841 461.197 -55.6824 436.124C-62.2481 431.513 -83.6798 383.492 -94.0639 429.075C-107.839 477.573 -98.2105 528.519 -79.6226 573.725C-115.687 515.752 -111.716 434.851 -74.5142 377.832C-59.6212 363.465 -84.1729 356.191 -91.0598 344.621C-169.441 240.28 52.0851 123.516 135.224 289.375C134.453 312.961 85.1608 241.827 79.2445 239.093C64.6365 218.7 41.9901 228.21 22.6932 233.411C22.5399 232.832 22.3467 232.298 22.1168 231.804C18.1238 223.226 3.06355 226.926 -6.27615 223.454C-21.5122 218.41 -55.3721 221.954 -52.7894 245.089C-51.2121 254.327 -63.2424 252.736 -67.1565 257.831C-70.7332 263.54 -62.6148 265.133 -58.8625 262.827C-41.3069 257.769 -5.66267 256.445 5.48301 268.688C-40.1977 253.805 -136.495 290.316 -81.0542 348.999C-72.0996 358.474 -66.9259 369.596 -56.0879 374.825C-49.6249 376.868 -46.741 381.167 -46.2265 387.863C-45.6827 394.858 -41.657 397.624 -34.7681 396.206C13.2855 407.236 61.5769 378.833 107.636 375.421C128.44 373.877 121.195 350.114 129.12 324.445C132.452 313.652 138.465 302.523 150.372 292.566C184.605 219.938 285.029 210.503 340.11 264.461L348.173 272.388Z" fill="#D2A3A3"/>
<path d="M180.999 301.007C177.313 296.4 184.007 292.023 186.05 290.501C188.237 288.875 193.206 285.995 201.747 278.04C210.271 270.1 226.947 263.497 229.097 261.814C258.514 259.587 285.682 258.445 305.113 267.633C331.683 280.195 317.074 290.886 334.535 276.973C334.547 275.645 345.396 272.077 346.825 271.109C356.859 281.047 369.965 295.572 378.157 307.113C380.961 311.067 383.149 315.538 385.746 319.633C386.341 320.572 389.173 325.206 386.162 325.215C377.989 330.832 372.362 339.972 363.839 344.992C353.706 350.963 351.214 349.737 346.446 343.077C343.193 338.534 336.962 329.487 334.06 326.232C322.461 313.198 308.732 303.795 297.414 296.416C261.746 273.163 229.7 275.026 216.363 278.526C207.744 280.793 193.406 288.41 187.652 293.978C181.898 299.547 180.999 301.007 180.999 301.007Z" fill="#D2A3A3"/>
<path d="M70.7235 666.112C70.6328 662.91 84.1705 644.936 86.8214 641.811C109.4 615.227 150.564 593.416 183.364 584.714C188.52 583.334 190.372 575.505 190.201 570.525C190.026 565.551 185.236 563.164 185.57 558.632C189.611 561.841 192.509 565.576 196.094 568.602C212.778 582.667 231.311 593.711 250.748 603.369C252.105 604.043 253.869 604.177 254.438 605.992C235.746 607.166 217.394 610.557 199.181 614.763C185.909 617.828 172.48 620.309 159.555 624.702C148.132 628.58 136.874 632.935 126.839 639.917C124.978 641.214 123.186 642.572 121.935 644.537C118.952 649.219 114.374 651.829 109.612 654.252C97.328 660.501 84.39 664.501 70.7283 666.142L70.7235 666.112Z" fill="#D2A3A3"/>
<path d="M397.219 373.354C391.213 377.763 384.319 377.057 380.546 370.822C377.77 366.217 373.742 362.805 370.776 358.473C368.894 355.718 368.365 353.059 371.381 350.504C372.586 349.48 373.304 347.868 374.645 345.947C371.041 347.456 366.411 353.851 366.308 356.641C366.277 357.487 366.538 358.215 367.004 358.869C369.72 362.71 370.869 367.29 372.635 371.542C374.53 376.128 373.61 383.41 366.939 386.476C365.549 385.592 365.405 384.023 364.978 382.652C361.014 369.94 354.961 358.194 348.594 346.592C347.644 344.851 345.656 343.282 346.869 340.831C353.962 339.77 360.918 338.002 366.201 332.907C370.563 328.697 375.35 325.28 380.463 322.182C384.349 319.83 385.785 320.252 387.944 324.119C394.29 335.492 399.706 347.27 404.049 359.565C405 362.255 404.715 364.546 403.029 366.742C401.481 365.812 401.341 364.107 400.941 362.623C398.503 353.546 393.905 345.453 389.696 337.18C389.432 336.657 389.165 336.144 388.507 336.133C387.713 336.12 387.31 336.689 386.996 337.312C386.465 338.369 386.542 339.506 386.58 340.647C386.75 344.802 388.006 348.667 389.687 352.426C392.288 358.224 394.588 364.148 396.722 370.133C397.091 371.152 397.839 372.165 397.217 373.364L397.219 373.354Z" fill="#D2A3A3"/>
<path d="M400.39 444.412C401.634 444.646 401.976 445.348 401.912 446.579C401.647 451.318 401.568 455.931 398.637 460.172C395.931 464.107 394.866 468.577 395.594 473.714C396.318 478.763 394.338 483.786 393.41 488.787C390.358 505.194 382.996 519.805 374.471 533.872C370.546 540.354 366.038 546.477 360.332 551.551C359.311 552.459 358.45 553.872 356.583 552.88C354.742 551.902 353.684 551.424 355.57 549.075C364.386 538.058 369.939 525.379 373.526 511.77C379.488 489.133 380.374 464.062 378.056 440.731C377.851 438.702 381.717 440.33 383.896 440.689C389.503 441.613 394.826 443.381 400.39 444.412Z" fill="#D2A3A3"/>
<path d="M369.008 390.834C373.366 389.762 377.604 388.348 381.836 386.855C387.396 384.896 393.359 385.654 399.103 384.771C400.088 384.621 401.104 384.642 402.104 384.581C405.485 389.344 404.877 397.215 400.866 400.759C398.859 401.758 398.428 403.34 398.674 405.532C399.515 412.908 399.866 420.311 399.846 428.562C393.361 423.307 384.531 427.123 377.835 427.233C378.55 422.825 370.635 395.777 368.999 390.832L369.008 390.834Z" fill="#D2A3A3"/>
<path d="M524.611 478.598C524.498 478.579 524.37 478.588 524.28 478.544C519.124 475.689 516.079 477.583 513.784 482.692C512.432 485.696 509.088 485.967 506.098 485.846C503.331 485.732 501.825 486.755 501.678 489.635C501.582 491.605 500.924 493.384 499.607 494.918C498.303 496.434 497.16 497.556 495.186 495.666C493.639 494.188 491.722 494.997 490.11 495.719C486.623 497.286 483.221 499.053 479.792 500.738C476.934 502.144 474.031 502.566 471.031 501.191C465.447 498.638 460.36 499.599 456.094 503.991C452.979 507.214 452.926 507.244 450.247 503.419C449.151 501.859 447.802 500.541 446.77 498.885C445.083 496.181 446.034 495.164 448.507 494.105C452.263 492.494 456.381 492.058 460.103 490.598C464.717 488.786 469.081 489.945 473.625 490.059C479.164 490.199 484.644 490.408 489.982 486.759C493.563 484.318 497.311 482.275 500.289 479.001C501.59 477.562 503.398 478.261 504.715 478.938C507.208 480.209 508.454 479.466 509.3 477.004C510 474.968 511.613 474.48 513.637 474.687C518.813 475.207 523.124 473.766 526.054 469.056C527.564 466.625 531.792 466.354 533.816 468.36C535.662 470.199 534.789 473.009 531.885 473.733C529.953 474.217 528.653 474.746 528.361 477.025C528.067 479.314 526.217 478.873 524.629 478.611L524.611 478.598Z" fill="white"/>
<path d="M348.339 301.112C348.07 302.556 303.914 271.92 290.158 269.318C249.984 257.234 221.237 258.132 194.691 286.021C178.083 303.434 166.48 320.712 160.327 344.211C157.756 354.007 156.194 363.99 155.126 373.975C153.774 386.613 153.564 399.38 154.223 412.125C155.037 427.975 156.763 443.712 161.269 458.949C164.507 469.917 169.49 480.235 174.578 490.453C180.442 502.226 187.648 513.145 195.395 523.722C238.573 594.183 331.197 591.473 386.291 533.535C386.829 533.506 395.631 526.678 401.085 530.592C399.51 535.713 383.459 565.435 378.819 570.685C375.537 574.398 371.983 577.871 368.626 581.513C365.824 584.548 361.498 587.978 359.177 589.726C345.045 600.366 329.16 606.853 311.893 610.071C308.47 610.72 308.18 610.831 304.969 611.169C298.301 611.88 291.624 611.992 284.907 611.814C274.344 611.531 264.427 608.341 254.317 605.922C243.503 600.844 232.906 595.322 222.805 588.905C210.038 580.786 197.549 572.273 186.922 561.201C191.741 565.839 191.622 571.237 189.529 576.956C189.297 577.603 189.062 578.278 189.109 578.941C189.391 582.645 187.011 584.629 184.065 585.2C173.762 587.199 164.826 592.914 154.818 595.666C152.634 596.264 150.815 597.725 148.778 598.671C132.738 606.11 118.732 616.868 104.148 626.641C94.4996 633.1 86.9699 641.932 80.2311 651.394C79.4265 652.523 78.7655 653.724 78.6484 655.103C78.2707 659.403 76.3401 662.625 72.4182 664.541C71.7011 664.893 71.2149 665.556 70.6085 666.062C63.5745 666.878 56.527 666.881 49.4774 666.179C47.472 665.975 45.4422 666.042 43.4384 665.829C28.3275 664.199 13.9746 660.113 0.312661 653.264C-15.1536 645.513 -30.0865 637.047 -42.6039 624.822C-52.4645 615.187 -61.763 605.019 -69.3286 593.445C-72.4168 588.73 -76.0757 584.362 -78.4802 579.203C-79.2949 577.465 -80.1348 575.703 -79.7377 573.675C-80.5657 570.106 -82.3972 566.978 -84.0714 563.778C-89.7927 552.801 -92.3782 540.805 -95.3195 528.907C-97.945 518.293 -99.4088 507.519 -100.342 496.646C-100.743 492.003 -101.543 487.421 -102.681 482.891C-103.351 480.199 -103.261 477.613 -102.541 474.856C-100.357 466.482 -100.266 457.793 -99.191 449.256C-97.9989 439.761 -96.2143 430.382 -92.3978 421.642C-89.3242 414.598 -74.0888 399.731 -66.6765 409.275C-58.8123 419.413 -52.1801 444.018 -36.5207 435.183C-4.05937 416.832 64.0554 431.543 124.215 410.182C124.324 408.711 128.421 408.189 130.146 404.394C131.865 393.807 136.534 378.916 135.126 387.592C136.044 398.199 137.854 415.432 139.218 425.984C139.971 431.81 140.482 437.694 142.012 443.394C142.103 443.731 142.155 444.072 142.187 444.41C142.729 449.145 143.444 453.83 145.714 458.801C148.081 454.086 147.17 449.593 147.877 445.358C148.281 442.51 148.02 439.689 147.475 436.89C147.358 424.695 144.899 412.759 143.486 400.712C141.615 384.795 143.699 369.265 147.434 353.851C148.318 350.202 148.842 346.494 149.384 342.799C151.534 328.239 157.366 315.214 165.474 303.122C168.322 298.882 168.519 298.552 171.496 294.402C171.789 293.971 174.638 289.542 174.966 289.137C188.069 270.592 214.418 237.246 250.095 235.551C272.379 234.492 340.685 247.833 348.339 301.112Z" fill="#F6D4D4"/>
<path d="M329.251 578.24C329.253 583.9 307.275 587.546 303.185 587.411C294.341 587.118 285.458 587.365 276.704 585.443C254.091 580.49 216.431 561.781 205.474 539.054C206.805 538.989 207.41 540.047 208.184 540.84C222.216 555.153 238.275 566.425 257.27 572.949C278.335 580.177 299.588 580.686 320.815 573.524C323.865 572.497 331.123 580.874 329.251 578.24Z" fill="#D2A3A3"/>
<path d="M499.163 614.47C499.246 616.41 498.315 617.9 497.739 619.477C495.571 625.418 496.599 631.103 498.86 636.728C499.109 637.346 499.371 638.005 499.383 638.643C499.407 639.576 499.102 640.377 498.083 640.795C497.021 641.237 496.396 640.84 495.802 640.019C494.323 638.005 492.684 636.023 492.432 633.449C492.173 630.863 490.826 629.291 488.898 627.653C483.113 622.749 477.046 618.326 470.366 614.751C467.169 613.04 465.294 610.296 464.913 606.664C464.524 602.962 464.263 599.251 464.031 595.536C463.929 593.836 464.604 592.363 466.108 591.535C467.046 591.015 468.211 590.415 469.239 591.377C470.124 592.207 469.741 593.19 469.402 594.201C468.164 597.879 469.802 600.829 473.487 601.329C478.787 602.046 482.845 605.629 487.7 607.348C490.426 608.316 493.094 609.704 496.02 607.761C497.304 606.907 498.205 607.935 498.677 608.972C499.495 610.749 499.906 612.646 499.158 614.44L499.163 614.47Z" fill="white"/>
<path d="M520.572 680.336C512.846 678.72 507.303 673.582 501.87 668.305C497.133 663.7 495.789 657.63 494.786 651.431C494.681 650.758 494.633 649.919 495.332 649.623C496.094 649.289 496.667 650.009 496.883 650.593C499.193 656.812 505.29 658.717 509.957 662.195C512.953 664.429 516.551 664.866 520.263 664.363C523.489 663.926 526.721 663.51 529.961 663.281C532.258 663.122 533.835 662.257 534.362 659.909C534.546 659.078 534.858 658.23 535.752 658.221C536.822 658.212 537.767 658.905 538.104 659.88C538.469 660.918 538.786 662.193 538.525 663.206C536.783 669.99 533.238 675.685 527.472 679.693C525.48 681.076 522.973 681.034 520.561 680.344L520.572 680.336Z" fill="white"/>
<path d="M400.869 400.759C404 395.583 403.594 390.127 402.107 384.581C403.934 384.031 405.776 383.562 407.704 384.007C410.085 384.947 409.764 387.339 410.141 389.142C412.164 398.688 413.825 408.302 414.771 418.023C415.569 426.262 416.198 434.522 416.368 442.805C416.401 444.218 416.831 445.815 415.27 446.819C412.079 442.019 407.664 438.064 407.342 431.498C406.836 421.282 406.337 410.961 401.444 401.577C401.287 401.287 401.057 401.034 400.859 400.757L400.869 400.759Z" fill="#F6D4D4"/>
<path d="M608.538 289.325C611.715 289.848 612.44 291.181 610.788 293.94C607.062 300.153 601.489 303.87 594.585 305.676C588.036 307.394 583.285 311.422 579.668 317.085C577.714 320.147 574.767 322.097 571.228 322.853C568.866 323.354 566.308 322.845 565.781 320.234C565.298 317.827 566.841 316.634 569.569 315.793C576.117 313.781 580.667 308.839 584.732 303.407C589.578 296.939 596.156 292.712 603.581 289.848C606.127 288.869 606.878 289.032 608.549 289.317L608.538 289.325Z" fill="white"/>
<path d="M150.412 292.542C150.394 292.657 150.4 292.853 150.36 292.866C145.041 294.533 145.958 300.307 143.313 303.744C142.22 305.158 141.385 306.771 140.233 308.606C137.749 305.849 134.692 305.727 131.402 305.781C127.295 305.848 123.505 304.382 120.104 302.012C119.836 299.239 121.281 297.336 123.228 295.681C123.823 292.737 125.582 290.035 124.985 286.836C124.802 285.867 125.528 285.341 126.388 285.307C127.738 285.246 129.083 285.33 129.986 286.643C130.535 287.447 130.478 288.338 130.586 289.226C130.776 290.744 131.681 291.627 133.231 291.823C135.182 292.067 134.916 290.477 135.259 289.38C140.15 291.242 145.324 291.714 150.429 292.555L150.412 292.542Z" fill="#F6D4D4"/>
<path d="M560.088 665.986C560.397 665.157 560.076 664.087 561.047 663.846C562.018 663.605 562.328 664.625 562.724 665.237C566.155 670.585 570.746 673.582 577.316 673.168C579.395 673.041 580.837 674.443 581.655 676.397C582.412 678.194 581.953 679.703 580.657 681.054C579.781 681.965 577.972 682.46 578.784 684.217C579.662 686.102 581.328 687.081 583.406 687.14C584.845 687.182 586.2 686.965 587.612 687.775C590.835 689.626 591.541 691.376 589.901 694.362C588.41 697.089 585.336 698.03 582.731 696.378C580.918 695.229 579.458 693.639 578.215 691.849C574.999 687.202 571.602 682.896 566.762 679.585C562.299 676.522 559.658 671.745 560.08 665.975L560.088 665.986Z" fill="white"/>
<path d="M339.636 664.436C342.951 659.202 339.932 652.269 341.931 645.997C342.227 645.068 341.81 643.209 343.589 643.796C345.764 644.514 347.324 646.507 348.906 648.173C351.026 650.42 352.274 652.895 350.819 656.117C349.925 658.102 349.676 660.232 350.44 662.402C352.865 669.286 349.557 675.733 348.846 682.384C348.711 683.633 347.46 684.581 346.083 684.393C344.791 684.219 344.289 683.012 344.323 681.844C344.395 678.707 342.987 676.323 341.043 674.007C338.928 671.488 338.854 668.414 339.634 664.445L339.636 664.436Z" fill="white"/>
<path d="M589.725 222.854C586.344 231.481 581.79 238.906 573.309 243.191C570.93 244.393 568.974 243.708 567.713 241.789C566.289 239.618 564.532 237.167 566.338 234.355C567.17 233.054 568.182 231.783 569.703 231.144C575.021 228.881 579.099 225.103 582.557 220.548C582.756 220.278 583.042 220.071 583.259 219.813C584.547 218.275 586.092 216.828 588.141 217.782C590.317 218.786 589.315 221.134 589.723 222.864L589.725 222.854Z" fill="white"/>
<path d="M585.762 179.285C585.414 179.874 585.2 180.415 584.833 180.824C581.373 184.675 578.343 189.114 574.287 192.152C570.861 194.717 567.625 197.431 564.415 200.227C558.908 205.031 553.359 209.789 547.838 214.561C546.269 215.916 544.602 216.796 542.761 215.103C540.953 213.446 542.382 212.117 543.283 210.691C547.296 204.33 553.134 200.295 559.887 197.505C564.112 195.757 567.107 192.612 569.922 189.203C571.855 186.862 573.763 184.496 575.731 182.18C576.152 181.682 576.761 181.039 577.32 181.004C579.897 180.852 582.06 179.79 584.109 178.348C584.417 178.125 585.028 178.01 585.312 178.174C585.588 178.328 585.619 178.91 585.761 179.295L585.762 179.285Z" fill="white"/>
<path d="M397.219 373.355C393.799 364.762 390.38 356.17 386.971 347.569C385.959 345.015 385.781 342.287 385.637 339.583C385.547 337.867 385.839 336.125 387.591 335.201C388.643 334.641 389.779 334.339 390.318 335.924C392.821 343.164 397.791 349.264 399.82 356.737C400.737 360.116 401.95 363.406 403.031 366.734C402.329 370.041 400.525 372.365 397.219 373.355Z" fill="#F6D4D4"/>
<path d="M415.281 446.821C415.864 440.061 415.012 433.349 414.57 426.625C413.648 412.635 411.551 398.822 408.28 385.188C408.183 384.771 407.913 384.403 407.715 384.009C409.851 382.092 410.858 382.405 411.675 385.385C417.154 405.447 418.5 425.972 418.776 446.634C418.891 455.015 418.042 463.354 417.114 471.7C415.535 463.489 415.896 455.108 415.282 446.811L415.281 446.821Z" fill="#D2A3A3"/>
<path d="M458.292 331.584C460.899 331.789 463.432 332.813 465.529 334.899C465.905 335.274 466.465 335.474 466.933 335.757C468.129 336.462 470.869 334.655 470.623 337.186C470.337 340.142 472.071 343.694 468.208 346.021C464.453 348.287 460.901 348.758 457.133 346.68C454.176 345.038 451.609 342.914 450.044 339.761C448.895 337.449 448.643 335.236 450.282 333.091C451.848 331.041 453.982 330.747 456.345 331.264C456.888 331.382 457.451 331.446 458.292 331.584Z" fill="white"/>
<path d="M269.728 631.112C269.521 633.944 267.709 635.415 265.265 636C263.114 636.516 259.294 634.038 258.668 631.617C258.091 629.37 257.047 627.487 255.909 625.529C254.959 623.906 254.24 621.939 255.127 620.002C255.953 618.201 256.562 615.886 259.099 615.923C262.189 615.963 265.089 617.233 266.391 620.039C267.648 622.76 268.46 625.71 269.802 628.445C270.144 629.147 269.777 630.211 269.737 631.114L269.728 631.112Z" fill="white"/>
<path d="M414.749 599.248C412.567 598.517 411.007 595.932 408.898 594.157C405.702 591.478 403.282 588.028 403.081 583.467C402.976 581.122 403.921 579.967 406.113 579.321C412.207 577.538 415.596 581.774 416.365 586.781C416.857 590.031 417.122 593.243 418.578 596.29C419.551 598.309 417.8 599.888 414.748 599.258L414.749 599.248Z" fill="white"/>
<path d="M616.151 364.535C613.561 363.991 610.489 364.199 610.735 360.053C610.876 357.69 617.023 352.053 618.485 353.389C622.545 357.08 626.966 355.139 631.299 355.296C634.059 355.398 634.869 357.459 633.362 359.87C632.678 360.97 631.744 361.883 630.591 362.289C625.918 363.925 621.2 365.426 616.142 364.534L616.151 364.535Z" fill="white"/>
<path d="M644.085 247.549C641.483 247.257 639.78 246.028 639.255 243.702C638.616 240.878 640.331 238.745 641.821 236.623C647.033 229.104 662.387 234.577 649.21 246.232C647.693 247.567 645.866 248.058 644.095 247.551L644.085 247.549Z" fill="white"/>
<path d="M453.011 641.769C452.912 642.075 452.745 643.104 452.291 643.987C450.434 647.593 446.567 649.831 443.907 648.933C441.046 647.963 438.409 642.443 439.075 638.875C439.347 637.443 440.024 636.558 441.594 636.875C443.653 637.283 445.6 636.772 447.554 636.214C451.902 634.965 453.797 636.627 453 641.777L453.011 641.769Z" fill="white"/>
<path d="M397.354 186.339C398.406 179.979 401.344 177.725 407.61 178.171C409.749 178.328 410.737 179.42 410.423 181.471C409.662 186.46 406.775 190.19 402.812 192.96C400.492 194.573 399.166 192.398 398.021 190.723C397.079 189.345 396.957 187.77 397.354 186.339Z" fill="white"/>
<path d="M382.428 711.397C383.381 716.591 381.904 720.123 378.338 720.748C375.15 721.308 370.955 717.614 370.139 713.548C367.493 700.39 381.518 706.469 382.428 711.397Z" fill="white"/>
<path d="M502.083 259.032C500.518 259.224 499.407 258.835 498.677 257.532C497.573 255.54 495.136 254.171 495.816 251.358C500.804 231.521 523.288 256.484 502.083 259.032Z" fill="white"/>
<path d="M419.058 246.62C420.13 240.195 422.388 238.543 428.069 239.127C428.709 239.193 429.101 239.405 429.393 239.942C430.938 242.739 427.244 252.517 424.34 253.31C422.399 253.841 419.503 251.593 419.069 249.067C418.886 247.98 419.062 246.836 419.058 246.62Z" fill="white"/>
<path d="M349.961 191.434C354.084 191.443 354.508 194.447 354.378 197.465C354.21 201.741 351.123 204.93 347.453 205.062C343.203 205.203 336.941 200.487 336.037 196.245C335.617 194.242 335.766 191.977 338.446 191.774C342.27 191.483 346.128 191.54 349.959 191.447L349.961 191.434Z" fill="white"/>
<path d="M662.472 221.619C660.357 221.075 658.585 220.156 658.346 217.975C658.102 215.715 658.786 213.95 661.442 213.136C663.64 212.452 665.628 211.029 667.609 209.771C669.273 208.725 670.744 208.635 672.153 210.06C673.602 211.541 672.533 212.744 671.635 213.906C670.068 215.966 668.451 217.978 666.866 220.025C665.683 221.571 664.06 221.704 662.474 221.609L662.472 221.619Z" fill="white"/>
<path d="M520.547 286.647C516.127 285.889 516.25 282.741 515.694 280.067C515.163 277.535 516.867 276.789 518.784 276.098C520.773 275.389 522.691 274.453 524.67 273.684C525.685 273.293 526.831 272.631 527.755 273.752C528.69 274.874 529.037 276.262 527.954 277.433C525.827 279.713 524.207 282.214 523.286 285.26C522.823 286.797 521.273 286.835 520.547 286.647Z" fill="white"/>
<path d="M633.598 335.567C632.294 335.225 630.936 334.385 630.317 332.816C629.661 331.173 630.787 329.979 631.844 328.97C635.018 325.923 638.707 324.84 643.029 326.08C644.847 326.604 645.445 327.583 644.743 329.335C643.394 332.742 637.362 336.236 633.598 335.567Z" fill="white"/>
<path d="M417.279 235.789C415.066 235.424 412.322 231.764 412.414 229.403C415.489 218.095 433.029 230.642 417.288 235.79L417.279 235.789Z" fill="white"/>
<path d="M547.749 409.68C546.986 407.383 546.628 405.701 548.401 403.87C550.184 402.032 552.113 401.45 554.507 402.011C555.743 402.293 557.053 402.656 557.241 404.124C557.425 405.504 557.048 406.811 555.811 407.732C554.785 408.492 553.683 409.064 552.431 409.18C551.15 409.301 550.349 409.747 550.078 411.12C549.493 414.006 547.308 414.429 544.907 414.209C542.993 414.04 541.54 413.009 541.99 410.892C542.43 408.842 544.076 408.39 545.966 408.946C546.577 409.125 547.158 409.436 547.758 409.681L547.749 409.68Z" fill="white"/>
<path d="M585.754 583.469C589.631 586.856 593.374 587.893 597.54 586.985C598.706 586.738 599.151 587.407 599.475 588.341C600.025 589.918 600.119 591.606 599.035 592.845C596.028 596.301 591.888 596.988 589.313 592.818C587.689 590.203 586.209 587.661 585.756 583.459L585.754 583.469Z" fill="white"/>
<path d="M432.98 642.663C432.622 643.856 433.003 645.689 431.02 646.007C429.205 646.305 428.456 644.822 427.743 643.59C426.216 640.981 424.764 638.326 423.406 635.628C422.806 634.424 422.349 632.989 423.57 631.87C424.641 630.892 425.967 631.395 427.072 631.821C431.007 633.35 433.673 638.278 432.982 642.653L432.98 642.663Z" fill="white"/>
<path d="M313.432 240.68C309.176 242.656 303.544 240.681 303.362 240.074C301.922 235.046 305.364 225.752 310.542 226.143C325.023 227.211 317.689 238.703 313.432 240.68Z" fill="white"/>
<path d="M443.28 204.804C441.446 204.325 440.909 203.024 440.662 201.321C440.051 197.132 442.804 193.987 447.047 194.393C454.632 195.135 448.522 206.171 443.28 204.804Z" fill="white"/>
<path d="M278.535 217.739C274.417 216.913 272.075 217.428 270.254 214.444C269.272 212.835 269.121 212.057 269.692 210.691C270.339 209.145 271.066 208.342 273.347 208.479C275.628 208.617 276.471 210.064 279.522 210.283C283.332 210.549 284.884 212.888 283.424 215.845C282.384 217.943 280.583 218.155 278.536 217.729L278.535 217.739Z" fill="white"/>
<path d="M680.636 540.215C676.054 539.499 673.543 534.88 675.329 530.754C675.778 529.722 676.457 528.768 677.539 529.876C679.161 531.542 681.341 532.224 683.188 533.467C684.763 534.528 687.018 535.702 686.124 537.804C685.231 539.896 683.004 540.997 680.636 540.215Z" fill="white"/>
<path d="M414.711 248.515C414.124 252.134 411.868 253.953 408.427 253.621C405.122 253.291 402.506 250.396 402.674 247.264C402.743 245.946 403.494 245.62 404.465 246.278C406.584 247.694 408.334 246.779 410.02 245.541C411.321 244.582 412.686 244.191 414.073 245.094C415.373 245.934 414.848 247.315 414.71 248.524L414.711 248.515Z" fill="white"/>
<path d="M619.128 266.917C616.418 266.51 615.48 264.575 616.929 262.349C619.346 258.64 623.139 256.918 627.283 255.968C628.352 255.723 629.328 256.109 629.112 257.619C628.845 259.501 622.075 266.581 620.136 266.927C619.707 267.003 619.245 266.917 619.128 266.917Z" fill="white"/>
<path d="M366.369 219.109C364.939 221.547 364.255 224.769 359.05 223.992C355.786 223.501 353.275 217.877 354.468 214.508C355.45 211.74 360.716 208.857 363.732 209.782C369.234 211.483 367.834 216.625 366.369 219.109Z" fill="white"/>
<path d="M368.135 246.968C365.357 246.5 361.026 241.61 360.87 239.042C360.819 238.222 361.156 237.7 361.986 237.73C364.214 237.813 366.553 237.221 368.646 238.142C371.301 239.304 370.547 241.977 370.914 244.199C371.394 247.045 370.388 247.74 368.135 246.968Z" fill="white"/>
<path d="M411.377 710.085C414.836 710.185 416.65 710.846 415.918 714.158C415.222 717.31 413.544 719.156 411.134 718.817C409.037 718.521 405.353 713.591 406.182 711.468C407.328 708.537 410.154 710.323 411.377 710.085Z" fill="white"/>
<path d="M428.284 603.766C427.866 605.144 426.651 606.47 424.596 606.278C422.052 606.044 419.576 602.458 419.975 600.059C420.466 597.098 422.801 597.424 424.685 597.598C427.037 597.819 428.9 600.933 428.284 603.766Z" fill="white"/>
<path d="M498.094 235.059C499.723 235.484 501.276 235.006 502.832 234.275C503.516 233.947 504.437 233.415 505.023 234.049C505.701 234.777 505.299 235.816 504.835 236.58C503.6 238.626 502.253 240.527 499.75 241.239C498.101 241.71 496.809 241.175 495.822 240.024C494.826 238.862 494.642 237.306 495.134 235.891C495.607 234.531 496.605 233.884 498.094 235.059Z" fill="white"/>
<path d="M412.322 625.018C412.438 627.11 411.247 627.217 409.719 626.701C407.261 625.876 405.456 622.703 405.776 619.9C405.955 618.374 406.269 616.744 408.003 616.521C409.639 616.311 410.533 617.74 411.189 619.08C412.11 620.944 412.176 622.989 412.322 625.018Z" fill="white"/>
<path d="M411.95 277.073C411.341 278.312 410.877 279.615 410.127 280.704C408.857 282.549 407.017 283.184 405.242 281.62C403.527 280.105 403.921 278.097 405.244 276.466C405.925 275.62 406.957 274.998 407.921 274.443C408.949 273.85 410.187 272.684 411.212 273.303C412.478 274.06 411.492 275.824 411.948 277.082L411.95 277.073Z" fill="white"/>
<path d="M447.277 583.462C445.512 583.152 444.22 581.364 443.307 579.219C443.088 578.713 442.888 578.093 442.99 577.582C443.364 575.698 444.932 575.487 446.378 575.666C448.825 575.962 452.126 580.144 451.44 582.036C450.879 583.577 449.681 584.318 447.277 583.462Z" fill="white"/>
<path d="M649.211 267.005C646.318 266.587 645.503 264.79 646.697 262.757C647.702 261.054 649.077 259.755 650.823 258.869C651.913 258.316 653.069 258.428 653.994 259.187C655.056 260.056 654.857 261.402 654.265 262.302C652.893 264.414 651.636 266.837 649.209 267.014L649.211 267.005Z" fill="white"/>
<path d="M525.775 227.249C525.885 225.673 526.912 224.551 527.846 223.463C529.017 222.111 530.45 220.46 532.38 221.844C534.102 223.076 533.136 225.02 532.509 226.491C532.005 227.679 530.951 228.67 530.027 229.642C529.16 230.555 528.033 231.338 526.779 230.574C525.605 229.852 525.455 228.566 525.775 227.249Z" fill="white"/>
<path d="M625.719 192.735C624.433 192.523 623.927 191.393 624.538 189.665C625.596 186.671 628.073 185.407 630.863 184.722C631.752 184.507 632.942 184.595 633.174 186.032C633.583 188.535 628.904 193.201 625.719 192.735Z" fill="white"/>
<path d="M657.098 586.001C660.378 586.541 661.916 588.311 661.98 590.903C662.022 592.68 660.732 593.631 658.704 593.268C655.94 592.773 653.211 590.211 653.701 588.209C654.213 586.132 655.765 585.722 657.099 585.991L657.098 586.001Z" fill="white"/>
<path d="M242.397 195.861C244.318 196.706 244.96 196.339 246.092 198.453C247.061 200.256 247.141 202.156 245.423 203.291C243.924 204.277 239.519 204.925 238.473 203.472C236.761 201.106 237.264 200.512 237.626 198.285C237.988 196.059 240.477 195.017 242.397 195.861Z" fill="white"/>
<path d="M482.457 244.667C482.579 244.814 482.855 245.026 482.947 245.295C483.238 246.077 480.701 252.074 479.882 252.458C478.665 253.02 477.374 253.736 476.087 252.752C474.731 251.716 475.355 250.264 475.63 248.989C475.949 247.565 480.991 244.367 482.448 244.665L482.457 244.667Z" fill="white"/>
<path d="M460.968 207.707C459.904 207.562 458.919 207.174 458.77 205.995C458.585 204.507 458.753 202.755 460.099 202.057C468.731 197.55 468.087 209.116 460.959 207.706L460.968 207.707Z" fill="white"/>
<path d="M407.493 516.649C405.75 513.095 407.102 509.611 407.997 506.248C408.67 503.718 410.14 501.418 411.713 499.261C411.79 505.426 410.253 511.187 407.502 516.65L407.493 516.649Z" fill="#D2A3A3"/>
<path d="M560.897 649.671C563.617 650.139 565.661 652.98 565.221 655.568C564.956 657.079 564.142 657.728 562.659 657.473C560.527 657.093 557.96 653.295 558.418 651.248C558.726 649.89 559.603 649.448 560.897 649.671Z" fill="white"/>
<path d="M547.918 440.318C546.137 439.985 544.825 438.918 545.286 437.097C546.007 434.213 548.633 434.48 550.803 434.622C552.292 434.721 553.652 435.493 553.319 437.482C552.999 439.454 550.422 440.799 547.918 440.318Z" fill="white"/>
<path d="M544.821 433.551C543.166 433.337 542.458 432.437 542.76 430.756C543.031 429.265 547.32 426.47 548.885 426.875C550.076 427.188 550.755 427.975 550.546 429.379C550.197 431.766 547.284 433.927 544.821 433.551Z" fill="white"/>
<path d="M548.67 322.979C551.396 323.408 552.426 324.595 552.066 326.815C551.502 330.233 548.787 328.66 546.993 328.825C545.476 328.966 543.775 327.903 544.319 326.223C544.997 324.143 546.737 322.748 548.67 322.979Z" fill="white"/>
<path d="M552.44 459.704C550.852 459.207 549.208 458.868 549.535 456.672C549.821 454.734 552.491 453.296 554.904 453.978C556.417 454.403 558.125 455.242 557.556 457.192C556.816 459.72 554.551 459.797 552.431 459.702L552.44 459.704Z" fill="white"/>
<path d="M422.472 643.698C422.236 645.39 421.267 645.436 420.041 644.921C417.962 644.031 415.613 639.79 416.038 637.591C416.32 636.151 417.271 635.076 418.586 636.182C420.866 638.103 422.17 640.714 422.472 643.698Z" fill="white"/>
<path d="M578.43 434.607C577.562 436.723 576.052 437.892 573.946 437.535C572.112 437.233 570.281 436.071 570.559 434.004C570.868 431.678 572.905 431.212 574.99 431.644C576.669 431.999 578.211 432.605 578.432 434.597L578.43 434.607Z" fill="white"/>
<path d="M444.663 616.372C444.25 617.478 443.704 618.513 442.085 618.315C440.01 618.061 437.556 615.358 437.712 613.378C437.846 611.777 438.571 610.84 440.342 611.112C441.943 611.356 444.815 614.715 444.661 616.382L444.663 616.372Z" fill="white"/>
<path d="M509.101 705.477C508.752 706.73 508.007 707.497 506.529 706.374C504.352 704.714 503.229 702.485 502.958 699.731C502.783 697.942 503.821 698.182 504.839 698.428C506.688 698.879 509.443 703.313 509.101 705.477Z" fill="white"/>
<path d="M205.701 225.488C206.271 221.785 215.07 227.208 215.07 227.208C215.07 227.208 215.936 227.954 216.243 228.595C217.452 231.113 212.594 232.599 209.524 230.939C207.721 229.968 205.305 228.064 205.701 225.488Z" fill="white"/>
<path d="M484.496 687.554C486.476 687.86 489.435 692.173 488.951 694.079C488.701 695.084 488.03 695.57 486.963 695.384C485.124 695.052 482.621 690.913 483.026 688.896C483.191 688.062 483.483 687.397 484.496 687.554Z" fill="white"/>
<path d="M667.177 515.632C669.334 516.256 671.529 516.49 671.493 518.67C671.458 520.838 669.197 520.542 667.699 520.781C664.701 521.271 661.622 519.601 658.618 521.062C658.067 521.329 657.42 521.018 657.389 520.271C657.374 519.898 657.617 519.26 657.872 519.174C661.171 518.158 663.972 515.679 667.177 515.632Z" fill="white"/>
<path d="M581.079 465.755C579.755 465.537 578.955 464.721 579.361 463.418C580.085 461.053 582.092 460.288 584.302 460.193C585.593 460.132 586.364 460.943 586.263 462.345C586.137 464.017 583.01 466.054 581.088 465.757L581.079 465.755Z" fill="white"/>
<path d="M402.276 263.53C400.892 263.145 400.397 261.831 400.669 260.692C401.102 258.866 401.91 256.994 404.343 257.082C405.694 257.129 406.367 257.768 406.099 259.24C405.786 260.929 403.479 263.659 402.287 263.522L402.276 263.53Z" fill="white"/>
<path d="M542.416 518.09C544.435 518.569 545.623 519.802 545.668 521.619C545.712 523.201 544.02 523.695 542.962 523.393C541.339 522.93 539.278 522.17 539.46 519.97C539.587 518.474 541.105 518.03 542.416 518.09Z" fill="white"/>
<path d="M424.436 693.413C422.581 693.176 420.48 690.032 420.852 688.401C421.105 687.318 421.873 686.593 422.957 686.557C424.237 686.504 426.359 690.414 426.064 692.057C425.859 693.197 425.101 693.444 424.436 693.413Z" fill="white"/>
<path d="M400.608 272.056C399.83 273.258 400.027 275.755 397.702 275.665C396.284 275.608 395.441 273.923 395.873 272.576C396.44 270.821 397.352 268.79 399.687 269.058C401.174 269.225 400.776 270.724 400.606 272.065L400.608 272.056Z" fill="white"/>
<path d="M696.787 597.024C697.531 595.67 698.334 593.836 700.285 594.08C701.741 594.261 701.87 595.974 701.447 597.147C700.877 598.745 699.927 600.467 697.91 600.212C696.247 599.997 696.494 598.473 696.787 597.024Z" fill="white"/>
<path d="M510.375 291.366C509.263 292.592 508.938 294.836 506.62 294.582C505.055 294.412 504.713 293.231 505.007 291.841C505.412 289.942 506.779 288.935 508.55 288.914C509.726 288.902 510.36 290.024 510.375 291.366Z" fill="white"/>
<path d="M510.495 461.76C509.947 461.67 509.38 461.635 508.842 461.478C508.064 461.252 506.691 461.574 506.798 460.32C506.899 459.221 508.091 459.291 508.992 459.42C510.158 459.592 511.23 459.329 512.235 458.82C513.175 458.349 514.081 457.852 514.942 458.884C515.52 459.566 515.461 460.349 515.087 461.099C514.527 462.219 513.543 462.243 512.487 462.049C511.827 461.931 511.163 461.831 510.501 461.722L510.494 461.77L510.495 461.76Z" fill="white"/>
<path d="M518.232 188.694C517.179 190.878 515.545 191.792 513.29 191.45C512.02 191.26 510.948 190.33 511.486 189.167C512.563 186.84 515.143 187.931 517.009 187.319C517.829 187.053 518.417 187.795 518.223 188.692L518.232 188.694Z" fill="white"/>
<path d="M572.635 392.55C573.975 392.79 575.536 393.037 575.188 394.408C574.683 396.379 572.596 396.68 570.878 396.916C569.598 397.086 568.542 395.876 568.843 394.8C569.349 392.996 570.992 392.386 572.634 392.559L572.635 392.55Z" fill="white"/>
<path d="M443.123 215.877C442.206 217.399 441.262 218.965 439.013 218.585C437.661 218.362 437.471 217.499 437.747 216.341C438.373 213.676 440.669 214.906 442.216 214.466C443.03 214.238 443.333 215.002 443.123 215.877Z" fill="white"/>
<path d="M534.92 439.436C533.8 438.978 532.727 438.234 533.152 436.993C533.63 435.605 535.143 435.13 536.476 435.233C537.656 435.32 538.552 436.201 538.161 437.594C537.704 439.211 536.228 439.212 534.919 439.446L534.92 439.436Z" fill="white"/>
<path d="M387.601 292.651C387.895 290.959 388.353 289.812 389.957 289.978C391.408 290.129 391.833 291.344 391.481 292.43C391.108 293.591 390.808 295.322 389.032 295.137C387.323 294.963 387.538 293.521 387.601 292.651Z" fill="white"/>
<path d="M696.416 468.414C698.849 467.178 701.097 467.088 703.408 467.546C704.391 467.746 705.674 467.817 705.563 469.205C705.457 470.479 704.174 470.728 703.214 470.774C700.8 470.875 698.338 470.878 696.416 468.414Z" fill="white"/>
<path d="M378.965 693.575C380.436 694.14 381.079 695.205 380.962 696.702C380.897 697.64 380.657 698.578 379.417 698.384C377.854 698.146 377.161 697.034 377.15 695.545C377.14 694.409 377.8 693.696 378.957 693.564L378.965 693.575Z" fill="white"/>
<path d="M459.885 627.195C459.792 627.708 459.486 627.921 458.957 627.951C457.949 628 454.674 624.429 454.832 623.398C454.916 622.884 455.22 622.68 455.758 622.661C456.803 622.618 460.027 626.142 459.884 627.204L459.885 627.195Z" fill="white"/>
<path d="M564.612 431.284C563.628 431.063 562.327 430.946 562.474 429.621C562.615 428.333 563.825 427.877 565.036 427.95C566.229 428.019 566.891 428.784 566.822 429.985C566.738 431.458 565.71 431.455 564.613 431.274L564.612 431.284Z" fill="white"/>
<path d="M498.634 193.232C499.536 193.595 499.669 194.273 499.247 194.898C498.453 196.078 497.987 197.937 496.396 197.929C495.164 197.922 495.815 196.484 495.953 195.695C496.214 194.202 497.176 193.363 498.645 193.224L498.634 193.232Z" fill="white"/>
<path d="M555.627 394.633C556.616 394.757 557.376 395.039 557.205 395.852C556.902 397.24 555.824 397.845 554.456 397.776C553.541 397.733 552.998 397.193 553.237 396.196C553.578 394.755 554.871 394.92 555.627 394.633Z" fill="white"/>
<path d="M458.74 664.133C458.366 663.925 458.104 663.862 457.994 663.707C457.139 662.451 455.697 661.411 456.367 659.555C456.546 659.047 457.007 658.839 457.418 659.181C458.894 660.432 459.721 661.918 458.738 664.142L458.74 664.133Z" fill="white"/>
<path d="M383.187 272.88C382.698 273.621 382.409 274.806 381.137 274.508C380.136 274.275 379.7 273.43 380.082 272.456C380.452 271.49 381.226 270.728 382.336 270.95C383.22 271.125 383.375 271.962 383.198 272.872L383.187 272.88Z" fill="white"/>
<path d="M441.127 242.012C439.046 241.124 439.359 239.671 440.106 238.269C442.042 234.733 445.06 232.807 449.005 233.99C450.743 234.512 450.015 236.431 449.225 237.804C447.354 240.974 444.685 242.483 441.127 242.012Z" fill="white"/>
<path d="M411.908 498.256C410.309 496.32 411.27 494.766 412.63 493.269C414.94 495.303 413.485 496.794 411.908 498.256Z" fill="#D2A3A3"/>
<path d="M372.439 550.866L372.26 551.13C372.321 551.052 372.392 550.975 372.453 550.897L372.437 550.875L372.439 550.866Z" fill="#F6D4D4"/>
<path d="M200.911 530.91C200.714 530.632 200.516 530.355 200.311 530.066C200.508 530.344 200.706 530.621 200.911 530.91Z" fill="#D2A3A3"/>
<path d="M592.507 476.022C591.262 475.561 590.068 476.1 588.854 476.199C584.26 476.572 579.839 475.98 575.965 473.344C572.36 470.901 568.832 471.166 565.622 473.679C562.533 476.106 559.011 476.944 555.384 477.644C550.822 478.53 546.18 479.107 541.681 480.259C534.875 481.994 528.196 481.309 521.416 480.298C512.96 479.025 508.322 473.87 506.426 465.758C502.895 450.498 503.84 435.836 493.745 421.685C489.931 416.344 485.057 412.917 479.271 410.514C475.624 409.005 471.821 408.616 467.87 409.29C458.215 410.937 448.812 413.537 439.414 416.332C430.209 419.073 421.379 422.904 412.105 425.407C408.261 426.442 404.984 428.828 401.114 430.034C397.66 431.11 393.897 431.982 390.789 434.079C386.398 437.045 380.831 437.437 376.741 440.997C376.161 441.5 375.421 442.078 374.729 442.138C368.716 442.637 364.416 446.948 359.261 449.34C357.682 450.078 356.052 450.464 354.377 450.849C349.846 451.868 347.694 454.441 347.872 459.038C348.14 465.99 349.355 472.826 350.559 479.655C350.935 481.818 352.347 483.157 354.145 483.601C359.459 484.894 363.634 488.17 367.831 491.367C371.011 493.776 374.386 494.76 378.284 494.206C379.193 494.08 380.175 493.958 381.046 494.153C382.32 494.461 383.344 495.286 383.252 496.784C383.164 498.253 381.922 498.458 380.851 498.484C374.247 498.563 367.571 499.506 361.18 496.972C360.741 496.801 360.305 496.648 359.85 496.545C358.011 496.182 355.837 495.564 355.114 498.018C354.472 500.198 356.635 501.346 358.048 501.61C363.499 502.637 367.64 506.521 372.859 508.108C376.694 509.279 380.541 510.678 384.425 511.488C389.688 512.586 394.317 515.049 399.23 516.877C399.522 516.991 399.909 517.014 400.083 517.232C401.109 518.501 403.885 519.01 403.416 520.493C402.699 522.714 400.485 520.678 398.983 520.902C394.458 521.578 390.179 519.349 385.692 520.037C384.741 520.18 383.83 520.02 382.998 519.522C378.699 516.963 373.581 516.774 369.13 514.659C368.17 514.212 367.027 514.14 365.954 513.991C364.972 513.843 363.55 512.877 363.141 514.386C362.627 516.247 364.606 515.983 365.588 516.399C367.583 517.252 369.639 517.928 371.71 518.583C379.011 520.898 385.341 525.22 391.993 528.809C396.298 531.135 399.859 534.827 403.119 538.619C406.31 542.331 407.13 546.739 406.313 551.432C405.839 554.174 403.609 555.317 401.078 555.819C395.199 561.516 388.864 565.277 380.622 560.855C380.075 561.555 379.977 562.322 380.565 562.994C384.559 567.515 387.956 572.496 393.106 576.04C397.256 578.904 400.489 583.136 404.177 586.712C406.772 589.226 409.406 591.64 413.387 591.571C415.585 591.527 417.431 591.232 417.961 588.609C418.386 586.495 419.519 585.865 421.673 586.311C424.215 586.844 426.854 586.387 429.449 587.336C432.071 588.29 434.3 586.972 434.556 584.074C435.17 577.056 439.883 574.967 445.537 573.801C454.381 571.986 463.268 570.644 472.297 570.194C477.043 569.96 481.828 569.69 486.383 567.583C488.472 566.624 490.371 565.782 491.356 563.688C493.964 558.107 498.834 555.545 504.14 553.562C507.244 552.41 510.129 550.882 512.654 548.733C514.596 547.068 514.35 546.372 511.923 545.179C510.453 544.463 509.021 544.295 507.424 544.499C504.354 544.885 501.253 545.092 498.173 545.471C496.665 545.659 495.462 545.181 494.258 544.37C492.549 543.215 490.618 542.628 488.563 542.553C487.811 542.522 486.979 542.672 486.55 543.472C486.098 544.303 486.665 544.96 486.967 545.665C487.831 547.639 490.253 547.249 491.739 548.972C488.403 552.517 484.852 555.119 479.72 553.608C477.648 553 475.49 552.852 473.498 551.748C470.731 550.218 467.733 551.508 464.87 551.774C463.571 551.906 463.596 553.346 463.992 554.497C464.404 555.691 464.201 556.746 462.989 557.288C457.252 559.895 452.331 564.096 445.794 565.264C441.371 566.061 438.372 563.749 434.903 562.319C433.363 561.679 432.009 560.571 430.355 560.008C428.875 559.506 427.068 558.582 427.453 556.818C427.918 554.67 427.946 551.989 430.584 550.884C431.521 550.493 432.829 550.795 433.291 549.323C432.383 548.107 430.875 548.138 429.62 547.669C426.903 546.649 424.483 545.382 423.875 542.121C423.621 540.787 422.786 539.892 421.724 539.166C420.423 538.271 419.224 537.274 418.545 535.795C417.48 533.44 415.538 532.309 413.193 531.648C408.355 530.272 415.575 519.3 416.884 517.299C418.99 514.077 417.877 511.009 414.243 510.219C410.276 509.351 406.782 507.128 402.737 506.551C401.822 506.42 400.91 505.88 400.787 504.782C400.642 503.494 401.473 502.696 402.57 502.341C403.745 501.963 404.994 501.747 406.207 501.538C413.243 500.298 420.296 499.102 427.022 496.521C429.701 495.492 432.572 495.975 435.315 495.546C436.167 495.411 437.415 495.352 437.298 494.068C437.175 492.859 435.997 492.793 435.087 492.966C429.082 494.103 423.138 492.535 417.132 492.756C412.955 492.906 409.413 490.507 406.767 487.216C404.899 484.904 405.277 483.642 407.122 481.087C409.586 477.662 410.996 473.566 413.696 470.247C415.672 467.817 417.278 465.139 419.637 462.983C423.289 459.631 424.228 454.74 425.291 450.206C427.151 442.261 432.908 437.456 438.202 432.178C438.411 431.965 438.743 431.822 439.026 431.771C445.14 430.633 451.173 428.963 457.413 428.83C459.255 428.785 461.11 428.969 462.976 428.846C466.659 428.581 470.323 428.366 473.763 430.376C475.653 431.47 477.958 431.518 480.107 431.723C482.98 432.002 485.196 433.029 486.099 436.042C487.067 439.275 487.147 442.649 484.453 444.819C480.626 447.888 479.288 452.147 477.592 456.388C476.608 458.861 476.334 461.225 476.848 463.771C477.226 465.62 477.9 467.554 477.698 469.368C477.176 473.813 479.86 475.885 483.169 477.011C487.831 478.597 491.531 480.903 493.175 485.866C493.553 487.02 494.527 487.335 495.734 487.516C501.864 488.458 507.96 489.471 513.376 492.921C514.89 493.889 517.036 493.808 518.611 494.71C527.058 499.531 534.98 504.909 540.91 513.053C544.512 518.006 548.226 523.087 554.984 524.666C559.446 525.714 563.37 525.637 566.892 522.808C570.925 519.554 574.875 519.843 578.956 522.247C581.144 523.538 583.76 523.113 585.995 524.358C587.193 525.022 588.29 523.862 589.078 522.812C580.954 519.248 572.911 515.41 563.842 514.932C554.803 514.437 547.609 499.251 542.438 492.567C540.643 490.26 540.946 489.197 543.667 487.883C559.427 480.3 572.082 482.862 588.468 479.509C590.468 479.102 591.899 478.132 592.429 476.046L592.507 476.022Z" fill="white"/>
<path d="M163.152 512.285C165.568 512.234 166.462 514.083 167.355 515.697C171.993 524.021 177.275 531.904 183.127 539.382C193.466 552.587 204.51 565.097 217.993 575.201C218.53 575.603 219.093 576.018 219.525 576.53C220.274 577.416 220.304 578.428 219.566 579.324C218.756 580.305 217.932 580.062 216.921 579.416C207.745 573.571 199.386 566.766 192.213 558.513C181.031 545.658 171.12 531.965 164.186 516.26C163.654 515.058 162.912 513.889 163.151 512.295L163.152 512.285Z" fill="#D2A3A3"/>
<path d="M236.952 253.631C236.758 255.302 236.456 256.445 234.889 256.05C232.539 255.457 231.315 253.671 231.294 251.408C231.284 249.734 232.755 248.744 234.371 249.196C236.769 249.855 236.893 252.018 236.952 253.631Z" fill="white"/>
<path d="M241.559 261.343C242.364 262.367 241.468 264.331 240.173 264.382C239.051 264.425 238.089 263.335 238.262 262.218C238.468 260.893 240.732 260.292 241.559 261.343Z" fill="white"/>
<path d="M117.559 375.419C71.8983 376.618 16.1777 409.453 -33.435 396.847C-51.7789 400.004 -38.3993 386.708 -65.8305 366.618C-108.692 330.84 -118.156 285.397 -54.0182 272.691C-55.0596 279.942 -78.5052 280.743 -62.0791 286.649C-60.4788 310.932 -72.2014 294.829 -65.8182 309.68C-64.4808 345.418 -7.17095 345.387 62.1391 346.792C105.341 342.271 98.2945 283.817 30.5069 272.645C-37.2808 261.474 -28.6973 262.607 -41.2769 260.815C-50.9444 259.437 -62.771 270.642 -69.0931 261.512C-69.7691 259.278 -67.4843 255.489 -64.8842 254.421C-47.3746 254.011 -58.1338 230.418 -43.3907 224.388C-36.0458 225.364 -31.315 220.618 -23.8063 221.063C-16.6309 222.246 -11.408 216.681 -6.1082 222.601C2.79707 223.472 11.3694 226.215 20.0506 226.433C25.5933 225.117 20.3467 231.186 23.1134 233.158C22.1758 236.123 20.8085 237.071 17.1825 236.865C33.8301 240.988 41.0986 260.132 55.6436 263.693C80.8214 262.805 89.3989 269.402 79.6739 238.782C139.894 290.673 141.416 313.58 117.559 375.419Z" fill="#F6D4D4"/>
<path d="M85.5938 244.042C88.4157 250.277 84.3224 251.47 84.4691 258.399C84.5992 264.533 82.8802 266.332 76.8388 265.219C69.611 263.882 62.4144 263.009 55.1104 264.651C52.0478 265.339 49.3524 264.005 47.5913 261.759C39.4688 251.462 29.6256 243.453 17.7255 238.01C17.3375 237.829 17.0278 237.465 16.521 237.059C19.2689 236.455 9.82396 227.27 11.2814 224.87C16.1701 223.935 20.1664 223.474 24.8644 221.979C41.839 220.373 49.0962 223.166 59.2882 225.738C65.2094 227.232 72.3193 231.263 77.8428 236.027C80.1366 238.005 84.5686 243.003 85.5938 244.042Z" fill="white"/>
<path d="M134.43 387.967C134.476 388.16 134.543 388.348 134.549 388.545C134.548 388.613 134.4 388.687 134.32 388.762C134.363 388.495 134.396 388.235 134.43 387.967Z" fill="#F6D4D4"/>
<path d="M365.19 309.622C362.138 307.967 365.199 303.589 366.119 300.728C366.355 299.994 366.985 299.404 367.934 299.472C368.905 299.534 369.183 300.275 369.53 301.007C371.146 304.383 368.487 311.41 365.19 309.622Z" fill="white"/>
<path d="M364.566 320.105C364.853 318.636 365.127 317.126 366.939 317.386C369.265 317.711 370.071 318.326 370.434 319.999C370.897 322.132 368.144 324.255 366.539 323.981C364.452 323.618 364.332 321.788 364.566 320.105Z" fill="white"/>
<path d="M350.8 319.07C352.291 322.241 348.491 321.629 347.162 321.332C344.595 320.752 344.418 319.021 344.384 317.45C344.362 316.615 345.341 314.98 346.57 315.408C348.493 316.077 349.309 315.9 350.8 319.07Z" fill="white"/>
<path d="M375.268 344.509L375.512 344.442L375.453 344.687L375.268 344.509Z" fill="white"/>
<path d="M59.1254 346.74C57.9734 349.444 -33.2748 350.848 -35.4963 350.927C-37.7178 351.006 -72.0591 347.227 -70.8308 330.05C-69.1388 318.498 -41.3092 341.737 -5.8207 344.183C29.6678 346.629 54.9361 346.569 59.1254 346.74Z" fill="#D2A3A3"/>
<path d="M58.798 274.795C60.3834 275.672 62.1465 276.471 63.7103 277.541C72.0853 283.293 79.9316 289.73 87.3715 296.638C91.5138 300.48 94.4097 305.124 94.379 311.172C94.3726 313.245 89.279 315.684 88.6954 315.288C87.8541 311.246 85.9616 306.519 83.5589 303.022C76.846 293.251 67.913 286.273 57.5768 280.882C55.0129 279.637 54.6576 279.491 54.9459 277.417C55.1694 275.801 56.2052 275.101 57.6643 274.843C57.9933 274.789 58.3303 274.806 58.8011 274.776L58.798 274.795Z" fill="#D2A3A3"/>
<path d="M104.954 289.921L104.635 290.152C104.654 290.097 104.658 290.009 104.712 289.979C104.778 289.931 104.875 289.928 104.956 289.911L104.954 289.921Z" fill="#D2A3A3"/>
<path d="M130.705 312.79C130.379 299.074 125.083 289.331 123.779 286.339L122.578 282.043L130.524 282.614L134.023 286.8C134.023 286.8 139.568 288.4 142.798 288.879C146.198 289.383 151.359 289.636 151.359 289.636L151.584 309.031C143.861 314.933 131.032 326.507 130.705 312.79Z" fill="#D2A3A3"/>
<path d="M390.918 435.446C391.21 433.287 391.522 431.125 391.803 428.957C391.991 427.565 391.984 426.267 390.485 425.486C389.217 424.835 388.512 423.744 388.423 422.239C388.369 421.204 388.194 420.057 386.884 420.045C385.459 420.048 384.497 421.411 384.798 422.394C385.656 425.11 383.932 424.735 382.487 424.741C381.667 424.746 380.845 424.395 380.031 424.37C374.745 424.181 371.311 429.34 373.291 434.452C373.319 434.527 373.851 434.4 374.159 434.361C379.748 434.719 385.495 432.687 390.916 435.426L390.918 435.446Z" fill="white"/>
<path d="M390.914 435.445C385.493 432.705 379.746 434.737 374.157 434.379C372.226 436.886 373.743 439.063 375.049 440.949C376.157 442.553 377.811 443.829 379.422 444.982C384.769 448.832 390.241 446.21 390.978 439.462C391.125 438.145 390.947 436.799 390.916 435.464L390.914 435.445Z" fill="#D7D3CD"/>
<path d="M421.515 418.561C419.502 416.894 417.277 417.079 415.838 419.037C414.086 421.403 414.654 425.555 416.951 427.304C419.053 428.9 421.617 428.613 423.186 426.598C424.964 424.289 424.241 420.812 421.515 418.561Z" fill="white"/>
<path d="M303.788 654.979C304.162 650.967 297.386 645.625 292.502 648.762C273.095 672.45 297.32 661.21 302.74 660.6C302.74 660.6 303.414 658.99 303.788 654.979Z" fill="white"/>
<path d="M300.155 657.871C294.734 655.131 287.027 653.33 285.372 659.761C284.728 662.265 284.958 664.445 286.264 666.331C287.372 667.935 289.026 669.211 290.637 670.364C295.984 674.214 301.456 671.592 302.193 664.844C302.34 663.527 302.745 660.259 302.745 660.259C302.715 658.925 300.155 657.871 300.155 657.871Z" fill="#D7D3CD"/>
<path d="M333.841 644.719C331.828 643.052 329.604 643.236 328.165 645.195C326.413 647.56 326.98 651.712 329.277 653.462C331.379 655.058 333.943 654.77 335.512 652.756C337.291 650.446 336.568 646.969 333.841 644.719Z" fill="white"/>
</svg>
