<svg width="1440" height="250" viewBox="0 0 1440 250" fill="none" xmlns="http://www.w3.org/2000/svg">
<path fill-rule="evenodd" clip-rule="evenodd" d="M773.115 318.372C777.191 342.364 828.213 350.939 834.431 374.661C839.787 395.091 824.814 418.698 803.201 433.139C781.154 447.87 745.716 444.08 717.994 452.46C692.963 460.027 673.366 484.129 647.063 480.34C616.126 475.884 613.228 435.53 581.835 432.848C544.927 429.695 509.554 481.909 480.126 466.078C449.923 449.831 500.822 411.885 493.356 385.25C489.095 370.045 458.823 366.09 448.322 352.607C437.04 338.123 431.387 321.463 430.656 304.75C429.879 286.976 429.462 267.187 443.941 252.45C458.589 237.541 490.7 237.406 509.178 224.828C529.434 211.04 529.143 179.997 556.355 175.929C585.483 171.575 606.134 197.077 632.404 206.406C650.116 212.697 667.002 221.789 686.944 222.307C719.599 223.155 753.494 200.985 783.158 210.322C807.847 218.094 817.221 243.346 815.417 262.747C813.461 283.797 769.572 297.52 773.115 318.372Z" fill="#260981"/>
<path fill-rule="evenodd" clip-rule="evenodd" d="M1054.54 286.944C1058.61 310.936 1109.63 319.511 1115.85 343.233C1121.21 363.663 1106.24 387.27 1084.62 401.711C1062.58 416.442 1027.14 412.652 999.416 421.032C974.384 428.599 954.788 452.701 928.485 448.913C897.548 444.456 894.65 404.102 863.257 401.42C826.349 398.267 790.976 450.482 761.548 434.651C731.345 418.403 782.244 380.458 774.778 353.823C770.517 338.618 740.245 334.662 729.744 321.18C718.462 306.695 712.809 290.036 712.078 273.322C711.301 255.548 710.884 235.759 725.363 221.022C740.011 206.113 772.122 205.978 790.6 193.401C810.856 179.612 810.565 148.57 837.776 144.501C866.905 140.147 887.556 165.649 913.826 174.979C931.538 181.269 948.424 190.361 968.366 190.879C1001.02 191.728 1034.92 169.557 1064.58 178.895C1089.27 186.666 1098.64 211.918 1096.84 231.319C1094.88 252.369 1050.99 266.092 1054.54 286.944Z" fill="#260981"/>
<path fill-rule="evenodd" clip-rule="evenodd" d="M-47.4689 278.068C-68.5492 290.227 -58.859 341.049 -78.9415 355.123C-96.2377 367.245 -123.577 361.408 -144.628 346.161C-166.103 330.607 -174.863 296.06 -192.355 272.978C-208.149 252.136 -237.559 242.136 -243.147 216.156C-249.719 185.599 -212.886 168.858 -221.281 138.49C-231.15 102.786 -292.403 87.7621 -287.785 54.667C-283.045 20.7001 -229.777 55.2407 -207.396 38.9847C-194.62 29.7047 -201.43 -0.0552642 -192.438 -14.587C-182.776 -30.199 -169.119 -41.289 -153.701 -47.7823C-137.305 -54.6876 -118.895 -61.9553 -100.044 -53.4995C-80.9742 -44.9457 -69.6889 -14.8824 -51.4739 -1.92715C-31.5053 12.2753 -2.49889 1.21465 10.7718 25.3167C24.9772 51.1165 8.24056 79.3429 8.62131 107.217C8.87802 126.011 6.22057 145.005 12.6645 163.884C23.2171 194.799 55.7841 218.877 57.3371 249.937C58.6296 275.788 38.2088 293.353 19.3904 298.404C-1.02807 303.884 -29.1471 267.499 -47.4689 278.068Z" fill="#260981"/>
<path d="M1230.16 220.051C1197.35 246.863 1176.64 179.517 1151.21 145.624C1128.66 115.565 1062.33 81.6689 1105.76 60.8111C1149.19 39.9532 1179.01 -0.0759601 1212.57 31.56C1230.52 48.4787 1220.11 91.9339 1223.65 130.75C1226.83 165.572 1257.24 197.924 1230.16 220.051Z" fill="#260981"/>
<path d="M1517.21 -11.2486C1585.87 1.83511 1522.65 99.3566 1506.73 167.41C1492.62 227.764 1520.02 347.543 1447.65 314.719C1375.27 281.895 1293.07 286.592 1297.52 210.652C1299.91 170.04 1365.87 137.169 1411.2 91.5767C1451.87 50.6749 1460.56 -22.0458 1517.21 -11.2486Z" fill="#260981"/>
<path d="M1070.71 144.47C1060.16 152.546 1018.97 155.119 1010.82 144.47C1002.67 133.821 1004.62 118.641 1015.17 110.565C1025.72 102.489 1062.56 89.0773 1070.71 99.7266C1078.87 110.376 1081.26 136.394 1070.71 144.47Z" fill="#260981"/>
<path d="M1313.92 138.76C1303.37 146.836 1262.18 149.409 1254.03 138.76C1245.88 128.11 1231.24 109.387 1254.03 79.6366C1276.81 49.8863 1268.22 27.181 1295.82 17.5901C1341.01 1.88274 1491.33 70.9117 1313.92 138.76Z" fill="#260981"/>
</svg>
