<svg width="1440" height="250" viewBox="0 0 1440 250" fill="none" xmlns="http://www.w3.org/2000/svg">
<g clip-path="url(#clip0_75_2768)">
<rect width="1440" height="250" fill="#F7D5D5"/>
<path fill-rule="evenodd" clip-rule="evenodd" d="M773.115 318.372C777.191 342.364 828.213 350.939 834.431 374.661C839.787 395.091 824.814 418.698 803.201 433.139C781.154 447.87 745.716 444.08 717.994 452.46C692.962 460.027 673.366 484.129 647.063 480.34C616.126 475.884 613.228 435.53 581.835 432.848C544.927 429.695 509.554 481.909 480.126 466.078C449.923 449.831 500.822 411.885 493.356 385.25C489.095 370.045 458.823 366.09 448.322 352.607C437.04 338.123 431.387 321.463 430.656 304.75C429.879 286.976 429.462 267.187 443.941 252.45C458.589 237.541 490.7 237.406 509.178 224.828C529.434 211.04 529.143 179.997 556.354 175.929C585.483 171.575 606.134 197.077 632.404 206.406C650.116 212.697 667.002 221.789 686.944 222.307C719.599 223.155 753.494 200.985 783.158 210.322C807.847 218.094 817.221 243.346 815.417 262.747C813.461 283.797 769.572 297.52 773.115 318.372Z" fill="#260981"/>
<path fill-rule="evenodd" clip-rule="evenodd" d="M1054.54 286.942C1058.61 310.934 1109.63 319.509 1115.85 343.231C1121.21 363.662 1106.24 387.268 1084.62 401.709C1062.58 416.44 1027.14 412.65 999.416 421.03C974.384 428.598 954.788 452.699 928.484 448.911C897.548 444.454 894.65 404.1 863.257 401.418C826.349 398.265 790.976 450.48 761.548 434.649C731.345 418.401 782.244 380.456 774.778 353.821C770.516 338.616 740.244 334.66 729.743 321.178C718.462 306.693 712.809 290.034 712.078 273.32C711.301 255.546 710.884 235.758 725.363 221.02C740.011 206.111 772.122 205.976 790.6 193.399C810.856 179.61 810.565 148.568 837.776 144.5C866.905 140.145 887.556 165.647 913.825 174.977C931.538 181.267 948.424 190.359 968.365 190.877C1001.02 191.726 1034.92 169.555 1064.58 178.893C1089.27 186.664 1098.64 211.916 1096.84 231.317C1094.88 252.367 1050.99 266.09 1054.54 286.942Z" fill="#260981"/>
<path fill-rule="evenodd" clip-rule="evenodd" d="M-47.4689 278.067C-68.5491 290.226 -58.859 341.048 -78.9415 355.122C-96.2377 367.244 -123.577 361.407 -144.628 346.16C-166.103 330.606 -174.863 296.059 -192.355 272.977C-208.149 252.135 -237.559 242.135 -243.147 216.155C-249.719 185.598 -212.886 168.857 -221.281 138.489C-231.15 102.785 -292.403 87.7611 -287.785 54.666C-283.045 20.6992 -229.777 55.2397 -207.396 38.9837C-194.62 29.7037 -201.43 -0.0562744 -192.437 -14.588C-182.776 -30.2 -169.119 -41.29 -153.701 -47.7833C-137.305 -54.6887 -118.895 -61.9563 -100.044 -53.5006C-80.9742 -44.9468 -34.2787 -42.7084 -16.0637 -29.7532C3.90494 -15.5507 -4.8326 3.85416 10.7718 25.3157C29.5874 51.1937 8.24062 79.3418 8.62137 107.216C8.87808 126.01 6.22063 145.004 12.6646 163.883C23.2172 194.798 55.7842 218.876 57.3371 249.936C58.6297 275.787 38.2089 293.352 19.3905 298.403C-1.02805 303.883 -29.1471 267.498 -47.4689 278.067Z" fill="#260981"/>
<path d="M1230.16 220.051C1197.35 246.863 1176.64 179.517 1151.21 145.624C1128.66 115.565 1062.33 81.6689 1105.76 60.8111C1149.19 39.9532 1179.01 -0.0759601 1212.57 31.56C1230.52 48.4787 1220.11 91.9339 1223.65 130.75C1226.83 165.572 1257.24 197.924 1230.16 220.051Z" fill="#260981"/>
<path d="M1517.21 -11.2506C1585.87 1.83316 1522.65 99.3546 1506.73 167.408C1492.62 227.762 1520.02 347.541 1447.65 314.717C1375.27 281.893 1293.07 286.591 1297.52 210.65C1299.91 170.038 1365.87 137.167 1411.2 91.5748C1451.87 50.6729 1460.56 -22.0477 1517.21 -11.2506Z" fill="#260981"/>
<path d="M1070.71 144.47C1060.16 152.546 1018.97 155.119 1010.82 144.47C1002.67 133.821 1004.62 118.641 1015.17 110.565C1025.72 102.489 1062.56 89.0773 1070.71 99.7266C1078.87 110.376 1081.26 136.394 1070.71 144.47Z" fill="#260981"/>
<path d="M1313.92 138.76C1303.37 146.836 1262.18 149.409 1254.03 138.76C1245.88 128.11 1231.24 109.387 1254.03 79.6366C1276.81 49.8863 1268.22 27.181 1295.82 17.5901C1341.01 1.88274 1491.33 70.9117 1313.92 138.76Z" fill="#260981"/>
</g>
<defs>
<clipPath id="clip0_75_2768">
<rect width="1440" height="250" fill="white"/>
</clipPath>
</defs>
</svg>
